<?xml version="1.0" standalone="no"?>
<!DOCTYPE svg PUBLIC "-//W3C//DTD SVG 20010904//EN"
 "http://www.w3.org/TR/2001/REC-SVG-20010904/DTD/svg10.dtd">
<svg version="1.0" xmlns="http://www.w3.org/2000/svg"
 width="54.000000pt" height="60.000000pt" viewBox="0 0 54.000000 60.000000"
 preserveAspectRatio="xMidYMid meet">
<metadata>
Created by potrace 1.10, written by Peter Selinger 2001-2011
</metadata>
<g transform="translate(0.000000,60.000000) scale(0.100000,-0.100000)"
fill="#ac3131" stroke="none">
<path d="M157 543 c-8 -10 -17 -29 -19 -43 -3 -23 -8 -25 -60 -28 -38 -2 -58
-8 -62 -17 -8 -21 3 -42 23 -48 17 -4 18 -16 13 -165 -5 -153 -4 -161 17 -191
l22 -31 168 0 c165 0 168 0 191 25 22 24 23 27 18 191 -4 154 -3 167 13 171
21 6 35 41 22 53 -4 5 -33 10 -63 12 -50 3 -55 5 -58 28 -7 50 -27 60 -122 60
-70 0 -90 -3 -103 -17z m166 -41 c24 -26 13 -32 -63 -32 -76 0 -87 6 -63 32
22 25 104 25 126 0z m87 -246 c0 -85 -3 -161 -6 -170 -9 -24 -279 -24 -288 0
-3 9 -6 85 -6 170 l0 154 150 0 150 0 0 -154z"/>
<path d="M197 332 c-13 -14 -17 -37 -17 -89 0 -84 6 -103 31 -103 21 0 21 -4
21 108 0 92 -9 113 -35 84z"/>
<path d="M293 329 c-5 -13 -7 -61 -5 -107 3 -79 5 -83 25 -80 20 3 22 9 25 89
2 75 0 87 -17 103 -20 18 -21 18 -28 -5z"/>
</g>
</svg>
