<svg xmlns="http://www.w3.org/2000/svg" width="395" height="242" fill="none" viewBox="0 0 395 242">
    <path fill="#FFCB05" d="M134.465 47.72l-14.358.608-5.396 11.567 4.903 2.914 8.125-5.22 6.726-9.868zM220.064 146.814l-10.44 2.131-27.315 21.848-21.145 19.666 1.611 9.076h54.939l1.619-8.028 1.391-9.789 8.425-14.604.202-14.428-9.287-5.872zM86.48 169.544l-20 1.214-24.507 41.788 1.628 6.399 13.469 1.805 47.57-.37v-5.273l1.787-7.702 26.787-45.995 9.692-18.222-2.077-5.062-4.226-.158-13.864 11.047-18.099 12.14-12.324 6.162-5.836 2.227zM83.17 102.482l3.31 5.634-7.527 16.576-16.338 33.953 3.688 10.678-42.254.537-15.634-.317-5.88-9.939 4.586-11.743 17.826-33.671 35.511.132 4.085-.563 5.255-6.77 9.401-4.507h3.97z"/>
    <path fill="#FFCB05" d="M80.52 2.712l-12.624.563-15.493 13.31L33.477 39.43 12.588 75.248l-9.815 25.405-.238 9.586 5.3 3.952 22.825.353 22.668-.353v-7.209l3.53-13.099 14.208-28.398 21.038-30.264 26.347-26.98 3.724-4.182L80.52 2.712z"/>
    <path fill="#00F" d="M209.623 146.761l-56.884 1.179-23.574 20.678-25.282 44.719 2.922 6.831 14.419-2.271 31.752-20.59 40.036-35.978 16.611-14.568zM77.705 137.607l-6.127.925-7.914 15.431.255 10.027 8.874 5.554 16.575-1.329 18.214-8.997 19.771-14.181 6.892-7.025-56.54-.405zM62.599 101.762l-8.345 1.1v9.393l5.035 1.936 8.847-5.581 4.982-5.942-10.519-.906zM136.323 3.274l-13.46 1.189L97.3 29.049 76.692 56.373l-3.133 6.145 16.126.405 26.911-.309-2.113-4.77 13.838-21.383 15.37-23.61-1.276-7.209-6.092-2.368z"/>
    <path fill="#00F" d="M293.224 209.65H161.498c-.409 0-.801-.162-1.09-.451-.289-.289-.451-.681-.451-1.09v-99.991c0-.409.162-.801.451-1.09.289-.289.681-.451 1.09-.451h131.726c.408 0 .8.162 1.089.451.289.289.451.681.451 1.09v99.974c.001.203-.038.405-.114.593-.077.189-.19.36-.333.505-.144.145-.314.26-.501.339-.188.079-.389.12-.592.121zm-130.177-3.099h128.636v-96.893H163.047v96.893zM64.165 2.923c-9.135 8.118-17.56 17-25.186 26.549C23.683 48.563 11.703 70.09 3.54 93.152c-1.03 2.914-2.095 5.854-2.878 8.803-.784 2.949-1.127 6.285.449 9.084 2.71 4.815 9.031 5.071 13.908 5.097 12.931.088 25.863-.079 38.794-.044h4.499c2.13 0 2.13-3.283 0-3.301-12.544-.088-25.089.062-37.633.053-2.781 0-5.572.053-8.354-.079-2.244-.097-4.674-.379-6.62-1.602-2.394-1.506-2.702-4.305-2.2-6.884.657-2.862 1.513-5.674 2.562-8.416 12.014-34.918 32.832-66.147 60.44-90.67 1.585-1.408-.757-3.74-2.341-2.332v.062z"/>
    <path fill="#00F" d="M124.605 1.47c-14.894 10.563-27.483 24.296-38.53 38.732C74.033 55.96 63.619 73.231 56.383 91.734c-1.72 4.094-3.14 8.307-4.252 12.606-.517 1.934-.583 3.961-.194 5.924.287 1.125.8 2.179 1.506 3.099.707.92 1.593 1.687 2.605 2.253 1.822 1.101 3.521-1.76 1.664-2.852-3.107-1.866-3.055-5.176-2.2-8.336 1.03-3.685 2.253-7.313 3.661-10.871 3.383-8.672 7.42-17.073 12.078-25.133 9.432-16.588 20.88-31.945 34.085-45.722 6.376-6.77 13.376-12.923 20.906-18.38 1.761-1.224.08-4.085-1.663-2.852h.026zM22.854 114.578L9.06 141.498l-3.52 6.831c-1.113 1.984-2.087 4.043-2.915 6.162-1.1 3.169-1.329 7.236.132 10.325.728 1.677 1.86 3.147 3.294 4.279 1.435 1.133 3.128 1.891 4.928 2.209 3.636.581 7.439.273 11.11.246l25.017-.228 27.465-.238c2.122 0 2.122-3.319 0-3.301-15.774.123-31.55.264-47.324.422l-10.977.088c-1.738.086-3.48-.023-5.194-.325-1.627-.322-3.074-1.246-4.05-2.588-.842-.991-1.444-2.163-1.76-3.425-.27-1.587-.24-3.212.088-4.788.46-1.948 1.21-3.814 2.227-5.537 1.118-2.166 2.228-4.349 3.346-6.523l14.788-28.874c.96-1.884-1.884-3.521-2.852-1.663l-.009.008z"/>
    <path fill="#00F" d="M83.75 111.938c-3.758 7.341-7.676 14.612-11.558 21.892-1.927 3.618-3.802 7.272-5.765 10.881-1.7 3.134-3.575 6.232-4.657 9.683-1.215 3.847-1.11 7.922 1.347 11.285.231.368.594.633 1.014.743.42.109.867.055 1.248-.153.375-.222.648-.583.758-1.005.11-.422.05-.871-.168-1.249-4.243-5.783.66-12.685 3.52-17.94 3.663-6.813 7.272-13.671 10.908-20.51 2.106-3.968 4.187-7.947 6.24-11.937.97-1.884-1.883-3.521-2.851-1.664l-.035-.026zM66.348 167.783l-14.085 23.345-7.042 11.673c-2.033 3.362-4.613 6.848-5.106 10.854-.235 1.709.142 3.447 1.065 4.906.923 1.458 2.333 2.542 3.98 3.06 3.424 1.233 7.447.775 11.003.749l24.42-.177 27.992-.193c2.122 0 2.13-3.31 0-3.301-15.546.1-31.097.211-46.655.334-3.909 0-7.835.159-11.743.053-2.597-.062-6.32-.493-6.822-3.662-.537-3.451 2.341-7.042 4.005-9.824l6.708-11.109L69.2 169.456c1.1-1.823-1.76-3.522-2.852-1.673z"/>
    <path fill="#00F" d="M124.068 174.182c-3.381 5.599-6.673 11.25-9.948 16.902-1.531 2.658-3.075 5.299-4.63 7.923-1.761 3.019-3.724 5.985-5.379 9.084-1.654 3.099-2.984 7.157-.88 10.511 1.118 1.76 3.979.141 2.852-1.664-1.584-2.544 0-5.669 1.338-7.975 1.655-2.897 3.433-5.731 5.124-8.61 2.905-4.938 5.748-9.912 8.635-14.85 1.89-3.24 3.806-6.467 5.749-9.683 1.1-1.822-1.761-3.521-2.844-1.673l-.017.035zM66.507 5.255c1.584-1.443 3.89-1.76 5.95-1.857 2.642-.14 5.38.053 8.064.115 6.435.167 12.87.299 19.305.448l18.864.432 9.683.22c2.68-.04 5.36.066 8.029.317 1.866.246 4.102.774 5.325 2.341 1.603 2.043.731 4.78-.343 6.849-1.454 2.536-3.056 4.985-4.797 7.333-1.761 2.588-3.522 5.182-5.282 7.782-3.592 5.281-7.183 10.563-10.836 15.783-1.585 2.254-3.293 4.401-4.877 6.664-1.61 2.083-2.596 4.58-2.844 7.2-.036.708.067 1.415.303 2.082.237.667.603 1.281 1.077 1.807s1.047.953 1.687 1.257c.639.304 1.332.479 2.039.515 2.808.281 5.528-1.162 7.676-2.808 4.723-3.567 8.668-8.06 11.594-13.205.142-.251.216-.535.215-.824-.001-.29-.077-.573-.221-.823-.144-.25-.351-.46-.6-.606-.249-.146-.532-.225-.821-.23l-15.07-.131c-2.13 0-2.13 3.283 0 3.301l15.026.14-1.426-2.49c-2.632 4.551-6.099 8.565-10.22 11.83-1.619 1.339-3.855 2.818-6.074 2.536-2.746-.352-1.945-3.521-1.135-5.282 1.074-2.324 2.834-4.252 4.331-6.303 1.84-2.509 3.583-5.097 5.343-7.65 3.521-5.158 7.042-10.343 10.564-15.51 1.76-2.64 3.609-5.282 5.396-7.923 1.635-2.179 2.763-4.696 3.301-7.368.198-1.192.116-2.414-.24-3.57-.356-1.154-.976-2.21-1.811-3.085-1.623-1.454-3.643-2.392-5.801-2.693-2.567-.358-5.156-.523-7.747-.493l-9.683-.22-18.865-.432C94.438.546 87.299.405 80.151.211c-5.193-.14-11.787-1.109-15.977 2.72-1.567 1.435.775 3.768 2.342 2.333l-.009-.009zM54.835 115.001c1.213.649 2.562 1.005 3.938 1.038 1.376.034 2.74-.255 3.984-.845 2.844-1.355 4.974-3.899 7.175-6.065 1.99-1.954 4.137-4.005 6.751-5.079 2.228-.924 5.573-1.012 7.316.968 1.743 1.981.422 5.282-.44 7.351-.112.421-.053.869.163 1.248.215.378.57.657.99.776.422.107.87.047 1.248-.168.379-.215.66-.568.785-.985 1.039-2.491 1.875-5.458 1.004-8.134-1.03-3.151-4.234-4.709-7.36-4.965-6.434-.528-11.25 5.203-15.396 9.252-1.382 1.347-2.922 2.764-4.832 3.293-1.255.232-2.552.043-3.689-.537-1.901-.951-3.574 1.901-1.664 2.852h.027z"/>
    <path fill="#00F" d="M63.37 166.014c4.156 4.806 11.744 5.475 17.607 5.15 7.922-.432 15.185-3.117 22.007-7.043 7.87-4.595 14.965-10.44 22.218-15.942l5.907-4.489c1.649-1.419 3.416-2.694 5.282-3.812 1.435-.748 3.521-1.039 4.401.608.88 1.646.326 3.609-.449 5.185-1.162 2.385-2.641 4.656-3.943 6.963l-4.129 7.2-8.257 14.384c-1.065 1.849 1.76 3.521 2.843 1.673l15.115-26.321c1.998-3.477 4.023-7.984 1.082-11.584-.657-.764-1.501-1.345-2.45-1.684-.95-.34-1.97-.427-2.963-.253-2.157.299-3.935 1.523-5.634 2.808-7.764 5.889-15.405 11.981-23.354 17.606-6.858 4.859-14.296 9.278-22.659 10.836-3.819.751-7.734.878-11.593.379-3.187-.449-6.576-1.453-8.75-3.962-1.391-1.611-3.715.731-2.333 2.333l.053-.035zM103.187 218.637c1.611 3.812 7.042 3.847 10.493 3.31 3.482-.662 6.859-1.796 10.035-3.371 7.922-3.662 15.211-8.645 22.209-13.803 5.634-4.147 11.136-8.513 16.383-13.143 6.655-5.88 13.019-12.095 19.507-18.152 3.987-3.714 8.002-7.412 12.113-10.994 3.158-2.855 6.483-5.521 9.956-7.985 1.76-1.188.096-4.049-1.664-2.852-6.91 4.727-13.099 10.564-19.243 16.25-6.699 6.162-13.257 12.518-19.983 18.671-4.762 4.402-9.736 8.504-14.868 12.439-6.684 5.279-13.762 10.04-21.171 14.243-3.584 2.079-7.402 3.727-11.373 4.912-1.501.462-3.06.714-4.63.748-1.682 0-4.129-.185-4.868-1.937-.224-.375-.586-.649-1.009-.76-.423-.112-.873-.054-1.254.162-.369.23-.636.592-.746 1.013-.109.421-.053.868.157 1.249h-.044z"/>
    <path fill="#00F" d="M203.911 154.499c4.63-3.398 10.167-6.875 16.171-6.03 2.588.212 4.991 1.427 6.697 3.385 1.705 1.959 2.578 4.506 2.431 7.099.053 6.162-3.415 11.347-6.584 16.321-1.587 2.228-2.922 4.625-3.979 7.148-.65 2.063-1.023 4.203-1.109 6.364-.134 3.507-.087 7.018.141 10.52.07 2.121 3.371 2.13 3.301 0-.097-3.205-.361-6.365-.203-9.578.042-2.181.398-4.346 1.057-6.426.493-1.198 1.103-2.345 1.822-3.424.88-1.488 1.831-2.94 2.755-4.402 3.336-5.281 6.514-11.056 6.065-17.509-.126-2.93-1.212-5.737-3.09-7.99-1.879-2.252-4.446-3.824-7.306-4.474-7.298-1.717-14.129 1.954-19.833 6.162-.367.231-.633.594-.743 1.014-.109.42-.054.867.153 1.248.222.375.584.648 1.006.758.422.111.87.05 1.248-.168v-.018zM139.146 139.147H72.068c-.409 0-.8-.162-1.09-.451-.288-.289-.45-.681-.45-1.089 0-.409.162-.8.45-1.089.29-.289.681-.452 1.09-.452h67.078c.408 0 .8.163 1.089.452.289.289.451.68.451 1.089 0 .408-.162.8-.451 1.089-.289.289-.681.451-1.089.451zM80.67 103.363H54.587c-.408 0-.8-.162-1.089-.451-.289-.289-.451-.681-.451-1.089 0-.409.162-.801.451-1.09.289-.288.68-.451 1.09-.451H80.67c.409 0 .8.163 1.09.451.288.289.45.681.45 1.09 0 .408-.161.8-.45 1.089-.29.289-.681.451-1.09.451zM118.454 64.464H72.591c-.408 0-.8-.162-1.089-.451-.289-.29-.451-.681-.451-1.09 0-.408.162-.8.451-1.089.289-.289.68-.451 1.09-.451h45.862c.409 0 .801.162 1.089.451.289.289.452.68.452 1.09 0 .408-.163.8-.452 1.089-.288.288-.68.45-1.089.45z"/>
    <path fill="#00F" d="M132.176 167.343c3.706-3.284 7.28-6.699 10.862-10.115 3.583-3.415 7.289-7.412 12.439-8.275 1.333-.172 2.679-.233 4.023-.184h6.162l19.841-.141 20.934-.15c3.679 0 7.394.088 11.065-.079h.167c2.121 0 2.13-3.319 0-3.301l-9.278.061-20.581.15-20.608.15c-3.23 0-6.461 0-9.683.07-2.863.033-5.674.777-8.178 2.166-2.283 1.429-4.392 3.119-6.285 5.035-3.222 2.94-6.294 6.039-9.516 8.988-1.232 1.117-2.465 2.235-3.715 3.336-1.593 1.408.748 3.732 2.333 2.333l.018-.044zM293.224 122.669H161.498c-.409 0-.801-.162-1.09-.451-.289-.289-.451-.681-.451-1.09 0-.408.162-.8.451-1.089.289-.289.681-.451 1.09-.451h131.726c.408 0 .8.162 1.089.451.289.289.451.681.451 1.089 0 .409-.162.801-.451 1.09-.289.289-.681.451-1.089.451zM293.224 196.516H219.06c-.409 0-.8-.163-1.089-.452-.289-.289-.451-.68-.451-1.089 0-.408.162-.8.451-1.089.289-.289.68-.451 1.089-.451h74.164c.409 0 .801.162 1.089.451.289.289.452.681.452 1.089 0 .409-.163.8-.452 1.089-.288.289-.68.452-1.089.452zM219.332 201.075h-57.834c-.409 0-.801-.162-1.09-.451-.289-.289-.451-.681-.451-1.089 0-.409.162-.801.451-1.09.289-.289.681-.451 1.09-.451h57.834c.409 0 .801.162 1.09.451.289.289.451.681.451 1.09 0 .408-.162.8-.451 1.089-.289.289-.681.451-1.09.451z"/>
    <path fill="#00F" d="M299.624 215.811h-51.99c-.408 0-.8-.162-1.089-.451-.289-.289-.451-.681-.451-1.089 0-.409.162-.801.451-1.09.289-.288.681-.451 1.089-.451h50.449V109.816c0-.409.163-.8.452-1.089.289-.289.68-.452 1.089-.452.409 0 .8.163 1.089.452.289.289.451.68.451 1.089v104.446c.002.203-.037.404-.114.592-.077.188-.19.359-.334.503-.143.144-.313.258-.5.336-.188.078-.389.118-.592.118z"/>
    <path fill="#00F" d="M239.965 209.896c0 7.72.669 15.572 5.634 21.866 1.958 2.623 4.518 4.736 7.465 6.162 2.476.9 5.065 1.457 7.693 1.655 1.268.167 2.535.29 3.794.493.449.07.881.15 1.347.264.141 0 .581.097.387.114-.193.018-.052-.088 0 0 .053.088.097.062 0 0-.169-.114-.306-.271-.396-.455-.089-.184-.129-.388-.114-.592.013.435.192.848.499 1.155.308.308.721.487 1.156.5.437-.003.856-.178 1.164-.488.309-.31.482-.73.482-1.167-.22-2.086-2.509-2.333-4.19-2.571-2.518-.36-5.062-.572-7.544-1.1-2.658-.55-5.102-1.852-7.043-3.75-2.582-2.403-4.493-5.437-5.545-8.803-1.338-4.296-1.444-8.803-1.453-13.283-.03-.417-.217-.807-.524-1.092-.306-.284-.708-.443-1.126-.443-.418 0-.821.159-1.127.443-.306.285-.493.675-.524 1.092h-.035zM211.154 209.896c0 7.658-.616 15.581-6.258 21.355-1.872 2.048-4.267 3.546-6.928 4.331-2.513.613-5.062 1.066-7.632 1.356-1.365.185-4.877.141-5.229 2.007-.388 2.077 2.799 2.967 3.186.88.801-4.304-1.029 1.312-.625.881-.044.052-.413.088-.193.079.118-.019.233-.051.343-.097.387-.079.766-.15 1.153-.211 1.101-.176 2.21-.308 3.31-.467 2.584-.281 5.138-.791 7.632-1.523 6.453-2.112 11.268-8.468 13.134-14.78 1.312-4.454 1.444-9.172 1.453-13.785 0-2.13-3.293-2.13-3.301 0l-.045-.026z"/>
    <path fill="#00F" d="M352.311 241.965c-.115.013-.23.013-.344 0-5.59-.431-165.406-.167-249.499 0-.467 0-.915-.186-1.245-.516-.33-.33-.516-.778-.516-1.245 0-.467.186-.914.516-1.245.33-.33.778-.515 1.245-.515.625 0 63.028-.15 124.701-.22 36.224 0 65.141-.053 85.863 0 12.324 0 21.875.044 28.389.088 11.523.061 11.523.061 12.14.686.244.247.411.56.478.9.067.341.033.694-.1 1.014-.133.321-.357.596-.645.789-.289.194-.628.298-.975.299l-.008-.035zM383.63 211.357h-35.722c-.409 0-.801-.162-1.09-.451-.289-.289-.451-.681-.451-1.089 0-.409.162-.801.451-1.089.289-.289.681-.452 1.09-.452h35.722c.408 0 .8.163 1.089.452.289.288.451.68.451 1.089 0 .408-.162.8-.451 1.089-.289.289-.681.451-1.089.451zM392.591 202.985h-22.562c-.409 0-.801-.162-1.09-.451-.288-.289-.451-.681-.451-1.089 0-.409.163-.801.451-1.089.289-.289.681-.452 1.09-.452h22.562c.408 0 .8.163 1.089.452.289.288.451.68.451 1.089 0 .408-.162.8-.451 1.089-.289.289-.681.451-1.089.451zM362.292 202.968c.842 0 1.523-.682 1.523-1.523 0-.841-.681-1.523-1.523-1.523-.841 0-1.522.682-1.522 1.523 0 .841.681 1.523 1.522 1.523zM217.696 53.064h-46.655c-.409 0-.801-.162-1.09-.45-.289-.29-.451-.681-.451-1.09 0-.409.162-.8.451-1.09.289-.288.681-.45 1.09-.45h46.655c.408 0 .8.162 1.089.45.289.29.451.681.451 1.09 0 .408-.162.8-.451 1.09-.289.288-.681.45-1.089.45zM256.359 61.435h-71.541c-.409 0-.801-.162-1.089-.45-.289-.29-.452-.681-.452-1.09 0-.409.163-.8.452-1.09.288-.288.68-.45 1.089-.45h71.541c.408 0 .8.162 1.089.45.289.29.451.681.451 1.09 0 .409-.162.8-.451 1.09-.289.288-.681.45-1.089.45zM264.093 61.418c.841 0 1.523-.682 1.523-1.523 0-.841-.682-1.523-1.523-1.523-.841 0-1.523.682-1.523 1.523 0 .841.682 1.523 1.523 1.523z"/>
    <path fill="#FF5657" d="M342.097 85.237c10.331 0 18.706-8.375 18.706-18.706 0-10.33-8.375-18.706-18.706-18.706s-18.706 8.375-18.706 18.706 8.375 18.706 18.706 18.706z"/>
    <path fill="#00F" d="M342.098 86.78c-4.004 0-7.919-1.188-11.248-3.413-3.33-2.225-5.925-5.387-7.457-9.086-1.533-3.7-1.934-7.77-1.152-11.698.781-3.928 2.709-7.535 5.541-10.367 2.831-2.831 6.439-4.76 10.366-5.54 3.928-.782 7.999-.381 11.698 1.151 3.7 1.533 6.862 4.128 9.087 7.457 2.224 3.33 3.412 7.244 3.412 11.249 0 5.37-2.133 10.52-5.93 14.316-3.797 3.797-8.947 5.93-14.317 5.93zm0-37.413c-3.395.002-6.712 1.01-9.534 2.897-2.822 1.888-5.021 4.57-6.319 7.706-1.297 3.137-1.636 6.588-.973 9.917.664 3.33 2.299 6.387 4.7 8.787 2.401 2.4 5.46 4.033 8.789 4.695 3.33.662 6.781.321 9.917-.978 3.136-1.3 5.816-3.5 7.702-6.323 1.886-2.822 2.893-6.14 2.893-9.535-.007-4.552-1.819-8.916-5.039-12.134-3.22-3.218-7.584-5.027-12.136-5.032zM239.95 222.827c1.862 0 3.371-1.509 3.371-3.372 0-1.862-1.509-3.371-3.371-3.371s-3.372 1.509-3.372 3.371c0 1.863 1.51 3.372 3.372 3.372zM227.141 222.827c1.862 0 3.372-1.509 3.372-3.372 0-1.862-1.51-3.371-3.372-3.371-1.862 0-3.371 1.509-3.371 3.371 0 1.863 1.509 3.372 3.371 3.372zM214.332 222.827c1.862 0 3.372-1.509 3.372-3.372 0-1.862-1.51-3.371-3.372-3.371-1.862 0-3.371 1.509-3.371 3.371 0 1.863 1.509 3.372 3.371 3.372zM233.778 213.955c1.862 0 3.371-1.51 3.371-3.372 0-1.862-1.509-3.371-3.371-3.371s-3.372 1.509-3.372 3.371 1.51 3.372 3.372 3.372zM220.969 213.955c1.862 0 3.372-1.51 3.372-3.372 0-1.862-1.51-3.371-3.372-3.371-1.862 0-3.371 1.509-3.371 3.371s1.509 3.372 3.371 3.372z"/>
</svg>
