<svg xmlns="http://www.w3.org/2000/svg" width="210" height="128" fill="none" viewBox="0 0 210 128">
    <g clip-path="url(#clip0)">
        <path fill="#FFCB05" d="M71.836 25.232l-7.591.322-2.853 6.116 2.592 1.54 4.296-2.76 3.556-5.218zM117.098 77.629l-5.521 1.126-14.443 11.553-11.18 10.398.852 4.799h29.049l.856-4.245.736-5.176 4.454-7.722.107-7.629-4.91-3.104zM46.465 89.647l-10.575.642-12.958 22.095.86 3.384 7.122.954 25.153-.195v-2.789l.945-4.072 14.164-24.32 5.125-9.635-1.099-2.677-2.234-.083-7.33 5.841-9.57 6.419-6.517 3.258-3.086 1.178zM44.715 54.188l1.75 2.98-3.98 8.764-8.639 17.952 1.95 5.646-22.341.284-8.267-.167-3.109-5.255 2.425-6.21L13.93 60.38l18.776.07 2.16-.298 2.779-3.58 4.97-2.383h2.1z"/>
        <path fill="#FFCB05" d="M43.314 1.434l-6.675.297-8.192 7.038L18.44 20.848 7.395 39.788 2.205 53.22l-.126 5.069 2.802 2.09 12.07.186 11.985-.186v-3.812l1.866-6.926 7.513-15.016 11.124-16.002L63.37 4.357l1.969-2.211-22.025-.712z"/>
        <path fill="#00F" d="M111.577 77.6l-30.077.624-12.465 10.934-13.368 23.645 1.545 3.612 7.624-1.201 16.79-10.887 21.168-19.023 8.783-7.703zM41.824 72.76l-3.24.489-4.184 8.16.135 5.3 4.692 2.938 8.765-.703 9.63-4.757 10.454-7.499 3.645-3.714-29.897-.214zM33.837 53.807l-4.412.581v4.967l2.662 1.024 4.678-2.951 2.635-3.142-5.563-.48zM72.819 1.732l-7.117.628-13.517 13L41.29 29.808l-1.657 3.249 8.527.214 14.229-.163-1.117-2.523 7.317-11.306 8.127-12.483-.675-3.812-3.221-1.252z"/>
        <path fill="#00F" d="M155.782 110.853H86.131c-.216 0-.423-.086-.576-.239-.153-.153-.239-.36-.239-.576v-52.87c0-.217.086-.424.239-.577.153-.153.36-.239.576-.239h69.651c.216 0 .423.086.575.24.153.152.239.36.239.575v52.862c.001.107-.02.214-.061.314-.04.099-.1.19-.176.266-.075.077-.165.138-.264.179-.099.042-.206.064-.313.065zm-68.832-1.639h68.017V57.982H86.95v51.232zM34.666 1.545c-4.83 4.293-9.285 8.99-13.317 14.039C13.26 25.678 6.926 37.06 2.609 49.254c-.544 1.541-1.107 3.096-1.521 4.655-.415 1.56-.596 3.323.237 4.803 1.434 2.547 4.776 2.681 7.354 2.695 6.838.047 13.675-.041 20.513-.023h2.378c1.127 0 1.127-1.736 0-1.745-6.633-.047-13.265.032-19.898.028-1.47 0-2.946.028-4.417-.042-1.187-.051-2.472-.2-3.5-.847-1.266-.796-1.43-2.276-1.164-3.64.347-1.513.8-3 1.354-4.45 6.353-18.463 17.36-34.975 31.959-47.942.837-.744-.4-1.978-1.239-1.233v.032z"/>
        <path fill="#00F" d="M66.624.777c-7.876 5.586-14.532 12.847-20.373 20.48-6.368 8.332-11.874 17.464-15.7 27.248-.909 2.165-1.66 4.392-2.248 6.665-.273 1.023-.308 2.094-.102 3.133.151.594.422 1.152.796 1.638.373.487.842.892 1.377 1.192.964.582 1.862-.931.88-1.508-1.643-.987-1.615-2.737-1.164-4.408.546-1.949 1.192-3.867 1.936-5.748 1.79-4.586 3.924-9.028 6.387-13.29 4.987-8.77 11.04-16.89 18.022-24.175 3.372-3.58 7.073-6.833 11.055-9.719.93-.647.041-2.16-.88-1.508h.014zM12.822 60.584L5.528 74.817 3.666 78.43c-.588 1.05-1.103 2.138-1.54 3.258-.582 1.676-.703 3.826.07 5.46.384.887.982 1.664 1.741 2.263.759.598 1.654 1 2.606 1.168 1.922.307 3.933.144 5.874.13l13.228-.121 14.522-.126c1.122 0 1.122-1.755 0-1.745-8.34.065-16.682.14-25.023.223l-5.804.047c-.919.045-1.84-.013-2.746-.172-.86-.17-1.625-.66-2.141-1.369-.446-.524-.764-1.143-.931-1.81-.143-.84-.127-1.699.046-2.533.243-1.03.64-2.016 1.178-2.927.591-1.145 1.178-2.3 1.769-3.45l7.82-15.266c.507-.996-.997-1.862-1.509-.88l-.004.005z"/>
        <path fill="#00F" d="M45.022 59.187c-1.987 3.882-4.058 7.727-6.111 11.576-1.02 1.913-2.01 3.845-3.049 5.753-.898 1.657-1.89 3.296-2.462 5.12-.642 2.034-.587 4.19.712 5.967.122.195.314.335.536.393.223.058.459.03.66-.08.199-.118.343-.31.401-.532.059-.224.027-.46-.089-.66-2.243-3.058.35-6.708 1.862-9.486 1.936-3.603 3.845-7.229 5.767-10.845 1.114-2.098 2.214-4.202 3.3-6.312.512-.996-.996-1.862-1.508-.88l-.019-.014zM35.82 88.716l-7.448 12.344-3.723 6.172c-1.075 1.778-2.44 3.621-2.7 5.739-.124.904.075 1.823.563 2.594.488.771 1.234 1.344 2.104 1.618 1.81.652 3.938.41 5.819.396l12.911-.094 14.802-.102c1.121 0 1.126-1.75 0-1.745-8.22.052-16.443.111-24.67.176-2.066 0-4.142.084-6.209.028-1.373-.032-3.342-.26-3.607-1.936-.284-1.824 1.238-3.724 2.118-5.194l3.547-5.874 8-13.238c.583-.963-.93-1.862-1.507-.884z"/>
        <path fill="#00F" d="M66.34 92.1c-1.788 2.96-3.528 5.948-5.26 8.936-.81 1.406-1.626 2.802-2.448 4.189-.931 1.597-1.969 3.165-2.844 4.804-.875 1.638-1.578 3.784-.465 5.557.59.931 2.103.075 1.508-.879-.838-1.345 0-2.998.707-4.217.875-1.532 1.815-3.03 2.709-4.552 1.536-2.612 3.04-5.241 4.566-7.853 1-1.713 2.012-3.42 3.04-5.12.581-.963-.931-1.862-1.504-.884l-.01.019zM35.903 2.779c.838-.764 2.057-.931 3.146-.982 1.397-.075 2.844.028 4.264.06 3.402.089 6.805.158 10.207.238l9.975.228 5.12.116c1.417-.02 2.834.035 4.245.168.987.13 2.169.41 2.816 1.238.847 1.08.386 2.527-.182 3.621-.768 1.341-1.615 2.636-2.536 3.877-.931 1.369-1.862 2.74-2.793 4.115-1.9 2.793-3.798 5.585-5.73 8.345-.838 1.192-1.74 2.328-2.578 3.524-.852 1.101-1.373 2.422-1.504 3.807-.02.374.035.748.16 1.1.126.354.319.678.57.956.25.278.553.504.892.665.337.16.704.253 1.078.272 1.485.15 2.923-.614 4.059-1.485 2.497-1.886 4.583-4.261 6.13-6.981.075-.133.114-.284.114-.436-.001-.153-.041-.303-.117-.436-.077-.132-.186-.242-.317-.32-.132-.077-.282-.119-.434-.121l-7.969-.07c-1.126 0-1.126 1.736 0 1.746l7.945.074-.754-1.317c-1.391 2.407-3.225 4.529-5.404 6.256-.856.707-2.038 1.489-3.211 1.34-1.453-.186-1.029-1.862-.6-2.793.567-1.228 1.498-2.248 2.29-3.332.972-1.327 1.894-2.695 2.825-4.045 1.861-2.728 3.723-5.47 5.585-8.201.931-1.397 1.908-2.793 2.853-4.19.865-1.152 1.462-2.483 1.746-3.895.105-.63.061-1.277-.127-1.888-.188-.61-.516-1.17-.958-1.631-.858-.77-1.926-1.265-3.067-1.424C72.285.788 70.916.7 69.546.717L64.426.6 54.45.372C50.671.29 46.897.214 43.117.112 40.371.037 36.885-.475 34.67 1.55c-.828.759.41 1.992 1.239 1.234l-.005-.005zM29.732 60.807c.641.343 1.354.532 2.082.55.727.017 1.449-.136 2.107-.448 1.503-.716 2.63-2.062 3.793-3.207 1.052-1.033 2.188-2.117 3.57-2.685 1.178-.489 2.946-.536 3.868.512.922 1.047.223 2.792-.233 3.886-.058.223-.028.46.086.66.114.2.302.348.524.41.223.057.46.025.66-.088.2-.114.35-.3.415-.52.55-1.318.992-2.887.53-4.302-.544-1.666-2.238-2.49-3.89-2.625-3.403-.28-5.949 2.751-8.141 4.892-.73.712-1.546 1.462-2.556 1.74-.663.124-1.349.024-1.95-.283-1.005-.503-1.89 1.005-.88 1.508h.015z"/>
        <path fill="#00F" d="M34.246 87.78c2.197 2.542 6.21 2.895 9.31 2.723 4.188-.228 8.028-1.648 11.636-3.724 4.16-2.43 7.912-5.52 11.748-8.429l3.123-2.374c.871-.75 1.806-1.424 2.793-2.015.758-.396 1.861-.55 2.327.321.465.87.172 1.908-.238 2.742-.614 1.261-1.396 2.462-2.085 3.681l-2.183 3.808-4.366 7.605c-.563.978.931 1.862 1.504.885l7.992-13.917c1.056-1.839 2.127-4.222.572-6.126-.348-.404-.794-.71-1.296-.89-.502-.18-1.042-.226-1.567-.134-1.14.158-2.08.805-2.979 1.485-4.105 3.114-8.145 6.335-12.348 9.31-3.626 2.568-7.559 4.905-11.98 5.729-2.02.397-4.09.464-6.13.2-1.686-.237-3.478-.768-4.627-2.095-.736-.851-1.965.387-1.234 1.234l.028-.019zM55.3 115.605c.851 2.015 3.723 2.034 5.547 1.75 1.842-.35 3.627-.95 5.307-1.783 4.189-1.936 8.043-4.57 11.743-7.298 2.979-2.192 5.888-4.501 8.662-6.949 3.519-3.11 6.884-6.395 10.315-9.598 2.108-1.964 4.231-3.919 6.404-5.813 1.671-1.51 3.428-2.92 5.265-4.222.931-.628.051-2.141-.88-1.508-3.654 2.5-6.926 5.585-10.175 8.592-3.542 3.258-7.01 6.619-10.566 9.873-2.518 2.327-5.148 4.496-7.861 6.576-3.535 2.792-7.277 5.309-11.195 7.531-1.895 1.1-3.913 1.971-6.013 2.598-.794.244-1.618.377-2.448.395-.89 0-2.183-.097-2.574-1.024-.119-.198-.31-.343-.534-.402-.223-.059-.461-.028-.663.086-.195.121-.336.313-.394.536-.058.222-.029.459.082.66H55.3z"/>
        <path fill="#00F" d="M108.557 81.692c2.448-1.797 5.376-3.635 8.55-3.188 1.369.112 2.639.754 3.541 1.79.902 1.035 1.363 2.382 1.286 3.753.028 3.258-1.806 6-3.482 8.63-.839 1.178-1.545 2.445-2.104 3.78-.344 1.09-.541 2.222-.586 3.365-.071 1.854-.046 3.71.074 5.562.037 1.121 1.783 1.126 1.746 0-.052-1.695-.191-3.366-.107-5.064.022-1.154.21-2.298.558-3.398.261-.634.584-1.24.964-1.81.465-.787.968-1.555 1.457-2.328 1.764-2.793 3.444-5.846 3.206-9.258-.066-1.55-.64-3.034-1.634-4.225-.993-1.19-2.35-2.022-3.863-2.366-3.858-.907-7.47 1.033-10.486 3.258-.195.123-.335.314-.393.537-.058.222-.029.458.081.66.117.198.308.342.532.4.223.059.46.027.66-.089v-.009zM74.313 73.574H38.846c-.216 0-.423-.085-.576-.238-.153-.153-.239-.36-.239-.576 0-.216.086-.423.239-.576.153-.153.36-.239.576-.239h35.467c.216 0 .424.086.576.239.153.153.239.36.239.576 0 .216-.086.423-.239.576-.152.153-.36.238-.576.238zM43.392 54.654H29.601c-.216 0-.424-.086-.576-.239-.153-.153-.239-.36-.239-.576 0-.216.086-.423.239-.576.152-.152.36-.238.576-.238h13.791c.216 0 .423.086.576.238.153.153.239.36.239.576 0 .216-.086.423-.239.576-.153.153-.36.239-.576.239zM63.37 34.085H39.12c-.217 0-.424-.085-.577-.238-.152-.153-.238-.36-.238-.576 0-.216.086-.423.238-.576.153-.153.36-.239.576-.239h24.25c.216 0 .424.086.576.239.153.153.239.36.239.576 0 .216-.086.423-.239.576-.152.153-.36.238-.576.238z"/>
        <path fill="#00F" d="M70.627 88.483c1.96-1.736 3.849-3.542 5.743-5.348 1.895-1.806 3.854-3.92 6.577-4.375.706-.091 1.417-.124 2.127-.098h3.259l10.491-.075 11.068-.079c1.946 0 3.91.047 5.851-.042h.089c1.121 0 1.126-1.754 0-1.745l-4.906.033-10.883.079-10.896.079c-1.708 0-3.416 0-5.12.037-1.514.017-3 .41-4.324 1.145-1.207.756-2.322 1.65-3.323 2.663-1.704 1.554-3.328 3.192-5.032 4.752-.651.59-1.303 1.182-1.964 1.764-.843.745.396 1.973 1.233 1.233l.01-.023zM155.782 64.861H86.131c-.216 0-.423-.086-.576-.238-.153-.153-.239-.36-.239-.576 0-.216.086-.423.239-.576.153-.153.36-.239.576-.239h69.651c.216 0 .423.086.576.239.152.153.238.36.238.576 0 .216-.086.423-.238.576-.153.152-.36.238-.576.238zM155.781 103.908h-39.215c-.216 0-.423-.086-.575-.238-.153-.153-.239-.36-.239-.576 0-.216.086-.424.239-.576.152-.153.359-.239.575-.239h39.215c.216 0 .423.086.576.239.153.152.239.36.239.576 0 .216-.086.423-.239.576-.153.152-.36.238-.576.238zM116.711 106.319h-30.58c-.216 0-.423-.086-.576-.238-.153-.153-.239-.36-.239-.576 0-.216.086-.423.239-.576.153-.153.36-.239.576-.239h30.58c.216 0 .424.086.576.239.153.153.239.36.239.576 0 .216-.086.423-.239.576-.152.152-.36.238-.576.238z"/>
        <path fill="#00F" d="M159.166 114.111h-27.49c-.216 0-.423-.086-.576-.239-.153-.152-.239-.36-.239-.576 0-.216.086-.423.239-.576.153-.152.36-.238.576-.238h26.675V58.066c0-.217.086-.424.239-.576.152-.153.36-.239.576-.239.216 0 .423.086.576.239.152.152.238.36.238.575v55.227c.001.107-.02.213-.061.313-.04.099-.1.19-.176.266-.075.076-.165.136-.265.177-.099.042-.205.063-.312.063z"/>
        <path fill="#00F" d="M127.621 110.983c0 4.082.354 8.234 2.979 11.562 1.035 1.387 2.389 2.504 3.947 3.258 1.31.476 2.679.771 4.068.875.67.089 1.341.154 2.006.261.238.037.466.079.712.14.075 0 .308.051.205.06-.102.009-.028-.046 0 0 .028.047.051.033 0 0-.09-.06-.162-.143-.209-.241-.048-.097-.069-.205-.061-.313.007.23.102.449.264.611.163.163.381.257.611.264.232-.001.453-.094.616-.258.163-.164.255-.386.255-.617-.117-1.103-1.327-1.233-2.216-1.359-1.331-.191-2.676-.302-3.989-.582-1.405-.291-2.698-.979-3.723-1.983-1.366-1.27-2.376-2.874-2.933-4.654-.707-2.272-.763-4.655-.768-7.024-.016-.22-.115-.426-.277-.577-.162-.15-.375-.234-.596-.234-.221 0-.433.084-.595.234-.162.151-.261.357-.277.577h-.019zM112.388 110.983c0 4.049-.326 8.238-3.31 11.292-.989 1.083-2.256 1.875-3.663 2.29-1.328.324-2.676.563-4.035.717-.722.097-2.579.074-2.765 1.061-.205 1.098 1.48 1.569 1.685.465.423-2.276-.545.694-.33.466-.024.028-.22.046-.103.042.062-.01.123-.027.181-.051.205-.042.405-.08.61-.112.582-.093 1.169-.163 1.75-.247 1.367-.149 2.717-.418 4.036-.805 3.412-1.117 5.958-4.478 6.944-7.815.694-2.355.764-4.85.768-7.289 0-1.127-1.74-1.127-1.745 0l-.023-.014z"/>
        <path fill="#00F" d="M187.023 127.94c-.061.006-.122.006-.182 0-2.956-.229-87.459-.089-131.924 0-.247 0-.483-.099-.658-.273-.175-.175-.273-.411-.273-.658 0-.247.098-.484.273-.659.175-.174.411-.272.658-.272.33 0 33.327-.079 65.937-.117 19.153 0 34.443-.028 45.4 0 6.516 0 11.567.024 15.011.047 6.093.033 6.093.033 6.419.363.129.13.217.296.253.476.035.18.017.366-.053.536-.071.17-.189.315-.342.417-.152.102-.331.157-.515.158l-.004-.018zM203.584 111.756h-18.889c-.216 0-.423-.086-.576-.239-.152-.153-.238-.36-.238-.576 0-.216.086-.423.238-.576.153-.152.36-.238.576-.238h18.889c.216 0 .423.086.576.238.152.153.238.36.238.576 0 .216-.086.423-.238.576-.153.153-.36.239-.576.239zM208.321 107.329h-11.929c-.216 0-.424-.086-.576-.238-.153-.153-.239-.36-.239-.576 0-.216.086-.423.239-.576.152-.153.36-.239.576-.239h11.929c.216 0 .423.086.576.239.153.153.239.36.239.576 0 .216-.086.423-.239.576-.153.152-.36.238-.576.238zM192.301 107.32c.445 0 .806-.361.806-.805 0-.445-.361-.806-.806-.806-.444 0-.805.361-.805.806 0 .444.361.805.805.805zM115.846 28.058h-24.67c-.215 0-.422-.086-.575-.239-.153-.153-.239-.36-.239-.576 0-.216.086-.423.239-.576.153-.153.36-.239.576-.239h24.669c.216 0 .423.086.576.239.153.153.238.36.238.576 0 .216-.085.423-.238.576-.153.153-.36.239-.576.239zM136.288 32.484H98.461c-.216 0-.423-.086-.576-.238-.153-.153-.239-.36-.239-.576 0-.216.086-.423.239-.576.153-.153.36-.239.576-.239h37.827c.217 0 .424.086.576.239.153.153.239.36.239.576 0 .216-.086.423-.239.576-.152.152-.359.238-.576.238zM140.379 32.475c.445 0 .806-.36.806-.805 0-.445-.361-.806-.806-.806-.444 0-.805.361-.805.806 0 .444.361.805.805.805z"/>
        <path fill="#FF5657" d="M181.623 45.07c5.463 0 9.891-4.428 9.891-9.89 0-5.463-4.428-9.892-9.891-9.892-5.462 0-9.891 4.429-9.891 9.891 0 5.463 4.429 9.891 9.891 9.891z"/>
        <path fill="#00F" d="M181.623 45.885c-2.117 0-4.187-.628-5.947-1.805-1.761-1.176-3.133-2.848-3.943-4.804-.81-1.956-1.022-4.109-.609-6.185.413-2.077 1.432-3.985 2.93-5.482 1.497-1.497 3.404-2.517 5.481-2.93 2.077-.413 4.229-.2 6.185.61 1.956.81 3.628 2.182 4.805 3.942 1.176 1.761 1.804 3.83 1.804 5.948 0 2.84-1.128 5.562-3.136 7.57-2.007 2.008-4.73 3.136-7.57 3.136zm0-19.782c-1.794 0-3.549.534-5.041 1.532-1.492.997-2.654 2.415-3.341 4.074-.686 1.659-.865 3.483-.514 5.244.35 1.76 1.215 3.377 2.485 4.646 1.269 1.269 2.887 2.133 4.647 2.482 1.761.35 3.585.17 5.244-.517 1.658-.687 3.075-1.85 4.072-3.343.997-1.492 1.529-3.247 1.529-5.042-.003-2.407-.961-4.714-2.664-6.415-1.702-1.702-4.01-2.659-6.417-2.661zM127.613 117.82c.984 0 1.783-.798 1.783-1.782 0-.985-.799-1.783-1.783-1.783-.985 0-1.783.798-1.783 1.783 0 .984.798 1.782 1.783 1.782zM120.84 117.82c.985 0 1.783-.798 1.783-1.782 0-.985-.798-1.783-1.783-1.783-.984 0-1.782.798-1.782 1.783 0 .984.798 1.782 1.782 1.782zM114.067 117.82c.984 0 1.783-.798 1.783-1.782 0-.985-.799-1.783-1.783-1.783-.985 0-1.783.798-1.783 1.783 0 .984.798 1.782 1.783 1.782zM124.349 113.129c.985 0 1.783-.798 1.783-1.783 0-.984-.798-1.783-1.783-1.783-.984 0-1.783.799-1.783 1.783 0 .985.799 1.783 1.783 1.783zM117.577 113.129c.984 0 1.782-.798 1.782-1.783 0-.984-.798-1.783-1.782-1.783-.985 0-1.783.799-1.783 1.783 0 .985.798 1.783 1.783 1.783z"/>
    </g>
    <defs>
        <clipPath id="clip0">
            <path fill="#fff" d="M0 0H208.524V128H0z" transform="translate(.738)"/>
        </clipPath>
    </defs>
</svg>
