<svg width="452" height="360" viewBox="0 0 452 360" fill="none" xmlns="http://www.w3.org/2000/svg">
<path d="M382.566 315H71.6653C67.974 315 66.5 315 67 314.5V146.132C67 142.135 68.9797 141 71.9966 141L382.738 141C385.754 141 388 142.635 388 147.131V315C388 315 387.263 315 382.566 315Z" stroke="#0000FF" stroke-width="2.91908" stroke-miterlimit="10"/>
<path d="M358.728 261.137C359.476 260.27 359.344 258.951 358.437 258.249L320.241 228.681C319.39 228.023 319.213 226.81 319.838 225.936L346.385 188.814C347.068 187.86 346.786 186.526 345.776 185.929L328.533 175.743C327.653 175.223 326.521 175.451 325.911 176.272L299.652 211.619C299.007 212.488 297.788 212.686 296.901 212.066L265.521 190.136C264.645 189.524 263.443 189.708 262.791 190.555L250.994 205.871C250.312 206.756 250.487 208.028 251.383 208.695L281.875 231.429C282.73 232.066 282.934 233.261 282.34 234.147L257.308 271.441C256.714 272.325 256.918 273.52 257.771 274.157L274.06 286.332C274.974 287.016 276.275 286.796 276.914 285.85L301.733 249.117C302.38 248.16 303.702 247.948 304.615 248.656L341.994 277.632C342.835 278.284 344.039 278.163 344.734 277.358L358.728 261.137Z" fill="#FF5657" stroke="#0000FF" stroke-width="2.91908" stroke-miterlimit="10" stroke-linejoin="round"/>
<path d="M90.0983 82.0867C91.2268 82.0867 92.1416 81.1719 92.1416 80.0433C92.1416 78.9148 91.2268 78 90.0983 78C88.9698 78 88.0549 78.9148 88.0549 80.0433C88.0549 81.1719 88.9698 82.0867 90.0983 82.0867Z" fill="#0000FF"/>
<path d="M72 89.9683C72 89.9683 80.0275 89.9683 90.0983 89.9683C100.169 89.9683 108.197 89.9683 108.197 89.9683C108.197 89.9683 100.169 89.9683 90.0983 89.9683C80.0275 89.9683 72 89.9683 72 89.9683Z" stroke="#0000FF" stroke-width="2.91908" stroke-miterlimit="10" stroke-linejoin="round"/>
<path d="M130.09 80.0432C130.09 80.0432 123.23 80.0432 114.619 80.0432C106.007 80.0432 99.1474 80.0432 99.1474 80.0432C99.1474 80.0432 106.007 80.0432 114.619 80.0432C123.23 80.0432 130.09 80.0432 130.09 80.0432Z" stroke="#0000FF" stroke-width="2.91908" stroke-miterlimit="10" stroke-linejoin="round"/>
<path d="M151.377 267.576C152.831 266.201 152.896 263.908 151.521 262.454C150.146 261 147.853 260.936 146.399 262.311C144.946 263.685 144.881 265.978 146.256 267.432C147.631 268.886 149.924 268.95 151.377 267.576Z" fill="#0000FF"/>
<path d="M161.378 258.12C162.832 256.745 162.896 254.452 161.522 252.998C160.147 251.545 157.854 251.48 156.4 252.855C154.946 254.23 154.882 256.523 156.257 257.976C157.631 259.43 159.924 259.495 161.378 258.12Z" fill="#0000FF"/>
<path d="M171.379 248.664C172.833 247.289 172.897 244.996 171.522 243.543C170.148 242.089 167.855 242.024 166.401 243.399C164.947 244.774 164.883 247.067 166.257 248.521C167.632 249.975 169.925 250.039 171.379 248.664Z" fill="#0000FF"/>
<path d="M181.386 239.202C182.84 237.827 182.905 235.534 181.53 234.08C180.155 232.627 177.862 232.562 176.408 233.937C174.954 235.312 174.89 237.605 176.265 239.059C177.64 240.512 179.933 240.577 181.386 239.202Z" fill="#0000FF"/>
<path d="M191.387 229.746C192.841 228.372 192.905 226.079 191.531 224.625C190.156 223.171 187.863 223.107 186.409 224.481C184.955 225.856 184.891 228.149 186.266 229.603C187.64 231.057 189.933 231.121 191.387 229.746Z" fill="#0000FF"/>
<path d="M162.753 269.955C164.207 268.581 164.271 266.288 162.896 264.834C161.522 263.38 159.229 263.316 157.775 264.69C156.321 266.065 156.257 268.358 157.631 269.812C159.006 271.266 161.299 271.33 162.753 269.955Z" fill="#0000FF"/>
<path d="M172.761 260.493C174.214 259.118 174.279 256.825 172.904 255.371C171.529 253.918 169.236 253.853 167.782 255.228C166.329 256.603 166.264 258.896 167.639 260.35C169.014 261.803 171.307 261.868 172.761 260.493Z" fill="#0000FF"/>
<path d="M182.761 251.037C184.215 249.663 184.279 247.37 182.905 245.916C181.53 244.462 179.237 244.398 177.783 245.772C176.329 247.147 176.265 249.44 177.64 250.894C179.014 252.348 181.307 252.412 182.761 251.037Z" fill="#0000FF"/>
<path d="M192.762 241.582C194.216 240.207 194.28 237.914 192.905 236.46C191.531 235.006 189.238 234.942 187.784 236.317C186.33 237.691 186.266 239.984 187.64 241.438C189.015 242.892 191.308 242.956 192.762 241.582Z" fill="#0000FF"/>
<path d="M200.006 221.645C201.46 220.27 201.525 217.977 200.15 216.523C198.775 215.069 196.482 215.005 195.028 216.38C193.574 217.754 193.51 220.047 194.885 221.501C196.26 222.955 198.553 223.019 200.006 221.645Z" fill="#0000FF"/>
<path d="M210.007 212.189C211.461 210.814 211.525 208.521 210.151 207.067C208.776 205.613 206.483 205.549 205.029 206.924C203.575 208.298 203.511 210.591 204.886 212.045C206.26 213.499 208.553 213.563 210.007 212.189Z" fill="#0000FF"/>
<path d="M220.015 202.727C221.469 201.352 221.533 199.059 220.158 197.605C218.784 196.151 216.491 196.087 215.037 197.462C213.583 198.836 213.519 201.129 214.893 202.583C216.268 204.037 218.561 204.101 220.015 202.727Z" fill="#0000FF"/>
<path d="M230.015 193.271C231.469 191.896 231.534 189.603 230.159 188.149C228.784 186.695 226.491 186.631 225.037 188.006C223.584 189.381 223.519 191.673 224.894 193.127C226.269 194.581 228.562 194.645 230.015 193.271Z" fill="#0000FF"/>
<path d="M201.381 233.48C202.835 232.105 202.899 229.812 201.525 228.358C200.15 226.905 197.857 226.84 196.403 228.215C194.949 229.59 194.885 231.883 196.26 233.337C197.634 234.79 199.927 234.855 201.381 233.48Z" fill="#0000FF"/>
<path d="M211.389 224.018C212.843 222.643 212.907 220.35 211.532 218.896C210.158 217.442 207.865 217.378 206.411 218.753C204.957 220.127 204.893 222.42 206.267 223.874C207.642 225.328 209.935 225.392 211.389 224.018Z" fill="#0000FF"/>
<path d="M221.39 214.562C222.843 213.187 222.908 210.894 221.533 209.441C220.158 207.987 217.865 207.922 216.412 209.297C214.958 210.672 214.893 212.965 216.268 214.419C217.643 215.872 219.936 215.937 221.39 214.562Z" fill="#0000FF"/>
<path d="M231.39 205.106C232.844 203.732 232.908 201.439 231.534 199.985C230.159 198.531 227.866 198.467 226.412 199.841C224.958 201.216 224.894 203.509 226.269 204.963C227.643 206.417 229.936 206.481 231.39 205.106Z" fill="#0000FF"/>
<path d="M88.1466 210.706C87.7742 210.311 87.7852 209.691 88.1713 209.309L106.611 191.079C107.003 190.691 107.634 190.694 108.023 191.085L143.297 226.558C143.687 226.95 144.32 226.951 144.712 226.561L210.663 160.842C211.075 160.432 211.748 160.457 212.127 160.897L229.613 181.192C229.962 181.597 229.931 182.204 229.543 182.572L141.487 265.844C141.085 266.224 140.451 266.206 140.072 265.803L88.1466 210.706Z" fill="#2DDFD5" stroke="#0000FF" stroke-width="2.91908" stroke-miterlimit="10" stroke-linejoin="round"/>
<path d="M162 213.5L159.5 202.5L154.5 198.5L166.5 187.5L171 197.5L172 215.5L166.5 219L162 213.5Z" fill="white"/>
<path d="M391.862 272L382 261.984L373.5 253L376 245H385.586L390.966 248.048L395 258.5L391.862 272Z" fill="white"/>
<path d="M167.016 185.514C173.113 193.601 175.894 204.668 173.281 214.605C173.033 215.852 172.5 217.026 171.723 218.033C170.947 219.041 169.948 219.855 168.805 220.414C167.755 220.841 166.599 220.938 165.492 220.692C164.385 220.446 163.38 219.868 162.609 219.036C161.081 217.294 160.21 215.072 160.147 212.756C159.957 210.096 160.263 207.206 158.437 204.975C156.612 202.743 153.735 201.33 152.033 198.76C151.277 197.792 150.778 196.648 150.583 195.436C150.387 194.223 150.502 192.98 150.916 191.824C151.8 189.761 155.12 190.867 154.235 192.946C152.626 196.718 158.057 199.654 160.198 201.751C161.791 203.263 162.855 205.247 163.234 207.41C163.584 209.453 163.359 211.563 163.734 213.6C163.952 214.955 164.808 217.208 166.544 217.34C168.741 217.489 169.694 214.687 170.079 213.011C170.931 208.939 170.93 204.734 170.077 200.662C169.164 195.995 167.208 191.594 164.356 187.789C163.02 185.998 165.65 183.688 167.001 185.497L167.016 185.514Z" fill="#0000FF"/>
<path d="M167.338 182.025C167.503 182.664 167.342 183.342 166.909 183.839L153.136 199.633C152.361 200.522 151.013 200.564 150.23 199.682C143.254 191.82 113.974 156.592 121.188 126.707C125.41 102.612 229 141 229 141L197.084 141.302L156.946 141.74L167.338 182.025Z" fill="#417CFF" stroke="#0000FF" stroke-width="2.91908" stroke-miterlimit="10" stroke-linejoin="round"/>
<path d="M157.53 143.637C156.946 141.886 155.341 136.048 152.422 129.188" stroke="#0000FF" stroke-width="2.91908" stroke-miterlimit="10" stroke-linecap="round" stroke-linejoin="round"/>
<path d="M84.046 161.882C86.6254 161.882 88.7165 159.791 88.7165 157.211C88.7165 154.632 86.6254 152.541 84.046 152.541C81.4665 152.541 79.3754 154.632 79.3754 157.211C79.3754 159.791 81.4665 161.882 84.046 161.882Z" fill="#FF5657" stroke="#0000FF" stroke-width="2.91908" stroke-miterlimit="10"/>
<path d="M101.268 161.882C103.848 161.882 105.939 159.791 105.939 157.211C105.939 154.632 103.848 152.541 101.268 152.541C98.689 152.541 96.598 154.632 96.598 157.211C96.598 159.791 98.689 161.882 101.268 161.882Z" stroke="#0000FF" stroke-width="2.91908" stroke-miterlimit="10" stroke-linejoin="round"/>
<path d="M203.317 111.226C201.87 111.734 191.14 110.631 191.14 110.631L189.427 100.316L182.201 89.6068L193.005 81.781L190.385 73.2739L202.493 68.8768L209.746 59.9769L225.732 66.1109L231.761 59.6613L242.324 66.1824L253.414 60.6494L262.142 68.9244L260.439 78.6245L270.734 84.4139L270.15 96.9684L277.572 105.47L268.146 118.487L260.755 130.934L250.469 127.784L243.612 108.884L243.862 98.3659L232.143 96.3213L223.252 104.83L203.892 97.5095L203.467 103.483L203.317 111.226Z" fill="#0000FF"/>
<path d="M223.358 102.753C227.476 97.5522 234.269 92.1845 241.32 95.0408C242.828 95.6013 244.163 96.5431 245.194 97.7736C246.225 99.0042 246.915 100.481 247.198 102.059C247.733 105.709 246.271 109.104 244.661 112.331C244.393 112.74 243.973 113.027 243.493 113.129C243.014 113.231 242.513 113.139 242.103 112.874C241.7 112.602 241.418 112.185 241.318 111.711C241.217 111.237 241.305 110.742 241.563 110.329C242.676 108.086 243.87 105.575 243.601 102.998C243.464 101.918 243.014 100.903 242.305 100.075C241.596 99.2474 240.66 98.6439 239.611 98.3385C234.374 96.6025 229.44 100.986 226.457 104.755C226.181 105.154 225.761 105.433 225.285 105.534C224.809 105.635 224.313 105.55 223.898 105.298C223.493 105.028 223.21 104.611 223.109 104.136C223.008 103.661 223.097 103.165 223.358 102.753Z" fill="#0000FF"/>
<path d="M203.5 113C202.069 114.365 202.085 114.738 200.148 115.171C198.21 115.604 196.193 115.502 194.315 114.877C192.494 114.275 190.859 113.227 189.562 111.83C188.265 110.433 187.349 108.733 186.899 106.887C186.38 104.839 186.469 102.683 187.156 100.677C187.352 100.102 187.77 99.6272 188.319 99.3557C188.867 99.0842 189.501 99.0386 190.081 99.2288C190.661 99.4191 191.14 99.8296 191.412 100.37C191.684 100.911 191.726 101.537 191.531 102.111L191.327 102.751L191.248 103.092C191.307 102.78 191.314 102.754 191.23 103.008C191.172 103.457 191.137 103.909 191.126 104.361C191.149 104.468 191.172 104.575 191.197 104.694C191.222 104.813 191.242 104.908 191.174 104.587C191.191 104.815 191.238 105.039 191.316 105.253C191.399 105.646 191.48 106.027 191.568 106.443C191.657 106.86 191.616 106.67 191.548 106.348C191.571 106.455 191.596 106.574 191.619 106.681C191.641 106.789 191.806 107.089 191.912 107.291C192.011 107.497 192.121 107.698 192.241 107.893C192.271 108.035 192.591 108.651 192.376 108.113C192.579 108.453 192.835 108.76 193.136 109.021C193.287 109.188 193.454 109.34 193.635 109.475C193.115 109.162 193.755 109.561 193.857 109.627C194.044 109.762 194.238 109.887 194.44 110C194.527 110.056 195.246 110.414 194.744 110.184C195.136 110.359 195.538 110.51 195.949 110.638L196.612 110.795C196.041 110.655 196.781 110.759 196.91 110.832C197.386 110.881 197.866 110.9 198.345 110.888L198.273 110.903L198.623 110.829L199.141 110.719L199.841 110.57C200.094 110.517 200.07 110.522 199.756 110.588L200.094 110.517C200.566 110.315 201.015 110.065 201.435 109.772C200.938 110.101 201.584 109.641 201.682 109.57L202.216 109.059C202.674 108.656 203.272 108.445 203.883 108.471C204.493 108.497 204.084 108.618 204.5 109.059C204.894 109.514 203.912 110.195 203.883 110.795C203.853 111.395 204.32 112.002 203.883 112.421L203.5 113Z" fill="#0000FF"/>
<path d="M204.479 95.09C211.402 97.3453 218.131 100.239 224.586 103.738C224.963 104.016 228.408 102.029 228.5 102.5C228 103 225.322 105.862 225.077 106.261C224.832 106.659 224.447 106.94 224.002 107.042C223.558 107.145 223.089 107.063 222.695 106.813C216.498 103.477 210.04 100.724 203.397 98.586C203.177 98.507 202.972 98.3835 202.795 98.2227C202.618 98.0618 202.473 97.8667 202.367 97.6486C202.261 97.4304 202.197 97.1934 202.178 96.951C202.159 96.7087 202.186 96.4659 202.257 96.2363C202.328 96.0068 202.442 95.795 202.592 95.6132C202.742 95.4313 202.925 95.283 203.132 95.1765C203.338 95.0701 203.563 95.0077 203.795 94.9928C204.026 94.978 204.258 95.011 204.479 95.09Z" fill="#0000FF"/>
<path d="M253.195 126.496C254.27 127.44 255.634 127.99 257.062 128.053C258.49 128.117 259.898 127.691 261.051 126.846C262.204 126 263.034 124.786 263.404 123.404C263.774 122.022 263.662 120.555 263.085 119.245C262.911 118.885 262.833 118.485 262.858 118.085C262.884 117.685 263.012 117.299 263.23 116.963C263.448 116.627 263.749 116.353 264.104 116.167C264.458 115.982 264.855 115.891 265.255 115.904C267.183 115.672 269.003 114.886 270.493 113.64C271.982 112.394 273.079 110.742 273.649 108.884C274.768 105.291 273.021 99.1135 268.192 100.438C266.378 100.935 264.539 98.4936 265.796 96.9548C267.07 95.455 267.874 93.6121 268.106 91.6569C268.339 89.7016 267.989 87.721 267.102 85.9632C266.144 84.2648 264.705 82.8889 262.965 82.0102C261.225 81.1314 259.264 80.7892 257.331 81.027C255.318 81.2919 253.329 78.5582 255.323 77.0874C259.407 74.0753 259.948 67.8737 255.581 64.7966C254.596 64.098 253.457 63.6473 252.262 63.4826C251.066 63.3179 249.848 63.4442 248.711 63.8506C247.575 64.257 246.553 64.9317 245.732 65.8174C244.911 66.7031 244.316 67.7738 243.997 68.9387C243.846 69.3571 243.577 69.7229 243.223 69.9925C242.869 70.2621 242.445 70.424 242.002 70.4589C241.558 70.4938 241.114 70.4002 240.723 70.1893C240.331 69.9785 240.008 69.6592 239.793 69.2697C238.397 66.51 236.475 62.3277 232.846 62.1998C228.854 62.0617 227.739 67.4994 227.016 70.4344C226.524 72.5219 223.757 72.2859 222.814 70.7773C220.517 67.0612 217.474 62.4684 212.643 62.1964C211.608 62.1515 210.582 62.4004 209.683 62.9144C208.785 63.4285 208.049 64.1867 207.563 65.1013C207.077 66.016 206.859 67.0498 206.935 68.0832C207.011 69.1167 207.378 70.1076 207.993 70.9414C208.354 71.3574 208.557 71.8881 208.564 72.4391C208.571 72.9902 208.383 73.5259 208.033 73.9513C207.681 74.3789 207.184 74.6617 206.636 74.7457C206.088 74.8298 205.529 74.7091 205.064 74.4068C202.13 71.9736 197.851 70.4245 194.417 72.862C191.963 74.63 190.937 79.1885 194.285 80.6981C194.823 80.9181 195.256 81.3338 195.499 81.8614C195.742 82.389 195.776 82.989 195.594 83.5405C195.413 84.092 195.028 84.5539 194.519 84.8328C194.01 85.1118 193.414 85.1871 192.852 85.0435C191.272 84.6759 189.61 84.9515 188.234 85.8098C186.857 86.668 185.877 88.0386 185.51 89.62C185.144 91.2013 185.42 92.8639 186.278 94.2421C187.136 95.6202 188.506 96.6009 190.086 96.9685C190.685 97.0239 191.24 97.3055 191.639 97.7561C192.038 98.2067 192.251 98.7924 192.233 99.3941C192.192 99.9965 191.917 100.559 191.466 100.96C191.015 101.361 190.425 101.569 189.822 101.54C183.962 100.413 179.561 94.6494 180.85 88.6257C182.139 82.6021 188.549 79.2712 194.238 80.7082L192.804 85.0536C191.464 84.426 190.298 83.4801 189.407 82.2982C188.516 81.1162 187.927 79.7342 187.692 78.2726C187.456 76.8109 187.582 75.314 188.057 73.9123C188.533 72.5105 189.343 71.2466 190.419 70.2305C195.169 65.4806 202.683 66.5926 207.503 70.5714L204.503 74.0519C203.384 72.6611 202.644 71.0041 202.356 69.2423C202.067 67.4805 202.239 65.674 202.856 63.999C203.491 62.4187 204.513 61.0233 205.826 59.9404C207.14 58.8575 208.705 58.1218 210.376 57.8004C217.981 56.461 223.214 62.9716 226.771 68.6903L222.566 69.0213C223.784 63.8983 226.389 57.6704 232.612 57.6343C238.265 57.6073 241.53 62.7144 243.785 67.1752L239.58 67.5061C240.108 65.6706 241.066 63.9874 242.373 62.5959C243.68 61.2044 245.3 60.1446 247.098 59.5041C248.896 58.8637 250.821 58.661 252.713 58.9128C254.606 59.1646 256.411 59.8638 257.98 60.9524C259.549 62.041 260.836 63.4878 261.736 65.1729C262.635 66.8581 263.121 68.7333 263.152 70.6433C263.184 72.5533 262.76 74.4432 261.917 76.1566C261.073 77.87 259.834 79.3577 258.302 80.4965L256.285 76.5714C259.121 76.1658 262.013 76.6021 264.603 77.8262C267.194 79.0503 269.368 81.0083 270.858 83.4574C272.241 85.9524 272.853 88.8016 272.618 91.6446C272.383 94.4876 271.31 97.1966 269.536 99.429L267.151 95.9437C268.814 95.5302 270.562 95.62 272.174 96.2015C273.787 96.7831 275.19 97.8304 276.207 99.2107C277.222 100.624 277.925 102.236 278.269 103.941C278.614 105.647 278.593 107.406 278.206 109.102C277.507 112.179 275.832 114.947 273.432 116.994C271.032 119.04 268.036 120.256 264.888 120.459L267.058 117.118C268.1 119.408 268.314 121.988 267.666 124.418C267.017 126.849 265.545 128.978 263.502 130.442C261.459 131.907 258.97 132.615 256.462 132.448C253.954 132.28 253.331 131.224 251.5 129.5C251.095 129.051 250.472 128.604 250.5 128C250.528 127.396 249.456 126.706 249.9 126.297C250.355 125.9 250.945 125.694 251.548 125.721C252.15 125.749 252.719 126.009 253.135 126.446L253.195 126.496Z" fill="#0000FF"/>
<path d="M202.5 99C204 107 204 114 197.5 122.5C201.5 125.5 207.333 123.5 208.5 123C209 126.5 214.7 132.5 221.5 132.5C230 132.5 234.5 126 237 117.5" stroke="#0000FF" stroke-width="2.92" stroke-linecap="round" stroke-linejoin="round"/>
<path d="M229 130L233.5 142" stroke="#0000FF" stroke-width="2.92"/>
<path d="M244.297 110.829C243.926 110.113 243.045 109.833 242.329 110.203C241.613 110.574 241.333 111.455 241.703 112.171L244.297 110.829ZM256.703 141.171C257.074 141.887 257.955 142.167 258.671 141.797C259.387 141.426 259.667 140.545 259.297 139.829L256.703 141.171ZM241.703 112.171L256.703 141.171L259.297 139.829L244.297 110.829L241.703 112.171Z" fill="#0000FF"/>
<path d="M390.057 276.287C393.496 271.544 395.944 265.664 395.999 259.688C396.027 256.99 395.472 254.318 394.373 251.86C393.273 249.402 391.657 247.218 389.636 245.461C385.675 242.157 379.35 240.411 374.96 243.951C373.912 244.856 373.099 246.006 372.592 247.303C372.085 248.6 371.899 250.003 372.052 251.389C372.4 254.316 373.701 257.041 375.748 259.135C378.087 261.728 381.105 263.553 383.78 265.774C384.92 266.665 385.965 267.675 386.899 268.786C387.483 269.688 387.824 270.728 387.889 271.805C387.993 272.186 388.242 272.51 388.581 272.706C388.92 272.901 389.322 272.953 389.698 272.849C390.066 272.736 390.377 272.485 390.568 272.146C390.758 271.808 390.812 271.409 390.72 271.031C390.496 269.078 389.615 267.263 388.224 265.893C386.216 263.985 384.079 262.221 381.83 260.613C378.22 257.878 373.424 253.5 375.288 248.362C377.034 243.509 383.46 244.726 386.743 246.971C388.552 248.278 390.054 249.975 391.139 251.94C392.225 253.905 392.867 256.09 393.02 258.337C393.41 264.225 390.899 270.122 387.515 274.785C387.418 274.953 387.355 275.138 387.328 275.33C387.302 275.523 387.314 275.719 387.362 275.906C387.411 276.094 387.495 276.271 387.611 276.426C387.727 276.58 387.872 276.71 388.037 276.808C388.373 276.999 388.768 277.05 389.141 276.951C389.513 276.852 389.833 276.611 390.034 276.279L390.057 276.287Z" fill="#0000FF"/>
<path d="M375.303 82.5412L361.665 53.9865L330.44 81.4932L375.303 82.5412Z" fill="#2DDFD5"/>
<path d="M328.709 81.123C328.793 80.7709 328.986 80.4543 329.26 80.2183L360.485 52.7116C360.689 52.5335 360.931 52.4046 361.192 52.3346C361.454 52.2647 361.728 52.2556 361.993 52.3081C362.258 52.3628 362.507 52.4788 362.72 52.6468C362.933 52.8148 363.103 53.0301 363.218 53.2756L376.858 81.8206C376.985 82.0909 377.041 82.3889 377.021 82.6866C377 82.9844 376.905 83.2721 376.743 83.5227C376.581 83.7734 376.358 83.9787 376.094 84.1194C375.831 84.2601 375.537 84.3316 375.238 84.3271L330.375 83.2791C330.118 83.272 329.865 83.2085 329.635 83.0931C329.405 82.9778 329.203 82.8134 329.043 82.6115C328.884 82.4097 328.77 82.1753 328.711 81.9249C328.652 81.6744 328.648 81.414 328.701 81.1621L328.709 81.123ZM361.066 56.8342L334.937 79.8783L372.466 80.748L361.066 56.8342Z" fill="#0000FF"/>
<path d="M26 315H426" stroke="#0000FF" stroke-width="2.92" stroke-linecap="round"/>
</svg>
