<svg width="409" height="331" viewBox="0 0 409 331" fill="none" xmlns="http://www.w3.org/2000/svg">
<path d="M164.097 70.1766C162.569 70.3139 152.437 66.6152 152.437 66.6152L153.304 56.1954L148.923 44.0418L161.315 39.1022L160.859 30.2123L173.676 28.9164L182.889 22.0652L196.884 31.9295L204.31 27.1542L212.953 36.065L225.061 33.4182L231.495 43.5798L227.466 52.5667L236.029 60.7024L232.386 72.731L237.499 82.7927L225.17 93.1023L214.955 103.358L205.754 97.7839L203.737 77.7803L206.558 67.644L195.696 62.7899L184.992 68.8606L168.016 57.0189L166.14 62.7064L164.097 70.1766Z" fill="#0000FF"/>
<path d="M185.604 66.8732C190.87 62.8396 198.772 59.3004 204.907 63.7973C206.232 64.7104 207.296 65.9507 207.994 67.3963C208.691 68.8418 208.999 70.4429 208.886 72.0422C208.51 75.7114 206.262 78.6455 203.91 81.3791C203.55 81.7102 203.072 81.8855 202.582 81.8667C202.092 81.8478 201.63 81.6363 201.296 81.2785C200.972 80.9162 200.802 80.4432 200.82 79.9587C200.839 79.4741 201.045 79.0157 201.396 78.6793C203.025 76.7773 204.799 74.6354 205.169 72.0711C205.301 70.9908 205.113 69.8955 204.629 68.9195C204.145 67.9434 203.385 67.1289 202.442 66.5757C197.791 63.6094 191.933 66.6501 188.117 69.573C187.751 69.8923 187.277 70.0599 186.79 70.0412C186.304 70.0225 185.843 69.8189 185.504 69.4724C185.177 69.1114 185.004 68.6378 185.023 68.1524C185.041 67.6669 185.25 67.208 185.604 66.8732Z" fill="#0000FF"/>
<path d="M163.84 71.9412C162.117 72.9139 162.042 73.2794 160.058 73.2245C158.073 73.1697 156.142 72.5765 154.475 71.51C152.857 70.4806 151.528 69.0637 150.613 67.3915C149.698 65.7193 149.227 63.8461 149.243 61.9466C149.242 59.8333 149.857 57.7649 151.014 55.9884C151.345 55.4796 151.866 55.1215 152.465 54.9927C153.063 54.8639 153.689 54.975 154.205 55.3016C154.721 55.6282 155.084 56.1435 155.215 56.7341C155.346 57.3248 155.234 57.9425 154.904 58.4512L154.549 59.0219L154.389 59.3323C154.523 59.0453 154.537 59.0215 154.392 59.2472C154.226 59.6682 154.082 60.0975 153.96 60.5332C153.956 60.6426 153.952 60.7521 153.947 60.8736C153.943 60.9952 153.939 61.0924 153.951 60.7642C153.912 60.9889 153.903 61.2179 153.925 61.445C153.91 61.8461 153.895 62.2351 153.878 62.6606C153.862 63.0861 153.87 62.8916 153.882 62.5634C153.878 62.6728 153.873 62.7943 153.869 62.9037C153.865 63.0131 153.951 63.3452 154.004 63.5663C154.05 63.7904 154.107 64.012 154.176 64.2304C154.17 64.3762 154.329 65.052 154.253 64.4768C154.366 64.8569 154.539 65.217 154.767 65.5436C154.872 65.7425 154.997 65.9308 155.14 66.1058C154.712 65.6754 155.234 66.219 155.317 66.3074C155.465 66.4845 155.623 66.6532 155.791 66.8126C155.862 66.8884 156.471 67.411 156.04 67.0657C156.378 67.331 156.731 67.5763 157.097 67.8003L157.702 68.1158C157.182 67.8401 157.875 68.1224 157.982 68.2239C158.432 68.3888 158.892 68.5245 159.36 68.63L159.286 68.6272L159.643 68.6409L160.173 68.6613L160.887 68.6888C161.146 68.6988 161.121 68.6978 160.801 68.6855L161.146 68.6988C161.653 68.6188 162.15 68.487 162.629 68.3054C162.066 68.5029 162.805 68.2148 162.918 68.1704L163.561 67.8056C164.103 67.5268 164.735 67.4687 165.321 67.6437C165.906 67.8186 165.48 67.836 165.775 68.3651C166.046 68.9029 164.927 69.323 164.751 69.8975C164.575 70.472 164.879 71.1742 164.352 71.474L163.84 71.9412Z" fill="#0000FF"/>
<path d="M169.178 54.8172C175.337 58.7001 181.151 63.1548 186.552 68.1282C186.85 68.4907 190.677 67.4089 190.651 67.8876C190.043 68.2498 186.746 70.3684 186.41 70.6948C186.075 71.0212 185.633 71.1985 185.177 71.1894C184.721 71.1803 184.286 70.9855 183.966 70.6461C178.775 65.8941 173.189 61.6422 167.272 57.9415C167.078 57.8108 166.91 57.6409 166.778 57.4417C166.646 57.2424 166.552 57.0176 166.503 56.7801C166.454 56.5426 166.45 56.2971 166.491 56.0576C166.532 55.818 166.617 55.5891 166.743 55.384C166.868 55.1788 167.03 55.0014 167.22 54.8619C167.41 54.7224 167.624 54.6235 167.85 54.5709C168.077 54.5183 168.31 54.5129 168.538 54.5552C168.766 54.5974 168.983 54.6865 169.178 54.8172Z" fill="#0000FF"/>
<path d="M208.713 97.2033C209.523 98.3824 210.711 99.2495 212.08 99.6612C213.449 100.073 214.918 100.005 216.243 99.4675C217.568 98.9305 218.67 97.9569 219.368 96.7078C220.065 95.4586 220.316 94.0087 220.078 92.5978C219.998 92.2053 220.02 91.7987 220.142 91.4172C220.265 91.0357 220.483 90.6923 220.777 90.4201C221.071 90.1479 221.43 89.956 221.819 89.8631C222.209 89.7702 222.616 89.7794 223 89.8897C224.926 90.1377 226.883 89.821 228.633 88.978C230.383 88.1351 231.85 86.802 232.858 85.1407C234.824 81.9317 234.644 75.5144 229.638 75.6148C227.758 75.6523 226.573 72.835 228.168 71.6509C229.771 70.5092 231.002 68.9194 231.706 67.0807C232.411 65.2421 232.557 63.2362 232.128 61.3146C231.616 59.4333 230.557 57.7465 229.086 56.4683C227.614 55.19 225.797 54.3777 223.864 54.1343C221.848 53.898 220.59 50.7604 222.883 49.8229C227.581 47.9035 229.625 42.0236 226.145 37.9701C225.361 37.0514 224.368 36.3354 223.249 35.8827C222.13 35.43 220.918 35.2539 219.717 35.3694C218.515 35.4849 217.359 35.8886 216.346 36.5462C215.334 37.2039 214.494 38.0961 213.9 39.1473C213.65 39.5158 213.3 39.8046 212.891 39.9792C212.482 40.1539 212.031 40.207 211.592 40.1321C211.154 40.0573 210.746 39.8578 210.418 39.5573C210.09 39.2569 209.855 38.8682 209.742 38.4378C209.065 35.4202 208.227 30.8945 204.74 29.8812C200.903 28.7689 198.49 33.7678 197.07 36.4361C196.081 38.3395 193.456 37.4326 192.912 35.7388C191.596 31.5733 189.77 26.3747 185.153 24.9271C184.161 24.63 183.106 24.6199 182.108 24.898C181.111 25.1761 180.212 25.731 179.517 26.4986C178.821 27.2662 178.357 28.2151 178.177 29.2357C177.998 30.2563 178.11 31.3069 178.502 32.266C178.751 32.7579 178.817 33.3219 178.689 33.858C178.561 34.394 178.247 34.8674 177.804 35.194C177.357 35.5223 176.806 35.6745 176.254 35.6218C175.703 35.569 175.19 35.3149 174.814 34.908C172.565 31.8299 168.796 29.2794 164.87 30.8012C162.057 31.914 159.945 36.0819 162.822 38.3661C163.289 38.711 163.607 39.2204 163.714 39.7914C163.82 40.3624 163.706 40.9526 163.394 41.4427C163.083 41.9328 162.597 42.2864 162.035 42.4321C161.473 42.5778 160.877 42.5048 160.367 42.2278C158.925 41.4841 157.247 41.3442 155.702 41.8389C154.157 42.3336 152.871 43.4224 152.128 44.8656C151.385 46.3089 151.245 47.9884 151.739 49.5348C152.233 51.0812 153.321 52.3677 154.763 53.1113C155.33 53.3118 155.8 53.721 156.076 54.2556C156.352 54.7902 156.415 55.4101 156.251 55.9892C156.063 56.5632 155.658 57.0408 155.123 57.3193C154.587 57.5978 153.964 57.6549 153.387 57.4785C147.982 54.9506 145.128 48.2837 147.853 42.7597C150.579 37.2356 157.61 35.5769 162.773 38.3642L160.318 42.2259C159.173 41.2891 158.274 40.0861 157.7 38.7219C157.125 37.3576 156.893 35.8734 157.023 34.3987C157.153 32.924 157.642 31.5034 158.446 30.261C159.251 29.0185 160.346 27.9917 161.638 27.2701C167.407 23.829 174.42 26.7485 178.118 31.7872L174.356 34.4264C173.612 32.8038 173.301 31.016 173.453 29.2372C173.605 27.4584 174.215 25.7492 175.223 24.2763C176.226 22.9 177.558 21.7974 179.098 21.0695C180.637 20.3416 182.334 20.0116 184.033 20.1097C191.734 20.6747 195.212 28.2691 197.259 34.685L193.101 33.9756C195.538 29.3073 199.589 23.9075 205.632 25.3977C211.119 26.7566 213.033 32.5081 214.126 37.3855L209.968 36.676C210.93 35.0259 212.271 33.6286 213.879 32.5999C215.488 31.5712 217.318 30.9406 219.218 30.7603C221.118 30.58 223.034 30.8551 224.807 31.563C226.58 32.2709 228.159 33.3911 229.413 34.831C230.667 36.2708 231.561 37.989 232.02 39.8432C232.479 41.6974 232.49 43.6344 232.053 45.4939C231.615 47.3533 230.741 49.0818 229.504 50.5363C228.266 51.9908 226.701 53.1295 224.936 53.8581L223.942 49.5585C226.791 49.8601 229.488 50.9918 231.699 52.8134C233.911 54.6349 235.539 57.0661 236.383 59.8055C237.112 62.5634 237.008 65.4758 236.083 68.1745C235.159 70.8731 233.455 73.2367 231.188 74.9662L229.73 71.0028C231.443 71.0094 233.116 71.5248 234.537 72.4837C235.957 73.4426 237.061 74.8019 237.709 76.3894C238.347 78.0079 238.633 79.7435 238.549 81.4812C238.465 83.2189 238.014 84.9189 237.224 86.4687C235.791 89.2805 233.489 91.554 230.661 92.9502C227.833 94.3464 224.629 94.7906 221.528 94.2166L224.451 91.5084C224.899 93.9838 224.475 96.5382 223.251 98.7354C222.027 100.933 220.078 102.636 217.738 103.555C215.398 104.474 212.812 104.552 210.421 103.774C208.031 102.997 207.686 101.821 206.333 99.7006C206.051 99.1661 205.556 98.5799 205.731 98.0013C205.906 97.4227 205.036 96.4907 205.567 96.2031C206.105 95.9295 206.727 95.8743 207.305 96.0489C207.882 96.2236 208.37 96.6146 208.666 97.1405L208.713 97.2033Z" fill="#0000FF"/>
<path fill-rule="evenodd" clip-rule="evenodd" d="M166.392 56.6659C167.197 56.716 167.808 57.4091 167.758 58.2138C167.501 62.3433 166.93 66.2669 165.291 70.0376C163.81 73.4447 161.49 76.6523 157.874 79.7735C159.031 80.655 160.469 81.1329 161.905 81.3626C163.803 81.6665 165.493 81.5013 166.008 81.4196C166.457 81.3485 166.913 81.4901 167.242 81.8029C167.571 82.1157 167.737 82.5639 167.689 83.0156C167.557 84.2596 168.251 86.5789 169.941 88.8917C171.59 91.1474 173.988 93.1136 176.87 93.8421C180.576 94.7788 183.711 94.0861 186.472 92.3011C189.286 90.4816 191.761 87.4898 193.959 83.7706C194.369 83.0764 195.264 82.8461 195.958 83.2563C196.652 83.6664 196.883 84.5617 196.473 85.2559C194.163 89.165 191.408 92.5869 188.057 94.7532C184.653 96.954 180.69 97.8194 176.155 96.6731C172.444 95.7353 169.518 93.2613 167.584 90.6146C166.142 88.642 165.133 86.4049 164.84 84.4467C163.909 84.4801 162.718 84.4499 161.443 84.2459C159.181 83.8838 156.45 82.9385 154.559 80.599C154.314 80.296 154.201 79.9077 154.244 79.5205C154.286 79.1333 154.482 78.7793 154.788 78.5372C158.817 75.3421 161.181 72.1687 162.613 68.8735C164.055 65.558 164.595 62.0264 164.844 58.0323C164.894 57.2275 165.587 56.6157 166.392 56.6659Z" fill="#0000FF"/>
<path fill-rule="evenodd" clip-rule="evenodd" d="M184.367 107.57L182.945 94.8336L185.847 94.5096L187.269 107.246L184.367 107.57Z" fill="#0000FF"/>
<path fill-rule="evenodd" clip-rule="evenodd" d="M202.17 78.7448C202.956 78.5612 203.741 79.0488 203.925 79.8339L211.361 111.625C211.544 112.411 211.057 113.196 210.272 113.38C209.486 113.563 208.701 113.076 208.517 112.291L201.081 80.499C200.898 79.7138 201.385 78.9285 202.17 78.7448Z" fill="#0000FF"/>
<path d="M51.6697 95.1383L2 133.528L112.164 259L359 53.3143L310.353 6L112.164 166.597L51.6697 95.1383Z" fill="#2DDFD5"/>
<path fill-rule="evenodd" clip-rule="evenodd" d="M309.434 4.86571C310.009 4.40002 310.841 4.4377 311.371 4.95343L360.018 52.2677C360.315 52.5562 360.475 52.9569 360.459 53.3704C360.443 53.7838 360.252 54.1711 359.935 54.4359L113.099 260.122C112.491 260.628 111.589 260.558 111.067 259.963L0.902853 134.491C0.636924 134.189 0.508036 133.789 0.546725 133.388C0.585414 132.987 0.788237 132.619 1.10714 132.373L50.7769 93.9831C51.3949 93.5055 52.2794 93.5988 52.784 94.195L112.355 164.563L309.434 4.86571ZM310.265 7.95079L113.083 167.732C112.466 168.232 111.563 168.147 111.05 167.541L51.4577 97.1475L4.12259 133.733L112.323 256.968L356.82 53.2306L310.265 7.95079Z" fill="#0000FF"/>
<path d="M38.0983 24.0867C39.2268 24.0867 40.1416 23.1719 40.1416 22.0433C40.1416 20.9148 39.2268 20 38.0983 20C36.9698 20 36.0549 20.9148 36.0549 22.0433C36.0549 23.1719 36.9698 24.0867 38.0983 24.0867Z" fill="#0000FF"/>
<path fill-rule="evenodd" clip-rule="evenodd" d="M18.5405 31.9683C18.5405 31.1622 19.1939 30.5088 20 30.5088V31.9683V33.4279C19.1939 33.4279 18.5405 32.7744 18.5405 31.9683ZM56.1966 31.9683L56.1965 33.4279H20V31.9683V30.5088H56.1958L56.1966 31.9683ZM56.1966 31.9683L56.1965 33.4279C57.0026 33.4279 57.6561 32.7744 57.6561 31.9683C57.6561 31.1622 57.0018 30.5088 56.1958 30.5088L56.1966 31.9683Z" fill="#0000FF"/>
<path fill-rule="evenodd" clip-rule="evenodd" d="M45.6879 22.0433C45.6879 21.2372 46.3413 20.5837 47.1474 20.5837V22.0433V23.5028C46.3413 23.5028 45.6879 22.8494 45.6879 22.0433ZM78.0897 22.0433L78.0896 23.5028H47.1474V22.0433V20.5837H78.0896L78.0897 22.0433ZM78.0897 22.0433L78.0896 23.5028C78.8957 23.5028 79.5492 22.8494 79.5492 22.0433C79.5492 21.2372 78.8957 20.5837 78.0896 20.5837L78.0897 22.0433Z" fill="#0000FF"/>
<path d="M381.991 252.882C380.863 252.882 379.948 253.796 379.948 254.925C379.948 256.053 380.863 256.968 381.991 256.968C383.12 256.968 384.035 256.053 384.035 254.925C384.035 253.796 383.12 252.882 381.991 252.882Z" fill="#0000FF"/>
<path fill-rule="evenodd" clip-rule="evenodd" d="M374.46 255C374.46 255.806 373.806 256.459 373 256.459L373 255L373 253.54C373.806 253.54 374.46 254.194 374.46 255ZM322 255C322 254.909 322 254.823 322 254.743C322 253.54 322 253.54 322 253.54L373 253.54C373 253.54 373 253.54 373 255C373 256.459 373 256.459 373 256.459L322.001 256.459C322 256.459 322 256.459 322 255ZM322 255L322 253.54C321.194 253.54 320.54 254.194 320.54 255C320.54 255.806 321.194 256.459 322.001 256.459L322 255Z" fill="#0000FF"/>
<path d="M164.623 321.246C166.624 321.246 168.246 319.624 168.246 317.623C168.246 315.622 166.624 314 164.623 314C162.622 314 161 315.622 161 317.623C161 319.624 162.622 321.246 164.623 321.246Z" fill="#0000FF"/>
<path d="M178.386 321.246C180.387 321.246 182.009 319.623 182.009 317.623C182.009 315.622 180.387 314 178.386 314C176.385 314 174.763 315.622 174.763 317.623C174.763 319.623 176.385 321.246 178.386 321.246Z" fill="#0000FF"/>
<path d="M192.149 321.246C194.15 321.246 195.772 319.623 195.772 317.623C195.772 315.622 194.15 314 192.149 314C190.148 314 188.526 315.622 188.526 317.623C188.526 319.623 190.148 321.246 192.149 321.246Z" fill="#0000FF"/>
<path d="M205.922 321.246C207.923 321.246 209.545 319.623 209.545 317.623C209.545 315.622 207.923 314 205.922 314C203.921 314 202.299 315.622 202.299 317.623C202.299 319.623 203.921 321.246 205.922 321.246Z" fill="#0000FF"/>
<path d="M219.685 321.246C221.686 321.246 223.308 319.623 223.308 317.623C223.308 315.622 221.686 314 219.685 314C217.684 314 216.062 315.622 216.062 317.623C216.062 319.623 217.684 321.246 219.685 321.246Z" fill="#0000FF"/>
<path d="M171.254 330.79C173.255 330.79 174.877 329.168 174.877 327.167C174.877 325.166 173.255 323.544 171.254 323.544C169.253 323.544 167.631 325.166 167.631 327.167C167.631 329.168 169.253 330.79 171.254 330.79Z" fill="#0000FF"/>
<path d="M185.026 330.79C187.027 330.79 188.649 329.168 188.649 327.167C188.649 325.166 187.027 323.544 185.026 323.544C183.026 323.544 181.404 325.166 181.404 327.167C181.404 329.168 183.026 330.79 185.026 330.79Z" fill="#0000FF"/>
<path d="M198.79 330.79C200.791 330.79 202.413 329.168 202.413 327.167C202.413 325.166 200.791 323.544 198.79 323.544C196.789 323.544 195.167 325.166 195.167 327.167C195.167 329.168 196.789 330.79 198.79 330.79Z" fill="#0000FF"/>
<path d="M212.553 330.79C214.554 330.79 216.176 329.168 216.176 327.167C216.176 325.166 214.554 323.544 212.553 323.544C210.552 323.544 208.93 325.166 208.93 327.167C208.93 329.168 210.552 330.79 212.553 330.79Z" fill="#0000FF"/>
<path d="M233.386 321.246C235.387 321.246 237.009 319.623 237.009 317.623C237.009 315.622 235.387 314 233.386 314C231.385 314 229.763 315.622 229.763 317.623C229.763 319.623 231.385 321.246 233.386 321.246Z" fill="#0000FF"/>
<path d="M247.149 321.246C249.15 321.246 250.772 319.623 250.772 317.623C250.772 315.622 249.15 314 247.149 314C245.148 314 243.526 315.622 243.526 317.623C243.526 319.623 245.148 321.246 247.149 321.246Z" fill="#0000FF"/>
<path d="M226.254 330.79C228.255 330.79 229.877 329.168 229.877 327.167C229.877 325.166 228.255 323.544 226.254 323.544C224.253 323.544 222.631 325.166 222.631 327.167C222.631 329.168 224.253 330.79 226.254 330.79Z" fill="#0000FF"/>
<path d="M240.027 330.79C242.027 330.79 243.649 329.168 243.649 327.167C243.649 325.166 242.027 323.544 240.027 323.544C238.026 323.544 236.404 325.166 236.404 327.167C236.404 329.168 238.026 330.79 240.027 330.79Z" fill="#0000FF"/>
<path fill-rule="evenodd" clip-rule="evenodd" d="M148 314.54C148 313.734 148.654 313.08 149.46 313.08H262.54C263.346 313.08 264 313.734 264 314.54C264 315.346 263.346 316 262.54 316H149.46C148.654 316 148 315.346 148 314.54Z" fill="#0000FF"/>
<path d="M98.8573 189.47C100.726 190.186 102.821 189.252 103.537 187.384C104.253 185.515 103.319 183.42 101.45 182.704C99.5818 181.988 97.4868 182.922 96.7708 184.791C96.0547 186.659 96.9889 188.754 98.8573 189.47Z" fill="#0000FF"/>
<path d="M110.709 195.395C112.577 196.111 114.673 195.177 115.389 193.309C116.105 191.44 115.17 189.345 113.302 188.629C111.434 187.913 109.339 188.847 108.623 190.716C107.907 192.584 108.841 194.679 110.709 195.395Z" fill="#0000FF"/>
<path d="M123.561 200.32C125.429 201.036 127.524 200.102 128.24 198.234C128.956 196.365 128.022 194.27 126.154 193.554C124.285 192.838 122.19 193.772 121.474 195.641C120.758 197.509 121.693 199.604 123.561 200.32Z" fill="#0000FF"/>
<path d="M136.422 205.249C138.29 205.965 140.385 205.031 141.101 203.162C141.817 201.294 140.883 199.199 139.014 198.483C137.146 197.767 135.051 198.701 134.335 200.569C133.619 202.438 134.553 204.533 136.422 205.249Z" fill="#0000FF"/>
<path d="M149.273 210.174C151.142 210.89 153.237 209.956 153.953 208.087C154.669 206.219 153.735 204.124 151.866 203.408C149.998 202.692 147.903 203.626 147.187 205.495C146.471 207.363 147.405 209.458 149.273 210.174Z" fill="#0000FF"/>
<path d="M113.494 206.684C115.363 207.4 117.458 206.466 118.174 204.597C118.89 202.729 117.956 200.634 116.087 199.918C114.219 199.202 112.124 200.136 111.408 202.004C110.692 203.873 111.626 205.968 113.494 206.684Z" fill="#0000FF"/>
<path d="M126.346 211.609C128.214 212.325 130.309 211.391 131.025 209.522C131.741 207.654 130.807 205.559 128.939 204.843C127.071 204.127 124.976 205.061 124.26 206.929C123.544 208.798 124.478 210.893 126.346 211.609Z" fill="#0000FF"/>
<path d="M139.198 216.534C141.066 217.25 143.161 216.316 143.877 214.448C144.593 212.579 143.659 210.484 141.791 209.768C139.922 209.052 137.827 209.986 137.111 211.855C136.395 213.723 137.33 215.818 139.198 216.534Z" fill="#0000FF"/>
<path d="M173.492 208.892L164.733 201.783L158.33 201.723L160.978 185.661L170.692 190.749L182.593 204.291L180.427 210.44L173.492 208.892Z" fill="white"/>
<path d="M160.158 183.781C169.946 186.378 178.968 193.366 183.048 202.795C183.623 203.93 183.928 205.182 183.939 206.454C183.95 207.726 183.668 208.984 183.113 210.129C182.551 211.113 181.702 211.903 180.679 212.393C179.656 212.883 178.509 213.049 177.389 212.87C175.111 212.444 173.054 211.234 171.574 209.451C169.782 207.475 168.239 205.014 165.425 204.386C162.611 203.757 159.476 204.422 156.55 203.451C155.358 203.157 154.259 202.565 153.357 201.732C152.454 200.898 151.777 199.85 151.389 198.684C150.811 196.516 154.105 195.336 154.693 197.518C155.756 201.479 161.841 200.435 164.819 200.763C167.006 200.968 169.069 201.872 170.702 203.34C172.239 204.731 173.364 206.529 174.917 207.899C175.925 208.831 177.99 210.075 179.437 209.108C181.257 207.868 180.277 205.075 179.545 203.519C177.701 199.79 175.104 196.483 171.918 193.807C168.318 190.699 164.063 188.445 159.47 187.213C157.313 186.629 157.955 183.188 160.135 183.776L160.158 183.781Z" fill="#0000FF"/>
<path d="M158.257 180.838C158.78 181.238 159.073 181.871 159.039 182.53L157.957 203.457C157.896 204.634 156.861 205.5 155.701 205.289C145.36 203.413 100.576 193.78 87.7985 165.818C76.2429 144.257 181.431 110.494 181.431 110.494L156.512 130.438L125.209 155.565L158.257 180.838Z" fill="#417CFF"/>
<path fill-rule="evenodd" clip-rule="evenodd" d="M89.7595 157.995C88.1614 160.691 87.9537 163.018 89.0849 165.129C89.0994 165.156 89.1131 165.183 89.126 165.211C95.2852 178.69 109.256 187.901 123.246 193.998C137.185 200.072 150.842 202.924 155.962 203.853C156.207 203.898 156.482 203.73 156.5 203.382L157.582 182.454C157.591 182.276 157.512 182.105 157.37 181.997L124.322 156.724C123.966 156.452 123.755 156.03 123.75 155.582C123.744 155.133 123.946 154.707 124.295 154.426L174.086 114.503C171.701 115.327 168.855 116.327 165.672 117.479C156.01 120.974 143.259 125.855 130.878 131.402C118.474 136.96 106.532 143.148 98.431 149.244C94.3701 152.299 91.3863 155.25 89.7595 157.995ZM181.431 110.494C180.985 109.104 180.984 109.104 180.983 109.105L180.906 109.129L180.679 109.203C180.478 109.268 180.182 109.365 179.796 109.492C179.025 109.745 177.897 110.12 176.466 110.604C173.604 111.572 169.531 112.979 164.679 114.734C154.98 118.243 142.156 123.15 129.685 128.738C117.236 134.317 105.048 140.612 96.676 146.911C92.5005 150.053 89.1624 153.277 87.2485 156.506C85.3143 159.769 84.759 163.198 86.4896 166.465C93.1172 180.926 107.913 190.5 122.08 196.674C136.313 202.876 150.219 205.778 155.441 206.726C157.515 207.102 159.311 205.538 159.415 203.532L160.497 182.605C160.556 181.466 160.049 180.371 159.143 179.678L127.575 155.537L182.343 111.633C182.893 111.193 183.05 110.424 182.717 109.803C182.384 109.183 181.655 108.889 180.985 109.104L181.431 110.494Z" fill="#0000FF"/>
<path fill-rule="evenodd" clip-rule="evenodd" d="M112.621 147.781C113.01 147.074 113.897 146.817 114.603 147.206C119.971 150.159 124.261 153.139 126.467 154.67C126.973 155.022 127.37 155.297 127.644 155.478C128.317 155.923 128.502 156.828 128.058 157.501C127.614 158.173 126.708 158.359 126.035 157.914C125.721 157.707 125.288 157.406 124.745 157.03C122.502 155.473 118.4 152.626 113.196 149.763C112.49 149.374 112.232 148.487 112.621 147.781Z" fill="#0000FF"/>
<path fill-rule="evenodd" clip-rule="evenodd" d="M358.619 63.0627C359.137 63.6809 359.056 64.6018 358.437 65.1194L112.437 271.119C111.832 271.627 110.933 271.56 110.408 270.969L58.9083 212.969C58.3729 212.367 58.4277 211.444 59.0306 210.908C59.6336 210.373 60.5564 210.428 61.0917 211.031L111.65 267.97L356.563 62.8807C357.181 62.363 358.102 62.4445 358.619 63.0627Z" fill="#0000FF"/>
<path d="M305.469 103.426L309.019 89.8252L312.38 77.923L320.532 75.972L325.442 84.2049L325.58 90.3864L318.67 99.2053L305.469 103.426Z" fill="white"/>
<path d="M300.862 104.072C306.697 104.596 313.002 103.686 318.162 100.672C320.493 99.3139 322.504 97.4684 324.052 95.2653C325.599 93.0622 326.647 90.5548 327.121 87.9193C327.929 82.8247 326.189 76.4986 320.899 74.542C319.586 74.1052 318.181 73.9964 316.808 74.2251C315.434 74.4539 314.134 75.0132 313.022 75.8541C310.687 77.6526 309.012 80.1657 308.263 82.9964C307.235 86.3336 307.212 89.8606 306.675 93.2955C306.494 94.7313 306.163 96.1461 305.687 97.5169C305.211 98.4805 304.492 99.3069 303.601 99.9142C303.327 100.199 303.176 100.578 303.182 100.97C303.187 101.361 303.349 101.732 303.632 102.002C303.916 102.261 304.292 102.399 304.68 102.389C305.068 102.379 305.439 102.221 305.716 101.948C307.279 100.756 308.386 99.0697 308.85 97.1735C309.46 94.4714 309.88 91.7327 310.109 88.9773C310.608 84.4756 311.912 78.1138 317.279 77.0826C322.342 76.0967 324.588 82.2386 324.342 86.208C324.147 88.4316 323.458 90.5905 322.326 92.5293C321.195 94.4682 319.648 96.139 317.796 97.4215C312.939 100.773 306.589 101.637 300.85 101.119C300.656 101.122 300.465 101.162 300.286 101.238C300.107 101.314 299.945 101.425 299.809 101.563C299.672 101.701 299.564 101.864 299.49 102.042C299.417 102.221 299.379 102.412 299.38 102.604C299.389 102.99 299.547 103.356 299.823 103.625C300.098 103.894 300.469 104.045 300.857 104.048L300.862 104.072Z" fill="#0000FF"/>
<path d="M409 198C409 209.046 400.046 218 389 218C377.954 218 369 209.046 369 198C369 186.954 377.954 178 389 178C400.046 178 409 186.954 409 198Z" fill="#FF5657"/>
<path fill-rule="evenodd" clip-rule="evenodd" d="M389 215.08C398.433 215.08 406.08 207.433 406.08 198C406.08 188.567 398.433 180.92 389 180.92C379.567 180.92 371.92 188.567 371.92 198C371.92 207.433 379.567 215.08 389 215.08ZM389 218C400.046 218 409 209.046 409 198C409 186.954 400.046 178 389 178C377.954 178 369 186.954 369 198C369 209.046 377.954 218 389 218Z" fill="#0000FF"/>
</svg>
