<svg width="452" height="271" viewBox="0 0 452 271" fill="none" xmlns="http://www.w3.org/2000/svg">
<path d="M339.04 196.941L378.35 202.511L377.67 230.461L337.22 228.871L339.04 196.941Z" fill="#417CFF"/>
<path d="M378.7 232.112L338.12 231.332C337.656 231.332 337.211 231.147 336.882 230.819C336.554 230.491 336.37 230.046 336.37 229.582C336.37 229.117 336.554 228.672 336.882 228.344C337.211 228.016 337.656 227.832 338.12 227.832L376.93 228.582V202.702L337.58 198.852C337.117 198.806 336.691 198.579 336.396 198.22C336.1 197.861 335.96 197.399 336.005 196.937C336.05 196.474 336.277 196.048 336.636 195.752C336.995 195.457 337.457 195.316 337.92 195.362L378.87 199.362C379.303 199.406 379.704 199.61 379.996 199.933C380.288 200.256 380.45 200.676 380.45 201.112V230.352C380.45 230.585 380.403 230.816 380.312 231.03C380.221 231.245 380.087 231.439 379.92 231.602C379.595 231.924 379.157 232.107 378.7 232.112Z" fill="#0000FF"/>
<path d="M337.66 151.132L338.62 189.362L373.15 207.432L386.84 181.842L337.66 151.132Z" fill="#417CFF"/>
<path d="M411.54 229.691C405.84 228.751 400.17 227.611 394.54 226.351C389.763 225.361 385.04 224.126 380.39 222.651C378.1 221.881 377.12 225.502 379.39 226.262C384.038 227.744 388.761 228.979 393.54 229.961C399.18 231.231 404.85 232.361 410.54 233.311C412.9 233.701 413.92 230.091 411.54 229.691Z" fill="#0000FF"/>
<path d="M427.96 231.072C424.96 231.012 421.96 230.722 418.96 230.382C418.463 230.382 417.986 230.578 417.634 230.929C417.282 231.279 417.083 231.755 417.08 232.252C417.095 232.745 417.298 233.215 417.647 233.564C417.997 233.914 418.466 234.117 418.96 234.132C421.96 234.472 424.96 234.762 427.96 234.822C428.434 234.787 428.877 234.574 429.2 234.227C429.523 233.879 429.703 233.421 429.703 232.947C429.703 232.472 429.523 232.014 429.2 231.667C428.877 231.319 428.434 231.106 427.96 231.072Z" fill="#0000FF"/>
<path d="M416.53 200.782C418.237 199.129 419.642 197.189 420.68 195.052C421.767 192.442 422.584 189.728 423.12 186.952C423.68 184.442 424.22 181.662 426.12 179.772C426.938 178.857 427.973 178.164 429.131 177.756C430.288 177.349 431.53 177.241 432.74 177.442C435.09 177.972 436.09 174.362 433.74 173.822C432.292 173.506 430.793 173.499 429.342 173.803C427.891 174.106 426.52 174.712 425.32 175.582C422.894 177.306 421.13 179.808 420.32 182.672C419.32 185.722 418.96 188.902 417.9 191.922C417.043 194.262 415.677 196.384 413.9 198.132C412.22 199.862 414.9 202.512 416.55 200.782H416.53Z" fill="#0000FF"/>
<path d="M379.02 207.901C379.7 207.901 380.37 207.901 381.02 207.961L383.22 208.091C383.717 208.091 384.193 207.895 384.546 207.544C384.898 207.194 385.097 206.718 385.1 206.221C385.09 205.726 384.888 205.254 384.538 204.903C384.188 204.553 383.715 204.352 383.22 204.341C382.07 204.271 380.9 204.151 379.74 204.161H378.99C378.493 204.161 378.016 204.358 377.664 204.709C377.312 205.059 377.113 205.535 377.11 206.031C377.12 206.527 377.321 206.999 377.672 207.35C378.022 207.7 378.494 207.901 378.99 207.911L379.02 207.901Z" fill="#0000FF"/>
<path d="M429.06 234.371H428.91C428.449 234.331 428.023 234.109 427.725 233.755C427.427 233.401 427.281 232.943 427.32 232.481L429.09 211.791C429.13 211.329 429.352 210.901 429.707 210.601C430.062 210.302 430.522 210.157 430.985 210.196C431.448 210.236 431.876 210.458 432.175 210.814C432.474 211.169 432.62 211.629 432.58 212.091L430.8 232.781C430.762 233.216 430.562 233.621 430.24 233.916C429.918 234.21 429.497 234.373 429.06 234.371Z" fill="#0000FF"/>
<path d="M432.85 190.132H432.7C432.471 190.113 432.248 190.049 432.044 189.943C431.84 189.838 431.659 189.693 431.512 189.518C431.364 189.342 431.252 189.139 431.183 188.92C431.114 188.701 431.089 188.47 431.11 188.242L432.19 175.572C432.23 175.109 432.452 174.681 432.807 174.382C433.163 174.083 433.622 173.937 434.085 173.977C434.548 174.016 434.976 174.238 435.275 174.594C435.574 174.949 435.72 175.409 435.68 175.872L434.59 188.532C434.553 188.968 434.353 189.374 434.031 189.67C433.709 189.966 433.288 190.131 432.85 190.132Z" fill="#0000FF"/>
<path d="M373.01 209.852C372.705 209.85 372.406 209.771 372.14 209.622L336.88 189.512C336.649 189.417 336.441 189.273 336.27 189.091C336.099 188.909 335.969 188.692 335.889 188.456C335.809 188.22 335.78 187.969 335.804 187.72C335.829 187.472 335.907 187.231 336.032 187.015C336.157 186.799 336.327 186.613 336.531 186.468C336.734 186.323 336.966 186.223 337.212 186.176C337.457 186.128 337.709 186.133 337.952 186.191C338.195 186.249 338.423 186.358 338.62 186.512L372.32 205.742L385.26 182.022L336.81 151.172C336.412 150.922 336.13 150.525 336.025 150.068C335.919 149.61 336.001 149.129 336.25 148.732C336.499 148.334 336.896 148.051 337.354 147.946C337.811 147.841 338.292 147.922 338.69 148.172L388.52 179.852C388.894 180.091 389.164 180.463 389.276 180.894C389.387 181.324 389.331 181.781 389.12 182.172L374.54 208.892C374.431 209.097 374.28 209.278 374.098 209.422C373.915 209.567 373.705 209.672 373.48 209.732C373.331 209.797 373.172 209.838 373.01 209.852Z" fill="#0000FF"/>
<path d="M415.94 231.751C410.77 228.751 406.14 224.751 401.64 220.901C396.1 216.131 390.73 211.131 385.64 205.901C383.48 203.681 381.34 201.421 379.4 199.001C379.043 198.679 378.575 198.506 378.094 198.517C377.613 198.529 377.154 198.725 376.813 199.065C376.472 199.405 376.274 199.862 376.261 200.344C376.247 200.825 376.419 201.293 376.74 201.651C380.764 206.433 385.107 210.937 389.74 215.131C395.07 220.131 400.57 225.071 406.36 229.571C408.818 231.556 411.411 233.367 414.12 234.991C416.22 236.191 418.12 232.991 416.01 231.751H415.94Z" fill="#0000FF"/>
<path d="M448.19 184.691C443.19 180.331 436.64 182.011 432.26 186.351C430.03 188.561 428.2 191.151 425.79 193.171C422.346 196.031 418.103 197.757 413.641 198.115C409.179 198.473 404.716 197.445 400.86 195.171C398.26 193.601 395.7 191.971 393.12 190.371L385.72 185.851C383.72 184.581 381.78 187.851 383.83 189.091L398.36 198.091C403.332 201.125 409.184 202.387 414.964 201.669C420.744 200.952 426.111 198.299 430.19 194.141C432.52 191.741 434.47 188.661 437.4 186.941C438.619 186.147 440.058 185.758 441.511 185.832C442.965 185.906 444.357 186.438 445.49 187.351C447.3 188.921 449.97 186.281 448.14 184.691H448.19Z" fill="#0000FF"/>
<path d="M415.97 236.131C415.615 236.141 415.265 236.04 414.97 235.841C414.777 235.715 414.611 235.552 414.482 235.361C414.352 235.17 414.262 234.955 414.216 234.729C414.171 234.503 414.171 234.27 414.216 234.044C414.261 233.818 414.351 233.603 414.48 233.411L446 185.791C446.119 185.583 446.279 185.401 446.471 185.257C446.663 185.113 446.882 185.01 447.115 184.955C447.349 184.899 447.591 184.892 447.827 184.934C448.063 184.976 448.288 185.066 448.488 185.199C448.688 185.331 448.859 185.503 448.989 185.705C449.12 185.906 449.207 186.132 449.247 186.368C449.287 186.605 449.277 186.847 449.219 187.08C449.161 187.313 449.056 187.531 448.91 187.721L417.43 235.351C417.27 235.592 417.053 235.789 416.798 235.925C416.543 236.061 416.259 236.132 415.97 236.131Z" fill="#0000FF"/>
<path d="M337.75 236.941H9.23999C8.77586 236.941 8.33074 236.757 8.00255 236.429C7.67436 236.101 7.48999 235.656 7.48999 235.191V106.991C7.49262 106.528 7.67783 106.085 8.00545 105.757C8.33307 105.429 8.77667 105.244 9.23999 105.241H337.75C338.214 105.241 338.659 105.426 338.987 105.754C339.316 106.082 339.5 106.527 339.5 106.991V235.191C339.5 235.656 339.316 236.101 338.987 236.429C338.659 236.757 338.214 236.941 337.75 236.941ZM10.99 233.441H335.99V108.741H10.99V233.441Z" fill="#0000FF"/>
<path d="M190.64 72.0016L252.03 79.0016L271.57 85.7616L278.27 99.1716L268.44 113.322L230.59 122.562L208.79 123.582L204.81 114.072L204.78 105.232H123.87L146.74 117.142L136.58 133.192L87.1699 116.942L80.7799 103.132L88.4099 90.8416L112.7 81.5916L162.06 71.2116L177.31 69.8716L190.64 72.0016Z" fill="#417CFF"/>
<path d="M198.7 41.7616C199.94 41.9216 208.31 39.2216 208.31 39.2216L207.93 30.6916L211.88 20.9116L201.94 16.4916L202.59 9.25162L192.19 7.79163L184.9 1.91162L173.19 9.52162L167.29 5.39162L159.97 12.3916L150.19 9.85162L144.63 17.9416L147.63 25.4016L140.4 31.7716L142.99 41.7016L138.51 49.7516L148.23 58.5516L156.23 67.2416L163.9 62.9816L166.17 46.7216L164.19 38.3616L173.19 34.7416L181.72 40.0316L195.92 30.9016L197.27 35.6016L198.7 41.7616Z" fill="#0000FF"/>
<path d="M181.28 38.3417C177.14 34.8917 170.85 31.7617 165.74 35.2317C164.638 35.9338 163.738 36.9105 163.127 38.066C162.517 39.2214 162.218 40.5157 162.26 41.8217C162.45 44.8217 164.18 47.2817 166 49.5817C166.281 49.8626 166.662 50.0204 167.06 50.0204C167.457 50.0204 167.839 49.8626 168.12 49.5817C168.394 49.2967 168.547 48.9168 168.547 48.5217C168.547 48.1265 168.394 47.7466 168.12 47.4617C166.86 45.8617 165.49 44.0617 165.27 41.9617C165.197 41.0778 165.383 40.1917 165.806 39.4119C166.228 38.6322 166.869 37.9927 167.65 37.5717C171.51 35.3017 176.16 37.9617 179.16 40.4617C179.446 40.7332 179.825 40.8845 180.22 40.8845C180.614 40.8845 180.994 40.7332 181.28 40.4617C181.556 40.1779 181.711 39.7976 181.711 39.4017C181.711 39.0057 181.556 38.6254 181.28 38.3417Z" fill="#0000FF"/>
<path d="M164.76 70.8516C165.993 63.6116 167.243 56.3816 168.51 49.1616C168.84 47.2716 165.95 46.4616 165.62 48.3616C164.34 55.5949 163.09 62.825 161.87 70.0516C161.55 71.9416 164.44 72.7516 164.76 70.8516Z" fill="#0000FF"/>
<path d="M204.82 46.9316C202.543 45.3833 200.742 43.2326 199.617 40.7197C198.492 38.2069 198.088 35.4308 198.45 32.7016C198.541 32.3189 198.483 31.9158 198.288 31.5742C198.093 31.2325 197.776 30.9777 197.4 30.8615C197.022 30.7576 196.619 30.8037 196.274 30.99C195.929 31.1763 195.67 31.4885 195.55 31.8615C195.043 35.2319 195.502 38.677 196.876 41.7963C198.25 44.9155 200.481 47.5806 203.31 49.4816C204.92 50.5516 206.42 47.9515 204.82 46.8915V46.9316Z" fill="#0000FF"/>
<path d="M202.76 47.8515L202.59 48.0015C202.43 48.1315 202.59 48.0015 202.59 48.0015C202.54 48.1215 202.28 48.2315 202.17 48.3015C202.06 48.3715 201.66 48.6215 201.39 48.7615L200.94 48.9815C200.94 48.9815 200.76 49.0915 200.73 49.0715C200.7 49.0515 200.99 48.9715 200.78 49.0715C200.57 49.1715 200.18 49.3015 199.87 49.4015C198.7 49.7552 197.503 50.0094 196.29 50.1615C195.914 50.2696 195.592 50.5161 195.39 50.8515C195.196 51.2057 195.143 51.6197 195.24 52.0115C195.37 52.3775 195.631 52.6823 195.973 52.867C196.315 53.0517 196.713 53.1032 197.09 53.0115C199.912 52.7808 202.607 51.7389 204.85 50.0115C205.131 49.7303 205.289 49.349 205.289 48.9515C205.289 48.554 205.131 48.1728 204.85 47.8915C204.563 47.6223 204.184 47.4724 203.79 47.4724C203.396 47.4724 203.017 47.6223 202.73 47.8915L202.76 47.8515Z" fill="#0000FF"/>
<path d="M195.19 52.3717C195.55 57.4417 190.9 60.8117 186.19 60.5617C181.08 60.2817 177.19 56.4816 174.82 52.2216C173.89 50.5316 171.29 52.0416 172.23 53.7416C175.23 59.1516 180.48 63.6516 186.96 63.5716C192.96 63.5016 198.67 58.7117 198.22 52.3717C198.09 50.4617 195.09 50.4417 195.22 52.3717H195.19Z" fill="#0000FF"/>
<path d="M179.19 61.3015C178.839 64.2388 178.652 67.1934 178.63 70.1515C178.63 70.5493 178.788 70.9309 179.069 71.2122C179.351 71.4935 179.732 71.6515 180.13 71.6515C180.528 71.6515 180.909 71.4935 181.191 71.2122C181.472 70.9309 181.63 70.5493 181.63 70.1515C181.652 67.1934 181.839 64.2388 182.19 61.3015C182.19 60.9037 182.032 60.5222 181.751 60.2409C181.469 59.9596 181.088 59.8015 180.69 59.8015C180.295 59.8116 179.92 59.9729 179.64 60.2521C179.361 60.5312 179.2 60.9069 179.19 61.3015Z" fill="#0000FF"/>
<path d="M250.74 93.5215L203.26 103.752C201.37 104.152 202.17 107.052 204.06 106.642L251.54 96.4215C253.43 96.0115 252.63 93.1215 250.74 93.5215Z" fill="#0000FF"/>
<path d="M209.78 122.512C207.648 117.018 206.262 111.264 205.66 105.402C205.65 105.007 205.488 104.631 205.209 104.352C204.93 104.073 204.555 103.912 204.16 103.902C203.764 103.907 203.385 104.066 203.105 104.347C202.825 104.627 202.665 105.005 202.66 105.402C203.259 111.535 204.681 117.559 206.89 123.312C207.014 123.68 207.273 123.987 207.614 124.173C207.955 124.358 208.354 124.408 208.73 124.312C209.103 124.192 209.415 123.932 209.601 123.587C209.788 123.243 209.834 122.839 209.73 122.462L209.78 122.512Z" fill="#0000FF"/>
<path d="M138.6 132.192C135.4 131.292 132.32 130.062 129.15 129.082C125.98 128.102 122.64 127.272 119.4 126.342C112.88 124.492 106.4 122.512 100.04 120.152C95.0399 118.282 89.7499 116.152 86.0399 112.152C82.3299 108.152 81.0399 102.482 84.2499 97.8316C86.9399 93.9416 91.7199 91.6516 95.8599 89.6716C101.252 87.1647 106.862 85.1563 112.62 83.6716C124.54 80.4516 136.78 78.6716 148.81 75.9716C155.17 74.5516 161.37 72.7016 167.89 72.1816C174.031 71.8059 180.195 72.1077 186.27 73.0816C196.19 74.4416 206.19 75.2716 216.16 76.1816C226.13 77.0916 236.03 77.9116 245.87 79.4216C250.87 80.1201 255.813 81.1795 260.66 82.5916C265.96 84.2116 271.15 86.9616 274.11 91.8216C277.07 96.6816 276.45 102.032 273.24 106.492C269.78 111.322 264.12 113.822 258.59 115.432C252.294 117.192 245.895 118.561 239.43 119.532C232.672 120.621 225.863 121.362 219.03 121.752C215.62 121.952 212.22 122.052 208.81 122.082C208.412 122.082 208.031 122.24 207.749 122.521C207.468 122.802 207.31 123.184 207.31 123.582C207.31 123.979 207.468 124.361 207.749 124.642C208.031 124.924 208.412 125.082 208.81 125.082C223.237 124.965 237.611 123.339 251.7 120.232C257.92 118.862 264.41 117.352 269.8 113.782C274.49 110.682 278.29 105.782 278.98 100.112C279.67 94.4416 276.83 89.2116 272.72 85.5916C267.95 81.4116 261.77 79.5916 255.72 78.2316C245.927 76.2714 236.026 74.8923 226.07 74.1016C215.19 73.0516 204.28 72.2016 193.42 70.9716C188.01 70.3516 182.62 69.3316 177.19 69.0416C170.15 68.6749 163.094 69.3488 156.25 71.0416C143.64 74.1916 130.82 76.2416 118.17 79.1616C112.028 80.5175 105.992 82.3155 100.11 84.5416C95.0099 86.5416 89.7799 88.8916 85.4499 92.3016C81.3199 95.5716 78.7699 100.302 79.5699 105.652C80.4499 111.502 84.9899 116.032 89.9199 118.872C95.3599 122.002 101.59 123.932 107.53 125.872C114.28 128.042 121.15 129.802 127.95 131.872C131.28 132.872 134.5 134.172 137.85 135.122C138.221 135.19 138.605 135.116 138.924 134.916C139.244 134.715 139.477 134.402 139.578 134.038C139.678 133.674 139.638 133.286 139.467 132.949C139.295 132.613 139.004 132.354 138.65 132.222L138.6 132.192Z" fill="#0000FF"/>
<path d="M139.46 134.291L147.34 117.431C147.53 117.086 147.579 116.68 147.479 116.299C147.378 115.917 147.135 115.589 146.8 115.381C146.456 115.184 146.048 115.13 145.664 115.231C145.281 115.332 144.952 115.58 144.75 115.921L136.87 132.771C136.668 133.115 136.611 133.524 136.712 133.91C136.812 134.295 137.061 134.625 137.405 134.826C137.748 135.028 138.158 135.085 138.543 134.985C138.929 134.884 139.258 134.635 139.46 134.291Z" fill="#0000FF"/>
<path d="M147.4 114.232L110.4 98.0316C108.65 97.2716 107.12 99.8516 108.89 100.622L145.89 116.822C147.65 117.582 149.17 115.002 147.41 114.232H147.4Z" fill="#0000FF"/>
<path d="M146.19 117.922C153.755 119.673 160.403 124.165 164.85 130.532C165.964 132.136 166.928 133.84 167.73 135.622C168.19 136.622 169.91 139.942 168.73 140.842C167.73 141.582 164.96 137.112 164.42 136.412L159.7 130.272C159.487 129.939 159.156 129.699 158.774 129.601C158.392 129.503 157.987 129.553 157.64 129.742C157.298 129.944 157.051 130.273 156.951 130.657C156.852 131.041 156.909 131.449 157.11 131.792L161.54 137.542C162.89 139.302 164.16 141.452 165.86 142.902C166.5 143.54 167.359 143.912 168.263 143.942C169.167 143.971 170.049 143.657 170.73 143.062C172.27 141.632 172.23 139.472 171.66 137.602C169.329 130.471 164.697 124.315 158.49 120.102C155.011 117.692 151.104 115.968 146.98 115.022C145.1 114.602 144.29 117.492 146.18 117.922H146.19Z" fill="#0000FF"/>
<path d="M138.93 130.742C141.23 135.622 144.6 141.342 150.79 141.212C152.14 141.181 153.467 140.858 154.68 140.266C155.894 139.674 156.964 138.826 157.819 137.781C158.674 136.736 159.293 135.519 159.633 134.212C159.973 132.905 160.027 131.541 159.79 130.212C159.67 129.839 159.41 129.526 159.066 129.34C158.721 129.154 158.318 129.108 157.94 129.212C157.562 129.328 157.243 129.584 157.047 129.928C156.852 130.272 156.796 130.677 156.89 131.062C157.018 132.008 156.931 132.971 156.634 133.879C156.337 134.787 155.838 135.616 155.175 136.304C154.513 136.992 153.703 137.521 152.806 137.851C151.91 138.182 150.951 138.305 150 138.212C145.48 137.762 143.23 132.812 141.55 129.212C140.73 127.472 138.14 128.992 138.96 130.732L138.93 130.742Z" fill="#0000FF"/>
<path d="M203.29 108.292C194.63 108.882 185.9 113.292 180.93 120.562C180.261 121.423 179.801 122.427 179.584 123.495C179.367 124.564 179.4 125.668 179.68 126.722C179.992 127.642 180.578 128.445 181.359 129.024C182.14 129.603 183.078 129.93 184.05 129.962C186.036 129.974 187.964 129.291 189.5 128.032C191.33 126.662 193.03 124.842 195.5 124.772C197.97 124.702 200.5 125.772 203.12 125.432C204.171 125.378 205.192 125.059 206.088 124.505C206.983 123.951 207.723 123.179 208.24 122.262C209.08 120.532 206.5 119.002 205.65 120.742C204.11 123.902 199.16 122.032 196.6 121.822C194.726 121.638 192.844 122.062 191.23 123.032C189.71 123.952 188.47 125.282 186.94 126.182C185.94 126.802 184 127.512 182.94 126.462C181.61 125.122 182.89 122.932 183.76 121.742C185.919 118.904 188.643 116.544 191.76 114.812C195.296 112.783 199.244 111.58 203.31 111.292C205.22 111.152 205.24 108.152 203.31 108.292H203.29Z" fill="#0000FF"/>
<path d="M311.19 210.511H28.59C28.1258 210.511 27.6807 210.327 27.3525 209.999C27.0244 209.671 26.84 209.226 26.84 208.761C26.84 208.297 27.0244 207.852 27.3525 207.524C27.6807 207.196 28.1258 207.011 28.59 207.011H311.19C311.654 207.011 312.099 207.196 312.427 207.524C312.756 207.852 312.94 208.297 312.94 208.761C312.94 209.226 312.756 209.671 312.427 209.999C312.099 210.327 311.654 210.511 311.19 210.511Z" fill="#0000FF"/>
<path d="M424.35 42.2214H391.07C390.606 42.2214 390.161 42.0371 389.832 41.7089C389.504 41.3807 389.32 40.9356 389.32 40.4714C389.32 40.0073 389.504 39.5622 389.832 39.234C390.161 38.9058 390.606 38.7214 391.07 38.7214H424.35C424.814 38.7214 425.259 38.9058 425.587 39.234C425.915 39.5622 426.1 40.0073 426.1 40.4714C426.1 40.9356 425.915 41.3807 425.587 41.7089C425.259 42.0371 424.814 42.2214 424.35 42.2214Z" fill="#0000FF"/>
<path d="M445.41 32.7114H411.48C411.016 32.7114 410.571 32.5271 410.243 32.1989C409.914 31.8707 409.73 31.4256 409.73 30.9614C409.73 30.4973 409.914 30.0522 410.243 29.724C410.571 29.3958 411.016 29.2114 411.48 29.2114H445.41C445.874 29.2114 446.319 29.3958 446.647 29.724C446.976 30.0522 447.16 30.4973 447.16 30.9614C447.16 31.4256 446.976 31.8707 446.647 32.1989C446.319 32.5271 445.874 32.7114 445.41 32.7114Z" fill="#0000FF"/>
<path d="M383.3 42.2015C384.255 42.2015 385.03 41.4269 385.03 40.4715C385.03 39.516 384.255 38.7415 383.3 38.7415C382.344 38.7415 381.57 39.516 381.57 40.4715C381.57 41.4269 382.344 42.2015 383.3 42.2015Z" fill="#0000FF"/>
<path d="M35.03 270.312H1.75C1.28587 270.312 0.840754 270.127 0.512566 269.799C0.184377 269.471 0 269.026 0 268.562C0 268.097 0.184377 267.652 0.512566 267.324C0.840754 266.996 1.28587 266.812 1.75 266.812H35.03C35.4941 266.812 35.9393 266.996 36.2674 267.324C36.5956 267.652 36.78 268.097 36.78 268.562C36.78 269.026 36.5956 269.471 36.2674 269.799C35.9393 270.127 35.4941 270.312 35.03 270.312Z" fill="#0000FF"/>
<path d="M42.0999 270.292C43.0553 270.292 43.8299 269.517 43.8299 268.562C43.8299 267.606 43.0553 266.832 42.0999 266.832C41.1444 266.832 40.3699 267.606 40.3699 268.562C40.3699 269.517 41.1444 270.292 42.0999 270.292Z" fill="#0000FF"/>
<path d="M29.9299 52.5415C41.666 52.5415 51.1799 43.0276 51.1799 31.2915C51.1799 19.5555 41.666 10.0415 29.9299 10.0415C18.1939 10.0415 8.67993 19.5555 8.67993 31.2915C8.67993 43.0276 18.1939 52.5415 29.9299 52.5415Z" fill="#2DDFD5"/>
<path d="M29.9299 54.2915C25.381 54.2915 20.9342 52.9426 17.1518 50.4153C13.3695 47.888 10.4215 44.2959 8.68071 40.0932C6.93989 35.8905 6.48442 31.266 7.37188 26.8044C8.25934 22.3429 10.4499 18.2447 13.6665 15.0281C16.8831 11.8114 20.9813 9.62092 25.4429 8.73346C29.9044 7.846 34.529 8.30146 38.7317 10.0423C42.9344 11.7831 46.5265 14.7311 49.0537 18.5134C51.581 22.2957 52.9299 26.7425 52.9299 31.2915C52.9299 37.3915 50.5067 43.2416 46.1934 47.555C41.8801 51.8683 36.0299 54.2915 29.9299 54.2915ZM29.9299 11.7815C26.0708 11.7795 22.2978 12.9221 19.088 15.0647C15.8783 17.2073 13.3761 20.2536 11.8979 23.8184C10.4197 27.3832 10.0319 31.3064 10.7836 35.0916C11.5353 38.8768 13.3926 42.3541 16.1208 45.0836C18.8489 47.8132 22.3252 49.6723 26.11 50.4259C29.8949 51.1795 33.8182 50.7937 37.3838 49.3174C40.9494 47.841 43.997 45.3403 46.1412 42.1317C48.2854 38.9231 49.4299 35.1507 49.4299 31.2915C49.4273 26.1197 47.3723 21.1603 43.7162 17.5023C40.0601 13.8443 35.1018 11.7868 29.9299 11.7815Z" fill="#0000FF"/>
<path d="M197.57 42.6414C198.936 43.4948 200.511 43.9556 202.121 43.9733C203.732 43.9909 205.316 43.5647 206.7 42.7414C208.044 41.947 209.166 40.8252 209.96 39.4806C210.753 38.136 211.194 36.6122 211.24 35.0514C211.307 33.3157 210.873 31.5973 209.99 30.1014C209.738 29.6731 209.326 29.3624 208.845 29.2377C208.364 29.113 207.853 29.1845 207.425 29.4364C206.997 29.6884 206.686 30.1002 206.561 30.5812C206.437 31.0622 206.508 31.5731 206.76 32.0014L207.03 32.4814L207.15 32.7414C207.05 32.5014 207.04 32.4814 207.15 32.6714C207.272 33.0225 207.375 33.3797 207.46 33.7414C207.46 33.8314 207.46 33.9214 207.46 34.0214C207.46 34.1214 207.46 34.2014 207.46 33.9314C207.485 34.1173 207.485 34.3056 207.46 34.4914C207.46 34.8214 207.46 35.1414 207.46 35.4914C207.46 35.8414 207.46 35.6814 207.46 35.4114C207.46 35.5014 207.46 35.6014 207.46 35.6914C207.46 35.7814 207.38 36.0514 207.33 36.2314C207.286 36.414 207.233 36.5943 207.17 36.7714C207.17 36.8914 207.02 37.4414 207.1 36.9714C206.996 37.2801 206.845 37.5703 206.65 37.8314C206.558 37.9915 206.451 38.1422 206.33 38.2814C206.69 37.9414 206.25 38.3714 206.18 38.4414C206.054 38.5822 205.921 38.7158 205.78 38.8414C205.72 38.9014 205.21 39.3114 205.57 39.0414C205.288 39.2487 204.994 39.439 204.69 39.6114L204.19 39.8514C204.62 39.6414 204.05 39.8514 203.96 39.9314C203.59 40.0526 203.213 40.1495 202.83 40.2214H202.89H202.6H202.17H201.59C201.38 40.2214 201.4 40.2214 201.66 40.2214H201.38C200.972 40.1397 200.573 40.0157 200.19 39.8514C200.64 40.0314 200.05 39.7714 199.96 39.7314L199.45 39.4114C199.019 39.1653 198.509 39.0976 198.029 39.2228C197.548 39.348 197.136 39.6562 196.88 40.0814C196.644 40.5147 196.582 41.0216 196.706 41.4991C196.831 41.9765 197.132 42.3886 197.55 42.6514L197.57 42.6414Z" fill="#0000FF"/>
<path d="M195.19 28.9614C189.819 31.9145 184.722 35.3415 179.96 39.2014C179.695 39.4858 179.551 39.8619 179.558 40.2505C179.564 40.6391 179.722 41.0098 179.997 41.2847C180.272 41.5595 180.642 41.7169 181.031 41.7238C181.42 41.7306 181.796 41.5864 182.08 41.3214C186.655 37.6342 191.551 34.3645 196.71 31.5514C196.88 31.4516 197.029 31.3193 197.148 31.162C197.267 31.0047 197.353 30.8255 197.403 30.6347C197.453 30.4439 197.464 30.2452 197.437 30.0498C197.41 29.8545 197.345 29.6665 197.245 29.4964C197.145 29.3264 197.013 29.1776 196.856 29.0587C196.698 28.9398 196.519 28.853 196.328 28.8033C196.137 28.7536 195.939 28.742 195.743 28.7692C195.548 28.7963 195.36 28.8616 195.19 28.9614Z" fill="#0000FF"/>
<path d="M161.38 62.3615C160.679 63.3016 159.678 63.9743 158.543 64.2683C157.408 64.5624 156.206 64.4601 155.137 63.9785C154.067 63.497 153.195 62.6649 152.662 61.6199C152.13 60.5749 151.971 59.3796 152.21 58.2315C152.288 57.9126 152.283 57.5789 152.195 57.2626C152.106 56.9463 151.938 56.6582 151.706 56.426C151.473 56.1938 151.185 56.0254 150.869 55.937C150.553 55.8486 150.219 55.8433 149.9 55.9215C148.314 56.0639 146.72 55.7429 145.312 54.9974C143.905 54.2519 142.744 53.1139 141.97 51.7215C140.46 49.0315 140.81 43.7815 144.91 44.0215C146.45 44.1115 147.51 41.8415 146.24 40.8215C144.962 39.836 144.003 38.4952 143.484 36.9672C142.964 35.4391 142.907 33.7918 143.32 32.2315C143.799 30.7069 144.72 29.3589 145.966 28.3584C147.213 27.3579 148.728 26.7499 150.32 26.6115C151.98 26.4815 153.11 23.9515 151.26 23.1115C147.47 21.3915 145.98 16.5115 148.96 13.3015C149.631 12.5739 150.468 12.0188 151.4 11.6833C152.331 11.3478 153.33 11.2418 154.311 11.3743C155.293 11.5067 156.227 11.8738 157.037 12.4442C157.846 13.0147 158.506 13.7719 158.96 14.6515C159.153 14.9612 159.431 15.2088 159.761 15.3647C160.09 15.5206 160.458 15.5783 160.82 15.5308C161.182 15.4834 161.522 15.3328 161.8 15.0971C162.079 14.8614 162.284 14.5505 162.39 14.2015C163.04 11.7515 163.87 8.07154 166.76 7.35154C169.94 6.56154 171.76 10.7315 172.84 12.9615C173.59 14.5515 175.77 13.8915 176.27 12.5215C177.48 9.15154 179.14 4.95153 182.97 3.91153C183.792 3.69949 184.658 3.7245 185.467 3.98369C186.276 4.24287 186.995 4.72565 187.541 5.37622C188.087 6.02678 188.437 6.81857 188.552 7.66006C188.667 8.50155 188.542 9.35839 188.19 10.1315C187.971 10.5265 187.899 10.9864 187.987 11.4294C188.075 11.8725 188.317 12.27 188.67 12.5515C189.026 12.8344 189.473 12.9765 189.927 12.9507C190.38 12.9249 190.809 12.7329 191.13 12.4115C193.07 9.96153 196.24 7.99153 199.41 9.36153C201.68 10.3615 203.28 13.8415 200.85 15.6215C200.456 15.8893 200.179 16.2965 200.074 16.7608C199.969 17.2251 200.044 17.712 200.284 18.1232C200.524 18.5344 200.91 18.8393 201.366 18.9763C201.822 19.1133 202.313 19.0723 202.74 18.8615C203.945 18.2979 205.325 18.2363 206.576 18.6901C207.827 19.144 208.846 20.0761 209.41 21.2815C209.974 22.4869 210.035 23.8669 209.581 25.1177C209.128 26.3686 208.195 27.388 206.99 27.9515C206.519 28.0978 206.121 28.4181 205.878 28.8473C205.634 29.2764 205.564 29.7821 205.68 30.2615C205.816 30.7376 206.132 31.1414 206.562 31.3864C206.992 31.6313 207.501 31.6978 207.98 31.5715C212.49 29.6715 215.04 24.3015 212.98 19.6915C210.92 15.0815 205.21 13.5015 200.89 15.6215L202.78 18.8615C203.748 18.1304 204.523 17.1736 205.037 16.0743C205.551 14.9751 205.788 13.767 205.728 12.5551C205.668 11.3432 205.312 10.1645 204.692 9.12154C204.072 8.07862 203.206 7.20318 202.17 6.57154C197.55 3.57154 191.71 5.74153 188.52 9.75153L191.52 12.0315C192.181 10.7261 192.492 9.27174 192.424 7.81015C192.356 6.34855 191.91 4.92959 191.13 3.69153C190.351 2.53271 189.294 1.58774 188.055 0.943105C186.817 0.298465 185.436 -0.0252618 184.04 0.00153846C177.71 0.221538 174.62 6.33153 172.74 11.5215L176.17 11.0715C174.32 7.17154 171.17 2.62154 166.17 3.65154C161.63 4.59154 159.88 9.24154 158.83 13.2015L162.26 12.7515C161.524 11.3698 160.469 10.1832 159.183 9.29004C157.897 8.39686 156.417 7.82274 154.865 7.61518C153.314 7.40762 151.735 7.57259 150.259 8.09644C148.784 8.62029 147.454 9.48797 146.381 10.6277C145.307 11.7674 144.521 13.1463 144.086 14.6504C143.651 16.1545 143.581 17.7405 143.881 19.2771C144.181 20.8138 144.842 22.2569 145.811 23.4871C146.779 24.7173 148.027 25.6992 149.45 26.3515L150.4 22.8615C148.056 23.0188 145.81 23.8607 143.939 25.2828C142.069 26.7049 140.658 28.6447 139.88 30.8615C139.195 33.0972 139.189 35.4857 139.862 37.725C140.534 39.9642 141.856 41.9536 143.66 43.4415L144.98 40.2415C143.575 40.193 142.188 40.5624 140.993 41.3029C139.799 42.0435 138.851 43.1219 138.27 44.4015C137.697 45.707 137.407 47.1194 137.421 48.5451C137.435 49.9709 137.751 51.3775 138.35 52.6715C139.435 55.0195 141.25 56.954 143.525 58.1866C145.799 59.4191 148.41 59.8839 150.97 59.5115L148.66 57.2015C148.214 59.2146 148.481 61.32 149.416 63.158C150.35 64.9961 151.893 66.4527 153.782 67.2791C155.671 68.1055 157.789 68.2505 159.773 67.6892C161.756 67.1279 163.484 65.8951 164.66 64.2015C164.908 63.7727 164.977 63.2631 164.852 62.7837C164.726 62.3043 164.417 61.8938 163.99 61.6415C163.558 61.4005 163.049 61.3357 162.57 61.4605C162.092 61.5853 161.68 61.8902 161.42 62.3115L161.38 62.3615Z" fill="#0000FF"/>
<path d="M323.74 211.032C324.994 211.032 326.01 210.015 326.01 208.762C326.01 207.508 324.994 206.492 323.74 206.492C322.486 206.492 321.47 207.508 321.47 208.762C321.47 210.015 322.486 211.032 323.74 211.032Z" fill="#0000FF"/>
<path d="M400.81 242.032C402.925 242.032 404.64 240.317 404.64 238.202C404.64 236.086 402.925 234.372 400.81 234.372C398.695 234.372 396.98 236.086 396.98 238.202C396.98 240.317 398.695 242.032 400.81 242.032Z" fill="#0000FF"/>
<path d="M415.36 242.032C417.475 242.032 419.19 240.317 419.19 238.202C419.19 236.086 417.475 234.372 415.36 234.372C413.245 234.372 411.53 236.086 411.53 238.202C411.53 240.317 413.245 242.032 415.36 242.032Z" fill="#0000FF"/>
<path d="M429.92 242.032C432.035 242.032 433.75 240.317 433.75 238.202C433.75 236.086 432.035 234.372 429.92 234.372C427.805 234.372 426.09 236.086 426.09 238.202C426.09 240.317 427.805 242.032 429.92 242.032Z" fill="#0000FF"/>
<path d="M444.47 242.032C446.585 242.032 448.3 240.317 448.3 238.202C448.3 236.086 446.585 234.372 444.47 234.372C442.355 234.372 440.64 236.086 440.64 238.202C440.64 240.317 442.355 242.032 444.47 242.032Z" fill="#0000FF"/>
<path d="M407.82 252.112C409.935 252.112 411.65 250.397 411.65 248.282C411.65 246.166 409.935 244.452 407.82 244.452C405.705 244.452 403.99 246.166 403.99 248.282C403.99 250.397 405.705 252.112 407.82 252.112Z" fill="#0000FF"/>
<path d="M422.38 252.112C424.495 252.112 426.21 250.397 426.21 248.282C426.21 246.166 424.495 244.452 422.38 244.452C420.265 244.452 418.55 246.166 418.55 248.282C418.55 250.397 420.265 252.112 422.38 252.112Z" fill="#0000FF"/>
<path d="M436.93 252.112C439.045 252.112 440.76 250.397 440.76 248.282C440.76 246.166 439.045 244.452 436.93 244.452C434.815 244.452 433.1 246.166 433.1 248.282C433.1 250.397 434.815 252.112 436.93 252.112Z" fill="#0000FF"/>
<path d="M394.98 236.211C407.89 236.211 420.8 236.141 433.71 236.211H449.97C452.39 236.211 452.39 232.471 449.97 232.461C434.95 232.461 419.927 232.461 404.9 232.461H394.98C394.506 232.496 394.063 232.709 393.74 233.056C393.417 233.404 393.237 233.862 393.237 234.336C393.237 234.811 393.417 235.269 393.74 235.616C394.063 235.964 394.506 236.177 394.98 236.211Z" fill="#0000FF"/>
<path d="M110.78 144.791C107.51 140.051 100.66 139.791 96.5899 143.701C92.1399 147.961 92.3399 154.821 94.3299 160.171C96.5199 166.061 99.7099 171.531 101.99 177.391C104.19 183.051 105.9 189.001 105.89 195.111C105.89 203.431 101.66 213.051 93.7399 216.321C91.79 217.192 89.6393 217.514 87.5199 217.251C86.6537 217.184 85.818 216.902 85.0882 216.43C84.3584 215.959 83.7576 215.313 83.3399 214.551C82.6499 213.001 83.1699 210.951 84.2599 209.221C85.6689 207.304 87.5739 205.807 89.7699 204.891C92.2399 203.681 94.8799 202.821 97.4199 201.771C99.9599 200.721 102.63 199.531 105.17 198.271C110.153 195.808 114.955 192.995 119.54 189.851C128.84 183.502 137.202 175.878 144.38 167.201C147.92 162.901 152.85 157.681 151.51 151.631C151.233 150.294 150.61 149.052 149.703 148.03C148.796 147.009 147.636 146.244 146.34 145.811C144.973 145.467 143.536 145.513 142.193 145.942C140.85 146.372 139.654 147.168 138.74 148.241C137.011 150.281 135.739 152.668 135.01 155.241C133.979 158.294 133.12 161.402 132.44 164.551C131.041 170.881 130.307 177.339 130.25 183.821C130.25 189.031 130.59 194.311 132.82 199.091C135.05 203.871 139.56 207.191 144.82 207.001C150.82 206.781 155.82 202.861 158.75 197.891C161.75 192.761 162.75 186.821 164.65 181.231C165.464 178.604 166.685 176.12 168.27 173.871L162.78 171.561C161.584 177.205 161.007 182.963 161.06 188.731C161.13 193.551 161.2 199.001 163.45 203.381C165.7 207.761 171.02 209.631 175.29 206.851C179.56 204.071 181.45 199.141 183.63 194.851C186.13 189.931 188.48 184.851 191.19 180.061C191.605 179.273 192.105 178.532 192.68 177.851C193.101 177.254 193.716 176.819 194.42 176.621C194.653 176.606 194.887 176.606 195.12 176.621C195.465 176.69 195.79 176.838 196.07 177.051C196.681 177.522 197.152 178.152 197.43 178.871C198.31 181.141 197.8 183.781 197.48 186.111C197.1 188.871 196.74 191.811 197.68 194.511C199.39 199.381 205.25 202.931 209.89 199.421C211.89 197.931 213.04 195.651 214.16 193.501C215.28 191.351 216.42 188.861 217.56 186.551C219.56 182.551 221.79 178.371 225.39 175.551C227.008 174.266 228.874 173.326 230.87 172.791C232.627 172.289 234.496 172.345 236.22 172.951C237.741 173.574 239.055 174.614 240.01 175.951C241.078 177.445 241.815 179.15 242.17 180.951C243.17 185.281 241.72 190.321 239.99 194.621C238.43 198.481 236.58 203.061 233.8 205.991C233.281 206.6 232.658 207.111 231.96 207.501C231.739 207.664 231.487 207.78 231.22 207.841C230.969 207.928 230.711 207.995 230.45 208.041C230.24 208.041 230.24 208.091 230.45 208.041H230.12C229.29 208.017 228.478 207.793 227.754 207.387C227.03 206.981 226.414 206.406 225.96 205.711C224.769 203.848 224.096 201.701 224.01 199.491C223.795 196.971 223.755 194.438 223.89 191.911C224.32 183.041 227.48 174.151 235.67 169.711C240.259 167.257 245.613 166.652 250.634 168.021C255.655 169.39 259.961 172.628 262.67 177.071C264.67 180.361 269.87 177.341 267.85 174.071C262.62 165.511 252.53 160.221 242.48 161.451C237.366 162.03 232.529 164.074 228.551 167.339C224.573 170.603 221.624 174.949 220.06 179.851C218.46 184.796 217.716 189.977 217.86 195.171C217.91 200.661 218.41 206.841 222.62 210.881C224.474 212.724 226.954 213.802 229.566 213.9C232.179 213.998 234.732 213.11 236.72 211.411C240.43 208.411 242.45 203.831 244.34 199.611C246.63 194.471 248.77 188.941 248.51 183.211C248.3 178.511 246.58 173.621 243.1 170.331C241.252 168.616 238.99 167.411 236.535 166.834C234.081 166.258 231.518 166.329 229.1 167.041C224.194 168.53 219.921 171.604 216.95 175.781C213.75 180.021 211.76 184.971 209.37 189.661C208.8 190.791 208.21 191.911 207.56 193.001C207.347 193.346 207.117 193.68 206.87 194.001C206.637 194.298 206.348 194.546 206.02 194.731C205.77 194.831 205.49 194.731 205.65 194.791C205.238 194.705 204.854 194.52 204.53 194.251C204.053 193.803 203.672 193.262 203.41 192.661C202.49 190.181 203.41 187.081 203.69 184.551C204.174 181.622 203.828 178.614 202.69 175.871C202.121 174.634 201.29 173.535 200.254 172.651C199.217 171.767 198.001 171.119 196.69 170.751C195.334 170.441 193.921 170.477 192.582 170.857C191.244 171.236 190.022 171.946 189.03 172.921C187.382 174.58 186.05 176.525 185.1 178.661L180.87 186.951L176.76 195.021C175.863 197.085 174.667 199.006 173.21 200.721C172.911 201.046 172.576 201.335 172.21 201.581C172.029 201.701 171.842 201.811 171.65 201.911C171.02 202.221 171.38 202.021 171.48 201.981C171.281 202.051 171.077 202.105 170.87 202.141C171.34 202.071 170.67 202.141 170.55 202.141C170.289 202.092 170.038 201.997 169.81 201.861C169.75 201.861 169.37 201.531 169.69 201.801C169.534 201.668 169.387 201.525 169.25 201.371C169.011 201.088 168.809 200.776 168.65 200.441C168.257 199.624 167.968 198.761 167.79 197.871C167.577 196.964 167.44 196.041 167.38 195.111C167.22 193.531 167.11 191.941 167.05 190.341C166.95 187.316 167.03 184.287 167.29 181.271C167.535 178.522 167.945 175.791 168.52 173.091C168.721 172.386 168.656 171.632 168.339 170.972C168.022 170.311 167.474 169.789 166.798 169.505C166.122 169.221 165.366 169.193 164.672 169.429C163.978 169.664 163.394 170.145 163.03 170.781C159.65 175.451 158.35 181.141 156.77 186.591C155.45 191.161 153.77 196.441 149.56 199.201C147.817 200.492 145.66 201.097 143.5 200.901C142.695 200.804 141.923 200.527 141.24 200.091C140.967 199.934 140.706 199.757 140.46 199.561C140.029 199.194 139.631 198.789 139.27 198.351C139.55 198.681 139.14 198.171 139.08 198.091C139.02 198.011 138.79 197.651 138.66 197.421C138.412 197.01 138.185 196.586 137.98 196.151C137.596 195.275 137.285 194.369 137.05 193.441C136.516 191.465 136.234 189.429 136.21 187.381C135.984 181.411 136.396 175.434 137.44 169.551C137.973 166.611 138.64 163.705 139.44 160.831C139.998 158.272 140.907 155.802 142.14 153.491C142.332 153.174 142.546 152.87 142.78 152.581C142.954 152.376 143.141 152.182 143.34 152.001C143.81 151.571 143.58 151.811 143.47 151.881C143.36 151.951 144.26 151.451 143.91 151.601C143.56 151.751 144.43 151.471 144.4 151.481C144.04 151.531 144.74 151.631 144.5 151.481C144.5 151.481 145.26 152.041 144.9 151.721C144.96 151.771 145.22 152.141 145.04 151.831C145.256 152.139 145.428 152.476 145.55 152.831C145.771 153.714 145.672 154.646 145.27 155.461C144.237 157.585 142.907 159.552 141.32 161.301C139.633 163.421 137.873 165.481 136.04 167.481C129.014 175.159 120.981 181.85 112.16 187.371C107.668 190.178 102.99 192.677 98.1599 194.851C93.3699 197.001 87.9599 198.341 83.6299 201.381C79.2999 204.421 75.9599 209.721 77.2099 215.301C78.4199 220.701 84.0099 223.371 89.1499 223.301C99.1499 223.071 106.61 214.871 109.84 206.071C113.71 195.521 111.1 184.071 106.98 174.071C105.8 171.211 104.53 168.391 103.21 165.591C101.884 163.029 100.709 160.391 99.6899 157.691C98.8509 155.538 98.6394 153.19 99.0799 150.921C99.2887 150.026 99.6764 149.183 100.22 148.441C100.705 147.768 101.414 147.289 102.22 147.091C102.825 146.922 103.46 146.888 104.08 146.991C104.445 147.019 104.793 147.155 105.08 147.381C105.14 147.381 105.51 147.731 105.21 147.461C105.21 147.461 105.8 148.191 105.54 147.801C105.953 148.474 106.611 148.961 107.375 149.161C108.139 149.36 108.95 149.257 109.64 148.871C110.326 148.471 110.826 147.814 111.028 147.045C111.231 146.276 111.12 145.458 110.72 144.771L110.78 144.791Z" fill="#1D1D1B"/>
<path d="M127.41 222.691L202.41 223.691L223.59 223.971C227.46 224.021 227.46 218.021 223.59 217.971L148.59 216.971L127.4 216.691C123.54 216.691 123.54 222.691 127.4 222.691H127.41Z" fill="#1D1D1B"/>
<path d="M171.45 155.101L170.84 154.321L170.24 153.851C169.904 153.639 169.518 153.518 169.12 153.501C168.858 153.431 168.582 153.431 168.32 153.501C167.919 153.513 167.528 153.634 167.19 153.851L167.07 153.921C166.823 154.078 166.592 154.259 166.38 154.461C166.133 154.686 165.93 154.953 165.78 155.251C165.71 155.381 165.65 155.541 165.6 155.661C165.539 155.792 165.486 155.925 165.44 156.061C165.434 156.105 165.434 156.148 165.44 156.191C165.44 156.461 165.36 156.751 165.33 157.021C165.336 157.045 165.336 157.068 165.33 157.091V157.221C165.33 157.221 165.33 157.221 165.33 157.291C165.33 157.561 165.4 157.861 165.44 158.131V158.261C165.433 158.301 165.433 158.342 165.44 158.381C165.53 158.641 165.65 158.891 165.76 159.141V159.211L165.82 159.321C165.97 159.531 166.15 159.771 166.32 159.971L166.4 160.061H166.45L166.76 160.301L167.09 160.561L167.21 160.631C167.479 160.77 167.76 160.884 168.05 160.971C168.658 161.121 169.293 161.121 169.9 160.971C170.275 160.882 170.62 160.696 170.9 160.431C171.228 160.226 171.494 159.936 171.67 159.591C171.886 159.26 172.01 158.877 172.03 158.481C172.119 158.084 172.101 157.67 171.98 157.281L171.67 156.561C171.415 156.116 171.045 155.747 170.6 155.491L169.88 155.181C169.359 155.041 168.811 155.041 168.29 155.181L169.09 155.071H168.91L169.7 155.181L169.54 155.131L170.26 155.431C170.202 155.411 170.148 155.381 170.1 155.341L170.7 155.811C170.645 155.763 170.595 155.71 170.55 155.651L171.02 156.261C170.961 156.181 170.91 156.093 170.87 156.001L171.17 156.721C171.128 156.623 171.101 156.518 171.09 156.411L171.19 157.211C171.18 157.112 171.18 157.011 171.19 156.911L171.08 157.711C171.091 157.639 171.111 157.569 171.14 157.501L170.84 158.221C170.86 158.16 170.89 158.103 170.93 158.051L170.46 158.661C170.495 158.617 170.535 158.576 170.58 158.541L169.97 159.011L170.12 158.921L166.48 158.461L167.08 159.231C167.352 159.524 167.697 159.738 168.08 159.851C168.441 160.022 168.836 160.111 169.235 160.111C169.635 160.111 170.029 160.022 170.39 159.851C170.773 159.738 171.118 159.524 171.39 159.231L171.86 158.631C172.124 158.168 172.266 157.645 172.27 157.111L172.16 156.311C172.022 155.812 171.756 155.358 171.39 154.991L171.45 155.101Z" fill="#1D1D1B"/>
</svg>
