<svg width="360" height="360" viewBox="0 0 360 360" fill="none" xmlns="http://www.w3.org/2000/svg">
<path d="M198.95 254.97L211.63 284.93L220.93 298.08L254.78 305.7L295.5 303.26L324.49 294.22L307.06 258.97L298.23 216.08L302.49 185.18L312.11 163.34L316.13 146.39L305.48 140.63L291.29 148.83L284.99 161.68L287.43 107.2L286.25 84.1001L276 76.3801L264.96 78.4301L255.66 66.8401L241.15 72.3601L226.64 69.8301L218.13 80.7101L216.71 89.3101L209.77 90.0901L201.49 99.7901L194.87 142.13L190.52 190.36L198.95 254.97Z" fill="#FFCB05"/>
<path d="M218.17 90.37C212.06 87.31 205.37 90.75 202.25 96.37C200.675 99.4536 199.589 102.763 199.03 106.18C198.21 110.18 197.48 114.18 196.79 118.23C194.006 134.452 192.063 150.807 190.97 167.23C189.808 182.968 189.692 198.766 190.62 214.52C191.52 230.149 194.238 245.62 198.72 260.62C200.733 267.312 203.284 273.83 206.35 280.11C209.226 285.754 212.603 291.129 216.44 296.17C217.51 297.6 218.61 299.02 219.71 300.43C220.062 300.78 220.539 300.976 221.035 300.976C221.531 300.976 222.008 300.78 222.36 300.43C222.703 300.074 222.894 299.599 222.894 299.105C222.894 298.611 222.703 298.136 222.36 297.78C218.388 292.82 214.804 287.561 211.64 282.05C208.65 276.614 206.144 270.925 204.15 265.05C199.356 251.004 196.271 236.433 194.96 221.65C193.627 206.614 193.373 191.502 194.2 176.43C194.922 160.821 196.428 145.258 198.71 129.8C199.96 121.36 201.21 112.8 203.22 104.5C204.05 101.08 205.22 97.36 208.02 94.99C209.112 93.9839 210.473 93.3162 211.938 93.0677C213.402 92.8192 214.907 93.0006 216.27 93.59C218.42 94.67 220.33 91.44 218.17 90.36V90.37Z" fill="#0000FF"/>
<path d="M192.37 255.46L179.68 285.41L170.38 298.57L124.1 291.08L66.6699 292.65L84.2499 259.46L93.0799 216.57L88.8299 185.66L79.2099 163.83L75.1899 146.88L85.8299 141.12L100.02 149.32L106.33 162.17L103.88 107.69L105.07 84.5901L115.32 76.8601L126.35 78.9101L135.66 67.3201L150.17 72.8401L164.67 70.3201L173.19 81.2001L174.61 89.7901L181.54 90.5801L189.82 100.28L196.44 142.62L200.79 190.85L192.37 255.46Z" fill="#2DDFD5"/>
<path d="M68.0799 294.76C82.4399 271.5 93.8199 244.55 94.4399 216.85C94.7396 203.101 92.2777 189.431 87.1999 176.65C85.9399 173.49 84.5332 170.397 82.9799 167.37C81.4799 164.47 79.7899 161.67 78.4699 158.67C76.3499 153.85 75.0499 146.9 80.8199 144.06C85.6999 141.66 91.6699 143.83 95.1599 147.57C99.4299 152.12 102.01 158.26 104.25 163.99C104.394 164.46 104.712 164.858 105.14 165.101C105.567 165.345 106.072 165.416 106.55 165.3C107.028 165.165 107.434 164.846 107.679 164.414C107.924 163.982 107.989 163.47 107.86 162.99C103.94 152.94 98.1899 139.63 85.5799 139.37C79.9999 139.26 74.6899 142.37 73.2299 147.97C71.5499 154.46 75.2799 161.07 78.2999 166.57C85.1354 178.939 89.2729 192.616 90.4399 206.7C91.5699 221.01 89.3699 235.28 85.2199 248.96C80.3623 264.413 73.5255 279.172 64.8799 292.87C63.5999 294.93 66.8799 296.81 68.1099 294.76H68.0799Z" fill="#0000FF"/>
<path d="M108.08 159C107.493 144.5 106.927 130.003 106.38 115.51C106.11 108.59 105.58 101.64 105.63 94.72C105.63 89.63 106.48 83.66 111.15 80.72C115.31 78.06 121.28 78.09 125.07 81.43C126.88 83.02 129.54 80.38 127.73 78.78C125.693 77.0431 123.241 75.8625 120.613 75.3526C117.984 74.8427 115.269 75.021 112.73 75.87C107.07 77.74 103.56 82.53 102.47 88.28C101.937 91.484 101.763 94.7374 101.95 97.98C102.08 101.69 102.25 105.41 102.39 109.12C102.71 117.007 103.017 124.9 103.31 132.8C103.65 141.553 103.983 150.3 104.31 159.04C104.41 161.44 108.16 161.45 108.06 159.04L108.08 159Z" fill="#0000FF"/>
<path d="M128.28 80.03C128.514 77.6733 129.451 75.4412 130.968 73.6227C132.485 71.8042 134.513 70.483 136.79 69.83C139.056 69.3547 141.414 69.6131 143.523 70.5679C145.632 71.5226 147.382 73.1239 148.52 75.14C149.7 77.24 152.94 75.35 151.76 73.24C150.187 70.5204 147.787 68.3745 144.908 67.1152C142.03 65.856 138.825 65.5493 135.76 66.24C129.6 67.74 124.92 73.84 124.5 80.06C124.33 82.47 128.09 82.46 128.25 80.06L128.28 80.03Z" fill="#0000FF"/>
<path d="M151.05 75.1701C155.3 71.6401 161.43 69.9801 165.94 74.0001C170.45 78.0201 171.44 84.1901 172.44 89.7201C172.87 92.0901 176.44 91.0801 176.05 88.7201C174.82 81.9901 173.21 74.7201 167.4 70.3701C161.4 65.8701 153.77 68.0701 148.4 72.5201C146.54 74.0601 149.2 76.7001 151.05 75.1701Z" fill="#0000FF"/>
<path d="M175.17 92.9899C176.459 92.4382 177.876 92.2546 179.264 92.4593C180.651 92.6641 181.955 93.2493 183.03 94.1499C185.49 96.0399 186.81 99.0899 187.67 101.98C188.598 105.415 189.342 108.896 189.9 112.41C190.61 116.25 191.28 120.11 191.9 123.96C194.36 139.393 196.043 154.92 196.95 170.54C198.68 200.38 197.95 230.96 188.88 259.7C186.777 266.682 184.025 273.451 180.66 279.92C177.304 286.025 173.419 291.824 169.05 297.25C168.714 297.609 168.527 298.083 168.527 298.575C168.527 299.067 168.714 299.541 169.05 299.9C169.406 300.246 169.883 300.439 170.38 300.439C170.877 300.439 171.354 300.246 171.71 299.9C175.86 294.748 179.614 289.289 182.94 283.57C186.078 277.862 188.714 271.893 190.82 265.73C195.86 250.926 199.054 235.556 200.33 219.97C201.622 204.335 201.789 188.628 200.83 172.97C199.961 156.622 198.249 140.331 195.7 124.16C195.033 120.06 194.337 115.97 193.61 111.89C193.028 108.212 192.254 104.567 191.29 100.97C189.44 94.7599 185 88.4399 177.81 88.5799C176.231 88.6197 174.681 89.0199 173.28 89.7499C171.12 90.8299 173.02 94.0599 175.17 92.9799V92.9899Z" fill="#0000FF"/>
<path d="M175.74 88.88C171.4 89.96 168.62 94.07 167.89 98.3C167.521 100.931 167.48 103.599 167.77 106.24C167.99 109.04 168.23 111.85 168.46 114.65L171.24 148.98L172.82 168.38C173.01 170.77 176.77 170.79 176.57 168.38L173.94 136.04L172.63 119.87C172.2 114.58 171.63 109.28 171.37 103.98C171.16 99.74 171.75 93.73 176.74 92.49C179.08 91.91 178.09 88.3 175.74 88.88Z" fill="#0000FF"/>
<path d="M148.94 72.4699C145.82 76.8699 145.1 82.3599 145.21 87.6399C145.34 93.5799 146.15 99.5299 146.7 105.45L150.35 144.65L152.43 166.95C152.66 169.33 156.43 169.36 156.18 166.95L152.58 128.3C151.41 115.85 149.99 103.39 149.12 90.9099C148.72 85.2499 148.76 79.2199 152.18 74.4099C153.58 72.4099 150.33 70.5599 148.94 72.5199V72.4699Z" fill="#0000FF"/>
<path d="M124.49 80.02C125.07 102.18 125.31 124.35 125.74 146.52C125.86 152.787 126 159.06 126.16 165.34C126.22 167.75 129.97 167.76 129.91 165.34C129.33 143.17 129.09 121 128.66 98.84C128.54 92.56 128.4 86.2867 128.24 80.02C128.18 77.61 124.43 77.6 124.49 80.02Z" fill="#0000FF"/>
<path d="M104.33 159C104.31 172.943 102.471 186.823 98.86 200.29C98.23 202.63 101.86 203.62 102.47 201.29C106.172 187.497 108.057 173.281 108.08 159C108.045 158.526 107.833 158.083 107.485 157.76C107.137 157.437 106.68 157.257 106.205 157.257C105.73 157.257 105.273 157.437 104.925 157.76C104.577 158.083 104.365 158.526 104.33 159Z" fill="#0000FF"/>
<path d="M66.4399 295.65L115.44 291C123.17 290.27 130.9 289.4 138.64 288.87C145.64 288.4 152.89 288.33 159.69 290.38C162.51 291.23 166.04 292.38 168.05 294.69C170.31 297.25 167.38 299.47 165.15 300.6C158.99 303.73 151.84 304.73 145 304.6C132 304.39 119.56 299.96 106.94 297.22C99.9399 295.7 92.9399 294.38 85.8899 293.39C79.455 292.395 72.9514 291.91 66.4399 291.94C64.0299 291.94 64.0299 295.74 66.4399 295.69C79.0099 295.44 91.7099 297.87 103.94 300.46C109.77 301.68 115.55 303.08 121.3 304.62C128.613 306.719 136.142 307.98 143.74 308.38C151.161 308.771 158.576 307.497 165.44 304.65C168.34 303.39 171.63 301.53 172.54 298.24C173.54 294.72 171.04 291.77 168.23 290.02C162.1 286.19 154.45 285.02 147.35 284.9C139.62 284.75 131.89 285.73 124.2 286.46L72.93 291.32L66.4899 291.93C64.1099 292.16 64.0899 295.93 66.4899 295.68L66.4399 295.65Z" fill="#0000FF"/>
<path d="M164.21 343.49H70.8999C70.4358 343.49 69.9906 343.306 69.6625 342.977C69.3343 342.649 69.1499 342.204 69.1499 341.74C69.1499 341.276 69.3343 340.831 69.6625 340.503C69.9906 340.174 70.4358 339.99 70.8999 339.99H164.21C164.674 339.99 165.119 340.174 165.447 340.503C165.776 340.831 165.96 341.276 165.96 341.74C165.96 342.204 165.776 342.649 165.447 342.977C165.119 343.306 164.674 343.49 164.21 343.49Z" fill="#0000FF"/>
<path d="M304.49 343.49H241.63C241.166 343.49 240.721 343.306 240.392 342.977C240.064 342.649 239.88 342.204 239.88 341.74C239.88 341.276 240.064 340.831 240.392 340.503C240.721 340.174 241.166 339.99 241.63 339.99H304.49C304.954 339.99 305.399 340.174 305.727 340.503C306.056 340.831 306.24 341.276 306.24 341.74C306.24 342.204 306.056 342.649 305.727 342.977C305.399 343.306 304.954 343.49 304.49 343.49Z" fill="#0000FF"/>
<path d="M287.61 359.49C289.725 359.49 291.44 357.775 291.44 355.66C291.44 353.545 289.725 351.83 287.61 351.83C285.495 351.83 283.78 353.545 283.78 355.66C283.78 357.775 285.495 359.49 287.61 359.49Z" fill="#0D26F5"/>
<path d="M273.06 359.49C275.175 359.49 276.89 357.775 276.89 355.66C276.89 353.545 275.175 351.83 273.06 351.83C270.945 351.83 269.23 353.545 269.23 355.66C269.23 357.775 270.945 359.49 273.06 359.49Z" fill="#0D26F5"/>
<path d="M258.5 359.49C260.615 359.49 262.33 357.775 262.33 355.66C262.33 353.545 260.615 351.83 258.5 351.83C256.385 351.83 254.67 353.545 254.67 355.66C254.67 357.775 256.385 359.49 258.5 359.49Z" fill="#0D26F5"/>
<path d="M295.15 349.4C297.265 349.4 298.98 347.685 298.98 345.57C298.98 343.455 297.265 341.74 295.15 341.74C293.035 341.74 291.32 343.455 291.32 345.57C291.32 347.685 293.035 349.4 295.15 349.4Z" fill="#0D26F5"/>
<path d="M280.6 349.4C282.715 349.4 284.43 347.685 284.43 345.57C284.43 343.455 282.715 341.74 280.6 341.74C278.485 341.74 276.77 343.455 276.77 345.57C276.77 347.685 278.485 349.4 280.6 349.4Z" fill="#0D26F5"/>
<path d="M266.04 349.4C268.155 349.4 269.87 347.685 269.87 345.57C269.87 343.455 268.155 341.74 266.04 341.74C263.925 341.74 262.21 343.455 262.21 345.57C262.21 347.685 263.925 349.4 266.04 349.4Z" fill="#0D26F5"/>
<path d="M251.49 349.4C253.605 349.4 255.32 347.685 255.32 345.57C255.32 343.455 253.605 341.74 251.49 341.74C249.375 341.74 247.66 343.455 247.66 345.57C247.66 347.685 249.375 349.4 251.49 349.4Z" fill="#0D26F5"/>
<path d="M132.95 359.49C135.065 359.49 136.78 357.775 136.78 355.66C136.78 353.545 135.065 351.83 132.95 351.83C130.835 351.83 129.12 353.545 129.12 355.66C129.12 357.775 130.835 359.49 132.95 359.49Z" fill="#0D26F5"/>
<path d="M118.39 359.49C120.505 359.49 122.22 357.775 122.22 355.66C122.22 353.545 120.505 351.83 118.39 351.83C116.275 351.83 114.56 353.545 114.56 355.66C114.56 357.775 116.275 359.49 118.39 359.49Z" fill="#0D26F5"/>
<path d="M103.84 359.49C105.955 359.49 107.67 357.775 107.67 355.66C107.67 353.545 105.955 351.83 103.84 351.83C101.725 351.83 100.01 353.545 100.01 355.66C100.01 357.775 101.725 359.49 103.84 359.49Z" fill="#0D26F5"/>
<path d="M140.49 349.4C142.605 349.4 144.32 347.685 144.32 345.57C144.32 343.455 142.605 341.74 140.49 341.74C138.375 341.74 136.66 343.455 136.66 345.57C136.66 347.685 138.375 349.4 140.49 349.4Z" fill="#0D26F5"/>
<path d="M146.39 359.49C148.505 359.49 150.22 357.775 150.22 355.66C150.22 353.545 148.505 351.83 146.39 351.83C144.275 351.83 142.56 353.545 142.56 355.66C142.56 357.775 144.275 359.49 146.39 359.49Z" fill="#0D26F5"/>
<path d="M153.93 349.4C156.045 349.4 157.76 347.685 157.76 345.57C157.76 343.455 156.045 341.74 153.93 341.74C151.815 341.74 150.1 343.455 150.1 345.57C150.1 347.685 151.815 349.4 153.93 349.4Z" fill="#0D26F5"/>
<path d="M125.93 349.4C128.045 349.4 129.76 347.685 129.76 345.57C129.76 343.455 128.045 341.74 125.93 341.74C123.815 341.74 122.1 343.455 122.1 345.57C122.1 347.685 123.815 349.4 125.93 349.4Z" fill="#0D26F5"/>
<path d="M111.38 349.4C113.495 349.4 115.21 347.685 115.21 345.57C115.21 343.455 113.495 341.74 111.38 341.74C109.265 341.74 107.55 343.455 107.55 345.57C107.55 347.685 109.265 349.4 111.38 349.4Z" fill="#0D26F5"/>
<path d="M96.83 349.4C98.9453 349.4 100.66 347.685 100.66 345.57C100.66 343.455 98.9453 341.74 96.83 341.74C94.7148 341.74 93 343.455 93 345.57C93 347.685 94.7148 349.4 96.83 349.4Z" fill="#0D26F5"/>
<path d="M90.6999 359.49C92.8151 359.49 94.5299 357.775 94.5299 355.66C94.5299 353.545 92.8151 351.83 90.6999 351.83C88.5846 351.83 86.8699 353.545 86.8699 355.66C86.8699 357.775 88.5846 359.49 90.6999 359.49Z" fill="#0D26F5"/>
<path d="M83.68 349.4C85.7952 349.4 87.51 347.685 87.51 345.57C87.51 343.455 85.7952 341.74 83.68 341.74C81.5647 341.74 79.85 343.455 79.85 345.57C79.85 347.685 81.5647 349.4 83.68 349.4Z" fill="#0D26F5"/>
<path d="M197.79 41.26C197.326 41.26 196.881 41.0756 196.552 40.7474C196.224 40.4193 196.04 39.9741 196.04 39.51V1.75C196.04 1.28587 196.224 0.840754 196.552 0.512566C196.881 0.184377 197.326 0 197.79 0C198.254 0 198.699 0.184377 199.027 0.512566C199.356 0.840754 199.54 1.28587 199.54 1.75V39.51C199.54 39.7398 199.495 39.9674 199.407 40.1797C199.319 40.392 199.19 40.5849 199.027 40.7474C198.865 40.9099 198.672 41.0388 198.46 41.1268C198.247 41.2147 198.02 41.26 197.79 41.26Z" fill="#0000FF"/>
<path d="M247.87 42.9C247.546 42.8964 247.23 42.8037 246.956 42.6321C246.682 42.4605 246.46 42.2166 246.315 41.9272C246.171 41.6379 246.109 41.3143 246.136 40.9919C246.163 40.6696 246.279 40.361 246.47 40.1L271.64 6.37003C271.918 5.9974 272.333 5.75065 272.794 5.68408C273.254 5.6175 273.722 5.73655 274.095 6.01503C274.468 6.2935 274.714 6.7086 274.781 7.169C274.847 7.6294 274.728 8.0974 274.45 8.47003L249.28 42.19C249.116 42.4094 248.903 42.5877 248.658 42.7109C248.414 42.8341 248.144 42.8989 247.87 42.9Z" fill="#0000FF"/>
<path d="M151.24 42.9C150.966 42.8989 150.696 42.8341 150.451 42.7109C150.207 42.5877 149.994 42.4094 149.83 42.19L124.66 8.47002C124.522 8.28551 124.422 8.07565 124.365 7.85242C124.308 7.62919 124.296 7.39696 124.329 7.169C124.362 6.94103 124.439 6.72178 124.557 6.52378C124.675 6.32579 124.83 6.15291 125.015 6.01502C125.199 5.87713 125.409 5.77693 125.633 5.72015C125.856 5.66337 126.088 5.65111 126.316 5.68407C126.544 5.71704 126.763 5.79458 126.961 5.91227C127.159 6.02997 127.332 6.18551 127.47 6.37002L152.64 40.1C152.831 40.361 152.947 40.6696 152.974 40.9919C153.001 41.3143 152.939 41.6379 152.794 41.9272C152.65 42.2166 152.428 42.4604 152.154 42.6321C151.88 42.8037 151.563 42.8964 151.24 42.9Z" fill="#0000FF"/>
<path d="M14.9199 239.65C14.4558 239.65 14.0107 239.465 13.6825 239.137C13.3543 238.809 13.1699 238.364 13.1699 237.9C13.1699 237.436 13.3543 236.991 13.6825 236.662C14.0107 236.334 14.4558 236.15 14.9199 236.15L45.1799 236.09C45.6441 236.09 46.0892 236.274 46.4174 236.602C46.7455 236.931 46.9299 237.376 46.9299 237.84C46.9299 238.304 46.7455 238.749 46.4174 239.077C46.0892 239.405 45.6441 239.59 45.1799 239.59L14.9099 239.65H14.9199Z" fill="#0000FF"/>
<path d="M27.38 230.14H1.75C1.28587 230.14 0.840754 229.956 0.512566 229.628C0.184377 229.299 0 228.854 0 228.39C0 227.926 0.184377 227.481 0.512566 227.153C0.840754 226.825 1.28587 226.64 1.75 226.64H27.38C27.8441 226.64 28.2893 226.825 28.6174 227.153C28.9456 227.481 29.13 227.926 29.13 228.39C29.13 228.854 28.9456 229.299 28.6174 229.628C28.2893 229.956 27.8441 230.14 27.38 230.14Z" fill="#0000FF"/>
<path d="M5.61986 239.66C6.59188 239.66 7.37987 238.872 7.37987 237.9C7.37987 236.928 6.59188 236.14 5.61986 236.14C4.64784 236.14 3.85986 236.928 3.85986 237.9C3.85986 238.872 4.64784 239.66 5.61986 239.66Z" fill="#0000FF"/>
<path d="M348.87 100.47H329.58C329.116 100.47 328.671 100.286 328.342 99.9574C328.014 99.6292 327.83 99.1841 327.83 98.72C327.83 98.2558 328.014 97.8107 328.342 97.4825C328.671 97.1543 329.116 96.97 329.58 96.97H348.87C349.334 96.97 349.779 97.1543 350.107 97.4825C350.436 97.8107 350.62 98.2558 350.62 98.72C350.62 99.1841 350.436 99.6292 350.107 99.9574C349.779 100.286 349.334 100.47 348.87 100.47Z" fill="#0000FF"/>
<path d="M358.18 100.48C359.152 100.48 359.94 99.692 359.94 98.72C359.94 97.7479 359.152 96.96 358.18 96.96C357.208 96.96 356.42 97.7479 356.42 98.72C356.42 99.692 357.208 100.48 358.18 100.48Z" fill="#0000FF"/>
<path d="M84.1399 293.25L121.94 288.56L155.95 287.59L169.62 294.36L170.38 298.57L156.74 305.48L126.84 304.74L84.1399 293.25Z" fill="#0000FF"/>
<path d="M325.91 292.84C318.24 280.64 312.04 267.576 307.44 253.92C303.02 240.47 300.29 226.29 300.72 212.09C301.15 197.945 304.608 184.056 310.86 171.36C313.8 165.36 318 159.57 318.52 152.74C318.794 149.909 318.021 147.077 316.348 144.777C314.675 142.477 312.217 140.87 309.44 140.26C306.457 139.672 303.371 139.89 300.501 140.892C297.63 141.894 295.079 143.643 293.11 145.96C288.67 151.02 285.92 157.41 283.5 163.61C283.367 164.089 283.43 164.601 283.675 165.033C283.92 165.465 284.326 165.782 284.805 165.915C285.284 166.048 285.795 165.985 286.228 165.74C286.66 165.495 286.977 165.089 287.11 164.61C290.51 155.91 296.11 142.14 307.71 143.74C309.876 143.974 311.863 145.051 313.24 146.74C314.006 147.877 314.515 149.168 314.729 150.523C314.943 151.877 314.858 153.262 314.48 154.58C313.06 160.91 308.96 166.43 306.29 172.27C300.574 184.798 297.405 198.337 296.97 212.1C296.56 225.71 298.97 239.39 302.97 252.36C307.692 267.261 314.288 281.502 322.6 294.74C323.87 296.79 327.12 294.91 325.84 292.85L325.91 292.84Z" fill="#0000FF"/>
<path d="M287.1 159.53C287.74 143.89 288.32 128.24 288.93 112.59L289.44 100.65C289.652 97.5094 289.628 94.3573 289.37 91.2201C288.7 85.2201 286.12 79.54 280.37 76.99C277.666 75.746 274.663 75.2988 271.714 75.7008C268.765 76.1029 265.992 77.3376 263.72 79.2601C261.91 80.8501 264.57 83.5 266.37 81.91C268.086 80.5189 270.157 79.6363 272.348 79.3624C274.54 79.0884 276.765 79.434 278.77 80.3601C283.84 82.6401 285.5 88.0401 285.77 93.2101C285.94 96.35 285.77 99.5001 285.61 102.64C285.463 106.28 285.32 109.92 285.18 113.56C284.893 120.7 284.617 127.847 284.35 135C284.03 143.167 283.697 151.337 283.35 159.51C283.25 161.93 287 161.92 287.1 159.51V159.53Z" fill="#0000FF"/>
<path d="M266.9 80.5901C266.48 74.3701 261.8 68.2501 255.63 66.7501C252.565 66.0579 249.359 66.3638 246.481 67.6232C243.602 68.8826 241.202 71.0294 239.63 73.7501C238.44 75.8601 241.63 77.7501 242.87 75.6401C244.01 73.6263 245.761 72.0268 247.869 71.0724C249.977 70.118 252.334 69.858 254.6 70.3301C256.878 70.9899 258.906 72.3171 260.423 74.1405C261.94 75.9639 262.876 78.1999 263.11 80.5601C263.27 82.9601 267.03 82.9701 266.86 80.5601L266.9 80.5901Z" fill="#0000FF"/>
<path d="M243.03 73.0601C237.53 68.4801 229.84 66.4201 223.75 71.1301C218.08 75.5301 216.48 82.9701 215.25 89.6501C214.81 92.0101 218.43 93.0201 218.86 90.6501C219.86 85.1401 220.96 78.8001 225.22 74.7801C229.75 70.5201 235.99 72.0601 240.38 75.7101C242.22 77.2401 244.89 74.6001 243.03 73.0601Z" fill="#0000FF"/>
<path d="M214.69 93.03C218.84 94.03 220.07 98.72 220.11 102.47C220.16 107.69 219.4 112.98 218.98 118.17L216.35 150.51L214.86 168.91C214.66 171.32 218.41 171.31 218.61 168.91L221.44 134.59L222.84 117.43L223.55 108.72C223.856 106.125 223.953 103.51 223.84 100.9C223.45 95.9 220.95 90.71 215.74 89.41C213.39 88.83 212.39 92.41 214.74 93.03H214.69Z" fill="#0000FF"/>
<path d="M239.25 74.8901C242.25 79.1401 242.64 84.3301 242.43 89.3801C242.17 95.3801 241.43 101.46 240.84 107.47L237.28 145.65L235.28 167.46C235.06 169.86 238.81 169.84 239.03 167.46L242.69 128.31L244.54 108.48C245.1 102.4 245.84 96.3101 246.18 90.2101C246.5 84.3001 246.06 78.0001 242.52 73.0201C241.14 71.0701 237.89 72.9401 239.29 74.9101L239.25 74.8901Z" fill="#0000FF"/>
<path d="M263.17 80.59C262.6 102.74 262.36 124.9 261.94 147.06C261.82 153.327 261.68 159.597 261.52 165.87C261.46 168.29 265.21 168.29 265.27 165.87C265.84 143.72 266.08 121.56 266.5 99.41C266.62 93.13 266.76 86.8566 266.92 80.59C266.98 78.18 263.23 78.18 263.17 80.59Z" fill="#0000FF"/>
<path d="M283.35 159.53C283.373 173.813 285.256 188.033 288.95 201.83C289.58 204.16 293.2 203.17 292.57 200.83C288.959 187.36 287.12 173.476 287.1 159.53C287.1 157.12 283.34 157.12 283.35 159.53Z" fill="#0000FF"/>
<path d="M220.71 301C247.095 308.914 275.108 309.687 301.89 303.24C309.367 301.441 316.696 299.071 323.81 296.15C324.28 296.006 324.678 295.687 324.921 295.26C325.165 294.832 325.236 294.328 325.12 293.85C324.987 293.37 324.669 292.963 324.236 292.717C323.803 292.472 323.29 292.408 322.81 292.54C290.668 305.742 254.957 307.455 221.7 297.39C219.39 296.69 218.4 300.31 220.7 301H220.71Z" fill="#0000FF"/>
<path d="M41.26 137.3C37.9328 137.3 34.6805 136.313 31.9142 134.465C29.148 132.616 26.9921 129.988 25.7193 126.914C24.4466 123.84 24.1141 120.458 24.7639 117.195C25.4137 113.932 27.0166 110.935 29.37 108.583C31.7233 106.231 34.7212 104.63 37.9847 103.982C41.2481 103.334 44.6303 103.669 47.7036 104.943C50.7769 106.218 53.4031 108.375 55.2501 111.143C57.0971 113.91 58.0819 117.163 58.0799 120.49C58.0746 124.948 56.3005 129.222 53.147 132.374C49.9935 135.526 45.7183 137.297 41.26 137.3ZM41.26 107.17C38.6255 107.17 36.0502 107.951 33.8597 109.415C31.6693 110.878 29.962 112.959 28.9539 115.393C27.9457 117.826 27.6819 120.505 28.1959 123.089C28.7098 125.672 29.9784 128.046 31.8413 129.909C33.7041 131.771 36.0775 133.04 38.6613 133.554C41.2452 134.068 43.9234 133.804 46.3573 132.796C48.7912 131.788 50.8715 130.081 52.3351 127.89C53.7987 125.7 54.5799 123.124 54.5799 120.49C54.5773 116.958 53.1731 113.572 50.6757 111.074C48.1783 108.577 44.7918 107.173 41.26 107.17Z" fill="#0000FF"/>
</svg>
