<svg width="300" height="276" viewBox="0 0 300 276" fill="none" xmlns="http://www.w3.org/2000/svg">
<path d="M187.758 202.771L190.346 205.516L192.343 204.533L193.247 201.802L191.881 200.782L187.758 202.771Z" fill="#0000FF"/>
<path d="M179.425 210.741L176.691 213.523L178.067 215.303L180.469 214.325L179.425 210.741Z" fill="#0000FF"/>
<path d="M88.6824 206.741L88.2812 212.091L91.1589 212.467L91.7839 209.731L89.2374 203.824L88.6824 206.741Z" fill="#0000FF"/>
<path d="M81.9699 197.75L81.5781 199.757C81.5781 199.757 86.8297 199.952 86.8391 199.757C86.8484 199.563 84.5397 197.212 84.5397 197.212L81.9699 197.75Z" fill="#0000FF"/>
<path d="M133.673 159.448H117.666L116.117 178.078V181.703L83.9688 196.674L89.0198 202.095L91.5617 207.895L92.5458 212.323L108.371 205.799L125.291 197.639L132.945 188.301L136.62 177.609L137.32 165.638L136.35 159.648L133.673 159.448Z" fill="#FF5657"/>
<path d="M179.178 179.478L165.695 159.184C165.695 159.184 142.524 158.915 142.449 159.184C142.375 159.453 177.429 215.012 177.429 215.012L177.224 213.157C177.224 213.157 184.001 204.751 184.15 204.774C184.299 204.798 189.826 201.186 189.826 201.186L192.358 199.739L179.178 179.478Z" fill="#FF5657"/>
<path d="M115.051 180.823L89.0825 193.017L81.7507 196.461C80.734 196.925 81.6201 198.441 82.6322 197.964L108.615 185.751L115.952 182.302C116.968 181.838 116.082 180.326 115.065 180.804L115.051 180.823Z" fill="#0000FF"/>
<path d="M91.7928 213.162L107.622 206.787L115.434 203.629C117.811 202.712 120.135 201.667 122.398 200.5C126.528 198.285 129.988 195.013 132.421 191.023C134.82 186.991 136.436 182.546 137.182 177.92C138.241 171.893 138.218 165.74 138.176 159.634C138.176 158.517 136.418 158.517 136.427 159.634C136.497 169.454 136.553 179.826 131.74 188.709C129.671 192.64 126.568 195.94 122.761 198.256C120.635 199.486 118.42 200.559 116.134 201.464C113.657 202.48 111.172 203.472 108.672 204.478L91.3357 211.484C91.116 211.551 90.9305 211.7 90.817 211.899C90.7035 212.098 90.6705 212.332 90.7247 212.555C90.7879 212.776 90.9364 212.964 91.138 213.078C91.3397 213.192 91.5782 213.222 91.8021 213.162H91.7928Z" fill="#0000FF"/>
<path d="M177.55 213.361C173.199 206.578 168.745 199.855 164.347 193.099C159.795 186.101 155.294 179.069 150.845 172.003C148.264 167.905 145.717 163.783 143.205 159.638C142.622 158.683 141.111 159.554 141.694 160.519C146.134 167.863 150.728 175.119 155.355 182.352C159.748 189.217 164.184 196.061 168.661 202.882C171.133 206.661 173.605 210.44 176.044 214.237C176.646 215.164 178.161 214.307 177.55 213.361Z" fill="#0000FF"/>
<path d="M165.256 160.333C172.196 171.006 179.155 181.67 186.132 192.325C188.069 195.292 190.001 198.26 191.929 201.227C192.54 202.154 194.056 201.292 193.44 200.351C186.5 189.678 179.542 179.014 172.564 168.359C170.627 165.398 168.695 162.431 166.767 159.457C166.156 158.53 164.645 159.392 165.256 160.338V160.333Z" fill="#0000FF"/>
<path d="M82.1626 199.762C81.7568 198.645 82.5404 197.546 83.753 197.861C85.2315 198.251 86.3042 199.415 87.0178 200.699C87.9086 202.317 88.6082 204.051 89.3777 205.725C89.7928 206.62 90.2546 207.505 90.5904 208.428C90.8519 209.173 90.9797 209.957 90.9681 210.746C90.9681 211.279 90.9681 211.775 90.3432 211.803C89.9794 211.803 89.1539 211.669 89.0186 211.284C88.6455 210.236 86.9571 210.686 87.3349 211.748C87.9039 213.356 90.4318 214.135 91.817 213.078C92.6099 212.466 92.7498 211.446 92.7125 210.51C92.6691 209.325 92.3967 208.16 91.9103 207.079C90.8795 204.737 89.8488 202.349 88.6455 200.082C87.6847 198.228 86.0383 196.507 83.8882 196.127C83.3408 196.009 82.7708 196.051 82.2464 196.246C81.722 196.442 81.2654 196.784 80.9313 197.231C80.616 197.657 80.4089 198.153 80.3277 198.676C80.2465 199.199 80.2936 199.734 80.4649 200.235C80.8473 201.278 82.5404 200.829 82.1533 199.772L82.1626 199.762Z" fill="#0000FF"/>
<path d="M179.854 213.709C179.415 214.126 178.851 214.678 178.179 214.432C177.368 214.14 178.315 213.041 178.594 212.643C179.728 211.075 180.975 209.592 182.326 208.205C183.66 206.833 185.089 205.555 186.603 204.38C187.381 203.778 188.184 203.207 189 202.665C189.691 202.147 190.5 201.808 191.355 201.677C191.542 201.654 192.036 201.566 192.157 201.738C192.279 201.909 192.083 202.479 192.031 202.665C191.728 203.629 191.019 204.237 190.254 204.858C190.091 205.021 190 205.242 190 205.472C190 205.702 190.091 205.923 190.254 206.087C190.42 206.245 190.642 206.334 190.872 206.334C191.103 206.334 191.324 206.245 191.49 206.087C192.476 205.378 193.232 204.4 193.668 203.272C193.99 202.345 194.102 201.13 193.291 200.412C192.479 199.693 191.22 199.906 190.287 200.124C188.995 200.425 187.866 201.325 186.812 202.085C184.737 203.571 182.799 205.238 181.02 207.065C180.124 207.992 179.271 208.952 178.469 209.958C177.666 210.964 176.771 211.924 176.309 213.069C176.167 213.369 176.095 213.698 176.098 214.03C176.101 214.362 176.179 214.689 176.327 214.987C176.475 215.284 176.689 215.545 176.952 215.749C177.216 215.953 177.522 216.096 177.848 216.166C179.14 216.463 180.18 215.8 181.076 214.956C181.892 214.182 180.651 212.953 179.84 213.727L179.854 213.709Z" fill="#0000FF"/>
<path d="M87.2183 199.132C81.948 199.132 76.673 199.299 71.4028 199.294C71.1819 199.31 70.9753 199.409 70.8245 199.57C70.6737 199.731 70.5898 199.943 70.5898 200.163C70.5898 200.384 70.6737 200.596 70.8245 200.757C70.9753 200.918 71.1819 201.017 71.4028 201.033C76.673 201.033 81.948 200.866 87.2183 200.871C87.4392 200.854 87.6458 200.756 87.7966 200.595C87.9474 200.433 88.0312 200.221 88.0312 200.001C88.0312 199.781 87.9474 199.569 87.7966 199.408C87.6458 199.246 87.4392 199.148 87.2183 199.132Z" fill="#0000FF"/>
<path d="M88.1721 202.915C87.1013 208.754 86.603 214.682 86.6843 220.617C86.6843 221.734 88.4473 221.739 88.4333 220.617C88.3457 214.838 88.8237 209.065 89.8605 203.378C90.061 202.284 88.3727 201.816 88.1721 202.915Z" fill="#0000FF"/>
<path d="M94.7568 224.59C92.8699 222.432 90.4247 220.829 87.6863 219.954C87.4665 219.905 87.2363 219.942 87.0431 220.057C86.85 220.172 86.7088 220.356 86.6488 220.572C86.5889 220.788 86.6147 221.018 86.721 221.216C86.8273 221.413 87.006 221.562 87.2199 221.632C89.6676 222.434 91.8459 223.891 93.5162 225.842C93.6801 226.005 93.9024 226.097 94.1342 226.097C94.366 226.097 94.5883 226.005 94.7521 225.842C94.916 225.679 95.0081 225.458 95.0081 225.228C95.0081 224.997 94.916 224.776 94.7521 224.614L94.7568 224.59Z" fill="#0000FF"/>
<path d="M84.7216 224.962L79.5912 213.37L76.9561 207.463C76.1539 205.655 75.403 203.805 74.4236 202.085C73.6307 200.694 72.4181 198.798 70.5105 199.382C68.6029 199.966 68.1785 202.081 68.435 203.764C68.7335 205.618 69.713 207.389 70.4312 209.105C71.1495 210.82 71.905 212.642 72.6373 214.414C74.2976 218.413 75.9627 222.415 77.6324 226.417C77.7006 226.636 77.85 226.82 78.0501 226.933C78.2503 227.046 78.4861 227.079 78.7097 227.025C78.9328 226.962 79.122 226.814 79.2363 226.614C79.3507 226.413 79.381 226.176 79.3207 225.954C76.5876 219.463 73.9152 212.925 71.1868 206.42C70.6271 205.085 69.4938 203.022 70.3846 201.603C71.434 199.938 72.6606 202.493 73.1177 203.328C73.9945 204.946 74.6987 206.657 75.4496 208.34L77.8329 213.718L83.2058 225.842C83.3252 226.04 83.5175 226.182 83.7415 226.241C83.9655 226.299 84.2034 226.267 84.4044 226.153C84.6001 226.032 84.7415 225.841 84.7996 225.619C84.8578 225.398 84.8282 225.162 84.7169 224.962H84.7216Z" fill="#0000FF"/>
<path d="M60.2649 226.927C73.7904 227.025 87.3159 227.154 100.869 227.159C104.709 227.159 108.546 227.159 112.38 227.159C113.504 227.159 113.509 225.416 112.38 225.42C98.8125 225.481 85.2497 225.383 71.6823 225.286L60.2649 225.207C59.1409 225.207 59.1409 226.936 60.2649 226.946V226.927Z" fill="#0000FF"/>
<path d="M178.703 210.769C179.471 214.356 181.041 217.725 183.297 220.626C183.424 220.815 183.616 220.951 183.837 221.008C184.058 221.065 184.292 221.04 184.496 220.937C184.695 220.819 184.84 220.628 184.898 220.405C184.957 220.182 184.924 219.945 184.808 219.746C182.636 216.972 181.126 213.744 180.392 210.306C180.172 209.207 178.484 209.671 178.703 210.769Z" fill="#0000FF"/>
<path d="M187.112 203.383C188.469 207.246 193.049 207.454 196.505 207.093C199.961 206.731 203.226 205.79 206.57 205.099C208.543 204.724 210.534 204.453 212.535 204.288C212.765 204.28 212.984 204.186 213.146 204.024C213.308 203.862 213.402 203.644 213.408 203.416C213.405 203.187 213.312 202.968 213.149 202.805C212.986 202.643 212.766 202.551 212.535 202.549C210.838 202.72 209.14 202.859 207.461 203.161C205.866 203.448 204.289 203.815 202.708 204.176C199.588 204.881 196.384 205.66 193.152 205.461C191.45 205.359 189.421 204.668 188.796 202.906C188.427 201.858 186.739 202.308 187.112 203.369V203.383Z" fill="#0000FF"/>
<path d="M185.898 221.952C184.406 221.952 183.785 221.345 183.529 220.83C182.881 219.537 183.944 217.71 186.052 216.486L186.887 215.999C190.903 213.648 203.108 206.508 210.864 203.481C211.998 202.804 212.767 202.734 213.224 203.267C213.84 203.986 213.336 204.997 211.079 207.598C208.668 210.38 198.169 217.65 190.744 220.733C188.533 221.623 186.985 221.952 185.898 221.952ZM210.958 205.173C203.299 208.279 191.616 215.114 187.712 217.399L186.873 217.886C185.343 218.776 184.858 219.847 185.007 220.107C185.157 220.367 186.341 220.784 190.138 219.217C197.852 216.018 207.819 208.873 209.866 206.518C210.319 205.97 210.682 205.53 210.958 205.173Z" fill="#0000FF"/>
<path d="M214.65 226.988H166.648C166.432 226.988 166.224 226.903 166.071 226.75C165.918 226.598 165.832 226.392 165.832 226.177C165.832 225.961 165.918 225.755 166.071 225.603C166.224 225.451 166.432 225.365 166.648 225.365H214.65C214.866 225.365 215.074 225.451 215.227 225.603C215.38 225.755 215.466 225.961 215.466 226.177C215.466 226.392 215.38 226.598 215.227 226.75C215.074 226.903 214.866 226.988 214.65 226.988Z" fill="#0000FF"/>
<path d="M184.919 229.227C185.906 229.227 186.705 228.432 186.705 227.452C186.705 226.471 185.906 225.676 184.919 225.676C183.933 225.676 183.133 226.471 183.133 227.452C183.133 228.432 183.933 229.227 184.919 229.227Z" fill="#0D26F5"/>
<path d="M191.708 229.227C192.695 229.227 193.494 228.432 193.494 227.452C193.494 226.471 192.695 225.676 191.708 225.676C190.722 225.676 189.922 226.471 189.922 227.452C189.922 228.432 190.722 229.227 191.708 229.227Z" fill="#0D26F5"/>
<path d="M198.497 229.227C199.484 229.227 200.284 228.432 200.284 227.452C200.284 226.471 199.484 225.676 198.497 225.676C197.511 225.676 196.711 226.471 196.711 227.452C196.711 228.432 197.511 229.227 198.497 229.227Z" fill="#0D26F5"/>
<path d="M181.403 233.901C182.39 233.901 183.19 233.106 183.19 232.125C183.19 231.145 182.39 230.35 181.403 230.35C180.417 230.35 179.617 231.145 179.617 232.125C179.617 233.106 180.417 233.901 181.403 233.901Z" fill="#0D26F5"/>
<path d="M188.193 233.901C189.179 233.901 189.979 233.106 189.979 232.125C189.979 231.145 189.179 230.35 188.193 230.35C187.206 230.35 186.406 231.145 186.406 232.125C186.406 233.106 187.206 233.901 188.193 233.901Z" fill="#0D26F5"/>
<path d="M194.978 233.901C195.964 233.901 196.764 233.106 196.764 232.125C196.764 231.145 195.964 230.35 194.978 230.35C193.991 230.35 193.191 231.145 193.191 232.125C193.191 233.106 193.991 233.901 194.978 233.901Z" fill="#0D26F5"/>
<path d="M201.763 233.901C202.749 233.901 203.549 233.106 203.549 232.125C203.549 231.145 202.749 230.35 201.763 230.35C200.776 230.35 199.977 231.145 199.977 232.125C199.977 233.106 200.776 233.901 201.763 233.901Z" fill="#0D26F5"/>
<path d="M79.1808 229.227C80.1674 229.227 80.9671 228.432 80.9671 227.452C80.9671 226.471 80.1674 225.676 79.1808 225.676C78.1943 225.676 77.3945 226.471 77.3945 227.452C77.3945 228.432 78.1943 229.227 79.1808 229.227Z" fill="#0D26F5"/>
<path d="M85.9699 229.227C86.9565 229.227 87.7562 228.432 87.7562 227.452C87.7562 226.471 86.9565 225.676 85.9699 225.676C84.9834 225.676 84.1836 226.471 84.1836 227.452C84.1836 228.432 84.9834 229.227 85.9699 229.227Z" fill="#0D26F5"/>
<path d="M92.755 229.227C93.7416 229.227 94.5413 228.432 94.5413 227.452C94.5413 226.471 93.7416 225.676 92.755 225.676C91.7685 225.676 90.9688 226.471 90.9688 227.452C90.9688 228.432 91.7685 229.227 92.755 229.227Z" fill="#0D26F5"/>
<path d="M85.9699 238.574C86.9565 238.574 87.7562 237.779 87.7562 236.798C87.7562 235.817 86.9565 235.022 85.9699 235.022C84.9834 235.022 84.1836 235.817 84.1836 236.798C84.1836 237.779 84.9834 238.574 85.9699 238.574Z" fill="#0D26F5"/>
<path d="M82.4504 233.901C83.4369 233.901 84.2367 233.106 84.2367 232.125C84.2367 231.145 83.4369 230.35 82.4504 230.35C81.4638 230.35 80.6641 231.145 80.6641 232.125C80.6641 233.106 81.4638 233.901 82.4504 233.901Z" fill="#0D26F5"/>
<path d="M89.2355 233.901C90.2221 233.901 91.0218 233.106 91.0218 232.125C91.0218 231.145 90.2221 230.35 89.2355 230.35C88.249 230.35 87.4492 231.145 87.4492 232.125C87.4492 233.106 88.249 233.901 89.2355 233.901Z" fill="#0D26F5"/>
<path d="M207.811 78.6201H78.0078V159.299H207.811V78.6201Z" fill="white"/>
<path d="M207.81 160.111H78.0076C77.7911 160.111 77.5835 160.025 77.4305 159.873C77.2774 159.721 77.1914 159.515 77.1914 159.299V78.6249C77.1914 78.4097 77.2774 78.2033 77.4305 78.0511C77.5835 77.899 77.7911 77.8135 78.0076 77.8135H207.81C208.027 77.8135 208.234 77.899 208.387 78.0511C208.541 78.2033 208.627 78.4097 208.627 78.6249V159.299C208.627 159.515 208.541 159.721 208.387 159.873C208.234 160.025 208.027 160.111 207.81 160.111ZM78.8238 158.488H206.994V79.4316H78.8238V158.488Z" fill="#0000FF"/>
<path d="M211.211 163.598H172.258C172.041 163.598 171.834 163.512 171.68 163.36C171.527 163.208 171.441 163.002 171.441 162.786C171.441 162.571 171.527 162.365 171.68 162.213C171.834 162.06 172.041 161.975 172.258 161.975H210.395V80.2108C210.395 79.9956 210.481 79.7892 210.634 79.6371C210.787 79.4849 210.995 79.3994 211.211 79.3994C211.427 79.3994 211.635 79.4849 211.788 79.6371C211.941 79.7892 212.027 79.9956 212.027 80.2108V162.786C212.026 163.001 211.94 163.207 211.787 163.359C211.634 163.511 211.427 163.597 211.211 163.598Z" fill="#0000FF"/>
<path d="M142.207 62.5598C141.99 62.5598 141.783 62.4743 141.63 62.3221C141.477 62.17 141.391 61.9636 141.391 61.7484V44.2411C141.391 44.0259 141.477 43.8195 141.63 43.6673C141.783 43.5152 141.99 43.4297 142.207 43.4297C142.423 43.4297 142.631 43.5152 142.784 43.6673C142.937 43.8195 143.023 44.0259 143.023 44.2411V61.7484C143.023 61.9636 142.937 62.17 142.784 62.3221C142.631 62.4743 142.423 62.5598 142.207 62.5598Z" fill="#0000FF"/>
<path d="M165.574 63.3159C165.398 63.3162 165.227 63.261 165.084 63.1582C164.911 63.0291 164.797 62.8369 164.766 62.6239C164.735 62.4108 164.791 62.1944 164.921 62.0223L176.656 46.3649C176.717 46.2726 176.796 46.1937 176.889 46.133C176.982 46.0724 177.087 46.0313 177.196 46.0122C177.306 45.9931 177.418 45.9965 177.526 46.0221C177.634 46.0477 177.736 46.095 177.825 46.1612C177.914 46.2273 177.989 46.3108 178.044 46.4066C178.1 46.5024 178.135 46.6085 178.148 46.7183C178.161 46.8282 178.151 46.9394 178.119 47.0453C178.087 47.1511 178.033 47.2494 177.961 47.3339L166.222 62.9728C166.149 63.0766 166.052 63.1618 165.939 63.2214C165.827 63.281 165.702 63.3134 165.574 63.3159Z" fill="#0000FF"/>
<path d="M120.494 63.3159C120.367 63.3162 120.242 63.287 120.129 63.2307C120.015 63.1743 119.917 63.0923 119.841 62.9913L108.102 47.3525C108.03 47.2679 107.977 47.1697 107.945 47.0638C107.913 46.958 107.903 46.8467 107.916 46.7369C107.928 46.6271 107.963 46.521 108.019 46.4252C108.074 46.3294 108.149 46.2458 108.238 46.1797C108.327 46.1136 108.429 46.0663 108.537 46.0406C108.645 46.015 108.758 46.0116 108.867 46.0307C108.977 46.0498 109.081 46.0909 109.174 46.1516C109.267 46.2122 109.347 46.2911 109.408 46.3835L121.147 62.0223C121.277 62.1944 121.333 62.4108 121.302 62.6239C121.271 62.8369 121.157 63.0291 120.984 63.1582C120.841 63.261 120.67 63.3162 120.494 63.3159Z" fill="#0000FF"/>
<path d="M88.1492 173.047H65.9021C65.6857 173.047 65.4781 172.961 65.325 172.809C65.1719 172.657 65.0859 172.45 65.0859 172.235C65.0859 172.02 65.1719 171.814 65.325 171.661C65.4781 171.509 65.6857 171.424 65.9021 171.424H88.1492C88.3657 171.424 88.5733 171.509 88.7264 171.661C88.8794 171.814 88.9654 172.02 88.9654 172.235C88.9654 172.45 88.8794 172.657 88.7264 172.809C88.5733 172.961 88.3657 173.047 88.1492 173.047Z" fill="#0000FF"/>
<path d="M224.571 66.9694H203.984C203.768 66.9694 203.56 66.884 203.407 66.7318C203.254 66.5796 203.168 66.3733 203.168 66.1581C203.168 65.9429 203.254 65.7365 203.407 65.5843C203.56 65.4322 203.768 65.3467 203.984 65.3467H224.571C224.787 65.3467 224.995 65.4322 225.148 65.5843C225.301 65.7365 225.387 65.9429 225.387 66.1581C225.387 66.3733 225.301 66.5796 225.148 66.7318C224.995 66.884 224.787 66.9694 224.571 66.9694Z" fill="#0000FF"/>
<path d="M209.797 62.5603H197.844C197.627 62.5603 197.419 62.4748 197.266 62.3226C197.113 62.1705 197.027 61.9641 197.027 61.7489C197.027 61.5337 197.113 61.3273 197.266 61.1752C197.419 61.023 197.627 60.9375 197.844 60.9375H209.797C210.014 60.9375 210.221 61.023 210.374 61.1752C210.527 61.3273 210.613 61.5337 210.613 61.7489C210.613 61.9641 210.527 62.1705 210.374 62.3226C210.221 62.4748 210.014 62.5603 209.797 62.5603Z" fill="#0000FF"/>
<path d="M213.897 62.5505C214.342 62.5505 214.704 62.1914 214.704 61.7484C214.704 61.3054 214.342 60.9463 213.897 60.9463C213.451 60.9463 213.09 61.3054 213.09 61.7484C213.09 62.1914 213.451 62.5505 213.897 62.5505Z" fill="#0000FF"/>
<path d="M91.8294 173.367C92.4579 173.367 92.9674 172.861 92.9674 172.236C92.9674 171.611 92.4579 171.104 91.8294 171.104C91.2009 171.104 90.6914 171.611 90.6914 172.236C90.6914 172.861 91.2009 173.367 91.8294 173.367Z" fill="#0000FF"/>
<path d="M235.681 104.386L223.988 113.339L239.58 124.828L235.681 104.386Z" fill="#2DDFD5"/>
<path d="M239.581 125.648C239.412 125.644 239.249 125.587 239.114 125.486L223.523 113.996C223.421 113.921 223.339 113.824 223.282 113.712C223.224 113.601 223.193 113.477 223.191 113.352C223.191 113.226 223.219 113.102 223.275 112.99C223.331 112.877 223.412 112.779 223.513 112.703L235.201 103.75C235.312 103.666 235.442 103.612 235.58 103.592C235.718 103.573 235.859 103.588 235.989 103.637C236.119 103.686 236.234 103.768 236.324 103.873C236.414 103.979 236.475 104.106 236.502 104.241L240.401 124.684C240.423 124.801 240.419 124.921 240.389 125.037C240.359 125.152 240.303 125.26 240.227 125.352C240.15 125.444 240.055 125.518 239.946 125.569C239.838 125.62 239.719 125.647 239.599 125.648H239.581ZM225.346 113.333L238.405 122.945L235.14 105.846L225.346 113.333Z" fill="#0000FF"/>
<path d="M142.587 125.649C142.42 125.645 142.257 125.592 142.121 125.496L77.5293 79.2839C77.4273 79.2298 77.3381 79.1547 77.2675 79.0636C77.1969 78.9726 77.1465 78.8677 77.1198 78.7558C77.093 78.644 77.0905 78.5278 77.1124 78.4149C77.1342 78.302 77.1799 78.195 77.2465 78.101C77.3131 78.0071 77.399 77.9282 77.4986 77.8697C77.5981 77.8112 77.709 77.7744 77.824 77.7618C77.9389 77.7491 78.0552 77.7609 78.1652 77.7963C78.2753 77.8317 78.3765 77.8899 78.4621 77.9672L142.573 123.831L207.318 77.9672C207.494 77.8692 207.701 77.8397 207.898 77.8844C208.095 77.9291 208.268 78.0449 208.384 78.2093C208.5 78.3737 208.551 78.5751 208.526 78.7745C208.502 78.9738 208.404 79.157 208.251 79.2886L143.063 125.486C142.925 125.589 142.759 125.646 142.587 125.649Z" fill="#0000FF"/>
<path d="M207.601 159.875C207.485 159.875 207.371 159.852 207.266 159.805C207.161 159.759 207.067 159.691 206.99 159.606L162.775 110.654C162.63 110.493 162.556 110.282 162.568 110.067C162.579 109.852 162.677 109.65 162.838 109.506C163 109.363 163.212 109.288 163.428 109.3C163.645 109.312 163.848 109.409 163.993 109.569L208.207 158.521C208.312 158.637 208.381 158.782 208.406 158.937C208.431 159.092 208.41 159.25 208.346 159.393C208.281 159.537 208.177 159.658 208.045 159.744C207.912 159.829 207.758 159.875 207.601 159.875Z" fill="#0000FF"/>
<path d="M78.007 160.111C77.8493 160.111 77.695 160.065 77.5628 159.98C77.4306 159.894 77.3261 159.773 77.262 159.629C77.1978 159.486 77.1768 159.328 77.2014 159.173C77.226 159.018 77.2952 158.874 77.4006 158.757L121.442 110.023C121.513 109.94 121.599 109.871 121.697 109.822C121.795 109.772 121.901 109.743 122.011 109.735C122.12 109.728 122.23 109.742 122.333 109.778C122.437 109.813 122.532 109.869 122.613 109.942C122.695 110.015 122.761 110.103 122.807 110.202C122.853 110.3 122.879 110.407 122.883 110.516C122.887 110.625 122.869 110.733 122.83 110.835C122.79 110.937 122.731 111.03 122.655 111.108L78.6133 159.842C78.5376 159.927 78.4442 159.996 78.3396 160.042C78.235 160.088 78.1215 160.112 78.007 160.111Z" fill="#0000FF"/>
<path d="M115.637 111.568L104.766 119.964L128.878 147.408L182.906 102.42L172.258 92.0713L128.878 127.197L115.637 111.568Z" fill="#2DDFD5"/>
<path d="M128.877 148.219C128.76 148.219 128.645 148.193 128.539 148.146C128.433 148.098 128.338 148.028 128.261 147.941L104.153 120.498C104.08 120.414 104.024 120.317 103.99 120.212C103.955 120.107 103.943 119.996 103.953 119.886C103.964 119.776 103.997 119.67 104.051 119.573C104.104 119.477 104.177 119.392 104.265 119.325L115.137 110.923C115.304 110.795 115.514 110.736 115.723 110.759C115.933 110.781 116.125 110.883 116.261 111.044L128.984 126.066L171.743 91.4408C171.899 91.316 172.096 91.2523 172.296 91.2617C172.497 91.271 172.686 91.3529 172.83 91.4918L183.473 101.84C183.556 101.918 183.62 102.013 183.663 102.118C183.705 102.222 183.725 102.335 183.72 102.448C183.716 102.562 183.687 102.673 183.637 102.775C183.586 102.878 183.514 102.968 183.426 103.041L129.399 148.015C129.255 148.143 129.07 148.215 128.877 148.219ZM105.949 120.085L128.965 146.281L181.668 102.383L172.191 93.1656L129.376 127.837C129.209 127.971 128.996 128.035 128.783 128.015C128.569 127.995 128.372 127.893 128.233 127.73L115.519 112.667L105.949 120.085Z" fill="#0000FF"/>
<path d="M116.787 159.448L114.968 181.379C114.875 182.491 116.624 182.487 116.717 181.379L118.536 159.448C118.63 158.335 116.881 158.34 116.787 159.448Z" fill="#0000FF"/>
<path d="M121.638 162.62C122.624 162.62 123.424 161.825 123.424 160.844C123.424 159.863 122.624 159.068 121.638 159.068C120.651 159.068 119.852 159.863 119.852 160.844C119.852 161.825 120.651 162.62 121.638 162.62Z" fill="#0D26F5"/>
<path d="M128.427 162.62C129.413 162.62 130.213 161.825 130.213 160.844C130.213 159.863 129.413 159.068 128.427 159.068C127.44 159.068 126.641 159.863 126.641 160.844C126.641 161.825 127.44 162.62 128.427 162.62Z" fill="#0D26F5"/>
<path d="M135.216 162.62C136.203 162.62 137.002 161.825 137.002 160.844C137.002 159.863 136.203 159.068 135.216 159.068C134.229 159.068 133.43 159.863 133.43 160.844C133.43 161.825 134.229 162.62 135.216 162.62Z" fill="#0D26F5"/>
<path d="M147.853 162.62C148.839 162.62 149.639 161.825 149.639 160.844C149.639 159.863 148.839 159.068 147.853 159.068C146.866 159.068 146.066 159.863 146.066 160.844C146.066 161.825 146.866 162.62 147.853 162.62Z" fill="#0D26F5"/>
<path d="M154.646 162.62C155.632 162.62 156.432 161.825 156.432 160.844C156.432 159.863 155.632 159.068 154.646 159.068C153.659 159.068 152.859 159.863 152.859 160.844C152.859 161.825 153.659 162.62 154.646 162.62Z" fill="#0D26F5"/>
<path d="M161.431 162.62C162.417 162.62 163.217 161.825 163.217 160.844C163.217 159.863 162.417 159.068 161.431 159.068C160.444 159.068 159.645 159.863 159.645 160.844C159.645 161.825 160.444 162.62 161.431 162.62Z" fill="#0D26F5"/>
<path d="M128.427 171.967C129.413 171.967 130.213 171.172 130.213 170.191C130.213 169.21 129.413 168.415 128.427 168.415C127.44 168.415 126.641 169.21 126.641 170.191C126.641 171.172 127.44 171.967 128.427 171.967Z" fill="#0D26F5"/>
<path d="M154.646 171.967C155.632 171.967 156.432 171.172 156.432 170.191C156.432 169.21 155.632 168.415 154.646 168.415C153.659 168.415 152.859 169.21 152.859 170.191C152.859 171.172 153.659 171.967 154.646 171.967Z" fill="#0D26F5"/>
<path d="M124.911 167.293C125.898 167.293 126.698 166.498 126.698 165.517C126.698 164.536 125.898 163.741 124.911 163.741C123.925 163.741 123.125 164.536 123.125 165.517C123.125 166.498 123.925 167.293 124.911 167.293Z" fill="#0D26F5"/>
<path d="M118.353 167.293C119.339 167.293 120.139 166.498 120.139 165.517C120.139 164.536 119.339 163.741 118.353 163.741C117.366 163.741 116.566 164.536 116.566 165.517C116.566 166.498 117.366 167.293 118.353 167.293Z" fill="#0D26F5"/>
<path d="M131.696 167.293C132.683 167.293 133.483 166.498 133.483 165.517C133.483 164.536 132.683 163.741 131.696 163.741C130.71 163.741 129.91 164.536 129.91 165.517C129.91 166.498 130.71 167.293 131.696 167.293Z" fill="#0D26F5"/>
<path d="M151.13 167.293C152.117 167.293 152.916 166.498 152.916 165.517C152.916 164.536 152.117 163.741 151.13 163.741C150.144 163.741 149.344 164.536 149.344 165.517C149.344 166.498 150.144 167.293 151.13 167.293Z" fill="#0D26F5"/>
<path d="M157.915 167.293C158.902 167.293 159.702 166.498 159.702 165.517C159.702 164.536 158.902 163.741 157.915 163.741C156.929 163.741 156.129 164.536 156.129 165.517C156.129 166.498 156.929 167.293 157.915 167.293Z" fill="#0D26F5"/>
<path d="M164.7 167.293C165.687 167.293 166.487 166.498 166.487 165.517C166.487 164.536 165.687 163.741 164.7 163.741C163.714 163.741 162.914 164.536 162.914 165.517C162.914 166.498 163.714 167.293 164.7 167.293Z" fill="#0D26F5"/>
</svg>
