<svg width="495" height="275" viewBox="0 0 495 275" fill="none" xmlns="http://www.w3.org/2000/svg">
<path d="M82.33 128.47C82.01 128.95 85.41 146.07 85.41 146.07L97.83 171.64L117.41 202.41H52.7V231.24L135.03 230.33L147.18 226.33L156.92 211.26V192.26L144.85 164.48C144.85 164.48 132.14 147.37 131.5 147.21C130.86 147.05 98.91 143.34 98.91 143.34L82.33 128.47Z" fill="#FFCB05"/>
<path d="M93.99 99.9401H86.78L80.66 116.94L85.14 132.31L98.91 143.42L137.57 147.58L182.28 150.75L198.87 148.58L194.96 164.26L183.43 200.38L181.55 209.78L205.61 219.78L218.03 192.71C218.03 192.71 230.45 155.64 230.33 155.81C230.21 155.98 231.79 133.81 231.79 133.81C231.79 133.81 221.39 122.03 221.22 121.81C221.05 121.59 212.04 118.46 212.04 118.46L213.33 129.07L204.74 140.94L202.46 120.94L164.28 122.94L121.76 121.89L109.39 117.94L111.02 106.23L93.99 99.9401Z" fill="#FFCB05"/>
<path d="M232.35 16.4401V22.4301L217.07 26.2101L211.37 21.6001L203.05 21.0801L198.92 25.4801L199.98 32.4201L183.34 44.7501L170.73 43.0301L151.94 50.3301L140.21 33.5901L127.7 12.5501L157.42 21.0801L167.71 5.72011L175.35 2.4801L185.72 10.4901L196.03 15.3901L210.93 9.80011L221.43 8.88011L232.35 16.4401Z" fill="#0000FF"/>
<path d="M138.51 103.88C149.371 97.9176 159.409 90.5658 168.37 82.0101C172.868 77.7658 177.134 73.2827 181.15 68.5801C184.3 64.8901 190.39 58.3601 185.57 53.5801C183.73 51.7401 180.91 51.4801 178.45 51.7201C175.451 52.066 172.48 52.624 169.56 53.3901C163.735 54.8397 158.075 56.8872 152.67 59.5001C141.956 64.6103 132.468 71.9669 124.85 81.0701C116.431 91.4015 110.381 103.455 107.13 116.38C106.53 118.72 110.13 119.71 110.75 117.38C113.433 106.739 118.068 96.6888 124.42 87.7401C130.872 78.8256 139.136 71.376 148.67 65.8801C153.455 63.067 158.51 60.742 163.76 58.9401C166.393 58.0468 169.06 57.2868 171.76 56.6601C174.293 55.9805 176.884 55.5419 179.5 55.3501C181.5 55.2801 183.88 55.8101 183.5 58.2901C183.12 60.7701 180.91 63.0301 179.31 64.9201C175.62 69.3101 171.7 73.5301 167.59 77.5301C158.373 86.6186 147.94 94.3859 136.59 100.61C134.47 101.75 136.36 104.99 138.48 103.85L138.51 103.88Z" fill="#0000FF"/>
<path d="M107.06 116.86C107.2 120.27 111.62 121.79 114.31 122.56C120.55 124.35 127.23 124.2 133.66 124.38C148.38 124.79 163.12 124.81 177.85 124.22C186.23 123.887 194.603 123.357 202.97 122.63C205.36 122.42 205.38 118.63 202.97 118.88C188.97 120.11 174.97 120.74 160.97 120.88C154.023 120.947 147.067 120.91 140.1 120.77C136.56 120.703 133.02 120.61 129.48 120.49C126.218 120.469 122.959 120.262 119.72 119.87C117.34 119.591 115.013 118.971 112.81 118.03C112.43 117.859 112.062 117.662 111.71 117.44L111.4 117.24C111.09 117.02 111.51 117.37 111.19 117.07L110.92 116.81C110.63 116.53 111.2 117.05 110.86 116.73C110.52 116.41 110.96 116.52 110.86 116.83C110.98 116.44 110.86 117.06 110.86 116.83C110.77 114.42 107.02 114.41 107.11 116.83L107.06 116.86Z" fill="#0000FF"/>
<path d="M137.07 104.07L181.79 110.35L193.09 111.94C196.566 112.271 200.018 112.808 203.43 113.55C205.942 114.13 208.142 115.638 209.59 117.77C210.754 119.799 211.241 122.146 210.98 124.47C210.51 131.32 206.29 137.07 202.35 142.39C202.101 142.821 202.032 143.332 202.158 143.813C202.283 144.294 202.593 144.706 203.02 144.96C203.452 145.197 203.959 145.259 204.436 145.132C204.913 145.006 205.322 144.701 205.58 144.28C209.49 139.02 213.32 133.53 214.43 126.92C215.37 121.34 214.16 115.7 209.43 112.24C206.64 110.24 203.37 109.62 200.04 109.15L188.24 107.49L164.65 104.18L138.12 100.45C137.641 100.348 137.142 100.425 136.716 100.666C136.29 100.908 135.968 101.297 135.81 101.76C135.683 102.24 135.75 102.75 135.994 103.182C136.239 103.614 136.643 103.932 137.12 104.07H137.07Z" fill="#0000FF"/>
<path d="M205.88 142.63C205.95 135.68 205.68 128.76 205.21 121.83C205.05 119.43 201.3 119.41 201.46 121.83C201.93 128.76 202.2 135.68 202.13 142.63C202.13 145.04 205.85 145.04 205.88 142.63Z" fill="#0000FF"/>
<path d="M160.89 106.59C171.63 102.59 182.65 96.9401 189.97 87.8501C196.89 79.2701 200.52 67.7201 196.63 57.0101C194.728 51.4938 190.92 46.8376 185.89 43.8801C183.78 42.6901 181.89 45.9301 183.99 47.1201C192.21 51.7601 195.8 61.9601 194.07 70.9801C192.07 81.2701 184.82 89.4201 176.22 94.9801C171.077 98.2145 165.607 100.896 159.9 102.98C157.66 103.82 158.63 107.44 160.9 106.59H160.89Z" fill="#0000FF"/>
<path d="M90.55 99.3401C100.523 88.1517 111.754 78.1521 124.02 69.5401C136.186 60.9401 149.421 53.9614 163.39 48.7801C167.68 47.2201 172.14 45.6801 176.76 45.6501C180.52 45.6501 184.42 46.4101 187.07 49.2601C188.72 51.0301 191.37 48.3701 189.72 46.6101C184.22 40.7001 174.9 41.2901 167.82 43.3501C160.243 45.6748 152.882 48.6527 145.82 52.2501C131.754 59.2481 118.621 67.9829 106.73 78.2501C100.043 83.9772 93.7457 90.1443 87.88 96.7101C86.28 98.5001 88.88 101.16 90.54 99.3601L90.55 99.3401Z" fill="#0000FF"/>
<path d="M111.87 103.64C104.45 101.39 97.13 98.8501 89.72 96.6401C87.4 95.9401 86.42 99.5601 88.72 100.26C96.14 102.5 103.46 105.05 110.87 107.26C113.19 107.96 114.18 104.34 111.87 103.64Z" fill="#0000FF"/>
<path d="M87.17 97.5701C83.91 100.747 81.4738 104.672 80.0725 109.003C78.6712 113.334 78.3471 117.942 79.1282 122.426C79.9093 126.911 81.7721 131.138 84.5552 134.74C87.3383 138.343 90.9578 141.212 95.1 143.1C99.8117 145.071 104.801 146.295 109.89 146.73C115.38 147.38 120.89 147.81 126.38 148.32C137.49 149.37 148.6 150.48 159.72 151.42C172.53 152.51 185.43 153.16 198.27 151.99C200.65 151.77 200.67 147.99 198.27 148.24C176.9 150.18 155.37 147.3 134.11 145.3L117.89 143.78C112.953 143.467 108.042 142.825 103.19 141.86C98.765 140.979 94.6239 139.025 91.13 136.17C88.0277 133.511 85.6242 130.133 84.13 126.33C82.4629 121.892 82.113 117.067 83.1224 112.436C84.1318 107.804 86.4575 103.562 89.82 100.22C91.54 98.5201 88.89 95.8601 87.17 97.5701Z" fill="#0000FF"/>
<path d="M196.46 149.62C193.15 165.451 188.709 181.025 183.17 196.22C181.6 200.47 179.93 204.68 178.17 208.84C177.937 209.272 177.876 209.777 178.001 210.252C178.125 210.727 178.425 211.137 178.84 211.4C179.27 211.652 179.782 211.722 180.264 211.597C180.745 211.471 181.158 211.159 181.41 210.73C187.853 195.637 193.06 180.046 196.98 164.11C198.11 159.64 199.16 155.11 200.12 150.62C200.62 148.26 197 147.26 196.5 149.62H196.46Z" fill="#0000FF"/>
<path d="M214.58 122.48C217.38 122.92 220.043 123.995 222.364 125.623C224.685 127.25 226.602 129.387 227.97 131.87C231.47 138.13 230.05 145.33 228.5 151.95C224.99 166.843 220.411 181.465 214.8 195.7C211.64 203.753 208.167 211.67 204.38 219.45C203.33 221.61 206.56 223.51 207.62 221.34C214.767 206.666 220.84 191.493 225.79 175.94C228.23 168.22 230.39 160.41 232.22 152.53C233.92 145.19 235.12 137.45 231.46 130.48C229.783 127.325 227.376 124.616 224.439 122.579C221.503 120.542 218.123 119.236 214.58 118.77C214.085 118.773 213.611 118.971 213.261 119.321C212.91 119.671 212.713 120.145 212.71 120.64C212.72 121.134 212.92 121.605 213.268 121.955C213.617 122.305 214.086 122.507 214.58 122.52V122.48Z" fill="#0000FF"/>
<path d="M178.8 211.4C187.44 215.14 196.03 218.99 204.66 222.73C205.093 222.966 205.6 223.028 206.078 222.904C206.555 222.779 206.967 222.478 207.23 222.06C207.477 221.63 207.545 221.12 207.417 220.64C207.29 220.161 206.978 219.751 206.55 219.5C197.92 215.76 189.34 211.9 180.7 208.17C180.267 207.934 179.76 207.872 179.282 207.996C178.805 208.121 178.393 208.423 178.13 208.84C177.884 209.27 177.817 209.778 177.942 210.257C178.068 210.736 178.375 211.146 178.8 211.4Z" fill="#0000FF"/>
<path d="M79.17 112.99C78.33 118.22 78.75 123.69 79.39 128.93C80.1679 135.209 81.6713 141.377 83.87 147.31C88.69 160.41 95.74 172.54 103.58 184.04C108.06 190.62 112.81 197.04 117.58 203.36L119.19 200.54H52.7C52.2047 200.545 51.731 200.744 51.3799 201.093C51.0287 201.442 50.8278 201.915 50.82 202.41V231.24C50.8303 231.735 51.032 232.206 51.3826 232.555C51.7332 232.903 52.2055 233.102 52.7 233.11C60.56 233.43 68.45 233.43 76.32 233.52C87.06 233.65 97.8 233.75 108.55 233.89C112.64 233.94 116.72 234.02 120.81 234.07C128.09 234.15 135.68 233.87 142.48 231.07C149.029 228.339 154.249 223.152 157.02 216.62C160.09 209.54 160.51 201.84 159.22 194.29C157.84 186.29 154.63 178.54 150.9 171.29C147.295 164.343 142.96 157.8 137.97 151.77C136.73 150.27 135.44 148.77 134.12 147.36C132.49 145.58 129.84 148.24 131.47 150.02C141.68 161.14 150.12 174.79 154.26 189.39C156.26 196.57 157.02 204.24 154.9 211.49C154.042 214.727 152.529 217.753 150.455 220.381C148.38 223.009 145.789 225.184 142.84 226.77C136.61 229.96 129.31 230.33 122.45 230.33C118.32 230.33 114.18 230.21 110.05 230.15C99.77 230.023 89.4867 229.907 79.2 229.8C70.86 229.71 62.53 229.66 54.2 229.41L52.71 229.36L54.58 231.24V202.41L52.71 204.29H119.22C120.52 204.29 121.73 202.64 120.84 201.47C112.61 190.54 104.48 179.47 97.65 167.62C91.16 156.35 85.46 144.12 83.47 131.17C82.62 125.66 81.92 119.45 82.8 113.98C82.9159 113.502 82.8449 112.998 82.6014 112.57C82.3579 112.143 81.9604 111.824 81.49 111.68C81.0101 111.551 80.4985 111.616 80.0662 111.861C79.6338 112.106 79.3154 112.512 79.18 112.99H79.17Z" fill="#0000FF"/>
<path d="M184.41 212.21C177.72 225.56 175.02 240.73 174.59 255.57C174.52 257.98 178.27 257.98 178.34 255.57C178.75 241.42 181.26 226.85 187.65 214.11C188.73 211.95 185.49 210.05 184.41 212.21Z" fill="#0000FF"/>
<path d="M200.16 219.02C198.92 224.75 198.8 231.23 201.08 236.72C202.428 240.16 204.946 243.014 208.19 244.78C212.81 247.21 218.28 247.96 223.33 248.95C227.46 249.76 232.91 251.28 234.47 255.73C235.26 257.99 238.88 257.02 238.08 254.73C234.77 245.26 222.58 245.47 214.59 243.19C210.87 242.12 207.53 240.63 205.48 237.19C203.988 234.503 203.175 231.493 203.11 228.42C202.951 225.597 203.173 222.764 203.77 220C204.28 217.65 200.67 216.64 200.16 219V219.02Z" fill="#0000FF"/>
<path d="M182.92 223.55C188.79 223.55 194.66 223.55 200.53 223.55C202.94 223.55 202.95 219.81 200.53 219.8C194.66 219.8 188.79 219.8 182.92 219.8C180.51 219.8 180.51 223.54 182.92 223.55Z" fill="#0000FF"/>
<path d="M52.64 206.06C46.439 204.706 40.1247 203.936 33.78 203.76C27.7289 203.698 21.6836 204.153 15.71 205.12C15.2318 205.256 14.8261 205.574 14.5809 206.006C14.3357 206.439 14.2707 206.95 14.4 207.43C14.5442 207.903 14.8641 208.302 15.2939 208.546C15.7236 208.789 16.2305 208.859 16.71 208.74C28.3139 206.931 40.1502 207.249 51.64 209.68C53.99 210.18 55 206.56 52.64 206.06Z" fill="#0000FF"/>
<path d="M18.05 205.57C15.05 203.96 11.5 205.39 9.76001 208.14C7.76001 211.34 8.39001 215.55 8.76001 219.14C9.50648 227.429 10.8635 235.651 12.82 243.74C13.9333 248.273 15.2267 252.757 16.7 257.19C16.8179 257.581 17.0563 257.926 17.3814 258.173C17.7064 258.421 18.1014 258.56 18.51 258.57L49.95 258.74H54.39C54.887 258.735 55.3622 258.535 55.7136 258.184C56.0651 257.832 56.2648 257.357 56.27 256.86C56.164 254.546 55.5371 252.286 54.4358 250.248C53.3346 248.21 51.7876 246.447 49.91 245.09C47.9607 243.741 45.7219 242.868 43.3737 242.541C41.0256 242.215 38.6335 242.444 36.39 243.21L38.51 245.96C42.6358 239.03 47.7762 232.757 53.76 227.35C55.55 225.73 52.9 223.09 51.11 224.7C44.8941 230.331 39.5551 236.86 35.27 244.07C35.0904 244.393 35.0093 244.761 35.0368 245.13C35.0643 245.498 35.1991 245.85 35.4247 246.143C35.6503 246.436 35.9566 246.656 36.3059 246.776C36.6552 246.896 37.0321 246.912 37.39 246.82C39.0471 246.233 40.8179 246.039 42.5628 246.253C44.3077 246.466 45.9793 247.082 47.4459 248.051C48.9125 249.021 50.1341 250.317 51.0146 251.839C51.8951 253.36 52.4104 255.066 52.52 256.82L54.39 254.95L22.95 254.77H18.51L20.32 256.14C17.4073 247.433 15.2231 238.499 13.79 229.43C13.08 224.93 12.54 220.43 12.25 215.84C12.13 214.02 11.98 211.97 12.87 210.31C13.46 209.22 14.96 208.12 16.21 208.8C18.33 209.95 20.21 206.71 18.1 205.56L18.05 205.57Z" fill="#0000FF"/>
<path d="M14.73 208.37C18.24 224.37 21.48 240.37 24.99 256.37C25.5 258.72 29.12 257.73 28.6 255.37C25.1 239.37 21.85 223.37 18.35 207.37C17.83 205.02 14.21 206.01 14.73 208.37Z" fill="#0000FF"/>
<path d="M80.62 258.6H5.62C5.15587 258.6 4.71075 258.416 4.38256 258.088C4.05437 257.759 3.87 257.314 3.87 256.85C3.87 256.386 4.05437 255.941 4.38256 255.613C4.71075 255.284 5.15587 255.1 5.62 255.1H80.62C81.0841 255.1 81.5293 255.284 81.8574 255.613C82.1856 255.941 82.37 256.386 82.37 256.85C82.37 257.314 82.1856 257.759 81.8574 258.088C81.5293 258.416 81.0841 258.6 80.62 258.6Z" fill="#0000FF"/>
<path d="M246.28 258.6H160.55C160.086 258.6 159.641 258.416 159.313 258.088C158.984 257.759 158.8 257.314 158.8 256.85C158.8 256.386 158.984 255.941 159.313 255.613C159.641 255.284 160.086 255.1 160.55 255.1H246.28C246.744 255.1 247.189 255.284 247.517 255.613C247.846 255.941 248.03 256.386 248.03 256.85C248.03 257.314 247.846 257.759 247.517 258.088C247.189 258.416 246.744 258.6 246.28 258.6Z" fill="#0000FF"/>
<path d="M195.08 62.1101C207.31 73.6093 218.85 85.8205 229.64 98.6801C231.2 100.53 233.84 97.8701 232.29 96.0301C221.5 83.1705 209.96 70.9593 197.73 59.4601C195.98 57.8101 193.32 60.4601 195.08 62.1101Z" fill="#0000FF"/>
<path d="M188.64 87.8701C195.283 94.2698 202.44 100.113 210.04 105.34C213.79 107.92 217.64 110.34 221.6 112.59C225.3 114.68 229.51 117.24 233.93 116.93C238.18 116.63 241.18 113.79 243.61 110.55C246.2 107.018 248.594 103.346 250.78 99.5501C255.264 91.9894 259.11 84.0688 262.28 75.8701C265.85 66.5957 268.529 57.0024 270.28 47.2201C270.7 44.8601 267.09 43.8501 266.66 46.2201C263.689 62.6787 258.081 78.5497 250.05 93.2201C248.05 96.8734 245.903 100.44 243.61 103.92C241.61 106.92 239.61 110.59 236.39 112.36C232.72 114.36 228.51 112.04 225.25 110.26C221.483 108.2 217.817 105.977 214.25 103.59C206.054 98.173 198.366 92.0246 191.28 85.2201C189.54 83.5401 186.89 86.2201 188.63 87.8701H188.64Z" fill="#0000FF"/>
<path d="M232.41 97.9401C239.561 81.7919 247.662 66.0811 256.67 50.8901C259.223 46.5901 261.847 42.3368 264.54 38.1301C265.84 36.1301 262.6 34.2001 261.3 36.2301C251.783 51.1087 243.158 66.5392 235.47 82.4401C233.297 86.9401 231.2 91.4767 229.18 96.0501C228.942 96.4813 228.879 96.9875 229.004 97.464C229.128 97.9404 229.431 98.3508 229.85 98.6101C230.279 98.8584 230.788 98.9272 231.268 98.8018C231.747 98.6763 232.158 98.3666 232.41 97.9401Z" fill="#0000FF"/>
<path d="M264.28 38.4901C265.43 36.8735 267.045 35.6456 268.91 34.9701C270.941 34.4046 273.042 34.1252 275.15 34.1401C281.33 33.9301 287.15 35.3201 293.04 36.9501C293.511 37.056 294.005 36.9765 294.419 36.7282C294.833 36.4799 295.136 36.0818 295.264 35.6164C295.393 35.151 295.337 34.654 295.11 34.2284C294.882 33.8027 294.499 33.4811 294.04 33.3301C287.54 31.5501 281.19 30.1301 274.42 30.4201C269.42 30.6401 264.84 31.7001 261.63 35.8301C261.304 36.1964 261.124 36.6697 261.124 37.1601C261.124 37.6505 261.304 38.1239 261.63 38.4901C261.985 38.8353 262.46 39.0284 262.955 39.0284C263.45 39.0284 263.925 38.8353 264.28 38.4901Z" fill="#0000FF"/>
<path d="M293.21 33.6201L286.1 35.8401C283.759 36.4583 281.458 37.2197 279.21 38.1201C277.21 39.0401 276.08 40.6201 274.9 42.4101C273.98 43.8001 272.46 44.7901 270.77 43.9901C268.61 42.9901 266.7 46.1901 268.88 47.2301C269.861 47.7274 270.945 47.9865 272.045 47.9865C273.145 47.9865 274.229 47.7274 275.21 47.2301C276.214 46.6723 277.071 45.884 277.71 44.9301C278.254 44.0062 278.88 43.1327 279.58 42.3201C280.364 41.6619 281.287 41.1901 282.28 40.9401C283.58 40.5201 284.89 40.1201 286.2 39.7101L294.2 37.2101C296.5 36.5001 295.52 32.8701 293.2 33.6001L293.21 33.6201Z" fill="#0000FF"/>
<path d="M233.48 19.9401C227.618 20.998 221.861 22.5776 216.28 24.6601C215.714 24.8344 215.237 25.2183 214.945 25.7333C214.653 26.2482 214.569 26.8553 214.71 27.4301C214.873 28.0029 215.255 28.4885 215.774 28.7822C216.292 29.0759 216.905 29.1542 217.48 29.0001C223.071 26.9197 228.838 25.3435 234.71 24.2901C235.285 24.1288 235.773 23.7477 236.068 23.2293C236.364 22.7109 236.444 22.0968 236.29 21.5201C236.12 20.9425 235.731 20.454 235.206 20.1589C234.681 19.8638 234.062 19.7853 233.48 19.9401Z" fill="#0000FF"/>
<path d="M218.4 25.5901C216.725 23.0897 214.549 20.9648 212.01 19.3501C210.699 18.5457 209.234 18.0251 207.71 17.8218C206.186 17.6186 204.636 17.7372 203.16 18.1701C201.762 18.6015 200.503 19.3962 199.512 20.4732C198.521 21.5501 197.834 22.8707 197.52 24.3001C196.92 27.5801 198.08 30.5301 199.43 33.4601C199.734 33.9723 200.228 34.3443 200.804 34.4959C201.38 34.6474 201.993 34.5663 202.51 34.2701C203.016 33.9604 203.383 33.467 203.534 32.893C203.685 32.319 203.608 31.7088 203.32 31.1901C202.865 30.2604 202.48 29.2977 202.17 28.3101C201.893 27.4453 201.777 26.5368 201.83 25.6301C201.914 24.8248 202.266 24.0711 202.83 23.4901C203.395 22.9571 204.082 22.5693 204.83 22.3601C204.93 22.3601 205.47 22.2101 205.35 22.2301C205.23 22.2501 205.81 22.2301 205.95 22.2301C206.399 22.2127 206.849 22.2497 207.29 22.3401C208.292 22.5555 209.247 22.9484 210.11 23.5001C211.839 24.6814 213.335 26.1733 214.52 27.9001C214.833 28.4027 215.326 28.7665 215.899 28.9171C216.472 29.0677 217.08 28.9936 217.6 28.7101C218.112 28.4058 218.484 27.9122 218.636 27.336C218.787 26.7598 218.706 26.1471 218.41 25.6301L218.4 25.5901Z" fill="#0000FF"/>
<path d="M186.37 45.7701C191.485 41.6694 196.827 37.86 202.37 34.3601C202.886 34.0591 203.261 33.5655 203.413 32.9879C203.565 32.4103 203.481 31.7959 203.18 31.2801C202.879 30.7643 202.385 30.3891 201.808 30.2372C201.23 30.0853 200.616 30.1691 200.1 30.4701C194.234 34.1864 188.582 38.2294 183.17 42.5801C182.75 43.005 182.515 43.578 182.515 44.1751C182.515 44.7722 182.75 45.3452 183.17 45.7701C183.599 46.1774 184.168 46.4044 184.76 46.4044C185.352 46.4044 185.921 46.1774 186.35 45.7701H186.37Z" fill="#0000FF"/>
<path d="M232.47 22.3001C230.35 28.8201 231.24 36.8001 236.01 41.9601C237.65 43.7301 240.3 41.0801 238.66 39.3001C234.79 35.1201 234.39 28.5101 236.08 23.3001C236.83 21.0001 233.21 20.0101 232.47 22.3001Z" fill="#0000FF"/>
<path d="M236.39 39.0101C236.119 39.1725 235.838 39.3194 235.55 39.4501C235.55 39.4501 235.24 39.5901 235.55 39.4501C235.86 39.3101 235.55 39.4501 235.55 39.4501L235.05 39.6301C234.397 39.8483 233.728 40.0188 233.05 40.1401L232.56 40.2201C232.3 40.2201 232.56 40.2201 232.69 40.2201H232.45C232.11 40.2201 231.77 40.2801 231.45 40.2901C230.807 40.3351 230.163 40.3351 229.52 40.2901C229.023 40.2928 228.548 40.492 228.197 40.8443C227.847 41.1965 227.65 41.6732 227.65 42.1701C227.66 42.6629 227.861 43.1326 228.209 43.4811C228.558 43.8296 229.027 44.0299 229.52 44.0401C231.041 44.1637 232.573 44.0762 234.07 43.7801C235.594 43.5318 237.061 43.0101 238.4 42.2401C238.794 41.9723 239.071 41.5652 239.176 41.1009C239.281 40.6366 239.206 40.1497 238.966 39.7385C238.727 39.3273 238.34 39.0224 237.884 38.8853C237.428 38.7483 236.937 38.7893 236.51 39.0001L236.39 39.0101Z" fill="#0000FF"/>
<path d="M204.65 38.5201C206.32 44.6701 210.59 50.5201 217.17 51.9101C223.17 53.1101 229.88 49.7801 230.95 43.4101C231.069 42.9306 230.999 42.4237 230.755 41.994C230.512 41.5642 230.113 41.2443 229.64 41.1001C229.161 40.9711 228.651 41.0364 228.22 41.2817C227.79 41.5271 227.473 41.9326 227.34 42.4101C226.56 47.0401 221.77 49.2701 217.47 48.1201C212.47 46.8001 209.55 42.2301 208.27 37.5201C208.119 37.0615 207.797 36.6785 207.372 36.4506C206.946 36.2226 206.449 36.1672 205.984 36.2958C205.518 36.4243 205.12 36.727 204.872 37.1411C204.624 37.5552 204.544 38.049 204.65 38.5201Z" fill="#0000FF"/>
<path d="M208.03 43.6001L195.87 57.1401C195.529 57.4989 195.339 57.975 195.339 58.4701C195.339 58.9652 195.529 59.4413 195.87 59.8001C196.226 60.1429 196.701 60.3344 197.195 60.3344C197.689 60.3344 198.164 60.1429 198.52 59.8001L210.68 46.2601C211.003 45.9028 211.176 45.4353 211.164 44.9541C211.152 44.4728 210.956 44.0144 210.616 43.6734C210.277 43.3323 209.819 43.1346 209.338 43.121C208.857 43.1074 208.389 43.2788 208.03 43.6001Z" fill="#0000FF"/>
<path d="M236.33 21.4501C235.77 15.3801 230.97 9.80011 225.54 7.28011C222.107 5.68852 218.279 5.14918 214.54 5.73011C210.97 6.26011 207.79 8.06011 204.66 9.73011C201.53 11.4001 198.18 13.2201 194.66 12.4901C191.49 11.8301 189.01 9.49012 186.73 7.38012C184.19 4.98012 181.64 2.51011 178.38 1.11011C176.761 0.336065 174.981 -0.0430515 173.188 0.003883C171.394 0.0508175 169.636 0.522469 168.06 1.38012C164.79 3.28012 162.4 6.68012 160.31 9.72012C157.941 13.2 155.952 16.9248 154.38 20.8301C154.226 21.4042 154.305 22.0157 154.599 22.5323C154.892 23.0489 155.378 23.4289 155.95 23.5901C156.525 23.7362 157.134 23.6545 157.651 23.3619C158.167 23.0693 158.55 22.5886 158.72 22.0201C160.015 18.9056 161.598 15.9192 163.45 13.1001C165.008 10.473 166.949 8.09343 169.21 6.04012C174.55 1.66012 180.21 7.47012 184.04 11.0401C186.285 13.3346 188.968 15.154 191.93 16.3901C195.058 17.4408 198.456 17.3594 201.53 16.1601C207.64 13.9701 212.75 9.04012 219.67 10.1601C222.599 10.6402 225.313 12.0005 227.45 14.0601C229.5 15.9901 231.52 18.5701 231.79 21.4701C231.805 22.0621 232.047 22.6256 232.466 23.0443C232.885 23.463 233.448 23.7049 234.04 23.7201C234.635 23.7149 235.204 23.4762 235.625 23.0553C236.046 22.6345 236.285 22.0652 236.29 21.4701L236.33 21.4501Z" fill="#0000FF"/>
<path d="M158.02 18.1001L142.22 12.9401L134.44 10.4201C132.33 9.73009 130.06 8.77009 127.8 9.32009C127.249 9.4654 126.734 9.71959 126.283 10.0677C125.832 10.4157 125.456 10.8506 125.177 11.3465C124.897 11.8425 124.719 12.3895 124.655 12.9552C124.59 13.5209 124.639 14.0938 124.8 14.6401C125.43 17.0301 127.38 19.1901 128.73 21.2201L137.83 34.9001L148.28 50.6901C149.87 53.0901 153.77 50.8401 152.16 48.4201L135.75 23.7501L131.61 17.5301C130.97 16.5301 130.32 15.6301 129.71 14.6701C129.547 14.3243 129.359 13.9901 129.15 13.6701C128.8 13.3101 129.26 13.6701 128.98 13.6701C130.593 13.9291 132.175 14.3547 133.7 14.9401L140.77 17.2401L156.77 22.4401C159.53 23.3401 160.71 19.0001 157.97 18.1001H158.02Z" fill="#0000FF"/>
<path d="M304.28 39.9401C311.669 43.6493 318.65 48.1203 325.11 53.2801C330.97 58.0101 336.51 63.5701 339.59 70.5501C342.44 77.0201 343.07 85.1501 339.25 91.3701C336.16 96.3701 329.8 100.17 323.78 98.8401C317.76 97.5101 313.91 91.8401 312.78 86.0301C311.47 79.0301 314.78 71.8301 318.99 66.4201C323.562 60.6653 329.313 55.957 335.858 52.6123C342.403 49.2675 349.588 47.3641 356.93 47.0301C363.824 46.8056 370.68 48.1404 376.986 50.9351C383.292 53.7297 388.886 57.912 393.35 63.1701C394.436 64.479 395.438 65.855 396.35 67.2901C397.89 69.7301 401.79 67.4701 400.23 65.0201C391.86 51.8501 377.04 43.5501 361.53 42.5901C345.23 41.5901 328.62 48.8501 317.75 60.9401C312.26 67.0501 307.86 74.9401 308.03 83.3501C308.18 90.4901 311.83 97.9401 318.21 101.5C324.94 105.25 332.97 103.5 338.7 98.7501C345.16 93.4001 347.2 84.8101 346 76.7501C344.75 68.2901 339.83 60.9301 333.85 55.0301C327.441 48.9108 320.284 43.6256 312.55 39.3001C310.55 38.1501 308.55 37.0701 306.55 36.0301C303.97 34.7201 301.69 38.6001 304.28 39.9201V39.9401Z" fill="#0000FF"/>
<path d="M413.4 66.4301C417.601 58.9489 423.407 52.4909 430.4 47.5201C437.39 42.7138 445.531 39.8496 453.99 39.2201C458.78 38.7893 463.606 38.9708 468.35 39.7601C468.925 39.9037 469.533 39.8208 470.049 39.5286C470.564 39.2364 470.948 38.7572 471.12 38.1901C471.274 37.6148 471.196 37.0019 470.902 36.4837C470.608 35.9655 470.123 35.5835 469.55 35.4201C460.302 33.7945 450.804 34.3353 441.8 37.0001C432.964 39.827 425.019 44.9112 418.75 51.7501C415.178 55.4917 412.081 59.6599 409.53 64.1601C408.11 66.6901 411.99 68.9601 413.41 66.4301H413.4Z" fill="#0000FF"/>
<path d="M406.33 85.6701C404.065 85.6701 401.852 84.9986 399.969 83.7404C398.086 82.4823 396.618 80.694 395.752 78.6018C394.885 76.5096 394.658 74.2074 395.1 71.9863C395.542 69.7652 396.632 67.725 398.234 66.1237C399.835 64.5224 401.875 63.4319 404.096 62.9901C406.317 62.5483 408.62 62.775 410.712 63.6417C412.804 64.5083 414.592 65.9759 415.85 67.8588C417.108 69.7417 417.78 71.9555 417.78 74.2201C417.775 77.2552 416.567 80.1645 414.421 82.3106C412.274 84.4568 409.365 85.6648 406.33 85.6701ZM406.33 66.2701C404.744 66.2602 403.19 66.7222 401.867 67.5975C400.544 68.4727 399.51 69.7216 398.899 71.1854C398.287 72.6493 398.124 74.262 398.431 75.8184C398.739 77.3749 399.501 78.805 400.623 79.9268C401.745 81.0486 403.175 81.8116 404.732 82.1186C406.288 82.4257 407.901 82.2631 409.365 81.6514C410.828 81.0397 412.077 80.0066 412.953 78.6834C413.828 77.3601 414.29 75.8066 414.28 74.2201C414.267 72.1157 413.425 70.1012 411.937 68.6131C410.449 67.125 408.434 66.2832 406.33 66.2701Z" fill="#0000FF"/>
<path d="M492.46 37.3501L466.67 22.4601C466.67 22.4601 470.44 29.9401 470.44 37.7101C470.297 42.7761 469.008 47.7438 466.67 52.2401L492.46 37.3501Z" fill="#2DDFD5"/>
<path d="M466.67 53.9901C466.365 53.9901 466.066 53.9106 465.801 53.7593C465.537 53.608 465.316 53.3903 465.161 53.1276C465.007 52.865 464.924 52.5665 464.92 52.2617C464.916 51.957 464.992 51.6565 465.14 51.3901C467.331 47.1526 468.544 42.4781 468.69 37.7101C468.69 30.4701 465.15 23.3201 465.11 23.2501C464.941 22.9135 464.885 22.5314 464.951 22.1606C465.016 21.7898 465.2 21.45 465.474 21.1917C465.748 20.9334 466.098 20.7703 466.472 20.7268C466.846 20.6833 467.224 20.7616 467.55 20.9501L493.34 35.8401C493.599 35.9956 493.813 36.2155 493.962 36.4784C494.11 36.7412 494.189 37.0381 494.189 37.3401C494.189 37.6421 494.11 37.9389 493.962 38.2018C493.813 38.4646 493.599 38.6845 493.34 38.8401L467.55 53.7301C467.285 53.8935 466.981 53.9832 466.67 53.9901ZM470.19 26.5101C471.437 30.1162 472.112 33.8953 472.19 37.7101C472.142 41.2542 471.518 44.767 470.34 48.1101L488.96 37.3501L470.19 26.5101Z" fill="#0000FF"/>
<path d="M386.92 156.32H345.15V222.14H386.92V156.32Z" fill="#2DDFD5"/>
<path d="M386.92 223.94H345.15C344.686 223.94 344.241 223.756 343.913 223.428C343.584 223.099 343.4 222.654 343.4 222.19V156.32C343.4 155.856 343.584 155.411 343.913 155.083C344.241 154.755 344.686 154.57 345.15 154.57H386.92C387.384 154.57 387.829 154.755 388.157 155.083C388.486 155.411 388.67 155.856 388.67 156.32V222.14C388.675 222.374 388.634 222.606 388.549 222.824C388.463 223.041 388.335 223.239 388.172 223.407C388.009 223.575 387.815 223.708 387.6 223.8C387.385 223.891 387.154 223.939 386.92 223.94ZM346.92 220.44H385.19V158.07H346.9L346.92 220.44Z" fill="#0000FF"/>
<path d="M379.55 149.47H337.78V215.29H379.55V149.47Z" fill="#0000FF"/>
<path d="M379.55 217.04H337.78C337.316 217.04 336.871 216.856 336.543 216.528C336.214 216.199 336.03 215.754 336.03 215.29V149.47C336.03 149.006 336.214 148.561 336.543 148.233C336.871 147.904 337.316 147.72 337.78 147.72H379.55C380.014 147.72 380.459 147.904 380.787 148.233C381.116 148.561 381.3 149.006 381.3 149.47V215.29C381.3 215.754 381.116 216.199 380.787 216.528C380.459 216.856 380.014 217.04 379.55 217.04ZM339.55 213.54H377.82V151.22H339.53L339.55 213.54Z" fill="#0000FF"/>
<path d="M372.18 142.63H330.41V208.45H372.18V142.63Z" fill="white"/>
<path d="M372.18 210.2H330.41C329.946 210.2 329.501 210.016 329.173 209.688C328.844 209.359 328.66 208.914 328.66 208.45V142.63C328.66 142.166 328.844 141.721 329.173 141.393C329.501 141.065 329.946 140.88 330.41 140.88H372.18C372.644 140.88 373.089 141.065 373.417 141.393C373.746 141.721 373.93 142.166 373.93 142.63V208.45C373.93 208.914 373.746 209.359 373.417 209.688C373.089 210.016 372.644 210.2 372.18 210.2ZM332.18 206.7H370.45V144.38H332.16L332.18 206.7Z" fill="#0000FF"/>
<path d="M45.89 47.2501H1.75C1.28587 47.2501 0.840754 47.0658 0.512566 46.7376C0.184377 46.4094 0 45.9643 0 45.5001C0 45.036 0.184377 44.5909 0.512566 44.2627C0.840754 43.9345 1.28587 43.7501 1.75 43.7501H45.89C46.3541 43.7501 46.7993 43.9345 47.1274 44.2627C47.4556 44.5909 47.64 45.036 47.64 45.5001C47.64 45.9643 47.4556 46.4094 47.1274 46.7376C46.7993 47.0658 46.3541 47.2501 45.89 47.2501Z" fill="#0000FF"/>
<path d="M73.48 37.7401H31.61C31.1459 37.7401 30.7007 37.5557 30.3726 37.2275C30.0444 36.8994 29.86 36.4542 29.86 35.9901C29.86 35.526 30.0444 35.0809 30.3726 34.7527C30.7007 34.4245 31.1459 34.2401 31.61 34.2401H73.48C73.9441 34.2401 74.3892 34.4245 74.7174 34.7527C75.0456 35.0809 75.23 35.526 75.23 35.9901C75.23 36.4542 75.0456 36.8994 74.7174 37.2275C74.3892 37.5557 73.9441 37.7401 73.48 37.7401Z" fill="#0000FF"/>
<path d="M23.13 37.7201C24.0854 37.7201 24.86 36.9456 24.86 35.9901C24.86 35.0347 24.0854 34.2601 23.13 34.2601C22.1745 34.2601 21.4 35.0347 21.4 35.9901C21.4 36.9456 22.1745 37.7201 23.13 37.7201Z" fill="#0000FF"/>
<path d="M174.23 264.54C176.345 264.54 178.06 262.825 178.06 260.71C178.06 258.595 176.345 256.88 174.23 256.88C172.115 256.88 170.4 258.595 170.4 260.71C170.4 262.825 172.115 264.54 174.23 264.54Z" fill="#0000FF"/>
<path d="M188.78 264.54C190.895 264.54 192.61 262.825 192.61 260.71C192.61 258.595 190.895 256.88 188.78 256.88C186.665 256.88 184.95 258.595 184.95 260.71C184.95 262.825 186.665 264.54 188.78 264.54Z" fill="#0000FF"/>
<path d="M203.34 264.54C205.455 264.54 207.17 262.825 207.17 260.71C207.17 258.595 205.455 256.88 203.34 256.88C201.225 256.88 199.51 258.595 199.51 260.71C199.51 262.825 201.225 264.54 203.34 264.54Z" fill="#0000FF"/>
<path d="M217.89 264.54C220.005 264.54 221.72 262.825 221.72 260.71C221.72 258.595 220.005 256.88 217.89 256.88C215.775 256.88 214.06 258.595 214.06 260.71C214.06 262.825 215.775 264.54 217.89 264.54Z" fill="#0000FF"/>
<path d="M232.44 264.54C234.555 264.54 236.27 262.825 236.27 260.71C236.27 258.595 234.555 256.88 232.44 256.88C230.325 256.88 228.61 258.595 228.61 260.71C228.61 262.825 230.325 264.54 232.44 264.54Z" fill="#0000FF"/>
<path d="M181.24 274.63C183.355 274.63 185.07 272.915 185.07 270.8C185.07 268.685 183.355 266.97 181.24 266.97C179.125 266.97 177.41 268.685 177.41 270.8C177.41 272.915 179.125 274.63 181.24 274.63Z" fill="#0000FF"/>
<path d="M195.8 274.63C197.915 274.63 199.63 272.915 199.63 270.8C199.63 268.685 197.915 266.97 195.8 266.97C193.685 266.97 191.97 268.685 191.97 270.8C191.97 272.915 193.685 274.63 195.8 274.63Z" fill="#0000FF"/>
<path d="M210.35 274.63C212.465 274.63 214.18 272.915 214.18 270.8C214.18 268.685 212.465 266.97 210.35 266.97C208.235 266.97 206.52 268.685 206.52 270.8C206.52 272.915 208.235 274.63 210.35 274.63Z" fill="#0000FF"/>
<path d="M224.9 274.63C227.015 274.63 228.73 272.915 228.73 270.8C228.73 268.685 227.015 266.97 224.9 266.97C222.785 266.97 221.07 268.685 221.07 270.8C221.07 272.915 222.785 274.63 224.9 274.63Z" fill="#0000FF"/>
<path d="M94.11 151.01C96.2253 151.01 97.94 149.295 97.94 147.18C97.94 145.065 96.2253 143.35 94.11 143.35C91.9948 143.35 90.28 145.065 90.28 147.18C90.28 149.295 91.9948 151.01 94.11 151.01Z" fill="#0000FF"/>
<path d="M108.67 151.01C110.785 151.01 112.5 149.295 112.5 147.18C112.5 145.065 110.785 143.35 108.67 143.35C106.555 143.35 104.84 145.065 104.84 147.18C104.84 149.295 106.555 151.01 108.67 151.01Z" fill="#0000FF"/>
<path d="M123.22 151.02C125.142 151.02 126.7 149.462 126.7 147.54C126.7 145.618 125.142 144.06 123.22 144.06C121.298 144.06 119.74 145.618 119.74 147.54C119.74 149.462 121.298 151.02 123.22 151.02Z" fill="#0000FF"/>
<path d="M101.13 161.09C103.245 161.09 104.96 159.375 104.96 157.26C104.96 155.145 103.245 153.43 101.13 153.43C99.0148 153.43 97.3 155.145 97.3 157.26C97.3 159.375 99.0148 161.09 101.13 161.09Z" fill="#0000FF"/>
<path d="M115.68 161.09C117.795 161.09 119.51 159.375 119.51 157.26C119.51 155.145 117.795 153.43 115.68 153.43C113.565 153.43 111.85 155.145 111.85 157.26C111.85 159.375 113.565 161.09 115.68 161.09Z" fill="#0000FF"/>
<path d="M130.23 161.09C132.345 161.09 134.06 159.375 134.06 157.26C134.06 155.145 132.345 153.43 130.23 153.43C128.115 153.43 126.4 155.145 126.4 157.26C126.4 159.375 128.115 161.09 130.23 161.09Z" fill="#0000FF"/>
<path d="M22.77 264.54C24.8852 264.54 26.6 262.825 26.6 260.71C26.6 258.595 24.8852 256.88 22.77 256.88C20.6547 256.88 18.94 258.595 18.94 260.71C18.94 262.825 20.6547 264.54 22.77 264.54Z" fill="#0000FF"/>
<path d="M37.33 264.54C39.4453 264.54 41.16 262.825 41.16 260.71C41.16 258.595 39.4453 256.88 37.33 256.88C35.2148 256.88 33.5 258.595 33.5 260.71C33.5 262.825 35.2148 264.54 37.33 264.54Z" fill="#0000FF"/>
<path d="M51.88 264.54C53.9953 264.54 55.71 262.825 55.71 260.71C55.71 258.595 53.9953 256.88 51.88 256.88C49.7648 256.88 48.05 258.595 48.05 260.71C48.05 262.825 49.7648 264.54 51.88 264.54Z" fill="#0000FF"/>
<path d="M15.24 274.63C17.3553 274.63 19.07 272.915 19.07 270.8C19.07 268.685 17.3553 266.97 15.24 266.97C13.1248 266.97 11.41 268.685 11.41 270.8C11.41 272.915 13.1248 274.63 15.24 274.63Z" fill="#0000FF"/>
<path d="M29.79 274.63C31.9053 274.63 33.62 272.915 33.62 270.8C33.62 268.685 31.9053 266.97 29.79 266.97C27.6748 266.97 25.96 268.685 25.96 270.8C25.96 272.915 27.6748 274.63 29.79 274.63Z" fill="#0000FF"/>
<path d="M44.34 274.63C46.4552 274.63 48.17 272.915 48.17 270.8C48.17 268.685 46.4552 266.97 44.34 266.97C42.2247 266.97 40.51 268.685 40.51 270.8C40.51 272.915 42.2247 274.63 44.34 274.63Z" fill="#0000FF"/>
</svg>
