<svg width="570" height="296" viewBox="0 0 570 296" fill="none" xmlns="http://www.w3.org/2000/svg">
<path d="M209.941 10.55L195.311 9.19L179.931 16.3L175.301 32.97L182.531 50.16L186.331 45.2L183.791 38.1L184.581 31.54L189.561 28.75L198.401 30.6L203.511 33.44L222.081 26.4L223.541 23.25L214.911 12.91L209.941 10.55Z" fill="#0000FF"/>
<path d="M466.791 228.2H245.151C244.687 228.2 244.242 228.016 243.914 227.687C243.585 227.359 243.401 226.914 243.401 226.45C243.401 225.986 243.585 225.541 243.914 225.213C244.242 224.884 244.687 224.7 245.151 224.7H465.041V213.12H249.981C249.517 213.12 249.072 212.936 248.743 212.607C248.415 212.279 248.231 211.834 248.231 211.37C248.231 210.906 248.415 210.461 248.743 210.133C249.072 209.804 249.517 209.62 249.981 209.62H466.791C467.254 209.623 467.698 209.808 468.025 210.135C468.353 210.463 468.538 210.907 468.541 211.37V226.45C468.541 226.914 468.357 227.359 468.028 227.687C467.7 228.016 467.255 228.2 466.791 228.2Z" fill="#0000FF"/>
<path d="M186.191 228.2H42.371C41.9068 228.2 41.4617 228.016 41.1335 227.687C40.8053 227.359 40.621 226.914 40.621 226.45V211.37C40.621 210.906 40.8053 210.461 41.1335 210.133C41.4617 209.804 41.9068 209.62 42.371 209.62H190.371C190.835 209.62 191.28 209.804 191.608 210.133C191.937 210.461 192.121 210.906 192.121 211.37C192.121 211.834 191.937 212.279 191.608 212.607C191.28 212.936 190.835 213.12 190.371 213.12H44.111V224.7H186.191C186.655 224.7 187.1 224.884 187.428 225.213C187.757 225.541 187.941 225.986 187.941 226.45C187.941 226.914 187.757 227.359 187.428 227.687C187.1 228.016 186.655 228.2 186.191 228.2Z" fill="#0000FF"/>
<path d="M158.931 213.12C158.668 213.122 158.408 213.064 158.171 212.95C157.964 212.852 157.778 212.713 157.624 212.542C157.47 212.372 157.352 212.172 157.276 211.956C157.2 211.739 157.167 211.51 157.18 211.28C157.193 211.051 157.251 210.827 157.351 210.62L168.761 186.82C168.978 186.431 169.335 186.14 169.76 186.005C170.184 185.87 170.644 185.903 171.045 186.095C171.447 186.288 171.76 186.626 171.921 187.041C172.082 187.456 172.078 187.917 171.911 188.33L160.511 212.14C160.365 212.435 160.14 212.682 159.861 212.856C159.582 213.029 159.26 213.12 158.931 213.12Z" fill="#0000FF"/>
<path d="M466.791 213.12C466.528 213.123 466.268 213.065 466.031 212.95C465.613 212.747 465.293 212.387 465.139 211.949C464.985 211.511 465.011 211.029 465.211 210.61L556.001 21.88H252.001L198.001 134.11C197.907 134.326 197.77 134.52 197.599 134.682C197.428 134.843 197.226 134.968 197.005 135.05C196.784 135.132 196.549 135.168 196.314 135.157C196.079 135.146 195.849 135.087 195.637 134.985C195.425 134.883 195.236 134.739 195.081 134.562C194.926 134.385 194.808 134.178 194.735 133.955C194.661 133.731 194.634 133.495 194.654 133.26C194.674 133.026 194.741 132.798 194.851 132.59L249.371 19.38C249.514 19.0817 249.738 18.8297 250.017 18.6528C250.297 18.476 250.62 18.3814 250.951 18.38H558.791C559.087 18.3811 559.377 18.457 559.635 18.6008C559.894 18.7445 560.112 18.9513 560.268 19.202C560.425 19.4526 560.516 19.7389 560.532 20.0341C560.548 20.3292 560.489 20.6237 560.361 20.89L468.371 212.13C468.23 212.429 468.006 212.681 467.726 212.856C467.446 213.032 467.121 213.123 466.791 213.12Z" fill="#0000FF"/>
<path d="M183.471 63.99L192.051 77.51L196.491 86.65L209.421 102.15L218.641 102.92L253.941 87.13L262.091 102.15L235.091 121.67L220.511 115.75L217.621 117.08L217.731 129.71L163.621 142.66L90.811 165.38L107.981 121.81L141.271 78.95L173.401 56.27L180.031 59.99L183.471 63.99Z" fill="#FFCB05"/>
<path d="M429.481 275.29C442.968 275.29 453.901 264.357 453.901 250.87C453.901 237.383 442.968 226.45 429.481 226.45C415.994 226.45 405.061 237.383 405.061 250.87C405.061 264.357 415.994 275.29 429.481 275.29Z" fill="#FF5657"/>
<path d="M429.481 277.04C424.305 277.038 419.247 275.501 414.944 272.625C410.642 269.748 407.289 265.66 405.31 260.878C403.331 256.096 402.814 250.834 403.825 245.758C404.836 240.683 407.329 236.02 410.989 232.361C414.65 228.703 419.313 226.211 424.389 225.202C429.465 224.193 434.727 224.712 439.508 226.693C444.289 228.674 448.376 232.028 451.251 236.332C454.126 240.635 455.661 245.694 455.661 250.87C455.653 257.81 452.892 264.463 447.984 269.37C443.075 274.276 436.421 277.035 429.481 277.04ZM429.481 228.2C424.998 228.202 420.616 229.533 416.889 232.025C413.162 234.518 410.258 238.059 408.544 242.201C406.829 246.344 406.382 250.902 407.258 255.299C408.134 259.696 410.293 263.734 413.464 266.904C416.635 270.073 420.675 272.231 425.072 273.105C429.469 273.979 434.027 273.529 438.169 271.813C442.31 270.097 445.85 267.192 448.341 263.464C450.832 259.736 452.161 255.353 452.161 250.87C452.153 244.858 449.761 239.095 445.509 234.845C441.257 230.595 435.493 228.205 429.481 228.2Z" fill="#0000FF"/>
<path d="M90.481 168.87C107.114 162.81 123.858 157.083 140.711 151.69C157.564 146.297 174.594 141.243 191.801 136.53C199.621 134.38 207.901 131.39 216.121 131.95C223.351 132.45 229.011 136.87 232.331 143.15C236.061 150.2 236.211 158.41 235.331 166.15C234.295 174.597 232.807 182.983 230.871 191.27C227.268 207.808 222.384 224.04 216.261 239.82C215.501 241.82 214.721 243.74 213.921 245.69C213.789 246.17 213.853 246.683 214.098 247.116C214.344 247.549 214.751 247.867 215.231 248C215.709 248.121 216.216 248.052 216.645 247.808C217.073 247.564 217.391 247.163 217.531 246.69C224.15 230.58 229.473 213.967 233.451 197.01C235.451 188.54 237.151 180.01 238.451 171.38C239.711 162.99 240.451 154.1 237.601 145.93C235.351 139.4 230.941 133.19 224.511 130.26C216.711 126.7 208.031 128.32 200.061 130.4C182.521 134.98 165.061 140.11 147.801 145.51C130.541 150.91 113.061 156.82 95.881 162.94L89.481 165.26C87.231 166.08 88.201 169.7 90.481 168.87Z" fill="#0000FF"/>
<path d="M175.201 54.42C158.371 61.7 143.831 73.65 131.601 87.16C118.893 101.385 108.31 117.374 100.181 134.63C95.871 143.63 91.721 152.89 89.011 162.48C86.451 171.48 85.351 181.48 88.631 190.54C91.261 197.8 96.401 204.54 103.631 207.69C113.101 211.81 122.851 208.08 131.861 204.56L193.041 180.72L200.481 177.82C200.951 177.676 201.349 177.357 201.592 176.93C201.836 176.502 201.907 175.998 201.791 175.52C201.658 175.04 201.34 174.633 200.907 174.387C200.474 174.142 199.961 174.078 199.481 174.21L140.401 197.21C135.571 199.09 130.761 201.04 125.901 202.84C121.201 204.57 116.271 206.09 111.211 205.76C103.641 205.27 97.551 199.91 94.041 193.48C89.851 185.81 89.661 176.88 91.391 168.48C93.391 158.93 97.311 149.79 101.331 140.95C109.041 124.06 118.631 107.95 130.691 93.84C142.031 80.54 155.361 68.59 170.961 60.54C172.961 59.54 175.021 58.54 177.101 57.64C177.526 57.384 177.834 56.9718 177.96 56.4915C178.085 56.0112 178.017 55.501 177.771 55.07C177.51 54.6506 177.098 54.3473 176.62 54.2226C176.141 54.098 175.634 54.1615 175.201 54.4V54.42Z" fill="#0000FF"/>
<path d="M198.171 175.52C193.041 193.8 188.251 212.19 183.271 230.52C181.838 235.76 180.391 240.997 178.931 246.23C178.858 246.509 178.85 246.8 178.906 247.083C178.963 247.365 179.083 247.631 179.257 247.86C179.431 248.09 179.655 248.276 179.913 248.406C180.17 248.536 180.453 248.606 180.741 248.61H237.061C237.535 248.575 237.977 248.363 238.301 248.015C238.624 247.667 238.804 247.21 238.804 246.735C238.804 246.26 238.624 245.803 238.301 245.455C237.977 245.107 237.535 244.895 237.061 244.86H180.741L182.551 247.23C187.681 228.94 192.471 210.56 197.451 192.23C198.878 186.983 200.324 181.743 201.791 176.51C202.441 174.18 198.791 173.19 198.171 175.51V175.52Z" fill="#0000FF"/>
<path d="M175.481 57.56L191.481 76.16C191.832 76.5114 192.309 76.7088 192.806 76.7088C193.303 76.7088 193.78 76.5114 194.131 76.16C194.482 75.8086 194.68 75.332 194.68 74.835C194.68 74.338 194.482 73.8614 194.131 73.51L178.131 54.91C177.777 54.5625 177.302 54.3678 176.806 54.3678C176.31 54.3678 175.834 54.5625 175.481 54.91C175.138 55.2659 174.947 55.7408 174.947 56.235C174.947 56.7292 175.138 57.2041 175.481 57.56Z" fill="#0000FF"/>
<path d="M196.901 58.82C189.969 76.5188 184.072 94.6061 179.241 112.99C178.621 115.33 182.241 116.32 182.851 113.99C187.685 95.6059 193.585 77.5186 200.521 59.82C200.647 59.3401 200.581 58.8298 200.336 58.3981C200.092 57.9665 199.688 57.6477 199.211 57.51C198.731 57.3887 198.223 57.4572 197.793 57.7012C197.362 57.9453 197.043 58.3461 196.901 58.82Z" fill="#0000FF"/>
<path d="M168.371 71.52C148.371 87.52 133.561 109.68 125.091 133.71C122.727 140.404 120.898 147.276 119.621 154.26C119.181 156.61 122.801 157.63 123.231 155.26C127.837 130.445 139.141 107.363 155.921 88.51C160.546 83.321 165.597 78.5276 171.021 74.18C171.366 73.8253 171.559 73.3499 171.559 72.855C171.559 72.3601 171.366 71.8847 171.021 71.53C170.665 71.1872 170.19 70.9957 169.696 70.9957C169.202 70.9957 168.727 71.1872 168.371 71.53V71.52Z" fill="#0000FF"/>
<path d="M159.431 118.89C178.193 115.057 197.4 113.872 216.491 115.37C218.891 115.55 218.881 111.8 216.491 111.62C197.062 110.119 177.518 111.351 158.431 115.28C156.071 115.76 157.071 119.38 159.431 118.89Z" fill="#0000FF"/>
<path d="M219.501 128.17L218.651 113.82C218.638 113.326 218.436 112.857 218.086 112.508C217.735 112.16 217.265 111.96 216.771 111.95C216.277 111.955 215.804 112.154 215.454 112.503C215.105 112.853 214.906 113.326 214.901 113.82L215.751 128.18C215.761 128.675 215.963 129.148 216.313 129.498C216.663 129.848 217.136 130.05 217.631 130.06C218.126 130.052 218.599 129.851 218.948 129.5C219.297 129.149 219.496 128.675 219.501 128.18V128.17Z" fill="#0000FF"/>
<path d="M218.641 118.67C222.352 118.226 226.112 118.886 229.449 120.568C232.787 122.25 235.554 124.879 237.405 128.126C239.256 131.373 240.108 135.094 239.855 138.823C239.601 142.552 238.254 146.123 235.981 149.09C235.733 149.519 235.664 150.028 235.789 150.508C235.915 150.987 236.225 151.398 236.651 151.65C237.083 151.891 237.592 151.956 238.071 151.831C238.549 151.706 238.962 151.401 239.221 150.98C241.252 148.155 242.625 144.912 243.239 141.487C243.854 138.063 243.694 134.545 242.771 131.19C241.241 126.112 238.004 121.718 233.607 118.753C229.209 115.788 223.922 114.434 218.641 114.92C218.147 114.93 217.676 115.13 217.326 115.478C216.976 115.827 216.774 116.296 216.761 116.79C216.766 117.287 216.966 117.762 217.317 118.114C217.669 118.465 218.144 118.665 218.641 118.67Z" fill="#0000FF"/>
<path d="M190.581 82.19L200.341 94.49C201.911 96.49 203.451 98.49 205.041 100.39C206.385 102.177 208.088 103.662 210.041 104.75C214.951 107.15 220.091 104.4 224.631 102.43C229.511 100.317 234.341 98.1033 239.121 95.79C244.621 93.1233 250.051 90.33 255.411 87.41C257.531 86.25 255.641 83.01 253.521 84.17C244.601 89.03 235.504 93.53 226.231 97.67C223.931 98.67 221.631 99.67 219.301 100.67C217.211 101.52 214.811 102.44 212.551 101.74C210.631 101.16 209.191 99.54 207.951 98.05C206.441 96.26 205.021 94.4 203.571 92.57L193.231 79.57C192.879 79.2201 192.402 79.0237 191.906 79.0237C191.41 79.0237 190.933 79.2201 190.581 79.57C190.238 79.9259 190.047 80.4009 190.047 80.895C190.047 81.3892 190.238 81.8641 190.581 82.22V82.19Z" fill="#0000FF"/>
<path d="M252.851 86.74C255.851 92.45 258.511 98.39 261.561 104.11C262.701 106.24 265.941 104.35 264.801 102.22C261.751 96.5 259.141 90.56 256.081 84.84C254.951 82.71 251.711 84.61 252.851 86.74Z" fill="#0000FF"/>
<path d="M262.241 101.54L236.791 119.3C234.791 120.67 236.701 123.93 238.691 122.54L264.131 104.82C266.131 103.45 264.221 100.2 262.241 101.58V101.54Z" fill="#0000FF"/>
<path d="M238.871 247.01C246.38 228.576 252.432 209.581 256.971 190.2C259.377 180.585 261.203 170.834 262.441 161C263.511 151.46 262.941 141.28 257.441 133.08C254.903 129.145 251.246 126.06 246.941 124.22C244.301 123.16 241.271 122.02 238.401 121.95C235.991 121.89 235.991 125.64 238.401 125.7C240.811 125.76 243.401 126.83 245.621 127.7C248.801 129.06 251.55 131.263 253.571 134.07C259.131 141.55 259.721 151.07 258.811 160.07C257.68 169.53 255.95 178.909 253.631 188.15C251.421 197.61 248.841 206.98 245.951 216.25C242.801 226.32 239.281 236.25 235.281 246.04C235.152 246.519 235.217 247.029 235.463 247.46C235.708 247.89 236.113 248.207 236.591 248.34C237.069 248.461 237.576 248.392 238.005 248.148C238.433 247.904 238.751 247.503 238.891 247.03L238.871 247.01Z" fill="#0000FF"/>
<path d="M184.371 246.23C182.699 250.828 181.414 255.558 180.531 260.37C179.723 265.243 179.498 270.194 179.861 275.12C180.031 277.52 183.781 277.53 183.611 275.12C183.235 270.397 183.436 265.645 184.211 260.97C185.099 256.296 186.363 251.701 187.991 247.23C188.781 244.94 185.161 243.96 184.371 246.23Z" fill="#0000FF"/>
<path d="M202.261 247.52C202.53 251.184 203.987 254.659 206.411 257.42C208.999 260.786 212.267 263.569 216.001 265.59C217.931 266.582 219.981 267.318 222.101 267.78C224.411 268.27 226.781 268.41 229.101 268.83C232.611 269.45 237.441 271.35 237.101 275.71C236.901 278.12 240.651 278.1 240.851 275.71C241.201 271.51 237.951 267.99 234.311 266.42C230.021 264.57 225.201 264.97 220.791 263.54C216.777 262.158 213.22 259.698 210.511 256.43C209.328 255.173 208.276 253.799 207.371 252.33C206.579 250.844 206.122 249.202 206.031 247.52C205.841 245.13 202.091 245.11 202.281 247.52H202.261Z" fill="#0000FF"/>
<path d="M227.591 247.52C227.86 251.184 229.317 254.659 231.741 257.42C234.328 260.783 237.592 263.566 241.321 265.59C243.255 266.58 245.308 267.316 247.431 267.78C249.741 268.27 252.111 268.41 254.431 268.83C257.941 269.45 262.771 271.35 262.431 275.71C262.231 278.12 265.981 278.1 266.181 275.71C266.531 271.51 263.281 267.99 259.641 266.42C255.351 264.57 250.531 264.97 246.121 263.54C242.107 262.158 238.55 259.698 235.841 256.43C234.658 255.171 233.603 253.797 232.691 252.33C231.91 250.84 231.46 249.2 231.371 247.52C231.181 245.13 227.431 245.11 227.621 247.52H227.591Z" fill="#0000FF"/>
<path d="M164.281 279.4L222.841 279.46H282.071C282.545 279.425 282.988 279.213 283.311 278.865C283.634 278.517 283.814 278.06 283.814 277.585C283.814 277.11 283.634 276.653 283.311 276.305C282.988 275.957 282.545 275.745 282.071 275.71H243.231H195.231H164.291C163.817 275.745 163.374 275.957 163.051 276.305C162.728 276.653 162.548 277.11 162.548 277.585C162.548 278.06 162.728 278.517 163.051 278.865C163.374 279.213 163.817 279.425 164.291 279.46L164.281 279.4Z" fill="#0000FF"/>
<path d="M204.461 36.65C210.624 33.186 217.087 30.2843 223.771 27.98C226.041 27.2 225.061 23.57 222.771 24.36C215.78 26.764 209.019 29.793 202.571 33.41C200.461 34.59 202.351 37.83 204.461 36.65Z" fill="#0000FF"/>
<path d="M204.371 33.65C199.661 28.99 192.731 24.65 186.051 28.08C184.652 28.7829 183.458 29.8336 182.582 31.1312C181.707 32.4289 181.179 33.9298 181.051 35.49C180.791 39.21 182.791 42.49 184.761 45.49C186.091 47.49 189.341 45.61 188.001 43.59C186.541 41.38 184.821 38.96 184.781 36.2C184.791 35.12 185.122 34.0673 185.733 33.1767C186.344 32.286 187.207 31.5978 188.211 31.2C193.211 28.97 198.391 33.01 201.731 36.31C203.451 38.01 206.101 35.36 204.381 33.66L204.371 33.65Z" fill="#0000FF"/>
<path d="M221.371 26.54C219.911 34.54 222.371 44.22 228.961 49.42C229.319 49.7583 229.793 49.9467 230.286 49.9467C230.779 49.9467 231.253 49.7583 231.611 49.42C231.958 49.0665 232.153 48.5907 232.153 48.095C232.153 47.5993 231.958 47.1235 231.611 46.77C226.111 42.42 223.751 34.31 224.981 27.53C225.099 27.0518 225.029 26.5463 224.786 26.1182C224.542 25.6901 224.143 25.3721 223.671 25.23C223.192 25.101 222.682 25.1663 222.251 25.4117C221.821 25.657 221.504 26.0625 221.371 26.54Z" fill="#0000FF"/>
<path d="M229.371 47.08C228.013 47.6288 226.611 48.0636 225.181 48.38C224.481 48.54 223.771 48.68 223.061 48.79H222.761C223.011 48.79 223.021 48.79 222.811 48.79L222.361 48.84C221.968 48.88 221.578 48.91 221.191 48.93C220.933 48.9112 220.674 48.9457 220.431 49.0314C220.187 49.1171 219.963 49.2521 219.774 49.4281C219.585 49.604 219.434 49.8171 219.33 50.054C219.227 50.2909 219.174 50.5466 219.174 50.805C219.174 51.0634 219.227 51.3191 219.33 51.556C219.434 51.7929 219.585 52.006 219.774 52.182C219.963 52.3579 220.187 52.4929 220.431 52.5786C220.674 52.6643 220.933 52.6988 221.191 52.68C224.34 52.5223 227.442 51.8466 230.371 50.68C230.836 50.5391 231.235 50.2333 231.491 49.82C231.618 49.605 231.7 49.3667 231.732 49.1193C231.765 48.8719 231.747 48.6205 231.681 48.38C231.548 47.9003 231.23 47.493 230.797 47.2474C230.364 47.0018 229.851 46.938 229.371 47.07V47.08Z" fill="#0000FF"/>
<path d="M191.691 51.11C194.821 58.11 201.071 64.05 209.101 64.25C210.906 64.3216 212.707 64.0192 214.39 63.3618C216.073 62.7045 217.602 61.7063 218.881 60.43C221.439 57.8796 222.93 54.4505 223.051 50.84C223.051 48.43 219.331 48.42 219.301 50.84C219.19 53.5192 218.043 56.0506 216.101 57.9C215.072 58.8774 213.838 59.6134 212.488 60.0545C211.139 60.4956 209.709 60.6307 208.301 60.45C201.911 59.91 197.381 54.72 194.931 49.21C194.675 48.7848 194.263 48.4766 193.782 48.3514C193.302 48.2262 192.792 48.2939 192.361 48.54C191.94 48.7995 191.635 49.2116 191.51 49.6905C191.385 50.1693 191.45 50.6778 191.691 51.11Z" fill="#0000FF"/>
<path d="M185.011 43.88C181.661 47.21 178.911 51.09 175.571 54.42C175.397 54.594 175.259 54.8006 175.165 55.0279C175.071 55.2553 175.022 55.4989 175.022 55.745C175.022 55.9911 175.071 56.2348 175.165 56.4621C175.259 56.6894 175.397 56.896 175.571 57.07C175.745 57.244 175.952 57.382 176.179 57.4762C176.406 57.5704 176.65 57.6188 176.896 57.6188C177.142 57.6188 177.386 57.5704 177.613 57.4762C177.84 57.382 178.047 57.244 178.221 57.07C181.571 53.74 184.311 49.86 187.661 46.53C188.012 46.1786 188.21 45.702 188.21 45.205C188.21 44.708 188.012 44.2314 187.661 43.88C187.31 43.5286 186.833 43.3312 186.336 43.3312C185.839 43.3312 185.362 43.5286 185.011 43.88Z" fill="#0000FF"/>
<path d="M225.041 26.82C224.804 23.8555 223.893 20.9842 222.378 18.4247C220.864 15.8652 218.785 13.685 216.301 12.05C210.971 8.38 204.171 7.21 197.801 7.5C191.431 7.79 185.151 9.61001 180.551 14.06C176.208 18.4034 173.745 24.2783 173.691 30.42C173.591 37.6 176.611 44.42 181.201 49.85C182.451 51.33 184.561 49.2 183.321 47.73C176.321 39.48 173.901 26.83 181.111 17.88C184.691 13.43 190.111 11.25 195.721 10.66C201.331 10.07 207.261 10.66 212.321 13.18C217.381 15.7 221.711 20.83 222.041 26.82C222.151 28.74 225.151 28.75 225.041 26.82Z" fill="#0000FF"/>
<path d="M474.471 217.13C474.211 217.132 473.955 217.074 473.721 216.96C473.513 216.862 473.326 216.725 473.171 216.554C473.017 216.384 472.897 216.185 472.82 215.968C472.743 215.751 472.709 215.522 472.722 215.292C472.734 215.062 472.791 214.837 472.891 214.63L566.031 19.38C566.13 19.1725 566.269 18.9866 566.44 18.8328C566.611 18.6791 566.811 18.5605 567.028 18.4839C567.244 18.4073 567.474 18.3741 567.704 18.3863C567.934 18.3985 568.159 18.4559 568.366 18.555C568.574 18.6541 568.759 18.7932 568.913 18.9642C569.067 19.1352 569.186 19.3348 569.262 19.5516C569.339 19.7685 569.372 19.9982 569.36 20.2279C569.347 20.4575 569.29 20.6825 569.191 20.89L476.051 216.14C475.909 216.438 475.685 216.689 475.405 216.865C475.125 217.04 474.801 217.132 474.471 217.13Z" fill="#0000FF"/>
<path d="M129.451 13.01H78.951C78.4869 13.01 78.0417 12.8256 77.7135 12.4975C77.3854 12.1693 77.201 11.7241 77.201 11.26C77.201 10.7959 77.3854 10.3508 77.7135 10.0226C78.0417 9.69438 78.4869 9.51001 78.951 9.51001H129.451C129.915 9.51001 130.36 9.69438 130.688 10.0226C131.017 10.3508 131.201 10.7959 131.201 11.26C131.201 11.7241 131.017 12.1693 130.688 12.4975C130.36 12.8256 129.915 13.01 129.451 13.01Z" fill="#0000FF"/>
<path d="M155.371 3.5H113.521C113.057 3.5 112.612 3.31563 112.284 2.98744C111.955 2.65925 111.771 2.21413 111.771 1.75C111.771 1.28587 111.955 0.840762 112.284 0.512573C112.612 0.184385 113.057 0 113.521 0H155.371C155.835 0 156.28 0.184385 156.608 0.512573C156.937 0.840762 157.121 1.28587 157.121 1.75C157.121 2.21413 156.937 2.65925 156.608 2.98744C156.28 3.31563 155.835 3.5 155.371 3.5Z" fill="#0000FF"/>
<path d="M137.811 13.04C138.794 13.04 139.591 12.2431 139.591 11.26C139.591 10.2769 138.794 9.48001 137.811 9.48001C136.828 9.48001 136.031 10.2769 136.031 11.26C136.031 12.2431 136.828 13.04 137.811 13.04Z" fill="#0000FF"/>
<path d="M26.291 129.31C25.731 129.31 25.171 129.31 24.611 129.31C15.9525 128.844 7.79809 125.092 1.81097 118.82L11.151 109.82C14.8498 113.72 19.8949 116.066 25.261 116.38C27.6987 116.554 30.1458 116.213 32.4429 115.379C34.74 114.545 36.8356 113.236 38.5932 111.538C40.3508 109.84 41.7309 107.79 42.6437 105.523C43.5565 103.256 43.9815 100.822 43.891 98.38C43.7496 93.0073 41.5728 87.8888 37.801 84.06L47.141 75.06C53.21 81.2515 56.6928 89.5221 56.881 98.19C57.0063 102.273 56.3059 106.34 54.8218 110.146C53.3377 113.953 51.1004 117.42 48.2439 120.341C45.3875 123.262 41.9708 125.576 38.1986 127.145C34.4263 128.713 30.3762 129.504 26.291 129.47V129.31Z" fill="#FF5657"/>
<path d="M26.291 131.06C25.701 131.06 25.111 131.06 24.511 131.06C15.4037 130.577 6.82226 126.644 0.511002 120.06C0.183686 119.73 0 119.285 0 118.82C0 118.355 0.183686 117.91 0.511002 117.58L9.851 108.58C10.1807 108.253 10.6264 108.069 11.091 108.069C11.5556 108.069 12.0013 108.253 12.331 108.58C15.7277 112.148 20.353 114.293 25.271 114.58C27.471 114.744 29.6808 114.441 31.7553 113.69C33.8298 112.94 35.722 111.759 37.3077 110.225C38.8934 108.691 40.1367 106.839 40.9559 104.791C41.7751 102.743 42.1517 100.544 42.061 98.34C41.9304 93.4079 39.9283 88.7101 36.461 85.2C36.3006 85.0345 36.1747 84.8388 36.0906 84.6242C36.0065 84.4096 35.9658 84.1804 35.971 83.95C35.9829 83.4871 36.1727 83.0466 36.501 82.72L45.851 73.72C46.016 73.5603 46.211 73.4348 46.4248 73.3508C46.6385 73.2668 46.8668 73.2259 47.0964 73.2306C47.326 73.2352 47.5525 73.2853 47.7626 73.3779C47.9728 73.4705 48.1626 73.6037 48.321 73.77C54.6979 80.2779 58.356 88.9707 58.551 98.08C58.6817 102.396 57.9399 106.694 56.3701 110.717C54.8003 114.74 52.4348 118.404 49.4152 121.491C46.3956 124.578 42.7841 127.023 38.7969 128.681C34.8098 130.339 30.529 131.176 26.211 131.14L26.291 131.06ZM4.311 118.82C9.85721 124.051 17.0779 127.148 24.691 127.56C28.6707 127.814 32.6595 127.234 36.402 125.857C40.1446 124.48 43.5584 122.337 46.4248 119.565C49.2913 116.793 51.5472 113.452 53.0481 109.758C54.549 106.063 55.2619 102.096 55.141 98.11C54.9748 90.4865 52.1161 83.1678 47.071 77.45L40.231 84.07C43.6121 88.0413 45.5225 93.0557 45.641 98.27C45.7385 100.953 45.2708 103.627 44.2681 106.117C43.2655 108.608 41.7503 110.86 39.821 112.727C37.8916 114.594 35.5912 116.035 33.0691 116.955C30.547 117.876 27.8594 118.255 25.181 118.07C19.9799 117.774 15.0379 115.702 11.181 112.2L4.311 118.82Z" fill="#0000FF"/>
<path d="M179.891 285.19C182.006 285.19 183.721 283.475 183.721 281.36C183.721 279.245 182.006 277.53 179.891 277.53C177.776 277.53 176.061 279.245 176.061 281.36C176.061 283.475 177.776 285.19 179.891 285.19Z" fill="#0000FF"/>
<path d="M194.441 285.19C196.556 285.19 198.271 283.475 198.271 281.36C198.271 279.245 196.556 277.53 194.441 277.53C192.326 277.53 190.611 279.245 190.611 281.36C190.611 283.475 192.326 285.19 194.441 285.19Z" fill="#0000FF"/>
<path d="M208.991 285.19C211.106 285.19 212.821 283.475 212.821 281.36C212.821 279.245 211.106 277.53 208.991 277.53C206.876 277.53 205.161 279.245 205.161 281.36C205.161 283.475 206.876 285.19 208.991 285.19Z" fill="#0000FF"/>
<path d="M223.551 285.19C225.666 285.19 227.381 283.475 227.381 281.36C227.381 279.245 225.666 277.53 223.551 277.53C221.436 277.53 219.721 279.245 219.721 281.36C219.721 283.475 221.436 285.19 223.551 285.19Z" fill="#0000FF"/>
<path d="M238.101 285.19C240.216 285.19 241.931 283.475 241.931 281.36C241.931 279.245 240.216 277.53 238.101 277.53C235.986 277.53 234.271 279.245 234.271 281.36C234.271 283.475 235.986 285.19 238.101 285.19Z" fill="#0000FF"/>
<path d="M252.261 285.19C254.376 285.19 256.091 283.475 256.091 281.36C256.091 279.245 254.376 277.53 252.261 277.53C250.146 277.53 248.431 279.245 248.431 281.36C248.431 283.475 250.146 285.19 252.261 285.19Z" fill="#0000FF"/>
<path d="M266.811 285.19C268.926 285.19 270.641 283.475 270.641 281.36C270.641 279.245 268.926 277.53 266.811 277.53C264.696 277.53 262.981 279.245 262.981 281.36C262.981 283.475 264.696 285.19 266.811 285.19Z" fill="#0000FF"/>
<path d="M186.901 295.28C189.016 295.28 190.731 293.565 190.731 291.45C190.731 289.335 189.016 287.62 186.901 287.62C184.786 287.62 183.071 289.335 183.071 291.45C183.071 293.565 184.786 295.28 186.901 295.28Z" fill="#0000FF"/>
<path d="M201.461 295.28C203.576 295.28 205.291 293.565 205.291 291.45C205.291 289.335 203.576 287.62 201.461 287.62C199.346 287.62 197.631 289.335 197.631 291.45C197.631 293.565 199.346 295.28 201.461 295.28Z" fill="#0000FF"/>
<path d="M216.011 295.28C218.126 295.28 219.841 293.565 219.841 291.45C219.841 289.335 218.126 287.62 216.011 287.62C213.896 287.62 212.181 289.335 212.181 291.45C212.181 293.565 213.896 295.28 216.011 295.28Z" fill="#0000FF"/>
<path d="M230.561 295.28C232.676 295.28 234.391 293.565 234.391 291.45C234.391 289.335 232.676 287.62 230.561 287.62C228.446 287.62 226.731 289.335 226.731 291.45C226.731 293.565 228.446 295.28 230.561 295.28Z" fill="#0000FF"/>
<path d="M245.771 295.28C247.886 295.28 249.601 293.565 249.601 291.45C249.601 289.335 247.886 287.62 245.771 287.62C243.656 287.62 241.941 289.335 241.941 291.45C241.941 293.565 243.656 295.28 245.771 295.28Z" fill="#0000FF"/>
<path d="M260.321 295.28C262.436 295.28 264.151 293.565 264.151 291.45C264.151 289.335 262.436 287.62 260.321 287.62C258.206 287.62 256.491 289.335 256.491 291.45C256.491 293.565 258.206 295.28 260.321 295.28Z" fill="#0000FF"/>
<path d="M243.911 171.28C246.026 171.28 247.741 169.565 247.741 167.45C247.741 165.335 246.026 163.62 243.911 163.62C241.796 163.62 240.081 165.335 240.081 167.45C240.081 169.565 241.796 171.28 243.911 171.28Z" fill="#0000FF"/>
<path d="M241.141 185.34C243.256 185.34 244.971 183.625 244.971 181.51C244.971 179.395 243.256 177.68 241.141 177.68C239.026 177.68 237.311 179.395 237.311 181.51C237.311 183.625 239.026 185.34 241.141 185.34Z" fill="#0000FF"/>
<path d="M238.371 199.4C240.486 199.4 242.201 197.685 242.201 195.57C242.201 193.455 240.486 191.74 238.371 191.74C236.256 191.74 234.541 193.455 234.541 195.57C234.541 197.685 236.256 199.4 238.371 199.4Z" fill="#0000FF"/>
<path d="M234.611 213.45C236.726 213.45 238.441 211.735 238.441 209.62C238.441 207.505 236.726 205.79 234.611 205.79C232.496 205.79 230.781 207.505 230.781 209.62C230.781 211.735 232.496 213.45 234.611 213.45Z" fill="#0000FF"/>
<path d="M230.951 227.13C233.066 227.13 234.781 225.415 234.781 223.3C234.781 221.185 233.066 219.47 230.951 219.47C228.836 219.47 227.121 221.185 227.121 223.3C227.121 225.415 228.836 227.13 230.951 227.13Z" fill="#0000FF"/>
<path d="M226.181 241.18C228.296 241.18 230.011 239.465 230.011 237.35C230.011 235.235 228.296 233.52 226.181 233.52C224.066 233.52 222.351 235.235 222.351 237.35C222.351 239.465 224.066 241.18 226.181 241.18Z" fill="#0000FF"/>
<path d="M243.911 157.98C246.026 157.98 247.741 156.265 247.741 154.15C247.741 152.035 246.026 150.32 243.911 150.32C241.796 150.32 240.081 152.035 240.081 154.15C240.081 156.265 241.796 157.98 243.911 157.98Z" fill="#0000FF"/>
<path d="M445.651 78.68H302.691V185.05H445.651V78.68Z" fill="white"/>
<path d="M445.651 186.82H302.651C302.187 186.82 301.742 186.636 301.414 186.307C301.085 185.979 300.901 185.534 300.901 185.07V78.68C300.901 78.2158 301.085 77.7707 301.414 77.4426C301.742 77.1144 302.187 76.93 302.651 76.93H445.651C446.115 76.93 446.56 77.1144 446.888 77.4426C447.217 77.7707 447.401 78.2158 447.401 78.68V185.06C447.402 185.291 447.358 185.519 447.271 185.733C447.183 185.946 447.055 186.14 446.892 186.304C446.729 186.467 446.536 186.597 446.323 186.686C446.11 186.774 445.882 186.82 445.651 186.82ZM304.441 183.32H443.901V80.43H304.441V183.32Z" fill="#0000FF"/>
<path d="M445.651 90.4H302.651C302.187 90.4 301.742 90.2156 301.414 89.8875C301.085 89.5593 300.901 89.1141 300.901 88.65C300.901 88.1859 301.085 87.7408 301.414 87.4126C301.742 87.0844 302.187 86.9 302.651 86.9H445.651C446.115 86.9 446.56 87.0844 446.888 87.4126C447.217 87.7408 447.401 88.1859 447.401 88.65C447.401 89.1141 447.217 89.5593 446.888 89.8875C446.56 90.2156 446.115 90.4 445.651 90.4Z" fill="#0000FF"/>
<path d="M420.381 40.11H350.281V150.03H420.381V40.11Z" fill="white"/>
<path d="M420.371 151.82H350.271C349.807 151.82 349.362 151.636 349.034 151.307C348.705 150.979 348.521 150.534 348.521 150.07V40.11C348.521 39.6459 348.705 39.2007 349.034 38.8726C349.362 38.5444 349.807 38.36 350.271 38.36H420.371C420.835 38.36 421.28 38.5444 421.608 38.8726C421.937 39.2007 422.121 39.6459 422.121 40.11V150.03C422.126 150.263 422.085 150.495 422 150.712C421.914 150.929 421.786 151.127 421.623 151.293C421.46 151.46 421.265 151.593 421.05 151.683C420.835 151.773 420.604 151.82 420.371 151.82ZM352.021 148.32H418.621V41.82H352.021V148.32Z" fill="#0000FF"/>
<path d="M420.291 52H350.191C349.727 52 349.282 51.8156 348.954 51.4874C348.625 51.1593 348.441 50.7141 348.441 50.25C348.441 49.7859 348.625 49.3408 348.954 49.0126C349.282 48.6844 349.727 48.5 350.191 48.5H420.291C420.755 48.5 421.2 48.6844 421.528 49.0126C421.857 49.3408 422.041 49.7859 422.041 50.25C422.041 50.7141 421.857 51.1593 421.528 51.4874C421.2 51.8156 420.755 52 420.291 52Z" fill="#0000FF"/>
<path d="M355.771 46.83C356.704 46.83 357.461 46.0734 357.461 45.14C357.461 44.2067 356.704 43.45 355.771 43.45C354.838 43.45 354.081 44.2067 354.081 45.14C354.081 46.0734 354.838 46.83 355.771 46.83Z" fill="#0000FF"/>
<path d="M360.051 46.83C360.984 46.83 361.741 46.0734 361.741 45.14C361.741 44.2067 360.984 43.45 360.051 43.45C359.118 43.45 358.361 44.2067 358.361 45.14C358.361 46.0734 359.118 46.83 360.051 46.83Z" fill="#0000FF"/>
<path d="M364.341 46.83C365.274 46.83 366.031 46.0734 366.031 45.14C366.031 44.2067 365.274 43.45 364.341 43.45C363.408 43.45 362.651 44.2067 362.651 45.14C362.651 46.0734 363.408 46.83 364.341 46.83Z" fill="#0000FF"/>
<path d="M308.221 85.38C309.154 85.38 309.911 84.6234 309.911 83.69C309.911 82.7566 309.154 82 308.221 82C307.288 82 306.531 82.7566 306.531 83.69C306.531 84.6234 307.288 85.38 308.221 85.38Z" fill="#0000FF"/>
<path d="M312.511 85.38C313.444 85.38 314.201 84.6234 314.201 83.69C314.201 82.7566 313.444 82 312.511 82C311.578 82 310.821 82.7566 310.821 83.69C310.821 84.6234 311.578 85.38 312.511 85.38Z" fill="#0000FF"/>
<path d="M316.791 85.38C317.724 85.38 318.481 84.6234 318.481 83.69C318.481 82.7566 317.724 82 316.791 82C315.858 82 315.101 82.7566 315.101 83.69C315.101 84.6234 315.858 85.38 316.791 85.38Z" fill="#0000FF"/>
<path d="M258.131 90.17C263.014 84.0179 270.025 79.9184 277.781 78.68C279.613 78.392 281.468 78.2781 283.321 78.34C284.326 78.3519 285.328 78.4355 286.321 78.59C286.816 78.6292 287.294 78.7907 287.711 79.06C287.849 79.162 287.951 79.3058 288.001 79.47C288.071 79.33 288.061 79.34 288.001 79.47C287.711 79.93 286.431 80.02 285.941 80.13L282.161 80.95L274.591 82.59C272.231 83.1 273.231 86.71 275.591 86.2L282.681 84.66C284.803 84.3422 286.894 83.8438 288.931 83.17C289.867 82.8823 290.665 82.2612 291.174 81.4244C291.682 80.5877 291.866 79.5934 291.691 78.63C291.406 77.6632 290.845 76.8011 290.075 76.1505C289.305 75.5 288.362 75.0895 287.361 74.97C279.911 73.55 271.691 75.5 265.191 79.22C261.475 81.3422 258.199 84.1562 255.541 87.51C255.203 87.8683 255.014 88.3423 255.014 88.835C255.014 89.3277 255.203 89.8018 255.541 90.16C255.894 90.5075 256.37 90.7022 256.866 90.7022C257.362 90.7022 257.837 90.5075 258.191 90.16L258.131 90.17Z" fill="#0000FF"/>
<path d="M264.471 102.54L264.781 102.48H264.881H265.391C265.898 102.427 266.408 102.387 266.921 102.36C268.011 102.29 269.101 102.23 270.181 102.15C272.428 102.06 274.634 101.523 276.671 100.57C278.972 99.4214 280.736 97.4215 281.587 94.9946C282.438 92.5676 282.311 89.9044 281.231 87.57C280.689 86.3925 279.899 85.346 278.915 84.502C277.932 83.6581 276.777 83.0365 275.531 82.68C273.211 82 272.221 85.62 274.531 86.29C275.477 86.5771 276.328 87.1157 276.992 87.8484C277.656 88.581 278.108 89.4802 278.301 90.45C278.548 91.5283 278.491 92.6537 278.138 93.7019C277.785 94.7501 277.15 95.6805 276.301 96.39C275.377 97.1206 274.311 97.6518 273.171 97.95C272.684 98.0859 272.19 98.196 271.691 98.28C271.471 98.28 271.461 98.28 271.641 98.28L271.251 98.33L270.401 98.4C268.091 98.59 265.751 98.59 263.461 99C262.983 99.1354 262.577 99.4538 262.332 99.8862C262.087 100.319 262.022 100.83 262.151 101.31C262.293 101.784 262.613 102.185 263.043 102.429C263.473 102.673 263.981 102.741 264.461 102.62L264.471 102.54Z" fill="#0000FF"/>
</svg>
