<svg xmlns="http://www.w3.org/2000/svg" width="160" height="160" fill="none" viewBox="0 0 160 160">
    <g clip-path="url(#clip0)">
        <path fill="#FFCB05" d="M88.422 113.32l5.636 13.315 4.133 5.845 15.045 3.387 18.098-1.085 12.884-4.018-7.747-15.666-3.924-19.063 1.893-13.733 4.276-9.707 1.786-7.533-4.733-2.56-6.307 3.645-2.8 5.71 1.085-24.213-.525-10.266-4.555-3.431-4.907.91-4.133-5.15-6.449 2.453-6.449-1.125-3.782 4.836-.631 3.822-3.085.347-3.68 4.311-2.942 18.818-1.933 21.435 3.746 28.716z"/>
        <path fill="#00F" d="M96.965 40.164c-2.716-1.36-5.69.17-7.076 2.667-.7 1.37-1.182 2.841-1.431 4.36-.364 1.778-.689 3.556-.996 5.356-1.237 7.21-2.1 14.478-2.586 21.778-.517 6.994-.568 14.016-.156 21.017.4 6.947 1.608 13.823 3.6 20.489.895 2.974 2.029 5.871 3.391 8.662 1.279 2.509 2.78 4.898 4.485 7.138.475.636.964 1.267 1.453 1.893.157.156.368.243.589.243.22 0 .432-.087.589-.243.152-.158.237-.369.237-.588 0-.22-.085-.431-.237-.589-1.766-2.205-3.358-4.542-4.764-6.991-1.33-2.417-2.443-4.945-3.33-7.556-2.13-6.242-3.501-12.719-4.084-19.289-.592-6.682-.705-13.399-.338-20.098.321-6.937.99-13.854 2.005-20.724.555-3.751 1.11-7.556 2.004-11.245.37-1.52.89-3.173 2.134-4.226.485-.447 1.09-.744 1.74-.855.651-.11 1.32-.03 1.926.233.956.48 1.805-.956.845-1.436v.005z"/>
        <path fill="#2DDFD5" d="M85.498 113.538l-5.64 13.311-4.134 5.849-20.569-3.329-25.524.698 7.813-14.752 3.925-19.062-1.89-13.737-4.275-9.703-1.787-7.533 4.73-2.56 6.306 3.644 2.804 5.712-1.088-24.214.529-10.267 4.555-3.435 4.902.911 4.138-5.151 6.449 2.453 6.444-1.12 3.787 4.836.631 3.818 3.08.35 3.68 4.312 2.942 18.818 1.934 21.435-3.742 28.716z"/>
        <path fill="#00F" d="M30.258 131.004c6.382-10.337 11.44-22.315 11.715-34.626.133-6.111-.96-12.186-3.218-17.867-.56-1.404-1.185-2.78-1.875-4.124-.667-1.29-1.418-2.534-2.005-3.867-.942-2.142-1.52-5.231 1.045-6.493 2.169-1.067 4.822-.103 6.373 1.56 1.898 2.022 3.045 4.75 4.04 7.297.064.21.206.386.396.494.19.109.414.14.627.089.212-.06.392-.202.501-.394.11-.192.138-.42.08-.633-1.741-4.467-4.297-10.382-9.901-10.498-2.48-.049-4.84 1.334-5.49 3.822-.746 2.885.912 5.823 2.254 8.267 3.038 5.497 4.877 11.576 5.396 17.836.502 6.36-.476 12.702-2.32 18.782-2.16 6.868-5.198 13.427-9.04 19.515-.57.916.888 1.751 1.435.84h-.013z"/>
        <path fill="#00F" d="M48.036 70.667c-.26-6.445-.513-12.888-.755-19.33-.12-3.075-.356-6.164-.334-9.24 0-2.261.378-4.915 2.453-6.221 1.85-1.183 4.503-1.17 6.187.315.805.707 1.987-.467 1.182-1.178-.905-.772-1.995-1.296-3.163-1.523-1.168-.227-2.375-.147-3.503.23-2.516.831-4.076 2.96-4.56 5.516-.237 1.424-.315 2.87-.231 4.31.057 1.65.133 3.303.195 4.952.142 3.505.279 7.013.41 10.524.15 3.89.298 7.778.444 11.663.044 1.066 1.71 1.07 1.666 0l.01-.018z"/>
        <path fill="#00F" d="M57.014 35.569c.104-1.047.52-2.04 1.194-2.848.675-.808 1.576-1.395 2.588-1.685 1.007-.212 2.055-.097 2.992.327.938.425 1.715 1.137 2.221 2.033.525.933 1.965.093 1.44-.845-.699-1.209-1.766-2.162-3.045-2.722-1.28-.56-2.704-.696-4.066-.389-2.738.667-4.818 3.378-5.005 6.142-.075 1.071 1.596 1.067 1.667 0l.014-.013z"/>
        <path fill="#00F" d="M67.133 33.409c1.89-1.57 4.614-2.307 6.618-.52 2.005 1.786 2.445 4.529 2.89 6.986.19 1.054 1.777.605 1.603-.444-.546-2.991-1.262-6.222-3.844-8.155-2.667-2-6.058-1.023-8.444.955-.827.684.355 1.858 1.177 1.178z"/>
        <path fill="#00F" d="M77.853 41.329c.573-.245 1.203-.327 1.82-.236.616.091 1.195.351 1.673.751 1.093.84 1.68 2.196 2.062 3.48.413 1.527.744 3.074.992 4.636.315 1.707.613 3.422.888 5.133 1.094 6.86 1.842 13.76 2.245 20.703.769 13.262.444 26.853-3.587 39.626-.934 3.103-2.157 6.112-3.653 8.987-1.492 2.713-3.218 5.291-5.16 7.702-.15.16-.233.37-.233.589 0 .219.084.429.233.589.158.154.37.24.59.24.222 0 .434-.086.592-.24 1.845-2.29 3.513-4.716 4.991-7.258 1.395-2.537 2.567-5.189 3.502-7.929 2.24-6.579 3.66-13.41 4.227-20.338.574-6.948.648-13.93.222-20.888-.386-7.266-1.147-14.507-2.28-21.694-.296-1.822-.606-3.64-.929-5.453-.258-1.635-.602-3.255-1.03-4.853-.823-2.76-2.796-5.57-5.992-5.507-.702.018-1.39.196-2.013.52-.96.48-.116 1.915.84 1.435v.005z"/>
        <path fill="#00F" d="M78.106 39.502c-1.928.48-3.164 2.307-3.488 4.187-.164 1.17-.182 2.355-.054 3.529.098 1.244.205 2.493.307 3.738l1.236 15.257.702 8.623c.084 1.062 1.755 1.07 1.666 0l-1.168-14.374-.583-7.186c-.19-2.352-.444-4.707-.56-7.063-.093-1.884.17-4.555 2.387-5.106 1.04-.258.6-1.862-.445-1.605zM66.196 32.209c-1.387 1.955-1.707 4.395-1.658 6.742.058 2.64.418 5.285.662 7.916l1.622 17.422.925 9.91c.102 1.059 1.778 1.072 1.666 0l-1.6-17.177c-.52-5.533-1.15-11.07-1.537-16.618-.178-2.515-.16-5.195 1.36-7.333.622-.889-.823-1.711-1.44-.84v-.022zM55.328 35.565c.258 9.848.365 19.702.556 29.555.053 2.785.116 5.573.187 8.364.026 1.072 1.693 1.076 1.666 0-.257-9.853-.364-19.706-.555-29.555-.054-2.791-.116-5.58-.187-8.364-.027-1.072-1.693-1.076-1.667 0zM46.369 70.667c-.01 6.197-.826 12.366-2.431 18.35-.28 1.04 1.333 1.48 1.604.445 1.645-6.13 2.483-12.448 2.494-18.795-.016-.21-.11-.408-.265-.551-.154-.144-.358-.224-.569-.224-.21 0-.414.08-.569.224-.154.143-.249.34-.264.55zM29.529 131.4l21.778-2.067c3.435-.324 6.87-.711 10.31-.946 3.112-.209 6.334-.24 9.356.671 1.254.378 2.823.889 3.716 1.915 1.004 1.138-.298 2.125-1.289 2.627-2.738 1.391-5.916 1.836-8.956 1.778-5.777-.093-11.306-2.062-16.915-3.28-3.111-.676-6.222-1.262-9.356-1.702-2.86-.443-5.75-.658-8.644-.645-1.071 0-1.071 1.689 0 1.667 5.587-.111 11.231.969 16.667 2.12 2.59.542 5.16 1.164 7.715 1.849 3.25.933 6.596 1.493 9.974 1.671 3.298.174 6.593-.393 9.644-1.658 1.289-.56 2.751-1.387 3.156-2.849.444-1.564-.667-2.875-1.916-3.653-2.725-1.702-6.125-2.222-9.28-2.276-3.436-.066-6.871.369-10.289.694l-22.787 2.16-2.862.271c-1.058.102-1.066 1.778 0 1.666l-.022-.013zM72.982 152.662h-41.47c-.207 0-.405-.082-.55-.228-.147-.145-.229-.343-.229-.55 0-.206.082-.404.228-.55.146-.145.344-.227.55-.227h41.471c.207 0 .404.082.55.227.146.146.228.344.228.55 0 .207-.082.405-.228.55-.146.146-.343.228-.55.228zM135.329 152.662h-27.938c-.206 0-.404-.082-.55-.228-.146-.145-.228-.343-.228-.55 0-.206.082-.404.228-.55.146-.145.344-.227.55-.227h27.938c.206 0 .404.082.55.227.146.146.228.344.228.55 0 .207-.082.405-.228.55-.146.146-.344.228-.55.228z"/>
        <path fill="#0D26F5" d="M127.826 159.773c.94 0 1.702-.762 1.702-1.702s-.762-1.702-1.702-1.702-1.702.762-1.702 1.702.762 1.702 1.702 1.702zM121.359 159.773c.941 0 1.703-.762 1.703-1.702s-.762-1.702-1.703-1.702c-.94 0-1.702.762-1.702 1.702s.762 1.702 1.702 1.702zM114.889 159.773c.94 0 1.702-.762 1.702-1.702s-.762-1.702-1.702-1.702-1.702.762-1.702 1.702.762 1.702 1.702 1.702zM131.178 155.289c.94 0 1.702-.762 1.702-1.702s-.762-1.702-1.702-1.702-1.702.762-1.702 1.702.762 1.702 1.702 1.702zM124.711 155.289c.94 0 1.702-.762 1.702-1.702s-.762-1.702-1.702-1.702-1.702.762-1.702 1.702.762 1.702 1.702 1.702zM118.24 155.289c.94 0 1.703-.762 1.703-1.702s-.763-1.702-1.703-1.702c-.94 0-1.702.762-1.702 1.702s.762 1.702 1.702 1.702zM111.774 155.289c.94 0 1.702-.762 1.702-1.702s-.762-1.702-1.702-1.702c-.941 0-1.703.762-1.703 1.702s.762 1.702 1.703 1.702zM59.089 159.773c.94 0 1.702-.762 1.702-1.702s-.762-1.702-1.702-1.702-1.702.762-1.702 1.702.762 1.702 1.702 1.702zM52.618 159.773c.94 0 1.703-.762 1.703-1.702s-.763-1.702-1.703-1.702c-.94 0-1.702.762-1.702 1.702s.762 1.702 1.702 1.702zM46.151 159.773c.94 0 1.703-.762 1.703-1.702s-.762-1.702-1.703-1.702c-.94 0-1.702.762-1.702 1.702s.762 1.702 1.702 1.702zM62.44 155.289c.94 0 1.702-.762 1.702-1.702s-.762-1.702-1.702-1.702-1.703.762-1.703 1.702.762 1.702 1.703 1.702zM65.063 159.773c.94 0 1.702-.762 1.702-1.702s-.762-1.702-1.702-1.702-1.703.762-1.703 1.702.763 1.702 1.703 1.702zM68.413 155.289c.94 0 1.702-.762 1.702-1.702s-.762-1.702-1.702-1.702-1.702.762-1.702 1.702.762 1.702 1.702 1.702zM55.969 155.289c.94 0 1.702-.762 1.702-1.702s-.762-1.702-1.702-1.702-1.702.762-1.702 1.702.762 1.702 1.702 1.702zM49.502 155.289c.94 0 1.702-.762 1.702-1.702s-.762-1.702-1.702-1.702-1.702.762-1.702 1.702.762 1.702 1.702 1.702zM43.035 155.289c.94 0 1.703-.762 1.703-1.702s-.763-1.702-1.703-1.702c-.94 0-1.702.762-1.702 1.702s.762 1.702 1.702 1.702zM40.31 159.773c.94 0 1.703-.762 1.703-1.702s-.762-1.702-1.702-1.702-1.703.762-1.703 1.702.763 1.702 1.703 1.702zM37.191 155.289c.94 0 1.703-.762 1.703-1.702s-.762-1.702-1.703-1.702c-.94 0-1.702.762-1.702 1.702s.762 1.702 1.703 1.702z"/>
        <path fill="#00F" d="M87.907 18.338c-.207 0-.404-.082-.55-.228-.146-.146-.228-.344-.228-.55V.778c0-.207.082-.404.228-.55.146-.146.343-.228.55-.228.206 0 .404.082.55.228.146.146.228.343.228.55V17.56c0 .102-.02.203-.06.298-.039.094-.096.18-.168.252-.073.072-.158.13-.253.169-.094.039-.195.059-.297.059zM110.164 19.067c-.144-.002-.284-.043-.406-.12-.122-.076-.22-.184-.285-.313-.064-.128-.092-.272-.08-.415.013-.143.064-.28.149-.397l11.187-14.99c.123-.166.308-.276.512-.306.205-.03.413.024.579.147.165.124.275.309.305.513.029.205-.024.413-.148.579L110.791 18.75c-.073.098-.168.177-.276.232-.109.055-.229.083-.351.084zM67.218 19.067c-.122 0-.242-.03-.351-.084-.109-.055-.203-.134-.276-.232L55.404 3.765c-.061-.082-.106-.176-.13-.275-.026-.1-.032-.202-.017-.304.015-.101.05-.198.102-.286.052-.088.12-.165.203-.227.082-.06.175-.105.274-.13.1-.026.203-.031.304-.017.102.015.199.05.287.102.088.052.165.121.226.203L67.84 17.822c.085.116.136.253.148.397.012.143-.015.287-.08.415-.064.129-.162.237-.284.314-.122.076-.263.117-.406.119zM6.631 106.511c-.206 0-.404-.082-.55-.228-.146-.145-.227-.343-.227-.55 0-.206.081-.404.227-.55.146-.145.344-.227.55-.227l13.45-.027c.206 0 .403.082.55.228.145.146.227.343.227.55 0 .206-.082.404-.228.55-.146.146-.343.228-.55.228l-13.453.026h.004zM12.169 102.284H.778c-.207 0-.404-.082-.55-.227-.146-.146-.228-.344-.228-.55 0-.207.082-.405.228-.55.146-.146.343-.228.55-.228h11.39c.207 0 .405.082.55.228.147.145.229.343.229.55 0 .206-.082.404-.228.55-.146.145-.344.227-.55.227zM2.498 106.516c.432 0 .782-.351.782-.783 0-.432-.35-.782-.782-.782-.432 0-.782.35-.782.782 0 .432.35.783.782.783zM155.053 44.654h-8.573c-.206 0-.404-.083-.55-.228-.146-.146-.228-.344-.228-.55 0-.207.082-.404.228-.55.146-.146.344-.228.55-.228h8.573c.207 0 .404.082.55.228.146.146.228.343.228.55 0 .206-.082.404-.228.55-.146.145-.343.227-.55.227zM159.191 44.658c.432 0 .783-.35.783-.782 0-.432-.351-.783-.783-.783-.432 0-.782.35-.782.782 0 .432.35.783.782.783zM37.395 130.333l16.8-2.084 15.116-.431 6.076 3.009.337 1.871-6.062 3.071-13.289-.329-18.977-5.107zM144.849 130.151c-3.409-5.422-6.164-11.228-8.209-17.298-1.965-5.978-3.178-12.28-2.987-18.59.191-6.288 1.728-12.46 4.507-18.103 1.307-2.667 3.173-5.24 3.404-8.276.122-1.258-.221-2.517-.965-3.539-.743-1.022-1.836-1.736-3.07-2.007-1.326-.262-2.697-.165-3.973.28-1.276.446-2.41 1.223-3.285 2.253-1.973 2.249-3.196 5.089-4.271 7.845-.059.212-.031.44.078.632s.289.333.502.392c.213.059.44.03.632-.078.192-.109.333-.29.392-.502 1.512-3.867 4-9.987 9.156-9.276.963.104 1.846.583 2.458 1.334.34.505.566 1.079.662 1.68.095.603.057 1.218-.111 1.804-.631 2.814-2.454 5.267-3.64 7.862-2.541 5.568-3.949 11.586-4.142 17.703-.183 6.048.888 12.128 2.666 17.893 2.099 6.622 5.031 12.952 8.725 18.835.564.912 2.009.076 1.44-.84l.031-.004z"/>
        <path fill="#00F" d="M127.6 70.902c.285-6.95.542-13.906.814-20.862l.226-5.307c.094-1.395.084-2.796-.031-4.19-.298-2.667-1.444-5.192-4-6.325-1.202-.553-2.536-.752-3.847-.573-1.31.178-2.543.727-3.553 1.582-.804.706.378 1.884 1.178 1.178.762-.619 1.683-1.011 2.657-1.133.974-.122 1.963.032 2.854.444 2.253 1.013 2.991 3.413 3.111 5.71.076 1.396 0 2.796-.071 4.192-.065 1.618-.129 3.235-.191 4.853-.127 3.174-.25 6.35-.369 9.529-.142 3.63-.29 7.26-.444 10.893-.045 1.076 1.622 1.072 1.666 0v.01z"/>
        <path fill="#00F" d="M118.622 35.818c-.187-2.765-2.267-5.485-5.009-6.151-1.362-.308-2.787-.172-4.066.388-1.28.56-2.347 1.514-3.045 2.723-.529.938.889 1.778 1.44.84.507-.895 1.285-1.606 2.222-2.03.937-.425 1.984-.54 2.991-.33 1.013.293 1.914.883 2.588 1.693.675.81 1.09 1.804 1.194 2.853.072 1.067 1.743 1.072 1.667 0l.018.014z"/>
        <path fill="#00F" d="M108.013 32.471c-2.444-2.035-5.862-2.951-8.568-.858-2.52 1.956-3.231 5.262-3.778 8.231-.196 1.05 1.413 1.498 1.604.445.445-2.45.934-5.267 2.827-7.053 2.013-1.894 4.787-1.21 6.738.413.817.68 2.004-.493 1.177-1.178z"/>
        <path fill="#00F" d="M95.417 41.347c1.844.444 2.391 2.529 2.409 4.195.022 2.32-.316 4.671-.502 6.978l-1.17 14.373-.661 8.178c-.09 1.071 1.577 1.067 1.666 0l1.258-15.253.622-7.627.316-3.87c.136-1.154.18-2.316.129-3.477-.174-2.222-1.285-4.528-3.6-5.106-1.045-.258-1.49 1.333-.445 1.609h-.022zM106.333 33.285c1.333 1.888 1.507 4.195 1.413 6.44-.115 2.666-.444 5.368-.706 8.04l-1.583 16.968-.888 9.694c-.098 1.066 1.568 1.057 1.666 0l1.627-17.4.822-8.814c.249-2.702.578-5.409.729-8.12.142-2.626-.053-5.426-1.627-7.64-.613-.866-2.057-.035-1.435.84l-.018-.008zM116.964 35.818c-.253 9.844-.36 19.693-.547 29.542-.053 2.785-.115 5.572-.186 8.36-.027 1.076 1.64 1.076 1.666 0 .254-9.844.36-19.693.547-29.538.053-2.79.116-5.58.187-8.364.026-1.071-1.64-1.071-1.667 0zM125.934 70.902c.01 6.348.847 12.668 2.489 18.8.28 1.036 1.888.596 1.608-.444-1.604-5.987-2.422-12.158-2.431-18.356 0-1.07-1.671-1.07-1.666 0zM98.093 133.778c11.727 3.517 24.177 3.86 36.08.995 3.323-.799 6.58-1.853 9.742-3.151.209-.064.386-.205.494-.395.109-.19.14-.415.089-.627-.06-.213-.201-.394-.393-.503-.193-.11-.421-.138-.634-.079-14.285 5.867-30.157 6.629-44.938 2.155-1.026-.311-1.466 1.298-.444 1.605h.004zM18.338 61.022c-1.479 0-2.924-.438-4.154-1.26-1.23-.822-2.187-1.99-2.753-3.356-.566-1.366-.713-2.87-.425-4.32.29-1.45 1.002-2.782 2.047-3.827 1.046-1.045 2.379-1.757 3.83-2.045 1.45-.288 2.953-.14 4.319.427s2.533 1.526 3.354 2.756c.82 1.23 1.258 2.675 1.257 4.154-.002 1.982-.79 3.881-2.192 5.282-1.401 1.4-3.302 2.188-5.283 2.19zm0-13.39c-1.171 0-2.316.346-3.29.997-.973.65-1.731 1.575-2.18 2.657-.448 1.081-.565 2.272-.336 3.42.228 1.148.792 2.203 1.62 3.031.828.828 1.883 1.392 3.03 1.62 1.15.229 2.34.111 3.421-.337 1.082-.448 2.007-1.206 2.657-2.18.65-.974.998-2.118.998-3.289-.001-1.57-.625-3.075-1.735-4.185-1.11-1.11-2.615-1.734-4.185-1.735z"/>
    </g>
    <defs>
        <clipPath id="clip0">
            <path fill="#fff" d="M0 0H160V160H0z"/>
        </clipPath>
    </defs>
</svg>
