<svg width="389" height="421" viewBox="0 0 389 421" fill="none" xmlns="http://www.w3.org/2000/svg">
<path d="M275.168 343.67L280.717 349.59L284.997 347.47L286.938 341.58L284.008 339.38L275.168 343.67Z" fill="#0000FF"/>
<path d="M257.298 360.86L251.438 366.86L254.388 370.7L259.538 368.59L257.298 360.86Z" fill="#0000FF"/>
<path d="M62.7375 352.23L61.8775 363.77L68.0475 364.58L69.3875 358.68L63.9275 345.94L62.7375 352.23Z" fill="#0000FF"/>
<path d="M48.3475 332.84L47.5075 337.17C47.5075 337.17 58.7675 337.59 58.7875 337.17C58.8075 336.75 53.8575 331.68 53.8575 331.68L48.3475 332.84Z" fill="#0000FF"/>
<path d="M159.198 250.23H124.878L121.558 290.41V298.23L52.6275 330.52L63.4575 342.21L68.9075 354.72L71.0175 364.27L104.948 350.2L141.228 332.6L157.638 312.46L165.518 289.4L167.018 263.58L164.938 250.66L159.198 250.23Z" fill="#FF5657"/>
<path d="M256.768 293.43L227.858 249.66C227.858 249.66 178.178 249.08 178.018 249.66C177.858 250.24 253.018 370.07 253.018 370.07L252.578 366.07C252.578 366.07 267.107 347.94 267.427 347.99C267.747 348.04 279.598 340.25 279.598 340.25L285.028 337.13L256.768 293.43Z" fill="#FF5657"/>
<path d="M119.277 296.33L63.5975 322.63L47.8775 330.06C45.6975 331.06 47.5975 334.33 49.7675 333.3L105.477 306.96L121.207 299.52C123.387 298.52 121.488 295.26 119.308 296.29L119.277 296.33Z" fill="#0000FF"/>
<path d="M69.4075 366.08L103.347 352.33L120.097 345.52C125.192 343.541 130.176 341.288 135.027 338.77C143.883 333.992 151.303 326.936 156.518 318.33C161.663 309.633 165.126 300.047 166.728 290.07C168.997 277.07 168.948 263.8 168.858 250.63C168.858 248.22 165.088 248.22 165.108 250.63C165.258 271.81 165.377 294.18 155.057 313.34C150.622 321.819 143.969 328.935 135.807 333.93C131.248 336.584 126.498 338.897 121.597 340.85C116.287 343.04 110.957 345.18 105.597 347.35L68.4275 362.46C67.9564 362.606 67.5587 362.927 67.3153 363.356C67.0719 363.785 67.0012 364.291 67.1175 364.77C67.2529 365.248 67.5713 365.654 68.0037 365.899C68.436 366.144 68.9476 366.209 69.4275 366.08H69.4075Z" fill="#0000FF"/>
<path d="M253.278 366.51C243.948 351.88 234.398 337.38 224.968 322.81C215.208 307.717 205.558 292.55 196.018 277.31C190.484 268.47 185.024 259.58 179.638 250.64C178.388 248.58 175.147 250.46 176.397 252.54C185.917 268.38 195.768 284.03 205.688 299.63C215.108 314.437 224.618 329.197 234.218 343.91C239.518 352.06 244.818 360.21 250.048 368.4C251.338 370.4 254.588 368.55 253.278 366.51Z" fill="#0000FF"/>
<path d="M226.917 252.14C241.797 275.16 256.717 298.16 271.677 321.14C275.831 327.54 279.974 333.94 284.108 340.34C285.418 342.34 288.667 340.48 287.347 338.45C272.467 315.43 257.547 292.43 242.587 269.45C238.434 263.063 234.291 256.663 230.157 250.25C228.847 248.25 225.607 250.11 226.917 252.15V252.14Z" fill="#0000FF"/>
<path d="M48.7575 337.18C47.8875 334.77 49.5675 332.4 52.1675 333.08C55.3375 333.92 57.6375 336.43 59.1675 339.2C61.0775 342.69 62.5775 346.43 64.2275 350.04C65.1175 351.97 66.1075 353.88 66.8275 355.87C67.3881 357.476 67.6623 359.169 67.6375 360.87C67.6375 362.02 67.6375 363.09 66.2975 363.15C65.5175 363.15 63.7475 362.86 63.4575 362.03C62.6575 359.77 59.0375 360.74 59.8475 363.03C61.0675 366.5 66.4875 368.18 69.4575 365.9C71.1575 364.58 71.4575 362.38 71.3775 360.36C71.2844 357.806 70.7005 355.293 69.6575 352.96C67.4475 347.91 65.2375 342.76 62.6575 337.87C60.5975 333.87 57.0675 330.16 52.4575 329.34C51.2838 329.086 50.0616 329.175 48.9372 329.597C47.8128 330.019 46.8339 330.756 46.1175 331.72C45.4415 332.64 44.9975 333.709 44.8234 334.837C44.6493 335.966 44.7502 337.119 45.1175 338.2C45.9375 340.45 49.5675 339.48 48.7375 337.2L48.7575 337.18Z" fill="#0000FF"/>
<path d="M258.217 367.26C257.277 368.16 256.067 369.35 254.627 368.82C252.887 368.19 254.918 365.82 255.518 364.96C257.947 361.579 260.621 358.38 263.518 355.39C266.379 352.43 269.443 349.673 272.687 347.14C274.357 345.84 276.078 344.61 277.828 343.44C279.309 342.323 281.044 341.592 282.877 341.31C283.278 341.26 284.338 341.07 284.597 341.44C284.857 341.81 284.438 343.04 284.328 343.44C283.678 345.52 282.158 346.83 280.518 348.17C280.168 348.522 279.971 348.998 279.971 349.495C279.971 349.991 280.168 350.468 280.518 350.82C280.873 351.163 281.348 351.354 281.842 351.354C282.337 351.354 282.812 351.163 283.168 350.82C285.28 349.292 286.902 347.183 287.837 344.75C288.527 342.75 288.767 340.13 287.027 338.58C285.287 337.03 282.587 337.49 280.587 337.96C277.817 338.61 275.398 340.55 273.138 342.19C268.688 345.395 264.532 348.989 260.717 352.93C258.797 354.93 256.967 357 255.247 359.17C253.527 361.34 251.607 363.41 250.617 365.88C250.312 366.528 250.158 367.236 250.164 367.952C250.171 368.668 250.339 369.374 250.656 370.016C250.974 370.658 251.432 371.22 251.996 371.661C252.561 372.101 253.218 372.409 253.918 372.56C256.688 373.2 258.917 371.77 260.837 369.95C262.587 368.28 259.927 365.63 258.187 367.3L258.217 367.26Z" fill="#0000FF"/>
<path d="M59.5975 335.82C48.2975 335.82 36.9875 336.18 25.6875 336.17C25.2139 336.205 24.7709 336.417 24.4476 336.765C24.1242 337.113 23.9445 337.57 23.9445 338.045C23.9445 338.52 24.1242 338.977 24.4476 339.325C24.7709 339.673 25.2139 339.885 25.6875 339.92C36.9875 339.92 48.2975 339.56 59.5975 339.57C60.0711 339.535 60.5141 339.323 60.8374 338.975C61.1608 338.627 61.3405 338.17 61.3405 337.695C61.3405 337.22 61.1608 336.763 60.8374 336.415C60.5141 336.067 60.0711 335.855 59.5975 335.82Z" fill="#0000FF"/>
<path d="M61.6475 343.98C59.3515 356.573 58.2832 369.36 58.4575 382.16C58.4575 384.57 62.2375 384.58 62.2075 382.16C62.0196 369.697 63.0444 357.245 65.2675 344.98C65.6975 342.62 62.0775 341.61 61.6475 343.98Z" fill="#0000FF"/>
<path d="M75.7575 390.73C71.7118 386.075 66.4689 382.617 60.5975 380.73C60.1264 380.624 59.6326 380.704 59.2185 380.952C58.8044 381.2 58.5017 381.598 58.3732 382.064C58.2446 382.529 58.3 383.026 58.528 383.452C58.7559 383.877 59.1389 384.199 59.5975 384.35C64.8457 386.08 69.5163 389.222 73.0975 393.43C73.4489 393.781 73.9255 393.979 74.4225 393.979C74.9195 393.979 75.3961 393.781 75.7475 393.43C76.0989 393.079 76.2963 392.602 76.2963 392.105C76.2963 391.608 76.0989 391.132 75.7475 390.78L75.7575 390.73Z" fill="#0000FF"/>
<path d="M54.2475 391.53L43.2475 366.53L37.5975 353.79C35.8775 349.89 34.2675 345.9 32.1675 342.19C30.4675 339.19 27.8675 335.1 23.7775 336.36C19.6875 337.62 18.7775 342.18 19.3275 345.81C19.9675 349.81 22.0675 353.63 23.6075 357.33C25.1475 361.03 26.7675 364.96 28.3375 368.78C31.8975 377.407 35.4675 386.037 39.0475 394.67C39.1938 395.141 39.5141 395.539 39.9432 395.782C40.3723 396.026 40.8781 396.096 41.3575 395.98C41.8357 395.845 42.2414 395.526 42.4866 395.094C42.7317 394.661 42.7968 394.15 42.6675 393.67C36.8075 379.67 31.0775 365.57 25.2275 351.54C24.0275 348.66 21.5975 344.21 23.5075 341.15C25.7575 337.56 28.3875 343.07 29.3675 344.87C31.2475 348.36 32.7575 352.05 34.3675 355.68L39.4775 367.28L50.9975 393.43C51.2535 393.855 51.6657 394.163 52.146 394.289C52.6263 394.414 53.1365 394.346 53.5675 394.1C53.9869 393.839 54.2902 393.427 54.4148 392.949C54.5395 392.47 54.476 391.963 54.2375 391.53H54.2475Z" fill="#0000FF"/>
<path d="M1.8075 395.77C30.8075 395.98 59.8075 396.26 88.8675 396.27C97.1008 396.27 105.327 396.27 113.547 396.27C115.957 396.27 115.967 392.51 113.547 392.52C84.4575 392.65 55.3775 392.44 26.2875 392.23L1.8075 392.06C-0.6025 392.06 -0.6025 395.79 1.8075 395.81V395.77Z" fill="#0000FF"/>
<path d="M255.748 360.92C257.394 368.656 260.76 375.923 265.598 382.18C265.87 382.587 266.282 382.88 266.755 383.003C267.229 383.127 267.731 383.072 268.168 382.85C268.595 382.596 268.905 382.184 269.03 381.703C269.155 381.222 269.086 380.711 268.837 380.28C264.18 374.298 260.942 367.336 259.367 359.92C258.897 357.55 255.278 358.55 255.748 360.92Z" fill="#0000FF"/>
<path d="M273.777 344.99C276.687 353.32 286.508 353.77 293.918 352.99C301.328 352.21 308.327 350.18 315.497 348.69C319.727 347.881 323.996 347.297 328.287 346.94C328.78 346.925 329.249 346.722 329.596 346.372C329.944 346.022 330.145 345.553 330.157 345.06C330.152 344.566 329.954 344.093 329.604 343.743C329.254 343.394 328.782 343.195 328.287 343.19C324.647 343.56 321.007 343.86 317.407 344.51C313.987 345.13 310.607 345.92 307.217 346.7C300.527 348.22 293.657 349.9 286.727 349.47C283.077 349.25 278.728 347.76 277.388 343.96C276.598 341.7 272.977 342.67 273.777 344.96V344.99Z" fill="#0000FF"/>
<path d="M271.178 385.04C267.978 385.04 266.648 383.73 266.098 382.62C264.708 379.83 266.988 375.89 271.508 373.25L273.298 372.2C281.908 367.13 308.078 351.73 324.708 345.2C327.138 343.74 328.788 343.59 329.768 344.74C331.088 346.29 330.008 348.47 325.168 354.08C319.998 360.08 297.488 375.76 281.568 382.41C276.828 384.33 273.508 385.04 271.178 385.04ZM324.908 348.85C308.488 355.55 283.438 370.29 275.068 375.22L273.268 376.27C269.988 378.19 268.948 380.5 269.268 381.06C269.588 381.62 272.128 382.52 280.268 379.14C296.808 372.24 318.178 356.83 322.568 351.75C323.538 350.57 324.318 349.62 324.908 348.85Z" fill="#0000FF"/>
<path d="M332.828 395.9H229.908C229.443 395.9 228.998 395.716 228.67 395.387C228.342 395.059 228.158 394.614 228.158 394.15C228.158 393.686 228.342 393.241 228.67 392.913C228.998 392.584 229.443 392.4 229.908 392.4H332.828C333.292 392.4 333.737 392.584 334.065 392.913C334.393 393.241 334.578 393.686 334.578 394.15C334.578 394.614 334.393 395.059 334.065 395.387C333.737 395.716 333.292 395.9 332.828 395.9Z" fill="#0000FF"/>
<path d="M269.078 400.73C271.193 400.73 272.908 399.015 272.908 396.9C272.908 394.785 271.193 393.07 269.078 393.07C266.962 393.07 265.247 394.785 265.247 396.9C265.247 399.015 266.962 400.73 269.078 400.73Z" fill="#0D26F5"/>
<path d="M283.638 400.73C285.753 400.73 287.467 399.015 287.467 396.9C287.467 394.785 285.753 393.07 283.638 393.07C281.522 393.07 279.807 394.785 279.807 396.9C279.807 399.015 281.522 400.73 283.638 400.73Z" fill="#0D26F5"/>
<path d="M298.188 400.73C300.303 400.73 302.018 399.015 302.018 396.9C302.018 394.785 300.303 393.07 298.188 393.07C296.072 393.07 294.358 394.785 294.358 396.9C294.358 399.015 296.072 400.73 298.188 400.73Z" fill="#0D26F5"/>
<path d="M261.538 410.81C263.653 410.81 265.367 409.095 265.367 406.98C265.367 404.865 263.653 403.15 261.538 403.15C259.422 403.15 257.707 404.865 257.707 406.98C257.707 409.095 259.422 410.81 261.538 410.81Z" fill="#0D26F5"/>
<path d="M276.098 410.81C278.213 410.81 279.927 409.095 279.927 406.98C279.927 404.865 278.213 403.15 276.098 403.15C273.982 403.15 272.268 404.865 272.268 406.98C272.268 409.095 273.982 410.81 276.098 410.81Z" fill="#0D26F5"/>
<path d="M290.647 410.81C292.763 410.81 294.478 409.095 294.478 406.98C294.478 404.865 292.763 403.15 290.647 403.15C288.532 403.15 286.818 404.865 286.818 406.98C286.818 409.095 288.532 410.81 290.647 410.81Z" fill="#0D26F5"/>
<path d="M305.198 410.81C307.313 410.81 309.027 409.095 309.027 406.98C309.027 404.865 307.313 403.15 305.198 403.15C303.082 403.15 301.367 404.865 301.367 406.98C301.367 409.095 303.082 410.81 305.198 410.81Z" fill="#0D26F5"/>
<path d="M42.3675 400.73C44.4828 400.73 46.1975 399.015 46.1975 396.9C46.1975 394.785 44.4828 393.07 42.3675 393.07C40.2523 393.07 38.5375 394.785 38.5375 396.9C38.5375 399.015 40.2523 400.73 42.3675 400.73Z" fill="#0D26F5"/>
<path d="M56.9175 400.73C59.0327 400.73 60.7475 399.015 60.7475 396.9C60.7475 394.785 59.0327 393.07 56.9175 393.07C54.8022 393.07 53.0875 394.785 53.0875 396.9C53.0875 399.015 54.8022 400.73 56.9175 400.73Z" fill="#0D26F5"/>
<path d="M71.4675 400.73C73.5827 400.73 75.2975 399.015 75.2975 396.9C75.2975 394.785 73.5827 393.07 71.4675 393.07C69.3522 393.07 67.6375 394.785 67.6375 396.9C67.6375 399.015 69.3522 400.73 71.4675 400.73Z" fill="#0D26F5"/>
<path d="M56.9175 420.89C59.0327 420.89 60.7475 419.175 60.7475 417.06C60.7475 414.945 59.0327 413.23 56.9175 413.23C54.8022 413.23 53.0875 414.945 53.0875 417.06C53.0875 419.175 54.8022 420.89 56.9175 420.89Z" fill="#0D26F5"/>
<path d="M49.3775 410.81C51.4927 410.81 53.2075 409.095 53.2075 406.98C53.2075 404.865 51.4927 403.15 49.3775 403.15C47.2622 403.15 45.5475 404.865 45.5475 406.98C45.5475 409.095 47.2622 410.81 49.3775 410.81Z" fill="#0D26F5"/>
<path d="M63.9275 410.81C66.0428 410.81 67.7575 409.095 67.7575 406.98C67.7575 404.865 66.0428 403.15 63.9275 403.15C61.8123 403.15 60.0975 404.865 60.0975 406.98C60.0975 409.095 61.8123 410.81 63.9275 410.81Z" fill="#0D26F5"/>
<path d="M318.158 75.9H39.8475V249.91H318.158V75.9Z" fill="white"/>
<path d="M318.158 251.66H39.8475C39.3834 251.66 38.9383 251.476 38.6101 251.147C38.2819 250.819 38.0975 250.374 38.0975 249.91V75.91C38.0975 75.4459 38.2819 75.0008 38.6101 74.6726C38.9383 74.3444 39.3834 74.16 39.8475 74.16H318.158C318.622 74.16 319.067 74.3444 319.395 74.6726C319.723 75.0008 319.908 75.4459 319.908 75.91V249.91C319.908 250.374 319.723 250.819 319.395 251.147C319.067 251.476 318.622 251.66 318.158 251.66ZM41.5975 248.16H316.408V77.65H41.5975V248.16Z" fill="#0000FF"/>
<path d="M325.448 259.18H241.927C241.463 259.18 241.018 258.996 240.69 258.667C240.362 258.339 240.177 257.894 240.177 257.43C240.177 256.966 240.362 256.521 240.69 256.193C241.018 255.864 241.463 255.68 241.927 255.68H323.698V79.33C323.698 78.8658 323.882 78.4207 324.21 78.0925C324.538 77.7643 324.983 77.58 325.448 77.58C325.912 77.58 326.357 77.7643 326.685 78.0925C327.013 78.4207 327.198 78.8658 327.198 79.33V257.43C327.195 257.893 327.01 258.337 326.682 258.664C326.354 258.992 325.911 259.177 325.448 259.18Z" fill="#0000FF"/>
<path d="M177.497 41.26C177.033 41.26 176.588 41.0756 176.26 40.7474C175.932 40.4192 175.747 39.9741 175.747 39.51V1.75C175.747 1.28587 175.932 0.840754 176.26 0.512566C176.588 0.184377 177.033 0 177.497 0C177.962 0 178.407 0.184377 178.735 0.512566C179.063 0.840754 179.247 1.28587 179.247 1.75V39.51C179.247 39.9741 179.063 40.4192 178.735 40.7474C178.407 41.0756 177.962 41.26 177.497 41.26Z" fill="#0000FF"/>
<path d="M227.597 42.89C227.22 42.8908 226.853 42.7717 226.548 42.55C226.176 42.2715 225.931 41.8569 225.865 41.3975C225.799 40.938 225.919 40.4713 226.197 40.1L251.357 6.32999C251.489 6.1309 251.659 5.96073 251.859 5.82991C252.058 5.69908 252.282 5.61037 252.517 5.56922C252.752 5.52808 252.992 5.53536 253.224 5.59062C253.456 5.64588 253.674 5.74795 253.865 5.89057C254.057 6.0332 254.216 6.21336 254.335 6.42001C254.454 6.62666 254.53 6.85543 254.557 7.09229C254.585 7.32915 254.563 7.5691 254.494 7.79741C254.426 8.02572 254.311 8.23758 254.157 8.41999L228.988 42.15C228.83 42.3739 228.623 42.5577 228.381 42.6862C228.139 42.8148 227.871 42.8846 227.597 42.89Z" fill="#0000FF"/>
<path d="M130.947 42.89C130.676 42.8908 130.407 42.8279 130.164 42.7063C129.921 42.5848 129.71 42.408 129.548 42.19L104.377 8.46002C104.224 8.27762 104.109 8.06576 104.041 7.83745C103.972 7.60914 103.95 7.36919 103.978 7.13233C104.005 6.89547 104.081 6.6667 104.2 6.46005C104.318 6.2534 104.478 6.07323 104.669 5.93061C104.861 5.78798 105.079 5.68591 105.311 5.63066C105.543 5.5754 105.783 5.56812 106.018 5.60926C106.253 5.65041 106.477 5.73912 106.676 5.86994C106.876 6.00077 107.046 6.17094 107.177 6.37003L132.347 40.1C132.626 40.4713 132.746 40.9381 132.68 41.3975C132.614 41.857 132.369 42.2716 131.997 42.55C131.692 42.7717 131.325 42.8908 130.947 42.89Z" fill="#0000FF"/>
<path d="M61.5975 279.56H13.8975C13.4334 279.56 12.9882 279.376 12.66 279.047C12.3319 278.719 12.1475 278.274 12.1475 277.81C12.1475 277.346 12.3319 276.901 12.66 276.573C12.9882 276.244 13.4334 276.06 13.8975 276.06H61.5975C62.0616 276.06 62.5067 276.244 62.8349 276.573C63.1631 276.901 63.3475 277.346 63.3475 277.81C63.3475 278.274 63.1631 278.719 62.8349 279.047C62.5067 279.376 62.0616 279.56 61.5975 279.56Z" fill="#0000FF"/>
<path d="M354.098 50.77H309.957C309.493 50.77 309.048 50.5857 308.72 50.2575C308.392 49.9293 308.207 49.4841 308.207 49.02C308.207 48.5559 308.392 48.1108 308.72 47.7826C309.048 47.4544 309.493 47.27 309.957 47.27H354.098C354.562 47.27 355.007 47.4544 355.335 47.7826C355.663 48.1108 355.848 48.5559 355.848 49.02C355.848 49.4841 355.663 49.9293 355.335 50.2575C355.007 50.5857 354.562 50.77 354.098 50.77Z" fill="#0000FF"/>
<path d="M322.418 41.26H296.788C296.323 41.26 295.878 41.0756 295.55 40.7475C295.222 40.4193 295.038 39.9741 295.038 39.51C295.038 39.0459 295.222 38.6008 295.55 38.2726C295.878 37.9444 296.323 37.76 296.788 37.76H322.418C322.882 37.76 323.327 37.9444 323.655 38.2726C323.983 38.6008 324.168 39.0459 324.168 39.51C324.168 39.9741 323.983 40.4193 323.655 40.7475C323.327 41.0756 322.882 41.26 322.418 41.26Z" fill="#0000FF"/>
<path d="M331.207 41.24C332.163 41.24 332.938 40.4655 332.938 39.51C332.938 38.5546 332.163 37.78 331.207 37.78C330.252 37.78 329.478 38.5546 329.478 39.51C329.478 40.4655 330.252 41.24 331.207 41.24Z" fill="#0000FF"/>
<path d="M69.4875 280.25C70.8351 280.25 71.9275 279.158 71.9275 277.81C71.9275 276.462 70.8351 275.37 69.4875 275.37C68.1399 275.37 67.0475 276.462 67.0475 277.81C67.0475 279.158 68.1399 280.25 69.4875 280.25Z" fill="#0000FF"/>
<path d="M377.918 131.47L352.848 150.78L386.277 175.56L377.918 131.47Z" fill="#2DDFD5"/>
<path d="M386.278 177.33C385.916 177.322 385.566 177.199 385.278 176.98L351.848 152.2C351.631 152.038 351.454 151.829 351.331 151.588C351.208 151.347 351.142 151.081 351.138 150.81C351.136 150.539 351.197 150.271 351.317 150.028C351.437 149.785 351.611 149.574 351.828 149.41L376.888 130.1C377.125 129.92 377.405 129.803 377.7 129.76C377.996 129.718 378.297 129.751 378.576 129.857C378.855 129.963 379.103 130.138 379.295 130.366C379.488 130.594 379.619 130.867 379.678 131.16L388.038 175.25C388.084 175.503 388.075 175.763 388.01 176.012C387.946 176.261 387.827 176.493 387.663 176.692C387.499 176.89 387.294 177.05 387.061 177.16C386.829 177.271 386.575 177.328 386.317 177.33H386.278ZM355.758 150.77L383.758 171.5L376.758 134.62L355.758 150.77Z" fill="#0000FF"/>
<path d="M178.317 177.33C177.959 177.322 177.61 177.207 177.317 177L38.8275 77.33C38.6088 77.2132 38.4174 77.0513 38.266 76.8549C38.1146 76.6585 38.0067 76.4323 37.9494 76.191C37.892 75.9498 37.8866 75.6992 37.9335 75.4557C37.9803 75.2122 38.0784 74.9815 38.2211 74.7788C38.3639 74.5761 38.5481 74.406 38.7615 74.2798C38.975 74.1537 39.2128 74.0743 39.4592 74.047C39.7057 74.0197 39.9551 74.0451 40.191 74.1215C40.4269 74.1978 40.6438 74.3235 40.8275 74.49L178.287 173.41L317.108 74.49C317.486 74.2786 317.929 74.215 318.351 74.3115C318.773 74.408 319.145 74.6577 319.394 75.0123C319.643 75.3669 319.751 75.8012 319.698 76.2312C319.645 76.6612 319.435 77.0563 319.108 77.34L179.337 176.98C179.043 177.201 178.686 177.324 178.317 177.33Z" fill="#0000FF"/>
<path d="M317.707 251.15C317.461 251.151 317.216 251.1 316.99 251C316.765 250.9 316.563 250.754 316.397 250.57L221.598 144.99C221.287 144.644 221.127 144.189 221.152 143.724C221.178 143.26 221.386 142.825 221.733 142.515C222.079 142.205 222.534 142.045 222.998 142.07C223.462 142.095 223.897 142.304 224.207 142.65L319.008 248.23C319.234 248.481 319.382 248.793 319.435 249.127C319.487 249.461 319.442 249.803 319.305 250.112C319.167 250.421 318.943 250.683 318.66 250.867C318.376 251.051 318.046 251.15 317.707 251.15Z" fill="#0000FF"/>
<path d="M39.8475 251.66C39.5094 251.66 39.1786 251.562 38.8952 251.377C38.6117 251.193 38.3877 250.931 38.2502 250.622C38.1127 250.313 38.0676 249.971 38.1203 249.637C38.1731 249.303 38.3215 248.991 38.5475 248.74L132.978 143.63C133.129 143.45 133.314 143.302 133.524 143.196C133.733 143.089 133.961 143.026 134.196 143.01C134.43 142.993 134.665 143.024 134.887 143.101C135.109 143.177 135.314 143.297 135.488 143.455C135.663 143.612 135.804 143.802 135.903 144.015C136.003 144.228 136.058 144.459 136.067 144.693C136.075 144.928 136.036 145.162 135.952 145.381C135.868 145.601 135.741 145.801 135.578 145.97L41.1475 251.08C40.9852 251.264 40.7851 251.412 40.5607 251.512C40.3364 251.612 40.0931 251.662 39.8475 251.66Z" fill="#0000FF"/>
<path d="M120.527 146.96L97.2175 165.07L148.918 224.26L264.757 127.23L241.927 104.91L148.918 180.67L120.527 146.96Z" fill="#2DDFD5"/>
<path d="M148.918 226.01C148.668 226.009 148.421 225.955 148.193 225.851C147.966 225.748 147.763 225.598 147.597 225.41L95.9075 166.22C95.7501 166.041 95.6308 165.831 95.5568 165.604C95.4829 165.377 95.4559 165.138 95.4775 164.9C95.5011 164.663 95.5727 164.434 95.6879 164.226C95.8031 164.018 95.9595 163.836 96.1475 163.69L119.457 145.57C119.815 145.294 120.266 145.167 120.715 145.215C121.164 145.264 121.577 145.484 121.868 145.83L149.147 178.23L240.828 103.55C241.162 103.281 241.584 103.143 242.013 103.164C242.443 103.184 242.849 103.36 243.157 103.66L265.978 125.98C266.154 126.148 266.293 126.352 266.384 126.578C266.476 126.804 266.518 127.047 266.507 127.29C266.498 127.536 266.437 127.776 266.328 127.997C266.219 128.217 266.066 128.412 265.877 128.57L150.037 225.57C149.728 225.845 149.331 226.001 148.918 226.01ZM99.7575 165.33L149.108 221.83L262.108 127.15L241.787 107.27L149.988 182.05C149.63 182.339 149.174 182.477 148.716 182.434C148.258 182.391 147.835 182.171 147.537 181.82L120.277 149.33L99.7575 165.33Z" fill="#0000FF"/>
<path d="M122.997 250.23L119.097 297.53C118.897 299.93 122.647 299.92 122.847 297.53L126.747 250.23C126.947 247.83 123.197 247.84 122.997 250.23Z" fill="#0000FF"/>
<path d="M133.397 257.07C135.513 257.07 137.228 255.355 137.228 253.24C137.228 251.125 135.513 249.41 133.397 249.41C131.282 249.41 129.568 251.125 129.568 253.24C129.568 255.355 131.282 257.07 133.397 257.07Z" fill="#0D26F5"/>
<path d="M147.957 257.07C150.073 257.07 151.788 255.355 151.788 253.24C151.788 251.125 150.073 249.41 147.957 249.41C145.842 249.41 144.128 251.125 144.128 253.24C144.128 255.355 145.842 257.07 147.957 257.07Z" fill="#0D26F5"/>
<path d="M162.508 257.07C164.623 257.07 166.337 255.355 166.337 253.24C166.337 251.125 164.623 249.41 162.508 249.41C160.392 249.41 158.677 251.125 158.677 253.24C158.677 255.355 160.392 257.07 162.508 257.07Z" fill="#0D26F5"/>
<path d="M189.608 257.07C191.723 257.07 193.438 255.355 193.438 253.24C193.438 251.125 191.723 249.41 189.608 249.41C187.492 249.41 185.777 251.125 185.777 253.24C185.777 255.355 187.492 257.07 189.608 257.07Z" fill="#0D26F5"/>
<path d="M204.168 257.07C206.283 257.07 207.997 255.355 207.997 253.24C207.997 251.125 206.283 249.41 204.168 249.41C202.052 249.41 200.337 251.125 200.337 253.24C200.337 255.355 202.052 257.07 204.168 257.07Z" fill="#0D26F5"/>
<path d="M218.717 257.07C220.833 257.07 222.548 255.355 222.548 253.24C222.548 251.125 220.833 249.41 218.717 249.41C216.602 249.41 214.888 251.125 214.888 253.24C214.888 255.355 216.602 257.07 218.717 257.07Z" fill="#0D26F5"/>
<path d="M147.957 277.23C150.073 277.23 151.788 275.515 151.788 273.4C151.788 271.285 150.073 269.57 147.957 269.57C145.842 269.57 144.128 271.285 144.128 273.4C144.128 275.515 145.842 277.23 147.957 277.23Z" fill="#0D26F5"/>
<path d="M204.168 277.23C206.283 277.23 207.997 275.515 207.997 273.4C207.997 271.285 206.283 269.57 204.168 269.57C202.052 269.57 200.337 271.285 200.337 273.4C200.337 275.515 202.052 277.23 204.168 277.23Z" fill="#0D26F5"/>
<path d="M140.418 267.15C142.533 267.15 144.247 265.435 144.247 263.32C144.247 261.205 142.533 259.49 140.418 259.49C138.302 259.49 136.587 261.205 136.587 263.32C136.587 265.435 138.302 267.15 140.418 267.15Z" fill="#0D26F5"/>
<path d="M126.357 267.15C128.473 267.15 130.187 265.435 130.187 263.32C130.187 261.205 128.473 259.49 126.357 259.49C124.242 259.49 122.527 261.205 122.527 263.32C122.527 265.435 124.242 267.15 126.357 267.15Z" fill="#0D26F5"/>
<path d="M154.967 267.15C157.083 267.15 158.798 265.435 158.798 263.32C158.798 261.205 157.083 259.49 154.967 259.49C152.852 259.49 151.138 261.205 151.138 263.32C151.138 265.435 152.852 267.15 154.967 267.15Z" fill="#0D26F5"/>
<path d="M196.628 267.15C198.743 267.15 200.457 265.435 200.457 263.32C200.457 261.205 198.743 259.49 196.628 259.49C194.512 259.49 192.798 261.205 192.798 263.32C192.798 265.435 194.512 267.15 196.628 267.15Z" fill="#0D26F5"/>
<path d="M211.177 267.15C213.293 267.15 215.008 265.435 215.008 263.32C215.008 261.205 213.293 259.49 211.177 259.49C209.062 259.49 207.348 261.205 207.348 263.32C207.348 265.435 209.062 267.15 211.177 267.15Z" fill="#0D26F5"/>
<path d="M225.728 267.15C227.843 267.15 229.557 265.435 229.557 263.32C229.557 261.205 227.843 259.49 225.728 259.49C223.612 259.49 221.897 261.205 221.897 263.32C221.897 265.435 223.612 267.15 225.728 267.15Z" fill="#0D26F5"/>
</svg>
