<svg width="354" height="389" viewBox="0 0 354 389" fill="none" xmlns="http://www.w3.org/2000/svg">
<path d="M208.38 336.84C207.81 336.91 201.61 340.63 201.61 340.63V344.01L207.89 342.63L209.89 339.55L208.38 336.84Z" fill="#0000FF"/>
<path d="M184.17 159.39L172.38 147.08L154.38 143.93L138.38 149.2L127.63 163.84L126.98 187.31L135.06 207.13L151.29 215.38L172.55 212.68L184.35 199.58L187.65 176.45L184.17 159.39ZM165.85 193.48L157.85 200.42L149.07 196.13L146.05 180.84L148.51 162.61L155.27 157.79L161 159.17L167.64 167.76L165.85 193.48Z" fill="#2DDFD5"/>
<path d="M82.8 143.93L78.05 147.29L49.69 188.22L51.18 200.5L86.3 202.09L87.96 214.66L107.54 213.09L108.92 201.4L118.83 199.66L115.94 185.74L106.85 186.03L106.5 173.64L88.27 174.1L86.52 185.32L72.94 183.95L100.77 145.43L88.29 143.7L82.8 143.93Z" fill="#2DDFD5"/>
<path d="M227.56 143.93L222.8 147.29L194.44 188.22L195.94 200.5L231.06 202.09L232.72 214.66L251.96 215.63L253.67 201.4L263.59 199.66L260.69 185.74L251.6 186.03L251.26 173.64L233.02 174.1L232.93 184.9L217.7 183.95L245.3 143.7H233.04L227.56 143.93Z" fill="#2DDFD5"/>
<path d="M184.18 31.7299L179.59 23.1199L167.61 17.1099L152.75 20.2899L141.48 31.1099L132.29 43.6799L116.83 52.7499L111.28 56.0899L122.74 61.4599L138.91 66.8099L150.42 69.2699L156.29 55.4499L152.04 46.1699L159.73 41.5999L170.56 44.3899L180.44 36.7499L184.8 33.5599L184.18 31.7299Z" fill="#0000FF"/>
<path d="M184.8 62.24L177.45 66.81L167.25 63.72L165.63 68.68L169.2 76.06L193.35 77.61L195.75 75.03L184.8 62.24Z" fill="#0000FF"/>
<path d="M279.89 254.04H37.62C37.1559 254.04 36.7107 253.856 36.3826 253.527C36.0544 253.199 35.87 252.754 35.87 252.29V237.73C35.87 237.266 36.0544 236.821 36.3826 236.493C36.7107 236.164 37.1559 235.98 37.62 235.98C38.0841 235.98 38.5292 236.164 38.8574 236.493C39.1856 236.821 39.37 237.266 39.37 237.73V250.54H278.14V163.45C278.14 162.986 278.324 162.541 278.653 162.213C278.981 161.884 279.426 161.7 279.89 161.7C280.354 161.7 280.799 161.884 281.127 162.213C281.456 162.541 281.64 162.986 281.64 163.45V252.29C281.64 252.754 281.456 253.199 281.127 253.527C280.799 253.856 280.354 254.04 279.89 254.04Z" fill="#0000FF"/>
<path d="M37.62 206.89C37.1567 206.887 36.7131 206.702 36.3855 206.374C36.0578 206.047 35.8726 205.603 35.87 205.14V107.38C35.8726 106.917 36.0578 106.473 36.3855 106.145C36.7131 105.818 37.1567 105.633 37.62 105.63H279.89C280.353 105.633 280.797 105.818 281.125 106.145C281.452 106.473 281.637 106.917 281.64 107.38V135.47C281.64 135.934 281.456 136.379 281.127 136.707C280.799 137.036 280.354 137.22 279.89 137.22C279.426 137.22 278.981 137.036 278.653 136.707C278.324 136.379 278.14 135.934 278.14 135.47V109.13H39.38V205.13C39.3813 205.361 39.3367 205.591 39.2487 205.805C39.1607 206.019 39.0312 206.214 38.8675 206.377C38.7038 206.541 38.5092 206.671 38.2951 206.759C38.0809 206.847 37.8515 206.891 37.62 206.89Z" fill="#0000FF"/>
<path d="M149.17 254.04C164.96 275.95 177.4 300.23 189.05 324.53C192.22 331.14 195.32 337.8 198.38 344.46C199.38 346.66 202.62 344.75 201.62 342.57C190.34 318.02 178.62 293.57 164.52 270.47C160.7 264.22 156.69 258.09 152.41 252.15C152.149 251.731 151.737 251.427 151.259 251.303C150.78 251.178 150.273 251.241 149.84 251.48C149.415 251.734 149.108 252.145 148.982 252.623C148.857 253.102 148.924 253.611 149.17 254.04Z" fill="#0000FF"/>
<path d="M201.86 254.34C208.031 262.204 213.426 270.647 217.97 279.55C222.859 288.889 227.173 298.516 230.89 308.38C232.89 313.573 234.713 318.82 236.36 324.12C237.08 326.41 240.7 325.43 239.97 323.12C233.68 303.12 225.42 283.44 214.34 265.62C211.349 260.779 208.066 256.123 204.51 251.68C204.155 251.335 203.68 251.142 203.185 251.142C202.69 251.142 202.215 251.335 201.86 251.68C201.519 252.039 201.329 252.515 201.329 253.01C201.329 253.505 201.519 253.981 201.86 254.34Z" fill="#0000FF"/>
<path d="M228.22 334.56C230.097 333.651 231.908 332.612 233.64 331.45C235.41 330.374 237.083 329.146 238.64 327.78C239.342 327.09 239.802 326.192 239.954 325.219C240.105 324.246 239.939 323.251 239.48 322.38C238.42 320.45 236.15 320.02 234.16 320.49C232.105 321.077 230.099 321.822 228.16 322.72C226.16 323.553 224.16 324.443 222.16 325.39C218.246 327.274 214.452 329.398 210.8 331.75C206.653 334.427 202.691 337.381 198.94 340.59C197.1 342.16 199.76 344.8 201.59 343.24C208.641 337.237 216.456 332.193 224.83 328.24C226.91 327.26 229.023 326.353 231.17 325.52C231.86 325.25 236.17 323.17 236.3 324.52C236.36 325.22 235.18 325.77 234.72 326.11C233.85 326.75 232.98 327.39 232.08 328C230.247 329.248 228.325 330.361 226.33 331.33C224.15 332.33 226.05 335.61 228.22 334.57V334.56Z" fill="#0000FF"/>
<path d="M210.02 333.14C207.181 341.704 206.036 350.739 206.65 359.74C206.79 362.14 210.54 362.16 210.4 359.74C209.799 351.074 210.899 342.373 213.64 334.13C214.45 331.85 210.82 330.87 210.02 333.13V333.14Z" fill="#0000FF"/>
<path d="M224.99 326.84C224.071 330.374 224.236 334.103 225.463 337.543C226.69 340.983 228.922 343.974 231.87 346.13C234.779 348.12 238.157 349.316 241.67 349.6C245.1 350.02 248.87 349.94 251.99 351.6C253.576 352.481 254.879 353.795 255.746 355.389C256.614 356.982 257.01 358.79 256.89 360.6C256.76 363.01 260.51 363 260.64 360.6C260.8 357.176 259.644 353.82 257.41 351.22C255.085 348.663 251.92 347.024 248.49 346.6C244.94 346.01 241.24 346.13 237.8 344.99C234.373 343.838 231.514 341.423 229.806 338.236C228.098 335.049 227.671 331.331 228.61 327.84C229.21 325.5 225.61 324.5 224.99 326.84Z" fill="#0000FF"/>
<path d="M103.75 251.48C88.92 262.91 75.36 275.92 61.14 288.08C57.59 291.08 54.02 294.08 50.33 296.97C49.9215 297.241 49.6266 297.652 49.5012 298.126C49.3759 298.599 49.4288 299.103 49.65 299.54C49.9042 299.967 50.3165 300.277 50.7975 300.402C51.2785 300.528 51.7896 300.459 52.22 300.21C67.05 288.78 80.61 275.76 94.83 263.6C98.37 260.6 101.95 257.6 105.64 254.71C106.057 254.449 106.358 254.039 106.483 253.563C106.607 253.087 106.546 252.582 106.31 252.15C106.186 251.938 106.021 251.752 105.826 251.604C105.63 251.455 105.407 251.347 105.169 251.284C104.931 251.222 104.683 251.207 104.44 251.241C104.197 251.274 103.962 251.356 103.75 251.48Z" fill="#0000FF"/>
<path d="M80.75 331.74C90.54 324.46 99.75 316.44 109.05 308.55C118.35 300.66 127.39 292.75 137.1 285.55L160.29 268.35C160.707 268.089 161.008 267.679 161.133 267.203C161.257 266.727 161.196 266.222 160.96 265.79C160.709 265.362 160.3 265.05 159.82 264.923C159.341 264.795 158.83 264.863 158.4 265.11C146.76 273.75 134.92 282.17 123.71 291.36C113.65 299.61 103.84 308.18 93.84 316.52C88.93 320.61 83.99 324.69 78.84 328.52C78.4332 328.792 78.1403 329.204 78.0168 329.678C77.8934 330.151 77.9479 330.654 78.17 331.09C78.426 331.515 78.8382 331.823 79.3185 331.949C79.7988 332.074 80.309 332.006 80.74 331.76L80.75 331.74Z" fill="#0000FF"/>
<path d="M57.13 308.7C55.9219 307.167 54.9138 305.487 54.13 303.7C53.7927 302.961 53.4989 302.203 53.25 301.43C53.15 301.11 53.06 300.79 52.98 300.43C52.98 300.32 52.98 300.02 52.87 299.94C52.87 299.69 52.74 299.75 52.51 300.13C52.07 300.34 52.04 300.46 52.41 300.5C52.9748 300.824 53.5631 301.104 54.17 301.34C54.98 301.8 55.75 302.34 56.51 302.84C57.8565 303.836 59.1115 304.951 60.26 306.17C63.6369 309.594 66.809 313.213 69.76 317.01C71.23 318.91 72.64 320.87 74 322.86C75.4231 324.695 76.675 326.656 77.74 328.72C77.8201 328.915 77.8869 329.116 77.94 329.32C78 329.57 78.03 329.26 78.04 329.26C77.585 329.105 77.159 328.875 76.78 328.58C75.8304 328.03 74.9092 327.433 74.02 326.79C72.2545 325.48 70.7056 323.901 69.43 322.11C69.1673 321.695 68.7571 321.395 68.282 321.271C67.8069 321.146 67.3023 321.207 66.87 321.44C66.4428 321.694 66.1329 322.106 66.0075 322.587C65.8821 323.068 65.9513 323.58 66.2 324.01C67.7319 326.173 69.5829 328.092 71.69 329.7C73.6 331.15 76.59 333.6 79.16 332.89C82.42 331.98 81.86 328.29 80.54 326.07C78.94 323.4 77.18 320.81 75.36 318.28C71.6334 313.116 67.5288 308.236 63.08 303.68C61.4838 302.018 59.725 300.521 57.83 299.21C56.15 298.07 53.64 296.27 51.5 296.8C45.44 298.29 52.58 309.01 54.5 311.33C54.8535 311.677 55.3293 311.872 55.825 311.872C56.3207 311.872 56.7965 311.677 57.15 311.33C57.4928 310.974 57.6843 310.499 57.6843 310.005C57.6843 309.511 57.4928 309.036 57.15 308.68L57.13 308.7Z" fill="#0000FF"/>
<path d="M71.54 315.95C68.8149 317.876 66.5953 320.432 65.07 323.4C63.9123 325.999 63.2639 328.797 63.16 331.64C62.9199 334.596 62.94 337.568 63.22 340.52C63.3974 342.297 63.9098 344.024 64.73 345.61C65.6412 347.115 66.8168 348.443 68.2 349.53C69.7208 350.727 70.9944 352.208 71.95 353.89C72.8394 355.664 73.2529 357.638 73.15 359.62C73.06 362.03 76.81 362.02 76.9 359.62C76.9789 357.474 76.6017 355.336 75.7932 353.347C74.9848 351.358 73.7635 349.563 72.21 348.08C70.69 346.65 68.85 345.46 67.88 343.55C67.072 341.714 66.7055 339.714 66.81 337.71C66.81 334.48 66.66 331.13 67.42 327.96C68.33 324.421 70.4534 321.314 73.42 319.18C73.835 318.917 74.1349 318.507 74.2592 318.032C74.3836 317.557 74.3231 317.052 74.09 316.62C73.8377 316.191 73.4254 315.879 72.9436 315.754C72.4618 315.628 71.9498 315.699 71.52 315.95H71.54Z" fill="#0000FF"/>
<path d="M63.31 305.38C54.09 308.01 45.87 313.9 38.09 319.3C36.09 320.67 37.99 323.92 39.98 322.54C43.82 319.88 47.68 317.26 51.69 314.88C55.6237 312.381 59.866 310.404 64.31 309C66.62 308.34 65.64 304.72 63.31 305.38Z" fill="#0000FF"/>
<path d="M61.06 359.12L53.74 340.76C51.5 335.15 49.46 329.25 45.91 324.31C44.37 322.18 42.23 318.98 39.24 319.22C36.25 319.46 34.58 322.78 34.24 325.51C33.89 328.45 34.69 331.45 35.43 334.27C37.9836 343.703 42.017 352.671 47.38 360.84C48.72 362.84 51.97 360.95 50.62 358.94C44.6926 350.185 40.5095 340.369 38.3 330.03C37.9 328.03 37.3 324.77 39.04 323.24C39.88 322.48 40.56 323.63 41.13 324.24C42.0018 325.221 42.7975 326.268 43.51 327.37C46.38 331.8 48.18 336.83 50.13 341.71L57.45 360.06C57.5943 360.533 57.9142 360.932 58.3439 361.175C58.7737 361.419 59.2805 361.489 59.76 361.37C60.2375 361.237 60.6431 360.92 60.8884 360.49C61.1337 360.059 61.199 359.549 61.07 359.07L61.06 359.12Z" fill="#0000FF"/>
<path d="M107.99 362.65H24.89C24.4259 362.65 23.9808 362.466 23.6526 362.137C23.3244 361.809 23.14 361.364 23.14 360.9C23.14 360.436 23.3244 359.991 23.6526 359.662C23.9808 359.334 24.4259 359.15 24.89 359.15H107.99C108.454 359.15 108.899 359.334 109.227 359.662C109.556 359.991 109.74 360.436 109.74 360.9C109.74 361.364 109.556 361.809 109.227 362.137C108.899 362.466 108.454 362.65 107.99 362.65Z" fill="#0000FF"/>
<path d="M296.38 362.65H179.76C179.296 362.65 178.851 362.466 178.523 362.137C178.194 361.809 178.01 361.364 178.01 360.9C178.01 360.436 178.194 359.991 178.523 359.662C178.851 359.334 179.296 359.15 179.76 359.15H296.38C296.844 359.15 297.289 359.334 297.617 359.662C297.946 359.991 298.13 360.436 298.13 360.9C298.13 361.364 297.946 361.809 297.617 362.137C297.289 362.466 296.844 362.65 296.38 362.65Z" fill="#0000FF"/>
<path d="M105.55 108.33C114.432 98.6321 124.073 89.657 134.38 81.4901C138.55 78.2001 143.88 73.4901 149.65 74.6401C150.726 74.7861 151.748 75.2006 152.622 75.8455C153.496 76.4904 154.193 77.3448 154.65 78.3301C155.73 81.0501 154.57 84.2601 153.5 86.8001C150.672 93.4652 146.973 99.7263 142.5 105.42C142.162 105.778 141.973 106.252 141.973 106.745C141.973 107.238 142.162 107.712 142.5 108.07C142.852 108.42 143.329 108.616 143.825 108.616C144.322 108.616 144.798 108.42 145.15 108.07C149.629 102.421 153.4 96.245 156.38 89.6801C157.75 86.5901 159.12 83.2501 158.83 79.8001C158.727 78.3454 158.287 76.9346 157.544 75.6797C156.801 74.4247 155.776 73.3601 154.55 72.5701C148.94 68.9101 142.13 71.3101 137.12 74.7901C131.325 78.9458 125.788 83.4508 120.54 88.2801C114.38 93.7821 108.499 99.5894 102.92 105.68C101.29 107.46 103.92 110.12 105.57 108.33H105.55Z" fill="#0000FF"/>
<path d="M171.2 107.27C171.86 99.122 171.585 90.9253 170.38 82.8399C169.84 79.4 168.75 75.9399 166.29 73.3699C163.894 71.0142 160.786 69.5165 157.45 69.11C153.138 68.5251 148.749 69.2571 144.86 71.2099C142.68 72.2099 144.58 75.5 146.75 74.45C150.464 72.5835 154.733 72.1424 158.75 73.2099C160.487 73.6682 162.073 74.5773 163.346 75.8451C164.619 77.113 165.534 78.6946 166 80.4299C167.2 84.4299 167.4 88.8599 167.61 93.0199C167.853 97.7788 167.797 102.548 167.44 107.3C167.26 109.7 171.01 109.69 171.19 107.3L171.2 107.27Z" fill="#0000FF"/>
<path d="M164.94 77.0501C177.972 86.2783 190.094 96.729 201.14 108.26C202.81 110.01 205.46 107.35 203.79 105.61C192.499 93.8546 180.109 83.2061 166.79 73.8101C164.79 72.4101 162.94 75.6601 164.89 77.0501H164.94Z" fill="#0000FF"/>
<path d="M281.84 173.19C286.25 167.19 289.39 159.75 289.46 152.19C289.496 148.776 288.784 145.395 287.375 142.286C285.965 139.176 283.892 136.413 281.3 134.19C276.22 130.01 268.11 127.8 262.48 132.28C261.136 133.424 260.093 134.88 259.443 136.52C258.793 138.161 258.555 139.936 258.75 141.69C259.197 145.393 260.865 148.841 263.49 151.49C266.49 154.77 270.36 157.08 273.79 159.89C275.252 161.017 276.593 162.294 277.79 163.7C278.539 164.841 278.977 166.158 279.06 167.52C279.193 168.002 279.512 168.412 279.947 168.66C280.382 168.907 280.897 168.972 281.38 168.84C281.852 168.698 282.251 168.38 282.495 167.952C282.739 167.524 282.808 167.018 282.69 166.54C282.404 164.07 281.273 161.774 279.49 160.04C276.914 157.627 274.175 155.394 271.29 153.36C266.66 149.9 260.51 144.36 262.9 137.86C265.14 131.72 273.38 133.26 277.59 136.1C279.911 137.754 281.836 139.901 283.228 142.387C284.62 144.873 285.444 147.637 285.64 150.48C286.14 157.93 282.92 165.39 278.58 171.29C278.456 171.502 278.375 171.737 278.341 171.98C278.307 172.223 278.322 172.471 278.384 172.709C278.447 172.947 278.555 173.17 278.704 173.366C278.852 173.561 279.038 173.726 279.25 173.85C279.681 174.091 280.188 174.155 280.665 174.03C281.142 173.905 281.552 173.601 281.81 173.18L281.84 173.19Z" fill="#0000FF"/>
<path d="M35.79 202.84C31.36 208.84 28.72 216.14 29.31 223.67C29.5274 227.031 30.4617 230.307 32.0503 233.277C33.6389 236.247 35.8449 238.843 38.52 240.89C43.65 244.71 51.89 246.22 56.94 241.4C58.1372 240.162 59.0311 238.664 59.5516 237.022C60.0722 235.381 60.2051 233.641 59.94 231.94C59.33 228.264 57.5439 224.885 54.85 222.31C51.85 219.21 48.12 216.97 44.85 214.22C43.2518 213.03 41.8943 211.547 40.85 209.85C40.0157 208.211 39.4806 206.437 39.27 204.61C39.1346 204.132 38.8162 203.726 38.3838 203.481C37.9515 203.236 37.4399 203.171 36.96 203.3C36.4875 203.444 36.0883 203.764 35.8445 204.194C35.6008 204.624 35.5312 205.13 35.65 205.61C36.0439 208.692 37.2751 211.608 39.21 214.04C41.38 216.67 44.37 218.62 47.09 220.64C51.7 224.07 57.76 229.18 56.09 235.71C54.48 241.82 46.82 241.4 42.38 238.9C39.9939 237.457 37.9521 235.51 36.3974 233.196C34.8428 230.881 33.8129 228.254 33.38 225.5C32.06 218.04 34.74 210.69 39.12 204.73C39.2443 204.518 39.3255 204.283 39.3591 204.04C39.3926 203.796 39.3779 203.549 39.3156 203.311C39.2534 203.073 39.1449 202.85 38.9964 202.654C38.8479 202.458 38.6622 202.294 38.45 202.17C38.0193 201.929 37.5123 201.865 37.0352 201.99C36.558 202.115 36.1476 202.419 35.89 202.84H35.79Z" fill="#0000FF"/>
<path d="M182.69 32.8401C177.318 35.8881 172.231 39.4122 167.49 43.3701C167.212 43.6526 167.055 44.0334 167.055 44.4301C167.055 44.8268 167.212 45.2076 167.49 45.4901C167.775 45.7639 168.155 45.9168 168.55 45.9168C168.945 45.9168 169.325 45.7639 169.61 45.4901C174.165 41.7061 179.052 38.3392 184.21 35.4301C184.553 35.2285 184.803 34.8988 184.903 34.5134C185.003 34.128 184.947 33.7186 184.745 33.3751C184.543 33.0316 184.214 32.7823 183.828 32.682C183.443 32.5817 183.033 32.6385 182.69 32.8401Z" fill="#0000FF"/>
<path d="M169.01 43.5401C164.5 40.4801 158.07 38.3101 153.35 42.2101C152.336 43.0307 151.554 44.1015 151.081 45.3168C150.607 46.5321 150.459 47.8499 150.65 49.1401C151.11 52.1401 153.21 54.4201 155.23 56.5101C156.58 57.9001 158.7 55.7801 157.35 54.3901C155.82 52.8001 154.14 51.1201 153.65 48.8901C153.48 48.021 153.568 47.1212 153.904 46.3019C154.24 45.4826 154.809 44.7797 155.54 44.2801C159.26 41.5601 164.2 43.8901 167.54 46.1301C169.14 47.2101 170.64 44.6201 169.05 43.5401H169.01Z" fill="#0000FF"/>
<path d="M150.7 72.17C153.27 66.8529 155.554 61.4017 157.54 55.84C157.599 55.6483 157.619 55.4465 157.599 55.2468C157.579 55.0471 157.519 54.8535 157.423 54.6774C157.327 54.5013 157.196 54.3463 157.039 54.2216C156.881 54.097 156.701 54.0051 156.507 53.9516C156.314 53.898 156.111 53.8839 155.912 53.9099C155.713 53.9359 155.522 54.0016 155.348 54.1031C155.175 54.2046 155.024 54.3398 154.904 54.5008C154.784 54.6617 154.698 54.8451 154.65 55.04C152.748 60.3524 150.565 65.5597 148.11 70.64C147.918 70.9853 147.867 71.3916 147.967 71.7737C148.068 72.1559 148.313 72.4842 148.65 72.6901C148.994 72.8874 149.402 72.9413 149.786 72.8403C150.169 72.7392 150.498 72.4913 150.7 72.15V72.17Z" fill="#0000FF"/>
<path d="M182.95 35.6501C182.59 42.3201 186.1 49.3801 192.1 52.5501C193.81 53.4501 195.32 50.86 193.61 49.96C188.49 47.26 185.61 41.3301 185.95 35.6501C186.05 33.7201 183.05 33.7301 182.95 35.6501Z" fill="#0000FF"/>
<path d="M191.63 50.9399C191.405 51.1726 191.168 51.3929 190.92 51.5999C190.92 51.5999 190.77 51.6899 190.76 51.7399C190.75 51.7899 190.98 51.5699 190.81 51.7399L190.41 52.0099C189.871 52.3561 189.306 52.6603 188.72 52.9199H188.65H188.58L188.14 53.0899L187.24 53.3899C186.66 53.5699 186.08 53.7299 185.48 53.8699C185.107 53.9851 184.794 54.241 184.607 54.5832C184.42 54.9255 184.373 55.3273 184.477 55.7033C184.581 56.0792 184.828 56.3999 185.164 56.5972C185.501 56.7944 185.901 56.8528 186.28 56.7599C189 56.1099 191.78 55.0999 193.75 53.0399C194.015 52.7556 194.159 52.3795 194.152 51.9909C194.146 51.6023 193.988 51.2315 193.713 50.9567C193.438 50.6819 193.068 50.5244 192.679 50.5176C192.29 50.5107 191.914 50.655 191.63 50.9199V50.9399Z" fill="#0000FF"/>
<path d="M161.56 59.7799C165.21 65.0599 171.02 69.0899 177.69 68.1699C179.174 67.9808 180.604 67.4957 181.897 66.7435C183.189 65.9912 184.318 64.9869 185.215 63.7904C186.112 62.5938 186.76 61.2293 187.12 59.7777C187.48 58.3261 187.544 56.817 187.31 55.3399C186.99 53.4399 184.1 54.2499 184.42 56.1399C185.25 60.9499 181.13 64.9999 176.55 65.2899C171.38 65.6099 166.97 62.3499 164.16 58.2899C163.07 56.7099 160.47 58.1999 161.56 59.7999V59.7799Z" fill="#0000FF"/>
<path d="M164.73 63.1001C164.641 67.5454 164.798 71.9921 165.2 76.4201C165.213 76.814 165.375 77.1883 165.653 77.4669C165.932 77.7455 166.306 77.9076 166.7 77.9201C167.097 77.9175 167.477 77.7586 167.758 77.4779C168.039 77.1971 168.197 76.8171 168.2 76.4201C167.798 71.9921 167.641 67.5454 167.73 63.1001C167.73 62.7023 167.572 62.3207 167.291 62.0394C167.009 61.7581 166.628 61.6001 166.23 61.6001C165.832 61.6001 165.451 61.7581 165.169 62.0394C164.888 62.3207 164.73 62.7023 164.73 63.1001Z" fill="#0000FF"/>
<path d="M185.95 34.99C185.854 31.914 185.04 28.903 183.573 26.1978C182.106 23.4925 180.026 21.168 177.5 19.41C174.659 17.5653 171.456 16.3511 168.106 15.8491C164.756 15.3471 161.337 15.5691 158.08 16.5C151.615 18.4115 145.957 22.3962 141.98 27.84C139.82 30.67 137.98 33.74 135.88 36.62C129.565 45.2868 120.159 51.1943 109.61 53.12C107.71 53.48 108.52 56.37 110.41 56.02C116.434 54.8821 122.16 52.5164 127.23 49.07C132.395 45.4522 136.81 40.8677 140.23 35.57C143.96 30.06 147.62 24.76 153.59 21.49C156.355 19.925 159.424 18.9698 162.589 18.6886C165.754 18.4075 168.942 18.8069 171.94 19.86C175.066 20.9969 177.782 23.0397 179.741 25.7275C181.701 28.4153 182.814 31.6262 182.94 34.95C183 36.88 186 36.89 185.94 34.95L185.95 34.99Z" fill="#0000FF"/>
<path d="M108.87 56.5C121.127 63.1401 134.3 67.9287 147.96 70.71C149.85 71.1 150.65 68.21 148.76 67.82C135.35 65.1048 122.416 60.4172 110.38 53.91C108.68 52.99 107.17 55.58 108.87 56.5Z" fill="#0000FF"/>
<path d="M166.5 75.91C176.305 79.5064 186.833 80.683 197.19 79.34C197.681 79.325 198.148 79.1231 198.496 78.7756C198.843 78.4281 199.045 77.9612 199.06 77.47C199.06 76.56 198.2 75.47 197.19 75.59C187.172 76.9165 176.982 75.7839 167.5 72.29C165.23 71.46 164.25 75.08 166.5 75.91Z" fill="#0000FF"/>
<path d="M198.77 75.4499C194.408 70.9709 190.567 66.0127 187.32 60.6699C186.05 58.6699 182.8 60.5099 184.08 62.5599C187.483 68.1747 191.508 73.3877 196.08 78.0999C197.78 79.8199 200.44 77.1599 198.73 75.4499H198.77Z" fill="#0000FF"/>
<path d="M150.98 23.9C157.58 23.9 162.93 18.5498 162.93 11.95C162.93 5.35019 157.58 0 150.98 0C144.38 0 139.03 5.35019 139.03 11.95C139.03 18.5498 144.38 23.9 150.98 23.9Z" fill="#1700FF"/>
<path d="M79.18 142.84L48.38 185.5C48.1339 185.931 48.0662 186.441 48.1914 186.921C48.3166 187.402 48.6248 187.814 49.05 188.07C49.4834 188.31 49.9928 188.373 50.4717 188.247C50.9507 188.12 51.3621 187.813 51.62 187.39L82.38 144.73C82.6288 144.3 82.6979 143.788 82.5725 143.307C82.4471 142.826 82.1372 142.414 81.71 142.16C81.2788 141.922 80.7726 141.859 80.2962 141.983C79.8197 142.108 79.4094 142.411 79.15 142.83L79.18 142.84Z" fill="#0000FF"/>
<path d="M47.91 186.84L47.71 200.04C47.6912 200.298 47.7257 200.557 47.8114 200.8C47.8971 201.044 48.0321 201.268 48.2081 201.457C48.384 201.646 48.5971 201.797 48.834 201.901C49.0709 202.004 49.3266 202.057 49.585 202.057C49.8434 202.057 50.0991 202.004 50.336 201.901C50.5729 201.797 50.786 201.646 50.962 201.457C51.1379 201.268 51.273 201.044 51.3587 200.8C51.4443 200.557 51.4789 200.298 51.46 200.04L51.66 186.84C51.6788 186.582 51.6443 186.323 51.5587 186.08C51.473 185.836 51.3379 185.612 51.162 185.423C50.986 185.234 50.7729 185.083 50.536 184.98C50.2991 184.876 50.0434 184.823 49.785 184.823C49.5266 184.823 49.2709 184.876 49.034 184.98C48.7971 185.083 48.584 185.234 48.4081 185.423C48.2321 185.612 48.0971 185.836 48.0114 186.08C47.9257 186.323 47.8912 186.582 47.91 186.84Z" fill="#0000FF"/>
<path d="M49.79 202.3C61.85 203.013 73.92 203.217 86 202.91C88.41 202.84 88.42 199.09 86 199.16C73.9333 199.48 61.8634 199.277 49.79 198.55C47.38 198.4 47.39 202.15 49.79 202.3Z" fill="#0000FF"/>
<path d="M84.13 201.03L84.73 214.67C84.7646 215.144 84.9772 215.587 85.325 215.91C85.6728 216.233 86.1301 216.413 86.605 216.413C87.0799 216.413 87.5372 216.233 87.885 215.91C88.2328 215.587 88.4454 215.144 88.48 214.67L87.88 201.03C87.8672 200.536 87.6648 200.066 87.3147 199.718C86.9646 199.37 86.4937 199.17 86 199.16C85.5049 199.163 85.0307 199.36 84.6806 199.711C84.3305 200.061 84.1326 200.535 84.13 201.03Z" fill="#0000FF"/>
<path d="M86.55 216.52L107.74 216.23C110.15 216.23 110.16 212.45 107.74 212.48L86.55 212.77C84.14 212.77 84.13 216.55 86.55 216.52Z" fill="#0000FF"/>
<path d="M109.58 214.12L109.25 202.12C109.269 201.862 109.234 201.603 109.149 201.36C109.063 201.116 108.928 200.892 108.752 200.703C108.576 200.514 108.363 200.363 108.126 200.26C107.889 200.156 107.633 200.103 107.375 200.103C107.117 200.103 106.861 200.156 106.624 200.26C106.387 200.363 106.174 200.514 105.998 200.703C105.822 200.892 105.687 201.116 105.601 201.36C105.516 201.603 105.481 201.862 105.5 202.12L105.83 214.12C105.811 214.378 105.846 214.637 105.931 214.88C106.017 215.124 106.152 215.348 106.328 215.537C106.504 215.726 106.717 215.877 106.954 215.981C107.191 216.084 107.447 216.137 107.705 216.137C107.963 216.137 108.219 216.084 108.456 215.981C108.693 215.877 108.906 215.726 109.082 215.537C109.258 215.348 109.393 215.124 109.479 214.88C109.564 214.637 109.599 214.378 109.58 214.12Z" fill="#0000FF"/>
<path d="M107.54 203.37L117.75 202.68C118.008 202.699 118.267 202.664 118.51 202.579C118.754 202.493 118.978 202.358 119.167 202.182C119.356 202.006 119.507 201.793 119.61 201.556C119.714 201.319 119.767 201.063 119.767 200.805C119.767 200.547 119.714 200.291 119.61 200.054C119.507 199.817 119.356 199.604 119.167 199.428C118.978 199.252 118.754 199.117 118.51 199.031C118.267 198.946 118.008 198.911 117.75 198.93L107.54 199.62C107.066 199.655 106.623 199.867 106.3 200.215C105.977 200.563 105.797 201.02 105.797 201.495C105.797 201.97 105.977 202.427 106.3 202.775C106.623 203.123 107.066 203.335 107.54 203.37Z" fill="#0000FF"/>
<path d="M120.01 200.92L120.31 186.03C120.36 183.62 116.61 183.62 116.56 186.03L116.26 200.92C116.21 203.33 119.96 203.33 120.01 200.92Z" fill="#0000FF"/>
<path d="M108.07 187.46L117.65 187.78C117.908 187.799 118.167 187.764 118.41 187.679C118.654 187.593 118.878 187.458 119.067 187.282C119.256 187.106 119.407 186.893 119.51 186.656C119.614 186.419 119.667 186.163 119.667 185.905C119.667 185.647 119.614 185.391 119.51 185.154C119.407 184.917 119.256 184.704 119.067 184.528C118.878 184.352 118.654 184.217 118.41 184.131C118.167 184.046 117.908 184.011 117.65 184.03L108.07 183.71C107.575 183.715 107.101 183.913 106.75 184.263C106.399 184.612 106.198 185.085 106.19 185.58C106.2 186.075 106.402 186.548 106.752 186.898C107.102 187.248 107.575 187.45 108.07 187.46Z" fill="#0000FF"/>
<path d="M109.73 185.32L109.89 173.64C109.885 173.145 109.686 172.671 109.337 172.32C108.988 171.969 108.515 171.768 108.02 171.76C107.525 171.77 107.052 171.972 106.702 172.322C106.352 172.672 106.15 173.145 106.14 173.64L105.98 185.32C105.985 185.815 106.183 186.289 106.533 186.64C106.882 186.991 107.355 187.192 107.85 187.2C108.345 187.19 108.818 186.988 109.168 186.638C109.518 186.288 109.72 185.815 109.73 185.32Z" fill="#0000FF"/>
<path d="M107.56 171.54L88.29 171.1C85.87 171.04 85.88 174.79 88.29 174.85L107.56 175.29C109.97 175.34 109.97 171.59 107.56 171.54Z" fill="#0000FF"/>
<path d="M86.38 172.97C86.33 176.77 86.11 180.56 86.06 184.36C86.0626 184.855 86.2605 185.329 86.6106 185.679C86.9607 186.03 87.4349 186.227 87.93 186.23C88.4245 186.222 88.8968 186.023 89.2474 185.674C89.598 185.326 89.7997 184.855 89.81 184.36C89.81 180.56 90.08 176.77 90.13 172.97C90.1274 172.475 89.9295 172.001 89.5794 171.651C89.2293 171.301 88.7552 171.103 88.26 171.1C87.7655 171.108 87.2933 171.307 86.9426 171.656C86.592 172.004 86.3903 172.476 86.38 172.97Z" fill="#0000FF"/>
<path d="M73 187.07L88 186.69C90.41 186.64 90.42 182.88 88 182.94L73 183.32C70.59 183.38 70.58 187.13 73 187.07Z" fill="#0000FF"/>
<path d="M74.56 185.92C84.36 172.773 93.6333 159.263 102.38 145.39C103.68 143.34 100.43 141.45 99.15 143.49C90.4033 157.357 81.13 170.87 71.33 184.03C71.0817 184.459 71.0128 184.969 71.1383 185.448C71.2638 185.927 71.5734 186.338 72 186.59C72.4306 186.831 72.9376 186.895 73.4148 186.77C73.892 186.645 74.3023 186.341 74.56 185.92Z" fill="#0000FF"/>
<path d="M81.16 145.66L101.03 145.58C103.44 145.58 103.45 141.82 101.03 141.83L81.16 141.91C78.74 141.91 78.74 145.67 81.16 145.66Z" fill="#0000FF"/>
<path d="M144.19 178.27C144.19 185.8 143.58 195.44 150.68 200.27C152.334 201.345 154.259 201.928 156.231 201.951C158.203 201.974 160.142 201.436 161.82 200.4C165.13 198.33 167.23 194.77 168.36 191.11C169.77 186.52 169.5 181.77 169.49 177.04C169.455 176.566 169.243 176.123 168.895 175.8C168.547 175.477 168.09 175.297 167.615 175.297C167.14 175.297 166.683 175.477 166.335 175.8C165.987 176.123 165.775 176.566 165.74 177.04C165.74 183.44 166.36 191.04 161.37 196.04C160.361 197.119 159.03 197.843 157.577 198.106C156.123 198.369 154.623 198.157 153.3 197.5C150.59 196.04 149.23 193.12 148.55 190.25C147.63 186.37 147.92 182.25 147.94 178.34C147.94 175.92 144.21 175.92 144.19 178.34V178.27Z" fill="#0000FF"/>
<path d="M147.92 179.26C148.07 173.4 146.92 164.95 152.44 160.96C153.612 160.123 155.023 159.684 156.463 159.709C157.904 159.735 159.298 160.222 160.44 161.1C162.96 162.99 164.34 166.1 165.06 169.1C166 172.98 165.65 176.94 165.71 180.89C165.71 183.3 169.5 183.31 169.46 180.89C169.4 176.72 169.69 172.58 168.76 168.47C167.93 164.78 166.17 161 163.19 158.55C161.683 157.244 159.838 156.391 157.867 156.088C155.896 155.786 153.879 156.046 152.05 156.84C148.7 158.33 146.51 161.6 145.4 164.98C143.88 169.58 144.29 174.47 144.17 179.22C144.11 181.64 147.86 181.64 147.92 179.22V179.26Z" fill="#0000FF"/>
<path d="M157.1 217.15C154.093 217.139 151.095 216.804 148.16 216.15C139.87 214.33 133.53 209.04 129.33 200.43C126.371 193.949 124.69 186.958 124.38 179.84C124.38 179.43 124.38 179.03 124.38 178.62C124.12 161.38 133.44 148.52 142.77 144.72C143.477 144.436 144.198 144.189 144.93 143.98C154.14 141.33 167.34 140.9 176.77 147.62C188.08 155.68 191.77 170.62 188.08 193.41C187.526 197.067 186.215 200.567 184.229 203.688C182.244 206.808 179.628 209.479 176.55 211.53C170.778 215.314 164.001 217.272 157.1 217.15ZM157.6 145.71C153.614 145.711 149.647 146.26 145.81 147.34C145.2 147.52 144.59 147.73 144.01 147.96C133.25 152.34 127.63 166.96 127.8 178.57C127.8 178.93 127.8 179.3 127.8 179.66C129.16 206.38 144.27 211.74 148.87 212.75C158.26 214.81 167.59 213.31 174.46 208.64C177.15 206.855 179.438 204.527 181.175 201.806C182.913 199.085 184.062 196.031 184.55 192.84C188.01 171.54 184.78 157.68 174.66 150.47C169.76 146.98 163.53 145.71 157.6 145.71Z" fill="#1700FF"/>
<path d="M224.38 142.1L192.95 187.1C191.56 189.1 194.81 190.96 196.19 189L227.62 144C229 142 225.75 140.14 224.38 142.11V142.1Z" fill="#0000FF"/>
<path d="M192.57 188.42L192.74 200.79C192.721 201.048 192.756 201.307 192.841 201.55C192.927 201.794 193.062 202.018 193.238 202.207C193.414 202.396 193.627 202.547 193.864 202.65C194.101 202.754 194.356 202.807 194.615 202.807C194.873 202.807 195.129 202.754 195.366 202.65C195.603 202.547 195.816 202.396 195.992 202.207C196.168 202.018 196.303 201.794 196.389 201.55C196.474 201.307 196.509 201.048 196.49 200.79L196.32 188.42C196.285 187.946 196.073 187.503 195.725 187.18C195.377 186.857 194.92 186.677 194.445 186.677C193.97 186.677 193.513 186.857 193.165 187.18C192.817 187.503 192.605 187.946 192.57 188.42Z" fill="#0000FF"/>
<path d="M194.61 202.67C207.01 202.89 219.4 203 231.8 203.22C234.21 203.22 234.21 199.51 231.8 199.47C219.4 199.25 207.01 199.14 194.61 198.92C192.2 198.92 192.2 202.63 194.61 202.67Z" fill="#0000FF"/>
<path d="M229.92 201.76L230.13 215.55C230.111 215.808 230.146 216.067 230.231 216.31C230.317 216.554 230.452 216.778 230.628 216.967C230.804 217.156 231.017 217.307 231.254 217.411C231.491 217.514 231.747 217.567 232.005 217.567C232.263 217.567 232.519 217.514 232.756 217.411C232.993 217.307 233.206 217.156 233.382 216.967C233.558 216.778 233.693 216.554 233.779 216.31C233.864 216.067 233.899 215.808 233.88 215.55L233.67 201.76C233.635 201.286 233.423 200.843 233.075 200.52C232.727 200.197 232.27 200.017 231.795 200.017C231.32 200.017 230.863 200.197 230.515 200.52C230.167 200.843 229.955 201.286 229.92 201.76Z" fill="#0000FF"/>
<path d="M232.25 217.46C238.804 218.1 245.406 218.1 251.96 217.46C252.453 217.447 252.922 217.247 253.272 216.899C253.622 216.551 253.825 216.083 253.84 215.59C253.837 215.092 253.638 214.616 253.286 214.264C252.934 213.912 252.458 213.713 251.96 213.71C245.406 214.35 238.804 214.35 232.25 213.71C231.754 213.715 231.28 213.915 230.93 214.267C230.58 214.619 230.383 215.094 230.38 215.59C230.39 216.083 230.591 216.552 230.939 216.901C231.288 217.249 231.757 217.45 232.25 217.46Z" fill="#0000FF"/>
<path d="M253.84 215.63L253.98 202.63C253.999 202.372 253.964 202.113 253.879 201.87C253.793 201.626 253.658 201.402 253.482 201.213C253.306 201.024 253.093 200.873 252.856 200.77C252.619 200.666 252.363 200.613 252.105 200.613C251.847 200.613 251.591 200.666 251.354 200.77C251.117 200.873 250.904 201.024 250.728 201.213C250.552 201.402 250.417 201.626 250.331 201.87C250.246 202.113 250.211 202.372 250.23 202.63L250.09 215.63C250.125 216.104 250.337 216.547 250.685 216.87C251.033 217.193 251.49 217.373 251.965 217.373C252.44 217.373 252.897 217.193 253.245 216.87C253.593 216.547 253.805 216.104 253.84 215.63Z" fill="#0000FF"/>
<path d="M252.2 203.78L262.14 203.38C262.398 203.399 262.657 203.364 262.9 203.279C263.144 203.193 263.368 203.058 263.557 202.882C263.746 202.706 263.897 202.493 264.001 202.256C264.104 202.019 264.157 201.763 264.157 201.505C264.157 201.247 264.104 200.991 264.001 200.754C263.897 200.517 263.746 200.304 263.557 200.128C263.368 199.952 263.144 199.817 262.9 199.731C262.657 199.646 262.398 199.611 262.14 199.63L252.2 200.03C251.942 200.011 251.683 200.046 251.44 200.131C251.196 200.217 250.972 200.352 250.783 200.528C250.594 200.704 250.443 200.917 250.34 201.154C250.236 201.391 250.183 201.647 250.183 201.905C250.183 202.163 250.236 202.419 250.34 202.656C250.443 202.893 250.594 203.106 250.783 203.282C250.972 203.458 251.196 203.593 251.44 203.679C251.683 203.764 251.942 203.799 252.2 203.78Z" fill="#0000FF"/>
<path d="M264.38 201.29C264.18 196.11 264.01 190.92 263.81 185.73C263.797 185.236 263.595 184.766 263.245 184.418C262.894 184.07 262.424 183.87 261.93 183.86C261.436 183.865 260.963 184.064 260.613 184.413C260.264 184.763 260.065 185.236 260.06 185.73C260.26 190.92 260.43 196.11 260.63 201.29C260.64 201.785 260.842 202.258 261.192 202.608C261.542 202.958 262.015 203.16 262.51 203.17C263.005 203.162 263.478 202.961 263.827 202.61C264.176 202.259 264.375 201.785 264.38 201.29Z" fill="#0000FF"/>
<path d="M261.92 183.84C258.987 183.76 256.057 183.76 253.13 183.84C252.656 183.875 252.213 184.087 251.89 184.435C251.567 184.783 251.387 185.24 251.387 185.715C251.387 186.19 251.567 186.647 251.89 186.995C252.213 187.343 252.656 187.555 253.13 187.59C256.057 187.51 258.987 187.51 261.92 187.59C262.178 187.609 262.437 187.574 262.68 187.489C262.924 187.403 263.148 187.268 263.337 187.092C263.526 186.916 263.677 186.703 263.78 186.466C263.884 186.229 263.937 185.973 263.937 185.715C263.937 185.457 263.884 185.201 263.78 184.964C263.677 184.727 263.526 184.514 263.337 184.338C263.148 184.162 262.924 184.027 262.68 183.941C262.437 183.856 262.178 183.821 261.92 183.84Z" fill="#0000FF"/>
<path d="M254.6 185.74L253.93 173.66C253.949 173.402 253.914 173.143 253.829 172.9C253.743 172.656 253.608 172.432 253.432 172.243C253.256 172.054 253.043 171.903 252.806 171.8C252.569 171.696 252.313 171.643 252.055 171.643C251.797 171.643 251.541 171.696 251.304 171.8C251.067 171.903 250.854 172.054 250.678 172.243C250.502 172.432 250.367 172.656 250.281 172.9C250.196 173.143 250.161 173.402 250.18 173.66L250.85 185.74C250.885 186.214 251.097 186.657 251.445 186.98C251.793 187.303 252.25 187.483 252.725 187.483C253.2 187.483 253.657 187.303 254.005 186.98C254.353 186.657 254.565 186.214 254.6 185.74Z" fill="#0000FF"/>
<path d="M252.08 171.67C245.771 170.951 239.407 170.857 233.08 171.39C232.588 171.403 232.12 171.604 231.772 171.952C231.424 172.3 231.223 172.768 231.21 173.26C231.215 173.755 231.413 174.229 231.763 174.58C232.112 174.931 232.585 175.132 233.08 175.14C239.407 174.607 245.771 174.701 252.08 175.42C252.577 175.42 253.054 175.223 253.406 174.873C253.758 174.523 253.957 174.047 253.96 173.55C253.947 173.055 253.745 172.585 253.395 172.235C253.045 171.885 252.575 171.683 252.08 171.67Z" fill="#0000FF"/>
<path d="M231.22 173.37L231.41 184.62C231.391 184.878 231.426 185.137 231.511 185.38C231.597 185.624 231.732 185.848 231.908 186.037C232.084 186.226 232.297 186.377 232.534 186.48C232.771 186.584 233.027 186.637 233.285 186.637C233.543 186.637 233.799 186.584 234.036 186.48C234.273 186.377 234.486 186.226 234.662 186.037C234.838 185.848 234.973 185.624 235.059 185.38C235.144 185.137 235.179 184.878 235.16 184.62L234.97 173.37C234.965 172.875 234.766 172.401 234.417 172.05C234.068 171.699 233.595 171.498 233.1 171.49C232.605 171.5 232.132 171.702 231.782 172.052C231.432 172.402 231.23 172.875 231.22 173.37Z" fill="#0000FF"/>
<path d="M232.93 183.03L218.31 183.18C215.9 183.18 215.89 186.95 218.31 186.93L232.93 186.78C235.34 186.78 235.35 183 232.93 183.03Z" fill="#0000FF"/>
<path d="M219.93 185.64C229.24 171.64 238.37 157.59 248.19 143.97C248.438 143.541 248.507 143.031 248.382 142.552C248.256 142.073 247.947 141.662 247.52 141.41C247.088 141.166 246.579 141.1 246.099 141.225C245.62 141.35 245.208 141.657 244.95 142.08C235.13 155.69 226 169.78 216.69 183.74C215.35 185.74 218.6 187.64 219.93 185.64Z" fill="#0000FF"/>
<path d="M225.92 144.71L246.57 144.9C248.98 144.9 248.99 141.17 246.57 141.15L225.92 140.96C223.51 140.96 223.51 144.69 225.92 144.71Z" fill="#0000FF"/>
<path d="M42.38 70.8401H1.75C1.28587 70.8401 0.840762 70.6557 0.512573 70.3275C0.184385 69.9993 0 69.5542 0 69.0901C0 68.626 0.184385 68.1808 0.512573 67.8526C0.840762 67.5245 1.28587 67.3401 1.75 67.3401H42.38C42.8441 67.3401 43.2893 67.5245 43.6174 67.8526C43.9456 68.1808 44.13 68.626 44.13 69.0901C44.13 69.5542 43.9456 69.9993 43.6174 70.3275C43.2893 70.6557 42.8441 70.8401 42.38 70.8401Z" fill="#0000FF"/>
<path d="M52.51 61.3H26.88C26.4159 61.3 25.9708 61.1157 25.6426 60.7875C25.3144 60.4593 25.13 60.0142 25.13 59.55C25.13 59.0859 25.3144 58.6408 25.6426 58.3126C25.9708 57.9844 26.4159 57.8 26.88 57.8H52.51C52.9741 57.8 53.4192 57.9844 53.7474 58.3126C54.0756 58.6408 54.26 59.0859 54.26 59.55C54.26 60.0142 54.0756 60.4593 53.7474 60.7875C53.4192 61.1157 52.9741 61.3 52.51 61.3Z" fill="#0000FF"/>
<path d="M18.09 61.2801C19.0454 61.2801 19.82 60.5055 19.82 59.5501C19.82 58.5946 19.0454 57.8201 18.09 57.8201C17.1345 57.8201 16.36 58.5946 16.36 59.5501C16.36 60.5055 17.1345 61.2801 18.09 61.2801Z" fill="#0000FF"/>
<path d="M351.68 280.73H295.97C295.506 280.73 295.061 280.546 294.733 280.217C294.404 279.889 294.22 279.444 294.22 278.98C294.22 278.516 294.404 278.071 294.733 277.743C295.061 277.414 295.506 277.23 295.97 277.23H351.68C352.144 277.23 352.589 277.414 352.917 277.743C353.246 278.071 353.43 278.516 353.43 278.98C353.43 279.444 353.246 279.889 352.917 280.217C352.589 280.546 352.144 280.73 351.68 280.73Z" fill="#0000FF"/>
<path d="M318.6 290.24H284.67C284.206 290.24 283.761 290.056 283.433 289.727C283.104 289.399 282.92 288.954 282.92 288.49C282.92 288.026 283.104 287.581 283.433 287.253C283.761 286.924 284.206 286.74 284.67 286.74H318.6C319.064 286.74 319.509 286.924 319.837 287.253C320.166 287.581 320.35 288.026 320.35 288.49C320.35 288.954 320.166 289.399 319.837 289.727C319.509 290.056 319.064 290.24 318.6 290.24Z" fill="#0000FF"/>
<path d="M327.39 290.22C328.345 290.22 329.12 289.445 329.12 288.49C329.12 287.535 328.345 286.76 327.39 286.76C326.435 286.76 325.66 287.535 325.66 288.49C325.66 289.445 326.435 290.22 327.39 290.22Z" fill="#0000FF"/>
<path d="M296.89 13.3701L275.69 47.5001L322.89 56.0901L296.89 13.3701Z" fill="#FFCB05"/>
<path d="M322.89 57.8401C322.787 57.85 322.683 57.85 322.58 57.8401L275.38 49.2201C275.101 49.1718 274.838 49.0552 274.615 48.8807C274.391 48.7063 274.215 48.4794 274.1 48.2201C273.982 47.9589 273.93 47.6724 273.949 47.3863C273.968 47.1002 274.058 46.8233 274.21 46.5801L295.38 12.4501C295.537 12.1983 295.755 11.9901 296.013 11.845C296.272 11.6999 296.563 11.6225 296.86 11.6201C297.159 11.6228 297.453 11.7013 297.713 11.8482C297.974 11.9951 298.193 12.2056 298.35 12.4601L324.35 55.1801C324.522 55.4697 324.607 55.8023 324.597 56.1389C324.586 56.4754 324.48 56.8019 324.29 57.0801C324.133 57.3085 323.925 57.4965 323.682 57.6286C323.438 57.7608 323.167 57.8332 322.89 57.8401ZM278.53 46.2401L319.38 53.6701L296.89 16.6701L278.53 46.2401Z" fill="#0000FF"/>
<path d="M203.7 367.94C205.815 367.94 207.53 366.225 207.53 364.11C207.53 361.995 205.815 360.28 203.7 360.28C201.585 360.28 199.87 361.995 199.87 364.11C199.87 366.225 201.585 367.94 203.7 367.94Z" fill="#0000FF"/>
<path d="M218.25 367.94C220.365 367.94 222.08 366.225 222.08 364.11C222.08 361.995 220.365 360.28 218.25 360.28C216.135 360.28 214.42 361.995 214.42 364.11C214.42 366.225 216.135 367.94 218.25 367.94Z" fill="#0000FF"/>
<path d="M232.8 367.94C234.915 367.94 236.63 366.225 236.63 364.11C236.63 361.995 234.915 360.28 232.8 360.28C230.685 360.28 228.97 361.995 228.97 364.11C228.97 366.225 230.685 367.94 232.8 367.94Z" fill="#0000FF"/>
<path d="M247.36 367.94C249.475 367.94 251.19 366.225 251.19 364.11C251.19 361.995 249.475 360.28 247.36 360.28C245.245 360.28 243.53 361.995 243.53 364.11C243.53 366.225 245.245 367.94 247.36 367.94Z" fill="#0000FF"/>
<path d="M261.91 367.94C264.025 367.94 265.74 366.225 265.74 364.11C265.74 361.995 264.025 360.28 261.91 360.28C259.795 360.28 258.08 361.995 258.08 364.11C258.08 366.225 259.795 367.94 261.91 367.94Z" fill="#0000FF"/>
<path d="M210.71 378.03C212.825 378.03 214.54 376.315 214.54 374.2C214.54 372.085 212.825 370.37 210.71 370.37C208.595 370.37 206.88 372.085 206.88 374.2C206.88 376.315 208.595 378.03 210.71 378.03Z" fill="#0000FF"/>
<path d="M225.27 378.03C227.385 378.03 229.1 376.315 229.1 374.2C229.1 372.085 227.385 370.37 225.27 370.37C223.155 370.37 221.44 372.085 221.44 374.2C221.44 376.315 223.155 378.03 225.27 378.03Z" fill="#0000FF"/>
<path d="M239.82 378.03C241.935 378.03 243.65 376.315 243.65 374.2C243.65 372.085 241.935 370.37 239.82 370.37C237.705 370.37 235.99 372.085 235.99 374.2C235.99 376.315 237.705 378.03 239.82 378.03Z" fill="#0000FF"/>
<path d="M254.37 378.03C256.485 378.03 258.2 376.315 258.2 374.2C258.2 372.085 256.485 370.37 254.37 370.37C252.255 370.37 250.54 372.085 250.54 374.2C250.54 376.315 252.255 378.03 254.37 378.03Z" fill="#0000FF"/>
<path d="M157.09 259.72C159.205 259.72 160.92 258.005 160.92 255.89C160.92 253.775 159.205 252.06 157.09 252.06C154.975 252.06 153.26 253.775 153.26 255.89C153.26 258.005 154.975 259.72 157.09 259.72Z" fill="#0000FF"/>
<path d="M171.64 259.72C173.755 259.72 175.47 258.005 175.47 255.89C175.47 253.775 173.755 252.06 171.64 252.06C169.525 252.06 167.81 253.775 167.81 255.89C167.81 258.005 169.525 259.72 171.64 259.72Z" fill="#0000FF"/>
<path d="M186.19 259.72C188.305 259.72 190.02 258.005 190.02 255.89C190.02 253.775 188.305 252.06 186.19 252.06C184.075 252.06 182.36 253.775 182.36 255.89C182.36 258.005 184.075 259.72 186.19 259.72Z" fill="#0000FF"/>
<path d="M200.74 259.72C202.855 259.72 204.57 258.005 204.57 255.89C204.57 253.775 202.855 252.06 200.74 252.06C198.625 252.06 196.91 253.775 196.91 255.89C196.91 258.005 198.625 259.72 200.74 259.72Z" fill="#0000FF"/>
<path d="M178.65 269.8C180.765 269.8 182.48 268.085 182.48 265.97C182.48 263.855 180.765 262.14 178.65 262.14C176.535 262.14 174.82 263.855 174.82 265.97C174.82 268.085 176.535 269.8 178.65 269.8Z" fill="#0000FF"/>
<path d="M193.2 269.8C195.315 269.8 197.03 268.085 197.03 265.97C197.03 263.855 195.315 262.14 193.2 262.14C191.085 262.14 189.37 263.855 189.37 265.97C189.37 268.085 191.085 269.8 193.2 269.8Z" fill="#0000FF"/>
<path d="M113.4 259.72C115.515 259.72 117.23 258.005 117.23 255.89C117.23 253.775 115.515 252.06 113.4 252.06C111.285 252.06 109.57 253.775 109.57 255.89C109.57 258.005 111.285 259.72 113.4 259.72Z" fill="#0000FF"/>
<path d="M127.96 259.72C130.075 259.72 131.79 258.005 131.79 255.89C131.79 253.775 130.075 252.06 127.96 252.06C125.845 252.06 124.13 253.775 124.13 255.89C124.13 258.005 125.845 259.72 127.96 259.72Z" fill="#0000FF"/>
<path d="M142.51 259.72C144.625 259.72 146.34 258.005 146.34 255.89C146.34 253.775 144.625 252.06 142.51 252.06C140.395 252.06 138.68 253.775 138.68 255.89C138.68 258.005 140.395 259.72 142.51 259.72Z" fill="#0000FF"/>
<path d="M120.42 269.8C122.535 269.8 124.25 268.085 124.25 265.97C124.25 263.855 122.535 262.14 120.42 262.14C118.305 262.14 116.59 263.855 116.59 265.97C116.59 268.085 118.305 269.8 120.42 269.8Z" fill="#0000FF"/>
<path d="M134.97 269.8C137.085 269.8 138.8 268.085 138.8 265.97C138.8 263.855 137.085 262.14 134.97 262.14C132.855 262.14 131.14 263.855 131.14 265.97C131.14 268.085 132.855 269.8 134.97 269.8Z" fill="#0000FF"/>
<path d="M76.92 367.9C79.0353 367.9 80.75 366.185 80.75 364.07C80.75 361.955 79.0353 360.24 76.92 360.24C74.8048 360.24 73.09 361.955 73.09 364.07C73.09 366.185 74.8048 367.9 76.92 367.9Z" fill="#0000FF"/>
<path d="M62.37 367.9C64.4853 367.9 66.2 366.185 66.2 364.07C66.2 361.955 64.4853 360.24 62.37 360.24C60.2548 360.24 58.54 361.955 58.54 364.07C58.54 366.185 60.2548 367.9 62.37 367.9Z" fill="#0000FF"/>
<path d="M47.82 367.9C49.9352 367.9 51.65 366.185 51.65 364.07C51.65 361.955 49.9352 360.24 47.82 360.24C45.7047 360.24 43.99 361.955 43.99 364.07C43.99 366.185 45.7047 367.9 47.82 367.9Z" fill="#0000FF"/>
<path d="M76.92 388.07C79.0353 388.07 80.75 386.355 80.75 384.24C80.75 382.125 79.0353 380.41 76.92 380.41C74.8048 380.41 73.09 382.125 73.09 384.24C73.09 386.355 74.8048 388.07 76.92 388.07Z" fill="#0000FF"/>
<path d="M62.37 388.07C64.4853 388.07 66.2 386.355 66.2 384.24C66.2 382.125 64.4853 380.41 62.37 380.41C60.2548 380.41 58.54 382.125 58.54 384.24C58.54 386.355 60.2548 388.07 62.37 388.07Z" fill="#0000FF"/>
<path d="M84.46 377.99C86.5753 377.99 88.29 376.275 88.29 374.16C88.29 372.045 86.5753 370.33 84.46 370.33C82.3448 370.33 80.63 372.045 80.63 374.16C80.63 376.275 82.3448 377.99 84.46 377.99Z" fill="#0000FF"/>
<path d="M69.91 377.99C72.0253 377.99 73.74 376.275 73.74 374.16C73.74 372.045 72.0253 370.33 69.91 370.33C67.7948 370.33 66.08 372.045 66.08 374.16C66.08 376.275 67.7948 377.99 69.91 377.99Z" fill="#0000FF"/>
<path d="M55.36 377.99C57.4753 377.99 59.19 376.275 59.19 374.16C59.19 372.045 57.4753 370.33 55.36 370.33C53.2448 370.33 51.53 372.045 51.53 374.16C51.53 376.275 53.2448 377.99 55.36 377.99Z" fill="#0000FF"/>
<path d="M55.35 299.39L50.35 301.03L57.16 311.28L63.32 308.13L55.35 299.39Z" fill="#0000FF"/>
<path d="M72.96 317.2L68.64 323.67L74.23 329.54L80.7 331.16L72.96 317.2Z" fill="#0000FF"/>
<path d="M228.81 324.07L226.71 336.16L238.9 322.15L228.81 324.07Z" fill="#0000FF"/>
<path d="M199.72 340.02C199.311 340.253 198.957 340.571 198.681 340.952C198.405 341.333 198.214 341.769 198.12 342.23C198.016 342.756 198.032 343.3 198.167 343.819C198.302 344.338 198.553 344.821 198.9 345.23C199.47 345.818 200.18 346.254 200.962 346.497C201.745 346.74 202.577 346.782 203.38 346.62C204.074 346.562 204.751 346.379 205.38 346.08C205.83 345.87 206.27 345.64 206.71 345.4C207.71 344.85 208.71 344.27 209.71 343.73C210.104 343.462 210.381 343.055 210.486 342.591C210.591 342.126 210.516 341.639 210.276 341.228C210.036 340.817 209.65 340.512 209.194 340.375C208.738 340.238 208.247 340.279 207.82 340.49C207.03 340.91 206.26 341.35 205.48 341.79L204.27 342.45L203.74 342.72L203.51 342.83C203.14 343.01 203.77 342.73 203.66 342.77L203.25 342.89C202.84 343 203.5 342.89 203.25 342.89H202.87H202.07H201.88H202.09L201.73 342.79C201.56 342.79 202.14 342.94 201.73 342.79C201.6 342.72 202.02 343.07 201.73 342.79C201.44 342.51 201.81 342.93 201.73 342.79C201.65 342.65 201.81 343.2 201.73 342.79C201.73 342.61 201.73 343.26 201.73 342.79C201.73 342.6 201.63 343.25 201.73 342.79C201.78 342.66 201.73 342.72 201.66 342.98C201.74 342.85 201.74 342.85 201.66 342.98C201.58 343.11 201.56 343.11 201.66 342.98C201.43 343.15 201.39 343.18 201.56 343.08C201.987 342.826 202.297 342.414 202.424 341.934C202.551 341.453 202.485 340.942 202.24 340.51C201.979 340.09 201.567 339.787 201.089 339.663C200.61 339.538 200.103 339.601 199.67 339.84L199.72 340.02Z" fill="#0000FF"/>
</svg>
