<svg xmlns="http://www.w3.org/2000/svg" width="670" height="597" fill="none" viewBox="0 0 670 597">
    <path fill="#00F" d="M256.832 174.25l-15.239-1.414-16.02 7.393-4.823 17.334 7.531 17.875 3.958-5.157-2.646-7.383.823-6.821 5.187-2.902 9.208 1.924 5.323 2.953 19.343-7.32 1.521-3.276-8.99-10.752-5.176-2.454zM524.371 400.573H293.507c-.483 0-.947-.192-1.289-.533-.342-.341-.534-.804-.534-1.287 0-.483.192-.945.534-1.287.342-.341.806-.533 1.289-.533h229.042v-12.041H298.538c-.483 0-.947-.192-1.289-.533-.342-.341-.534-.804-.534-1.287 0-.482.192-.945.534-1.287.342-.341.806-.533 1.289-.533h225.833c.483.003.945.196 1.286.536.342.341.535.802.537 1.284v15.681c0 .483-.192.946-.534 1.287-.342.341-.805.533-1.289.533zM232.093 400.573H82.288c-.483 0-.947-.192-1.289-.533-.342-.341-.534-.804-.534-1.287v-15.681c0-.482.192-.945.534-1.287.342-.341.806-.533 1.289-.533h154.159c.484 0 .948.192 1.289.533.342.342.534.805.534 1.287 0 .483-.192.946-.534 1.287-.341.341-.805.533-1.289.533H84.1v12.041h147.993c.484 0 .948.192 1.289.533.342.342.534.804.534 1.287 0 .483-.192.946-.534 1.287-.341.341-.805.533-1.289.533z"/>
    <path fill="#00F" d="M203.699 384.892c-.274.002-.545-.058-.792-.177-.216-.102-.409-.246-.569-.424-.16-.177-.284-.385-.363-.61-.08-.225-.114-.464-.1-.702.013-.238.074-.472.178-.687l11.885-24.748c.226-.404.598-.707 1.04-.847.442-.14.921-.107 1.339.093.419.2.745.552.912.984.168.432.164.911-.01 1.34l-11.874 24.759c-.152.306-.387.564-.677.744-.291.18-.627.275-.969.275zM524.371 384.892c-.274.003-.545-.057-.791-.177-.435-.211-.769-.585-.929-1.041-.16-.456-.133-.956.075-1.392l94.568-196.25H300.642l-56.247 116.702c-.098.224-.241.426-.419.594-.178.168-.389.298-.619.383-.229.085-.474.123-.719.111-.245-.011-.485-.072-.705-.179-.221-.106-.418-.256-.58-.44-.161-.184-.284-.399-.36-.631-.077-.233-.105-.478-.085-.722.021-.244.091-.481.206-.697l56.789-117.721c.149-.31.382-.572.673-.756.291-.184.628-.282.973-.284H620.2c.308.001.611.08.88.23.269.149.496.364.659.625.163.26.258.558.275.865.017.307-.045.613-.178.89l-95.819 198.86c-.147.311-.38.573-.672.755-.292.183-.629.278-.974.275z"/>
    <path fill="#FFCB05" d="M229.26 229.82l8.937 14.058 4.625 9.505L256.29 269.5l9.604.801 36.769-16.419 8.489 15.618-28.123 20.298-15.187-6.156-3.011 1.383.115 13.133-56.362 13.466-75.84 23.626 17.884-45.306 34.676-44.568 33.467-23.584 6.906 3.868 3.583 4.16z"/>
    <path fill="#FF5657" d="M485.509 449.539c14.048 0 25.436-11.369 25.436-25.393 0-14.024-11.388-25.393-25.436-25.393-14.049 0-25.437 11.369-25.437 25.393 0 14.024 11.388 25.393 25.437 25.393z"/>
    <path fill="#00F" d="M485.508 451.359c-5.39-.002-10.66-1.6-15.141-4.591-4.481-2.992-7.974-7.242-10.035-12.215-2.062-4.973-2.6-10.444-1.547-15.722 1.053-5.278 3.65-10.126 7.462-13.931 3.813-3.805 8.67-6.395 13.958-7.445 5.287-1.049 10.768-.509 15.748 1.551 4.98 2.06 9.237 5.548 12.232 10.023 2.995 4.475 4.593 9.735 4.593 15.117-.008 7.217-2.884 14.135-7.997 19.237-5.112 5.102-12.044 7.97-19.273 7.976zm0-50.786c-4.669.002-9.234 1.386-13.116 3.978-3.881 2.591-6.906 6.274-8.692 10.581-1.786 4.308-2.252 9.047-1.34 13.619.913 4.573 3.163 8.772 6.465 12.068 3.303 3.295 7.511 5.54 12.091 6.448 4.58.909 9.328.442 13.642-1.343 4.314-1.784 8.001-4.806 10.596-8.682 2.594-3.877 3.978-8.434 3.978-13.096-.008-6.251-2.5-12.244-6.929-16.663-4.428-4.42-10.433-6.905-16.695-6.91zM132.4 338.879c17.326-6.302 34.766-12.257 52.321-17.865 17.554-5.608 35.293-10.863 53.216-15.764 8.145-2.236 16.77-5.345 25.332-4.763 7.531.52 13.426 5.117 16.885 11.647 3.885 7.331 4.041 15.868 3.124 23.916-1.078 8.784-2.629 17.504-4.645 26.121-3.753 17.197-8.841 34.076-15.218 50.485-.792 2.079-1.604 4.076-2.438 6.104-.137.499-.071 1.032.185 1.482.256.451.68.781 1.18.92.498.126 1.026.054 1.472-.2.447-.254.778-.67.924-1.162 6.894-16.753 12.439-34.028 16.582-51.66 2.083-8.808 3.854-17.677 5.208-26.651 1.313-8.725 2.084-17.969-.885-26.464-2.344-6.791-6.937-13.248-13.635-16.295-8.124-3.702-17.166-2.017-25.467.146-18.27 4.762-36.457 10.097-54.435 15.712-17.979 5.615-36.186 11.76-54.081 18.124l-6.667 2.413c-2.343.852-1.333 4.617 1.042 3.754z"/>
    <path fill="#00F" d="M220.646 219.868c-17.53 7.57-32.676 19.997-45.415 34.045-13.237 14.792-24.26 31.418-32.727 49.361-4.49 9.359-8.812 18.988-11.635 28.96-2.667 9.359-3.812 19.757-.396 29.178 2.74 7.55 8.093 14.558 15.624 17.834 9.865 4.284 20.02.405 29.405-3.255l63.726-24.79 7.75-3.016c.49-.15.904-.481 1.158-.925.253-.445.327-.969.207-1.466-.139-.499-.47-.923-.921-1.178-.451-.255-.986-.322-1.486-.184l-61.538 23.916c-5.031 1.955-10.042 3.983-15.104 5.854-4.895 1.799-10.031 3.38-15.301 3.037-7.885-.51-14.229-6.083-17.885-12.77-4.364-7.975-4.562-17.261-2.76-25.996 2.083-9.93 6.166-19.435 10.354-28.627 8.031-17.563 18.02-34.315 30.582-48.987 11.812-13.83 25.696-26.256 41.946-34.627 2.083-1.04 4.229-2.08 6.395-3.015.443-.267.764-.695.894-1.195.131-.499.06-1.03-.196-1.478-.272-.436-.701-.751-1.199-.881-.498-.13-1.027-.064-1.478.184v.021z"/>
    <path fill="#00F" d="M244.572 345.794c-5.344 19.008-10.333 38.131-15.52 57.191-1.493 5.449-3 10.894-4.521 16.336-.076.29-.085.593-.026.887.059.294.184.57.366.809.181.238.415.432.683.567.267.135.562.208.862.212h58.664c.494-.036.955-.257 1.292-.619.337-.361.524-.837.524-1.331 0-.493-.187-.969-.524-1.331-.337-.361-.798-.582-1.292-.618h-58.664l1.886 2.464c5.343-19.019 10.333-38.131 15.52-57.191 1.486-5.456 2.993-10.905 4.52-16.347.677-2.423-3.124-3.452-3.77-1.04v.011zM220.937 223.133l16.666 19.342c.366.365.863.57 1.38.57.518 0 1.015-.205 1.381-.57.366-.366.571-.861.571-1.378 0-.517-.205-1.013-.571-1.378l-16.666-19.341c-.368-.362-.864-.564-1.38-.564-.517 0-1.012.202-1.381.564-.357.37-.556.864-.556 1.378 0 .513.199 1.007.556 1.377z"/>
    <path fill="#00F" d="M243.249 224.444c-7.221 18.404-13.363 37.212-18.395 56.328-.646 2.433 3.125 3.463 3.76 1.04 5.036-19.117 11.181-37.925 18.406-56.328.131-.499.062-1.03-.193-1.479-.255-.449-.675-.78-1.172-.924-.5-.126-1.029-.054-1.477.199-.448.254-.781.671-.929 1.164zM213.532 237.65c-20.833 16.637-36.259 39.68-45.081 64.668-2.463 6.961-4.368 14.106-5.698 21.369-.458 2.443 3.312 3.504 3.76 1.04 4.797-25.804 16.572-49.806 34.051-69.41 4.817-5.396 10.079-10.38 15.728-14.901.36-.369.561-.863.561-1.378 0-.515-.201-1.009-.561-1.378-.371-.356-.865-.556-1.38-.556-.515 0-1.009.2-1.38.556v-.01z"/>
    <path fill="#00F" d="M204.22 286.907c19.543-3.985 39.549-5.217 59.435-3.66 2.499.187 2.489-3.712 0-3.9-20.238-1.561-40.596-.279-60.477 3.806-2.458.499-1.416 4.264 1.042 3.754z"/>
    <path fill="#00F" d="M266.789 296.557l-.885-14.922c-.013-.513-.224-1.002-.589-1.364-.364-.362-.855-.57-1.369-.58-.515.005-1.007.212-1.371.575-.365.364-.572.855-.577 1.369l.885 14.932c.011.516.221 1.007.586 1.371.365.364.857.574 1.373.584.516-.008 1.008-.217 1.372-.582.363-.365.57-.858.575-1.373v-.01z"/>
    <path fill="#00F" d="M265.894 286.679c3.865-.462 7.781.224 11.258 1.974 3.476 1.749 6.359 4.482 8.287 7.859 1.928 3.376 2.815 7.245 2.551 11.122-.263 3.878-1.667 7.592-4.034 10.677-.259.446-.331.975-.2 1.474.131.498.453.925.898 1.188.45.25.979.318 1.478.188s.928-.447 1.199-.885c2.115-2.937 3.545-6.31 4.185-9.871.64-3.561.473-7.219-.488-10.708-1.593-5.28-4.965-9.849-9.546-12.932-4.58-3.083-10.087-4.491-15.588-3.986-.514.011-1.005.219-1.369.581-.365.362-.576.85-.589 1.364.005.516.213 1.011.579 1.376s.861.573 1.379.579zM236.666 248.745l10.166 12.79c1.636 2.079 3.24 4.159 4.896 6.135 1.4 1.858 3.174 3.402 5.208 4.534 5.114 2.495 10.468-.364 15.197-2.413 5.083-2.197 10.114-4.499 15.093-6.904 5.729-2.773 11.385-5.678 16.968-8.714 2.209-1.207.24-4.576-1.968-3.369-9.292 5.053-18.767 9.732-28.426 14.037-2.396 1.04-4.792 2.08-7.219 3.12-2.177.884-4.676 1.841-7.03 1.113-2-.603-3.5-2.288-4.792-3.837-1.573-1.862-3.052-3.796-4.562-5.699l-10.771-13.518c-.366-.364-.863-.568-1.38-.568-.517 0-1.013.204-1.38.568-.357.37-.556.864-.556 1.378 0 .514.199 1.008.556 1.378v-.031z"/>
    <path fill="#00F" d="M301.528 253.476c3.125 5.937 5.895 12.114 9.072 18.062 1.188 2.215 4.562.25 3.375-1.965-3.177-5.948-5.896-12.125-9.083-18.073-1.177-2.215-4.552-.239-3.364 1.976z"/>
    <path fill="#00F" d="M311.308 268.866l-26.509 18.468c-2.083 1.424-.094 4.814 1.979 3.369l26.499-18.426c2.083-1.425.094-4.804-1.969-3.369v-.042z"/>
    <path fill="#00F" d="M286.966 420.132c7.822-19.168 14.126-38.92 18.853-59.073 2.506-9.999 4.409-20.138 5.698-30.364 1.114-9.92.521-20.506-5.208-29.032-2.644-4.092-6.453-7.3-10.937-9.213-2.75-1.103-5.906-2.288-8.896-2.361-2.51-.062-2.51 3.837 0 3.9 2.511.062 5.208 1.175 7.521 2.079 3.313 1.415 6.176 3.705 8.281 6.624 5.791 7.778 6.406 17.677 5.458 27.036-1.178 9.837-2.98 19.59-5.396 29.199-2.302 9.837-4.989 19.58-8 29.22-3.281 10.471-6.947 20.797-11.114 30.977-.134.497-.066 1.028.19 1.476.255.448.678.777 1.175.915.498.126 1.026.055 1.472-.199.447-.254.778-.671.924-1.163l-.021-.021zM230.198 419.321c-1.742 4.781-3.08 9.7-4 14.704-.841 5.067-1.076 10.215-.698 15.337.177 2.496 4.083 2.507 3.906 0-.392-4.911-.182-9.852.625-14.713.925-4.861 2.242-9.639 3.937-14.288.823-2.381-2.948-3.4-3.77-1.04zM248.832 420.663c.281 3.809 1.798 7.424 4.323 10.294 2.696 3.5 6.099 6.395 9.989 8.496 2.01 1.031 4.146 1.796 6.354 2.277 2.406.51 4.875.655 7.291 1.092 3.656.645 8.687 2.62 8.333 7.154-.208 2.506 3.698 2.485 3.906 0 .365-4.367-3.02-8.028-6.812-9.66-4.468-1.924-9.489-1.508-14.083-2.995-4.181-1.437-7.885-3.995-10.707-7.393-1.232-1.307-2.328-2.736-3.271-4.264-.825-1.545-1.301-3.252-1.396-5.001-.198-2.485-4.104-2.506-3.906 0h-.021zM275.216 420.663c.281 3.809 1.798 7.424 4.323 10.294 2.695 3.497 6.094 6.391 9.979 8.496 2.014 1.03 4.153 1.795 6.364 2.277 2.406.51 4.875.655 7.291 1.092 3.656.645 8.687 2.62 8.333 7.154-.208 2.506 3.698 2.485 3.906 0 .365-4.367-3.02-8.028-6.812-9.66-4.468-1.924-9.489-1.508-14.083-2.995-4.181-1.437-7.885-3.995-10.707-7.393-1.233-1.31-2.332-2.738-3.281-4.264-.814-1.549-1.283-3.255-1.375-5.001-.198-2.485-4.104-2.506-3.906 0h-.032z"/>
    <path fill="#00F" d="M209.271 453.813l60.998.063h61.695c.493-.036.954-.258 1.291-.619.337-.362.524-.837.524-1.331s-.187-.97-.524-1.331c-.337-.362-.798-.583-1.291-.619H209.282c-.494.036-.955.257-1.292.619-.336.361-.524.837-.524 1.331s.188.969.524 1.331c.337.361.798.583 1.292.619l-.011-.063zM251.124 201.39c6.419-3.602 13.151-6.619 20.113-9.015 2.365-.811 1.344-4.586-1.041-3.765-7.283 2.5-14.325 5.65-21.041 9.411-2.198 1.227-.229 4.596 1.969 3.369z"/>
    <path fill="#00F" d="M251.03 198.271c-4.906-4.846-12.124-9.359-19.082-5.792-1.457.731-2.702 1.823-3.614 3.173-.912 1.349-1.461 2.91-1.595 4.532-.27 3.868 1.813 7.279 3.865 10.399 1.385 2.079 4.77.124 3.375-1.976-1.521-2.298-3.313-4.815-3.354-7.685.01-1.123.355-2.217.991-3.143.637-.927 1.535-1.642 2.581-2.056 5.208-2.319 10.604 1.882 14.083 5.314 1.792 1.768 4.552-.988 2.76-2.756l-.01-.01zM268.737 190.877c-1.52 8.319 1.042 18.385 7.906 23.792.373.352.867.548 1.38.548.514 0 1.007-.196 1.381-.548.361-.368.564-.862.564-1.378 0-.515-.203-1.01-.564-1.378-5.729-4.523-8.188-12.956-6.906-20.006.123-.498.05-1.023-.204-1.468-.254-.446-.67-.776-1.161-.924-.498-.134-1.03-.066-1.479.189-.448.255-.778.677-.917 1.173z"/>
    <path fill="#00F" d="M277.07 212.236c-1.414.57-2.874 1.022-4.364 1.351-.729.167-1.469.312-2.208.427h-.313.052l-.468.052c-.41.041-.816.073-1.219.093-.269-.019-.538.017-.792.106s-.487.229-.684.412c-.197.183-.354.405-.462.651-.108.246-.163.512-.163.781s.055.535.163.781c.108.246.265.468.462.651s.43.323.684.412c.254.089.523.125.792.106 3.28-.164 6.511-.867 9.562-2.08.485-.146.9-.464 1.167-.894.132-.224.217-.472.251-.729s.016-.518-.053-.769c-.139-.498-.47-.922-.921-1.177-.451-.256-.986-.322-1.486-.185v.011z"/>
    <path fill="#00F" d="M237.822 216.427c3.26 7.279 9.77 13.455 18.135 13.663 1.88.075 3.756-.24 5.509-.923 1.753-.684 3.346-1.722 4.678-3.049 2.665-2.652 4.218-6.218 4.343-9.972 0-2.506-3.875-2.517-3.906 0-.115 2.786-1.31 5.418-3.333 7.341-1.072 1.017-2.357 1.782-3.763 2.24-1.405.459-2.895.6-4.362.412-6.656-.562-11.374-5.959-13.926-11.688-.267-.442-.696-.763-1.196-.893-.501-.13-1.032-.06-1.481.196-.439.27-.756.699-.886 1.196-.13.498-.063 1.027.188 1.477zM230.864 208.908c-3.489 3.463-6.354 7.497-9.833 10.96-.181.181-.325.396-.423.632-.098.237-.148.49-.148.746s.05.509.148.746c.098.236.242.451.423.632.182.181.397.324.634.422.236.098.49.148.747.148.256 0 .51-.05.746-.148.237-.098.452-.241.634-.422 3.489-3.463 6.343-7.498 9.833-10.96.366-.366.571-.861.571-1.378 0-.517-.205-1.012-.571-1.378-.367-.365-.863-.571-1.381-.571-.517 0-1.014.206-1.38.571z"/>
    <path fill="#00F" d="M272.56 191.168c-.247-3.082-1.195-6.068-2.773-8.729-1.578-2.662-3.743-4.929-6.33-6.629-5.552-3.816-12.635-5.033-19.27-4.731-6.635.301-13.177 2.194-17.968 6.821-4.524 4.516-7.089 10.625-7.146 17.012-.104 7.466 3.042 14.558 7.823 20.204 1.302 1.539 3.5-.676 2.208-2.204-7.291-8.579-9.812-21.733-2.302-31.04 3.729-4.627 9.375-6.894 15.218-7.507 5.844-.614 12.02 0 17.291 2.62 5.271 2.62 9.781 7.955 10.125 14.183.114 1.997 3.239 2.007 3.124 0zM532.371 389.062c-.271.002-.538-.059-.781-.177-.217-.102-.412-.245-.573-.422-.161-.177-.285-.384-.366-.61-.08-.225-.115-.464-.102-.703.012-.239.072-.473.176-.688l97.017-203.03c.103-.216.248-.409.426-.569.178-.16.386-.283.612-.363.226-.08.465-.114.704-.101.239.012.474.072.69.175.216.103.41.248.57.425.16.178.283.386.363.611.08.226.114.465.102.703-.013.239-.073.473-.176.689l-97.016 203.03c-.148.31-.382.571-.673.753-.292.183-.629.278-.973.277zM172.992 176.808H120.39c-.483 0-.947-.191-1.289-.533-.342-.341-.534-.804-.534-1.286 0-.483.192-.946.534-1.287.342-.341.806-.533 1.289-.533h52.602c.483 0 .947.192 1.289.533.342.341.534.804.534 1.287 0 .482-.192.945-.534 1.286-.342.342-.806.533-1.289.533zM199.991 166.919h-43.592c-.483 0-.947-.191-1.289-.533-.342-.341-.534-.804-.534-1.286 0-.483.192-.946.534-1.287.342-.341.806-.533 1.289-.533h43.592c.483 0 .947.192 1.289.533.342.341.534.804.534 1.287 0 .482-.192.945-.534 1.286-.342.342-.806.533-1.289.533zM181.7 176.84c1.024 0 1.854-.829 1.854-1.851 0-1.023-.83-1.851-1.854-1.851s-1.854.828-1.854 1.851c0 1.022.83 1.851 1.854 1.851z"/>
    <path fill="#FF5657" d="M65.539 297.742h-1.75c-9.02-.484-17.513-4.386-23.75-10.908l9.73-9.358c3.852 4.055 9.107 6.494 14.697 6.821 2.539.181 5.088-.173 7.48-1.041 2.393-.867 4.576-2.228 6.407-3.994 1.83-1.766 3.268-3.897 4.219-6.254.95-2.358 1.393-4.889 1.3-7.428-.148-5.587-2.416-10.909-6.344-14.891l9.728-9.358c6.322 6.438 9.95 15.038 10.146 24.051.13 4.246-.6 8.475-2.145 12.433-1.546 3.958-3.877 7.564-6.852 10.601-2.975 3.037-6.534 5.444-10.463 7.075-3.93 1.631-8.148 2.453-12.403 2.418v-.167z"/>
    <path fill="#00F" d="M65.539 299.562h-1.855c-9.486-.502-18.424-4.592-24.998-11.438-.341-.343-.533-.806-.533-1.289 0-.483.192-.947.533-1.29l9.728-9.358c.344-.341.808-.532 1.292-.532s.948.191 1.292.532c3.538 3.71 8.355 5.94 13.478 6.239 2.292.17 4.594-.145 6.754-.925 2.161-.781 4.132-2.009 5.784-3.604 1.651-1.595 2.947-3.52 3.8-5.65.853-2.13 1.246-4.416 1.15-6.708-.135-5.129-2.22-10.014-5.832-13.664-.167-.172-.298-.376-.386-.599-.088-.223-.13-.461-.124-.701.012-.481.21-.939.552-1.279l9.739-9.358c.172-.167.375-.297.597-.384.223-.088.46-.13.7-.125.24.004.475.056.694.153.219.096.416.235.582.408 6.642 6.767 10.452 15.806 10.655 25.278.136 4.488-.636 8.958-2.271 13.141-1.636 4.183-4.1 7.993-7.245 11.203-3.145 3.21-6.907 5.753-11.06 7.477-4.153 1.724-8.612 2.594-13.11 2.557l.084-.084zm-22.895-12.727c5.777 5.44 13.298 8.66 21.228 9.088 4.145.264 8.3-.339 12.198-1.771 3.899-1.432 7.455-3.66 10.44-6.543 2.986-2.883 5.336-6.356 6.9-10.198 1.563-3.842 2.305-7.967 2.18-12.112-.174-7.927-3.151-15.537-8.407-21.483L80.06 250.7c3.522 4.129 5.511 9.344 5.635 14.766.102 2.79-.386 5.57-1.43 8.16s-2.623 4.931-4.632 6.873c-2.01 1.941-4.406 3.439-7.033 4.396-2.627.958-5.427 1.353-8.217 1.16-5.417-.308-10.565-2.463-14.582-6.104l-7.156 6.884zM225.531 459.834c2.203 0 3.99-1.783 3.99-3.983s-1.787-3.983-3.99-3.983c-2.203 0-3.989 1.783-3.989 3.983s1.786 3.983 3.989 3.983zM240.687 459.834c2.203 0 3.989-1.783 3.989-3.983s-1.786-3.983-3.989-3.983c-2.204 0-3.99 1.783-3.99 3.983s1.786 3.983 3.99 3.983zM255.842 459.834c2.203 0 3.99-1.783 3.99-3.983s-1.787-3.983-3.99-3.983c-2.203 0-3.989 1.783-3.989 3.983s1.786 3.983 3.989 3.983zM271.008 459.834c2.203 0 3.99-1.783 3.99-3.983s-1.787-3.983-3.99-3.983c-2.203 0-3.989 1.783-3.989 3.983s1.786 3.983 3.989 3.983zM286.164 459.834c2.203 0 3.989-1.783 3.989-3.983s-1.786-3.983-3.989-3.983c-2.204 0-3.99 1.783-3.99 3.983s1.786 3.983 3.99 3.983zM300.913 459.834c2.203 0 3.989-1.783 3.989-3.983s-1.786-3.983-3.989-3.983-3.989 1.783-3.989 3.983 1.786 3.983 3.989 3.983zM316.069 459.834c2.203 0 3.989-1.783 3.989-3.983s-1.786-3.983-3.989-3.983c-2.204 0-3.99 1.783-3.99 3.983s1.786 3.983 3.99 3.983zM232.833 470.326c2.203 0 3.989-1.783 3.989-3.983 0-2.199-1.786-3.982-3.989-3.982-2.204 0-3.99 1.783-3.99 3.982 0 2.2 1.786 3.983 3.99 3.983zM247.999 470.326c2.203 0 3.989-1.783 3.989-3.983 0-2.199-1.786-3.982-3.989-3.982-2.204 0-3.99 1.783-3.99 3.982 0 2.2 1.786 3.983 3.99 3.983zM263.154 470.326c2.204 0 3.99-1.783 3.99-3.983 0-2.199-1.786-3.982-3.99-3.982-2.203 0-3.989 1.783-3.989 3.982 0 2.2 1.786 3.983 3.989 3.983zM278.31 470.326c2.203 0 3.989-1.783 3.989-3.983 0-2.199-1.786-3.982-3.989-3.982s-3.989 1.783-3.989 3.982c0 2.2 1.786 3.983 3.989 3.983zM294.153 470.326c2.203 0 3.989-1.783 3.989-3.983 0-2.199-1.786-3.982-3.989-3.982s-3.989 1.783-3.989 3.982c0 2.2 1.786 3.983 3.989 3.983zM309.309 470.326c2.203 0 3.989-1.783 3.989-3.983 0-2.199-1.786-3.982-3.989-3.982-2.204 0-3.99 1.783-3.99 3.982 0 2.2 1.786 3.983 3.99 3.983zM292.215 341.385c2.204 0 3.99-1.783 3.99-3.983 0-2.199-1.786-3.983-3.99-3.983-2.203 0-3.989 1.784-3.989 3.983 0 2.2 1.786 3.983 3.989 3.983zM289.33 356.005c2.203 0 3.99-1.783 3.99-3.983 0-2.199-1.787-3.982-3.99-3.982-2.203 0-3.989 1.783-3.989 3.982 0 2.2 1.786 3.983 3.989 3.983zM286.445 370.625c2.203 0 3.989-1.783 3.989-3.982 0-2.2-1.786-3.983-3.989-3.983s-3.989 1.783-3.989 3.983c0 2.199 1.786 3.982 3.989 3.982zM282.529 385.235c2.203 0 3.989-1.783 3.989-3.983 0-2.199-1.786-3.982-3.989-3.982-2.204 0-3.99 1.783-3.99 3.982 0 2.2 1.786 3.983 3.99 3.983zM278.716 399.46c2.203 0 3.99-1.783 3.99-3.983 0-2.199-1.787-3.982-3.99-3.982-2.203 0-3.989 1.783-3.989 3.982 0 2.2 1.786 3.983 3.989 3.983zM273.747 414.07c2.204 0 3.99-1.783 3.99-3.983 0-2.199-1.786-3.982-3.99-3.982-2.203 0-3.989 1.783-3.989 3.982 0 2.2 1.786 3.983 3.989 3.983zM292.215 327.555c2.204 0 3.99-1.783 3.99-3.983 0-2.199-1.786-3.982-3.99-3.982-2.203 0-3.989 1.783-3.989 3.982 0 2.2 1.786 3.983 3.989 3.983z"/>
    <path fill="#fff" d="M502.352 245.095h-148.91v110.608h148.91V245.095z"/>
    <path fill="#00F" d="M502.352 357.544H353.4c-.483 0-.947-.192-1.289-.533-.342-.341-.534-.804-.534-1.287V245.095c0-.483.192-.945.534-1.287.342-.341.806-.533 1.289-.533h148.952c.483 0 .947.192 1.289.533.341.342.533.804.533 1.287v110.619c.002.24-.044.478-.135.7-.091.222-.225.423-.395.594-.169.17-.371.305-.592.397-.222.092-.46.139-.7.139zm-147.087-3.639h145.264v-106.99H355.265v106.99z"/>
    <path fill="#00F" d="M502.352 257.282H353.4c-.483 0-.947-.192-1.289-.533-.342-.341-.534-.804-.534-1.287 0-.482.192-.945.534-1.286.342-.342.806-.533 1.289-.533h148.952c.483 0 .947.191 1.289.533.341.341.533.804.533 1.286 0 .483-.192.946-.533 1.287-.342.341-.806.533-1.289.533z"/>
    <path fill="#fff" d="M476.03 204.988h-73.018v114.3h73.018v-114.3z"/>
    <path fill="#00F" d="M476.019 321.149h-73.017c-.483 0-.947-.191-1.289-.533-.342-.341-.534-.804-.534-1.286V204.988c0-.482.192-.945.534-1.287.342-.341.806-.533 1.289-.533h73.017c.484 0 .948.192 1.289.533.342.342.534.805.534 1.287v114.3c.006.243-.037.484-.126.709-.089.226-.223.431-.393.605-.169.173-.372.311-.596.405-.224.094-.465.143-.708.142zm-71.194-3.639h69.372V206.766h-69.372V317.51z"/>
    <path fill="#00F" d="M475.936 217.352h-73.017c-.484 0-.947-.192-1.289-.533-.342-.341-.534-.804-.534-1.287 0-.482.192-.945.534-1.287.342-.341.805-.533 1.289-.533h73.017c.484 0 .947.192 1.289.533.342.342.534.805.534 1.287 0 .483-.192.946-.534 1.287-.342.341-.805.533-1.289.533zM408.731 211.976c.972 0 1.76-.787 1.76-1.758 0-.97-.788-1.757-1.76-1.757s-1.761.787-1.761 1.757c0 .971.789 1.758 1.761 1.758zM413.189 211.976c.972 0 1.76-.787 1.76-1.758 0-.97-.788-1.757-1.76-1.757s-1.76.787-1.76 1.757c0 .971.788 1.758 1.76 1.758zM417.658 211.976c.972 0 1.76-.787 1.76-1.758 0-.97-.788-1.757-1.76-1.757-.973 0-1.761.787-1.761 1.757 0 .971.788 1.758 1.761 1.758zM359.202 252.062c.972 0 1.76-.787 1.76-1.757 0-.971-.788-1.758-1.76-1.758s-1.76.787-1.76 1.758c0 .97.788 1.757 1.76 1.757zM363.671 252.062c.972 0 1.76-.787 1.76-1.757 0-.971-.788-1.758-1.76-1.758s-1.761.787-1.761 1.758c0 .97.789 1.757 1.761 1.757zM368.128 252.062c.973 0 1.761-.787 1.761-1.757 0-.971-.788-1.758-1.761-1.758-.972 0-1.76.787-1.76 1.758 0 .97.788 1.757 1.76 1.757zM307.027 257.043c5.086-6.398 12.389-10.66 20.468-11.948 1.908-.3 3.84-.418 5.771-.354 1.046.013 2.09.099 3.124.26.516.041 1.014.209 1.448.489.144.106.25.255.302.426.073-.145.063-.135 0 0-.302.479-1.635.572-2.145.687l-3.938.852-7.885 1.706c-2.458.53-1.416 4.284 1.042 3.753l7.385-1.601c2.21-.33 4.388-.849 6.51-1.549.975-.3 1.806-.945 2.336-1.815.53-.871.722-1.904.539-2.906-.296-1.006-.882-1.902-1.683-2.579-.802-.676-1.785-1.103-2.827-1.227-7.76-1.477-16.322.551-23.093 4.419-3.871 2.207-7.283 5.133-10.052 8.621-.352.372-.548.865-.548 1.377 0 .513.196 1.006.548 1.378.369.362.864.564 1.381.564.516 0 1.011-.202 1.38-.564l-.063.011z"/>
    <path fill="#00F" d="M313.631 269.906l.323-.062h.636c.527-.056 1.059-.098 1.593-.125 1.136-.073 2.271-.135 3.396-.219 2.34-.093 4.638-.652 6.76-1.643 2.397-1.194 4.234-3.274 5.12-5.797.887-2.524.754-5.293-.37-7.721-.565-1.224-1.387-2.312-2.412-3.19-1.025-.877-2.227-1.524-3.525-1.894-2.417-.708-3.448 3.057-1.042 3.753.986.299 1.871.859 2.563 1.621.692.762 1.163 1.697 1.364 2.705.257 1.121.198 2.292-.17 3.382-.367 1.09-1.03 2.057-1.913 2.795-.963.76-2.073 1.312-3.261 1.622-.507.141-1.022.256-1.541.343h-.052l-.407.052-.885.073c-2.406.197-4.843.197-7.229.624-.498.141-.92.472-1.176.921-.255.45-.323.982-.188 1.481.148.493.481.909.929 1.163.448.254.977.325 1.477.199l.01-.083z"/>
</svg>
