<svg width="474" height="231" viewBox="0 0 474 231" fill="none" xmlns="http://www.w3.org/2000/svg">
<path d="M222.27 224.1L245.36 224.61V212.18L258.6 201.91L246.23 181.24L241.33 185.66L239.82 175.75L210.65 169.23C210.65 169.23 185.75 168.81 185.75 169.23C185.75 169.65 158.33 178.89 158.33 178.89L167.63 163L161.52 156.65L148.39 154.31L133.28 183.57L136.18 187.65L145.69 191.82L147.78 201.75L159.78 196.18L174.54 193.5L182.19 199.09V224.61L222.27 224.1Z" fill="#417CFF"/>
<path d="M112.98 192.78L123.65 208.9L121.74 219.8L124.71 225.71L16.42 226.35L19.64 217.63L33.15 206.88L56.12 204.07L70.26 208.9L78.36 211.41L90.36 212.64L107.01 194.64L112.98 192.78Z" fill="#0000FF"/>
<path d="M293.92 70.14H179.95V78.81H293.92V70.14Z" fill="#FF5657"/>
<path d="M267.06 204.3C269.175 204.3 270.89 202.585 270.89 200.47C270.89 198.355 269.175 196.64 267.06 196.64C264.945 196.64 263.23 198.355 263.23 200.47C263.23 202.585 264.945 204.3 267.06 204.3Z" fill="#0D26F5"/>
<path d="M273.68 191.34C275.795 191.34 277.51 189.625 277.51 187.51C277.51 185.395 275.795 183.68 273.68 183.68C271.565 183.68 269.85 185.395 269.85 187.51C269.85 189.625 271.565 191.34 273.68 191.34Z" fill="#0D26F5"/>
<path d="M280.31 178.38C282.425 178.38 284.14 176.665 284.14 174.55C284.14 172.435 282.425 170.72 280.31 170.72C278.195 170.72 276.48 172.435 276.48 174.55C276.48 176.665 278.195 178.38 280.31 178.38Z" fill="#0D26F5"/>
<path d="M286.93 165.42C289.045 165.42 290.76 163.705 290.76 161.59C290.76 159.475 289.045 157.76 286.93 157.76C284.815 157.76 283.1 159.475 283.1 161.59C283.1 163.705 284.815 165.42 286.93 165.42Z" fill="#0D26F5"/>
<path d="M293.55 152.47C295.665 152.47 297.38 150.755 297.38 148.64C297.38 146.525 295.665 144.81 293.55 144.81C291.435 144.81 289.72 146.525 289.72 148.64C289.72 150.755 291.435 152.47 293.55 152.47Z" fill="#0D26F5"/>
<path d="M285.85 189.69C287.965 189.69 289.68 187.975 289.68 185.86C289.68 183.745 287.965 182.03 285.85 182.03C283.735 182.03 282.02 183.745 282.02 185.86C282.02 187.975 283.735 189.69 285.85 189.69Z" fill="#0D26F5"/>
<path d="M292.48 176.73C294.595 176.73 296.31 175.015 296.31 172.9C296.31 170.785 294.595 169.07 292.48 169.07C290.365 169.07 288.65 170.785 288.65 172.9C288.65 175.015 290.365 176.73 292.48 176.73Z" fill="#0D26F5"/>
<path d="M304.78 92.87C306.895 92.87 308.61 91.1552 308.61 89.0399C308.61 86.9247 306.895 85.21 304.78 85.21C302.665 85.21 300.95 86.9247 300.95 89.0399C300.95 91.1552 302.665 92.87 304.78 92.87Z" fill="#0D26F5"/>
<path d="M333.89 92.87C336.005 92.87 337.72 91.1552 337.72 89.0399C337.72 86.9247 336.005 85.21 333.89 85.21C331.775 85.21 330.06 86.9247 330.06 89.0399C330.06 91.1552 331.775 92.87 333.89 92.87Z" fill="#0D26F5"/>
<path d="M311.8 82.79C313.915 82.79 315.63 81.0753 315.63 78.96C315.63 76.8448 313.915 75.13 311.8 75.13C309.685 75.13 307.97 76.8448 307.97 78.96C307.97 81.0753 309.685 82.79 311.8 82.79Z" fill="#0D26F5"/>
<path d="M326.35 82.79C328.465 82.79 330.18 81.0753 330.18 78.96C330.18 76.8448 328.465 75.13 326.35 75.13C324.235 75.13 322.52 76.8448 322.52 78.96C322.52 81.0753 324.235 82.79 326.35 82.79Z" fill="#0D26F5"/>
<path d="M340.39 82.79C342.229 82.79 343.72 81.2991 343.72 79.46C343.72 77.6209 342.229 76.13 340.39 76.13C338.551 76.13 337.06 77.6209 337.06 79.46C337.06 81.2991 338.551 82.79 340.39 82.79Z" fill="#0D26F5"/>
<path d="M316.96 89.12C308.33 97.4 305.48 109.91 305.96 121.52C306.53 135.88 311.47 149.61 313.05 163.84C313.943 172.072 314.037 180.37 313.33 188.62C313.13 191.03 316.88 191.02 317.08 188.62C317.68 181.503 317.68 174.347 317.08 167.23C316.409 160.164 315.28 153.149 313.7 146.23C311.01 133.76 307.88 120.84 310.79 108.11C312.055 101.919 315.107 96.2341 319.57 91.76C321.32 90.08 318.66 87.43 316.92 89.11L316.96 89.12Z" fill="#0000FF"/>
<path d="M315.64 191.17L344.15 191.89C346.56 191.95 346.56 188.2 344.15 188.14L315.64 187.42C313.23 187.36 313.23 191.11 315.64 191.17Z" fill="#0000FF"/>
<path d="M346.02 190.01C347.02 181.81 347.62 173.58 348.32 165.35C349.02 157.12 349.96 149.18 350.86 141.09C352.459 128.006 353.211 114.831 353.11 101.65C352.95 93.37 352.36 85.0999 351.62 76.8599C351.4 74.4699 347.62 74.4499 347.87 76.8599C349.251 90.5705 349.659 104.362 349.09 118.13C348.34 132.89 346.15 147.5 344.84 162.2C344.02 171.47 343.36 180.76 342.27 190.01C342.251 190.268 342.286 190.527 342.371 190.77C342.457 191.014 342.592 191.238 342.768 191.427C342.944 191.616 343.157 191.767 343.394 191.87C343.631 191.974 343.887 192.027 344.145 192.027C344.404 192.027 344.659 191.974 344.896 191.87C345.133 191.767 345.346 191.616 345.522 191.427C345.698 191.238 345.833 191.014 345.919 190.77C346.004 190.527 346.039 190.268 346.02 190.01Z" fill="#0000FF"/>
<path d="M406.57 68.6801C399.449 68.0901 392.291 68.0901 385.17 68.6801C378.105 69.3555 371.09 70.4845 364.17 72.0601C351.7 74.7501 338.78 77.88 326.06 74.97C319.865 73.7076 314.176 70.6548 309.7 66.19C309.495 65.9908 309.247 65.8405 308.976 65.7502C308.705 65.6598 308.417 65.6319 308.133 65.6684C307.85 65.7049 307.578 65.805 307.339 65.9611C307.099 66.1172 306.898 66.3254 306.75 66.57L295.97 83.07C294.65 85.07 297.89 86.9801 299.21 84.9601L310 68.42L307.06 68.8C315.35 77.4401 327.85 80.28 339.46 79.8C353.82 79.22 367.55 74.28 381.78 72.7C390.014 71.797 398.316 71.6931 406.57 72.39C408.97 72.6 408.96 68.84 406.57 68.64V68.6801Z" fill="#0000FF"/>
<path d="M408.44 70.56C408.7 60.91 409.58 51.28 409.83 41.63C409.89 39.22 406.14 39.22 406.08 41.63C405.83 51.28 404.95 60.91 404.69 70.56C404.63 72.97 408.38 72.97 408.44 70.56Z" fill="#0000FF"/>
<path d="M407.95 39.76C396.22 38.38 384.41 37.69 372.66 36.47C360.91 35.25 348.91 33.62 336.97 32.82C325.011 31.8764 312.99 32.0337 301.06 33.29C290.91 34.47 280.49 36.23 271.77 41.9C262.164 48.3033 254.543 57.2684 249.77 67.78C249.549 68.2173 249.496 68.7206 249.621 69.1944C249.747 69.6681 250.041 70.0794 250.45 70.35C250.88 70.5974 251.391 70.6648 251.87 70.5374C252.35 70.4101 252.759 70.0983 253.01 69.67C257.129 60.6056 263.456 52.7185 271.41 46.73C279.53 40.66 289.31 38.54 299.18 37.27C322.5 34.27 345.88 37.18 369.08 39.83C382.02 41.31 395.08 41.99 407.97 43.51C408.468 43.5074 408.944 43.3085 409.296 42.9565C409.648 42.6045 409.847 42.1278 409.85 41.63C409.837 41.1364 409.635 40.6666 409.285 40.3184C408.934 39.9701 408.464 39.7702 407.97 39.76H407.95Z" fill="#0000FF"/>
<path d="M258.68 141.16L239.68 174.39C238.48 176.49 241.68 178.39 242.92 176.29L261.92 143.06C263.12 140.96 259.92 139.06 258.68 141.16Z" fill="#0000FF"/>
<path d="M216.43 141.63L204.01 168.28C203.01 170.46 206.23 172.36 207.25 170.18L219.67 143.53C220.67 141.35 217.45 139.45 216.43 141.63Z" fill="#0000FF"/>
<path d="M313.73 182.42C313.86 194.25 308 205.5 299.64 213.62C295.773 217.484 291.177 220.544 286.12 222.62C280.806 224.686 275.194 225.884 269.5 226.17C263.979 226.527 258.437 226.004 253.08 224.62C251.85 224.28 250.63 223.9 249.43 223.45C248.762 223.12 248.052 222.885 247.32 222.75H238.22H200.87H157.49C149.54 222.75 141.56 222.57 133.61 222.75H133.27C132.796 222.785 132.353 222.997 132.03 223.345C131.707 223.693 131.527 224.15 131.527 224.625C131.527 225.1 131.707 225.557 132.03 225.905C132.353 226.253 132.796 226.465 133.27 226.5H153.54H196.67H235.96H246.12C246.43 226.5 246.77 226.5 247.12 226.5H247.33C247.41 226.5 246.55 226.37 247.15 226.57C247.58 226.71 248 226.91 248.42 227.07C253.726 228.956 259.309 229.946 264.94 230C276.22 230.25 288.07 227.51 297.18 220.62C306.69 213.42 314.18 202.88 316.6 191.1C317.203 188.243 317.495 185.33 317.47 182.41C317.47 179.99 313.69 179.99 313.72 182.41L313.73 182.42Z" fill="#0000FF"/>
<path d="M219.27 226.42C237.85 221.66 254.13 209.93 266.27 195.32C279.78 179.12 288.02 159.32 292.64 138.91C295.304 126.728 297.019 114.357 297.77 101.91C297.94 99.5 294.19 99.51 294.02 101.91C292.57 123.28 289.02 144.91 280.52 164.67C273 182.19 261.41 198.08 245.95 209.41C237.679 215.59 228.305 220.135 218.33 222.8C215.99 223.4 216.98 227.02 219.33 226.42H219.27Z" fill="#0000FF"/>
<path d="M297.48 102.8C299.903 98.507 300.843 93.535 300.154 88.6538C299.465 83.7727 297.186 79.2548 293.67 75.8C291.94 74.11 289.29 76.8 291.02 78.45C293.966 81.3144 295.879 85.074 296.462 89.1411C297.044 93.2083 296.263 97.3538 294.24 100.93C293.05 103.03 296.24 104.93 297.48 102.82V102.8Z" fill="#0000FF"/>
<path d="M290.54 76.61C286.54 95.8 280.03 114.42 273.13 132.73C270.13 140.78 267.25 148.96 263.54 156.73C259.18 165.86 253.23 174 245.07 180.09C236.455 186.583 226.216 190.576 215.48 191.63C213.1 191.85 213.07 195.63 215.48 195.38C225.523 194.42 235.186 191.049 243.647 185.555C252.108 180.06 259.118 172.604 264.08 163.82C268.84 155.39 272.02 146.18 275.45 137.16C278.57 128.96 281.6 120.72 284.39 112.4C288.34 101.014 291.599 89.3991 294.15 77.62C294.64 75.26 291.02 74.25 290.54 76.62V76.61Z" fill="#0000FF"/>
<path d="M246.63 181.56L255.33 200.84C255.598 201.234 256.005 201.511 256.469 201.616C256.934 201.721 257.42 201.646 257.832 201.406C258.243 201.167 258.548 200.78 258.685 200.324C258.822 199.868 258.781 199.377 258.57 198.95L249.86 179.67C249.609 179.242 249.2 178.93 248.72 178.803C248.241 178.675 247.73 178.743 247.3 178.99C246.881 179.251 246.577 179.663 246.451 180.14C246.324 180.618 246.385 181.126 246.62 181.56H246.63Z" fill="#0000FF"/>
<path d="M178.33 139.01L154.94 182.42C153.79 184.55 157.03 186.42 158.18 184.31L181.57 140.94C182.71 138.81 179.47 136.94 178.33 139.04V139.01Z" fill="#0000FF"/>
<path d="M134.89 184.51C144.06 164.25 154.12 144.32 168.01 126.82C172.07 121.71 176.39 116.82 180.89 112.08C182.56 110.34 179.89 107.68 178.24 109.43C170.339 117.677 163.122 126.553 156.66 135.97C150.613 144.984 145.174 154.392 140.38 164.13C137.38 170.23 134.46 176.41 131.65 182.62C131.414 183.053 131.352 183.56 131.476 184.038C131.601 184.515 131.902 184.927 132.32 185.19C132.753 185.433 133.263 185.497 133.743 185.371C134.222 185.244 134.634 184.935 134.89 184.51Z" fill="#0000FF"/>
<path d="M157.88 184.66C165.42 177.66 175.4 174.15 185.39 172.44C196.799 170.567 208.448 170.703 219.81 172.84C226.701 174.145 233.51 175.855 240.2 177.96C242.52 178.67 243.5 175.05 241.2 174.34C228.9 170.57 216.2 167.63 203.27 167.34C192.32 167.12 180.82 168.51 170.59 172.54C164.922 174.693 159.711 177.895 155.23 181.98C153.46 183.63 156.12 186.28 157.88 184.63V184.66Z" fill="#0000FF"/>
<path d="M238.86 176.08L239.48 182.95C239.492 183.446 239.688 183.92 240.03 184.28C240.39 184.622 240.864 184.818 241.36 184.83C241.855 184.822 242.328 184.621 242.677 184.27C243.026 183.919 243.225 183.445 243.23 182.95L242.61 176.08C242.593 175.585 242.397 175.113 242.06 174.75C241.797 174.49 241.462 174.314 241.099 174.243C240.736 174.173 240.36 174.211 240.018 174.353C239.677 174.495 239.385 174.734 239.179 175.042C238.973 175.349 238.862 175.71 238.86 176.08Z" fill="#0000FF"/>
<path d="M242.74 214.15L243.48 222.23C243.493 222.724 243.695 223.193 244.045 223.542C244.395 223.89 244.866 224.09 245.36 224.1C245.854 224.095 246.327 223.896 246.677 223.546C247.026 223.197 247.225 222.724 247.23 222.23L246.49 214.15C246.509 213.892 246.474 213.633 246.389 213.39C246.303 213.146 246.168 212.922 245.992 212.733C245.816 212.544 245.603 212.393 245.366 212.289C245.129 212.186 244.873 212.133 244.615 212.133C244.357 212.133 244.101 212.186 243.864 212.289C243.627 212.393 243.414 212.544 243.238 212.733C243.062 212.922 242.927 213.146 242.841 213.39C242.756 213.633 242.721 213.892 242.74 214.15Z" fill="#0000FF"/>
<path d="M125.48 205.94C121.036 201.197 116.989 196.096 113.38 190.69C113.172 190.355 112.844 190.112 112.463 190.011C112.081 189.911 111.676 189.96 111.33 190.15C108.183 191.63 105.396 193.776 103.16 196.44C101.6 198.44 100.46 200.73 98.83 202.67C96.07 205.97 92.37 208.29 88.61 210.27C86.74 211.27 85.22 212.04 83.08 211.89C80.9924 211.651 78.9527 211.098 77.03 210.25C72.3 208.39 67.81 205.94 63.03 204.25C59.3671 202.983 55.5256 202.308 51.65 202.25C44.5544 202.031 37.4976 203.376 30.98 206.19C22.69 209.9 16.61 216.9 14.98 225.95C14.9242 226.172 14.9194 226.404 14.9658 226.628C15.0123 226.853 15.1089 227.064 15.2483 227.245C15.3877 227.427 15.5664 227.575 15.7711 227.678C15.9757 227.781 16.201 227.836 16.43 227.84C22.88 227.72 29.33 227.65 35.77 227.58L63.6 227.3L93.07 227.05L116.84 226.87C120.57 226.87 124.33 226.97 128.05 226.78H128.21C128.608 226.78 128.989 226.622 129.271 226.341C129.552 226.059 129.71 225.678 129.71 225.28C129.71 224.882 129.552 224.501 129.271 224.219C128.989 223.938 128.608 223.78 128.21 223.78L119.04 223.85C111.507 223.91 103.973 223.97 96.44 224.03L67.28 224.27L38.88 224.55C31.96 224.623 25.0334 224.71 18.1 224.81H16.43L17.87 226.71C18.5343 222.993 20.0744 219.488 22.3629 216.485C24.6515 213.481 27.6225 211.066 31.03 209.44C37.2843 206.463 44.1561 205.013 51.08 205.21C54.7457 205.22 58.3859 205.821 61.86 206.99C66.64 208.62 71.09 210.99 75.77 212.92C79.27 214.34 83.49 215.75 87.21 214.27C89.7021 213.22 92.0866 211.93 94.33 210.42C96.1153 209.287 97.7894 207.988 99.33 206.54C101.53 204.42 103.03 201.85 104.73 199.35C106.837 196.491 109.634 194.214 112.86 192.73L110.8 192.2C112.33 194.47 114.02 196.64 115.69 198.8C118.087 202.012 120.647 205.1 123.36 208.05C124.69 209.45 126.81 207.33 125.49 205.93L125.48 205.94Z" fill="#0000FF"/>
<path d="M122.85 206.48C121.071 209.27 119.927 212.418 119.5 215.7C119.326 217.263 119.483 218.846 119.96 220.344C120.437 221.843 121.224 223.225 122.27 224.4C123.294 225.51 124.596 226.326 126.041 226.764C127.486 227.202 129.022 227.245 130.49 226.89C133.63 226.1 135.95 223.73 138.05 221.41C139.67 219.62 137.05 216.96 135.4 218.76C133.75 220.56 132.2 222.43 129.93 223.15C129.005 223.446 128.012 223.451 127.084 223.165C126.156 222.879 125.338 222.315 124.74 221.55C121.46 217.7 123.92 212.08 126.09 208.38C127.32 206.29 124.09 204.38 122.85 206.48Z" fill="#0000FF"/>
<path d="M112.93 193.48C120.4 193.04 128.03 188.29 131.12 181.36C131.356 180.927 131.418 180.42 131.294 179.942C131.169 179.465 130.868 179.053 130.45 178.79C130.02 178.541 129.509 178.472 129.027 178.598C128.546 178.723 128.134 179.033 127.88 179.46C126.506 182.341 124.395 184.809 121.761 186.612C119.127 188.416 116.063 189.491 112.88 189.73C112.622 189.711 112.363 189.746 112.12 189.831C111.876 189.917 111.652 190.052 111.463 190.228C111.274 190.404 111.123 190.617 111.02 190.854C110.916 191.091 110.863 191.347 110.863 191.605C110.863 191.863 110.916 192.119 111.02 192.356C111.123 192.593 111.274 192.806 111.463 192.982C111.652 193.158 111.876 193.293 112.12 193.379C112.363 193.464 112.622 193.499 112.88 193.48H112.93Z" fill="#0000FF"/>
<path d="M128.81 181.58C129.61 182.67 130.39 183.77 131.09 184.93C131.44 185.52 131.77 186.12 132.09 186.74L132.3 187.19C132.3 187.27 132.37 187.35 132.4 187.42V187.32C132.51 187.62 132.63 187.93 132.72 188.24C132.871 188.699 133.193 189.082 133.618 189.31C134.044 189.537 134.541 189.593 135.006 189.464C135.472 189.336 135.87 189.033 136.118 188.619C136.366 188.205 136.446 187.711 136.34 187.24C135.354 184.506 133.921 181.955 132.1 179.69C131.84 179.28 131.443 178.975 130.98 178.83C130.494 178.701 129.976 178.77 129.54 179.02C129.113 179.272 128.804 179.683 128.678 180.162C128.553 180.642 128.622 181.151 128.87 181.58H128.81Z" fill="#0000FF"/>
<path d="M141.48 213.97C147 209.61 150.79 202.82 149.31 195.65C147.95 189.04 141.38 184.24 134.65 185.86C132.3 186.43 133.29 190.04 135.65 189.48C140.74 188.25 145.19 192.48 145.82 197.32C146.56 202.99 143.09 207.96 138.82 211.32C138.473 211.673 138.278 212.149 138.278 212.645C138.278 213.141 138.473 213.617 138.82 213.97C139.177 214.31 139.652 214.5 140.145 214.5C140.638 214.5 141.113 214.31 141.47 213.97H141.48Z" fill="#0000FF"/>
<path d="M168.25 162.07C168.045 162.068 167.842 162.03 167.65 161.96L147.78 154.62C147.554 154.549 147.345 154.432 147.166 154.278C146.986 154.123 146.84 153.934 146.736 153.721C146.632 153.509 146.572 153.277 146.559 153.041C146.547 152.804 146.583 152.568 146.665 152.346C146.747 152.123 146.874 151.92 147.036 151.748C147.199 151.576 147.395 151.439 147.612 151.345C147.83 151.251 148.064 151.202 148.301 151.201C148.537 151.2 148.772 151.248 148.99 151.34L168.86 158.67C169.24 158.818 169.557 159.093 169.757 159.449C169.956 159.805 170.026 160.219 169.954 160.621C169.882 161.023 169.673 161.387 169.362 161.651C169.051 161.915 168.658 162.063 168.25 162.07Z" fill="#0000FF"/>
<path d="M271.69 143.86H179.95C179.486 143.86 179.041 143.676 178.713 143.347C178.384 143.019 178.2 142.574 178.2 142.11V68.73C178.2 68.2659 178.384 67.8207 178.713 67.4926C179.041 67.1644 179.486 66.98 179.95 66.98H293.63C294.094 66.98 294.539 67.1644 294.867 67.4926C295.196 67.8207 295.38 68.2659 295.38 68.73V77.11C295.38 77.5741 295.196 78.0192 294.867 78.3474C294.539 78.6756 294.094 78.86 293.63 78.86C293.166 78.86 292.721 78.6756 292.393 78.3474C292.064 78.0192 291.88 77.5741 291.88 77.11V70.48H181.7V140.36H271.7C272.164 140.36 272.609 140.544 272.937 140.873C273.266 141.201 273.45 141.646 273.45 142.11C273.45 142.574 273.266 143.019 272.937 143.347C272.609 143.676 272.164 143.86 271.7 143.86H271.69Z" fill="#0000FF"/>
<path d="M322.51 188.94C318.43 201.08 316.78 214 316.4 226.77C316.33 229.18 320.08 229.18 320.15 226.77C320.52 214.31 322.15 201.77 326.15 189.94C326.92 187.65 323.3 186.66 322.54 188.94H322.51Z" fill="#0000FF"/>
<path d="M338.94 190.9C337.28 198.84 339.82 206.9 344.75 213.18C346.9 215.94 349.88 217.25 353.15 218.25C357.46 219.58 361.87 220.35 366.26 221.35C370.12 222.22 374.06 223.94 376.02 227.57C377.17 229.7 380.41 227.8 379.26 225.68C375.37 218.48 366.77 217.78 359.66 216.11C357.52 215.61 355.38 215.04 353.29 214.37C351.822 213.967 350.437 213.307 349.2 212.42C346.96 210.67 345.56 207.68 344.29 205.21C342.219 201.098 341.609 196.404 342.56 191.9C343.05 189.54 339.43 188.54 338.94 190.9Z" fill="#0000FF"/>
<path d="M318.33 228.64L376.76 228.92C379.17 228.92 379.18 225.18 376.76 225.17L318.33 224.89C315.92 224.89 315.91 228.63 318.33 228.64Z" fill="#0000FF"/>
<path d="M406.85 67.42C411.521 68.8756 416.268 70.0741 421.07 71.01C425.906 71.7896 430.785 72.2805 435.68 72.48C438.09 72.61 438.08 68.86 435.68 68.73C431.014 68.5787 426.362 68.1413 421.75 67.42C417.059 66.4805 412.419 65.2989 407.85 63.88C405.53 63.21 404.54 66.82 406.85 67.5V67.42Z" fill="#0000FF"/>
<path d="M407.95 49.31C411.269 49.1063 414.526 48.3175 417.57 46.98C420.282 45.8993 422.806 44.3975 425.05 42.53C427.54 40.22 428.65 36.95 429.64 33.79C430.91 29.79 431.64 25.6 432.81 21.52C433.81 17.86 435.66 14.27 439.18 12.52C441.33 11.42 439.43 8.18996 437.28 9.27996C430.28 12.83 429.2 20.94 427.46 27.75C426.56 31.26 425.75 35.28 423.74 38.36C422.28 40.58 419.74 41.75 417.48 42.9C414.508 44.4062 411.271 45.3198 407.95 45.59C405.57 45.8 405.55 49.59 407.95 49.34V49.31Z" fill="#0000FF"/>
<path d="M438.67 70.21C439.27 50.7367 439.88 31.27 440.5 11.81C440.57 9.39003 436.82 9.40003 436.75 11.81C436.137 31.2834 435.527 50.75 434.92 70.21C434.84 72.63 438.59 72.62 438.67 70.21Z" fill="#0000FF"/>
<path d="M322.38 199.58L339.38 199.65C341.79 199.65 341.79 195.91 339.38 195.9L322.38 195.83C319.96 195.83 319.96 199.57 322.38 199.58Z" fill="#0000FF"/>
<path d="M215.79 69.17C218.954 66.2726 223.071 64.6374 227.36 64.5747C231.65 64.5121 235.813 66.0263 239.06 68.83C240.87 70.42 243.54 67.77 241.72 66.18C237.787 62.6319 232.66 60.6964 227.364 60.7594C222.067 60.8224 216.988 62.8793 213.14 66.52C211.36 68.16 214.02 70.81 215.79 69.17Z" fill="#0000FF"/>
<path d="M292.33 80.55H179.95C179.486 80.55 179.041 80.3657 178.713 80.0375C178.384 79.7093 178.2 79.2642 178.2 78.8C178.2 78.3359 178.384 77.8908 178.713 77.5626C179.041 77.2344 179.486 77.05 179.95 77.05H292.33C292.794 77.05 293.239 77.2344 293.567 77.5626C293.896 77.8908 294.08 78.3359 294.08 78.8C294.08 79.2642 293.896 79.7093 293.567 80.0375C293.239 80.3657 292.794 80.55 292.33 80.55Z" fill="#0000FF"/>
<path d="M276.68 91.23H189.33C188.866 91.23 188.421 91.0456 188.093 90.7174C187.764 90.3892 187.58 89.9441 187.58 89.48C187.58 89.0159 187.764 88.5707 188.093 88.2426C188.421 87.9144 188.866 87.73 189.33 87.73H276.64C277.104 87.73 277.549 87.9144 277.877 88.2426C278.206 88.5707 278.39 89.0159 278.39 89.48C278.39 89.9441 278.206 90.3892 277.877 90.7174C277.549 91.0456 277.104 91.23 276.64 91.23H276.68Z" fill="#0000FF"/>
<path d="M260.6 99.89H189.33C188.866 99.89 188.421 99.7056 188.093 99.3774C187.764 99.0493 187.58 98.6041 187.58 98.14C187.58 97.6759 187.764 97.2308 188.093 96.9026C188.421 96.5744 188.866 96.39 189.33 96.39H260.56C261.024 96.39 261.469 96.5744 261.797 96.9026C262.126 97.2308 262.31 97.6759 262.31 98.14C262.31 98.6041 262.126 99.0493 261.797 99.3774C261.469 99.7056 261.024 99.89 260.56 99.89H260.6Z" fill="#0000FF"/>
<path d="M269.44 108.55H189.33C188.866 108.55 188.421 108.366 188.093 108.037C187.764 107.709 187.58 107.264 187.58 106.8C187.58 106.336 187.764 105.891 188.093 105.563C188.421 105.234 188.866 105.05 189.33 105.05H269.4C269.864 105.05 270.309 105.234 270.637 105.563C270.966 105.891 271.15 106.336 271.15 106.8C271.15 107.264 270.966 107.709 270.637 108.037C270.309 108.366 269.864 108.55 269.4 108.55H269.44Z" fill="#0000FF"/>
<path d="M253.91 117.21H189.33C188.866 117.21 188.421 117.026 188.093 116.697C187.764 116.369 187.58 115.924 187.58 115.46C187.58 114.996 187.764 114.551 188.093 114.223C188.421 113.894 188.866 113.71 189.33 113.71H253.87C254.334 113.71 254.779 113.894 255.107 114.223C255.436 114.551 255.62 114.996 255.62 115.46C255.62 115.924 255.436 116.369 255.107 116.697C254.779 117.026 254.334 117.21 253.87 117.21H253.91Z" fill="#0000FF"/>
<path d="M223.48 125.87H189.33C188.866 125.87 188.421 125.686 188.093 125.357C187.764 125.029 187.58 124.584 187.58 124.12C187.58 123.656 187.764 123.211 188.093 122.883C188.421 122.554 188.866 122.37 189.33 122.37H223.44C223.904 122.37 224.349 122.554 224.677 122.883C225.006 123.211 225.19 123.656 225.19 124.12C225.19 124.584 225.006 125.029 224.677 125.357C224.349 125.686 223.904 125.87 223.44 125.87H223.48Z" fill="#0000FF"/>
<path d="M45.89 118.06H1.75C1.28587 118.06 0.840754 117.876 0.512566 117.547C0.184377 117.219 0 116.774 0 116.31C0 115.846 0.184377 115.401 0.512566 115.073C0.840754 114.744 1.28587 114.56 1.75 114.56H45.89C46.3541 114.56 46.7993 114.744 47.1274 115.073C47.4556 115.401 47.64 115.846 47.64 116.31C47.64 116.774 47.4556 117.219 47.1274 117.547C46.7993 117.876 46.3541 118.06 45.89 118.06Z" fill="#0000FF"/>
<path d="M57.24 108.55H31.61C31.1459 108.55 30.7007 108.366 30.3726 108.037C30.0444 107.709 29.86 107.264 29.86 106.8C29.86 106.336 30.0444 105.891 30.3726 105.563C30.7007 105.234 31.1459 105.05 31.61 105.05H57.24C57.7041 105.05 58.1492 105.234 58.4774 105.563C58.8056 105.891 58.99 106.336 58.99 106.8C58.99 107.264 58.8056 107.709 58.4774 108.037C58.1492 108.366 57.7041 108.55 57.24 108.55Z" fill="#0000FF"/>
<path d="M185.63 75.39C186.563 75.39 187.32 74.6334 187.32 73.7C187.32 72.7667 186.563 72.01 185.63 72.01C184.697 72.01 183.94 72.7667 183.94 73.7C183.94 74.6334 184.697 75.39 185.63 75.39Z" fill="#0000FF"/>
<path d="M189.91 75.39C190.843 75.39 191.6 74.6334 191.6 73.7C191.6 72.7667 190.843 72.01 189.91 72.01C188.977 72.01 188.22 72.7667 188.22 73.7C188.22 74.6334 188.977 75.39 189.91 75.39Z" fill="#0000FF"/>
<path d="M194.2 75.39C195.133 75.39 195.89 74.6334 195.89 73.7C195.89 72.7667 195.133 72.01 194.2 72.01C193.267 72.01 192.51 72.7667 192.51 73.7C192.51 74.6334 193.267 75.39 194.2 75.39Z" fill="#0000FF"/>
<path d="M127.93 1.75H85.25V44.43H127.93V1.75Z" fill="#FF5657"/>
<path d="M127.94 46.18H85.25C84.7859 46.18 84.3407 45.9956 84.0126 45.6674C83.6844 45.3392 83.5 44.8941 83.5 44.43V1.75C83.5 1.28587 83.6844 0.840747 84.0126 0.512558C84.3407 0.184369 84.7859 0 85.25 0H127.94C128.404 0 128.849 0.184369 129.177 0.512558C129.506 0.840747 129.69 1.28587 129.69 1.75V44.42C129.691 44.6507 129.647 44.8793 129.56 45.0928C129.472 45.3062 129.344 45.5003 129.181 45.6639C129.018 45.8275 128.825 45.9573 128.612 46.0458C128.399 46.1344 128.171 46.18 127.94 46.18ZM87 42.68H126.19V3.5H87V42.68Z" fill="#0000FF"/>
<path d="M444 183.2C451.32 183.2 458.34 180.292 463.516 175.116C468.692 169.94 471.6 162.92 471.6 155.6C471.6 148.28 468.692 141.26 463.516 136.084C458.34 130.908 451.32 128 444 128V183.2Z" fill="#417CFF"/>
<path d="M444.07 185.02C443.606 185.02 443.161 184.836 442.833 184.507C442.504 184.179 442.32 183.734 442.32 183.27V128.07C442.32 127.606 442.504 127.161 442.833 126.833C443.161 126.504 443.606 126.32 444.07 126.32C451.854 126.32 459.319 129.412 464.824 134.916C470.328 140.421 473.42 147.886 473.42 155.67C473.42 163.454 470.328 170.919 464.824 176.424C459.319 181.928 451.854 185.02 444.07 185.02ZM445.82 129.88V181.42C452.356 180.974 458.479 178.063 462.951 173.275C467.422 168.488 469.91 162.181 469.91 155.63C469.91 149.079 467.422 142.772 462.951 137.985C458.479 133.197 452.356 130.286 445.82 129.84V129.88Z" fill="#0000FF"/>
<path d="M150.81 204.36C156.26 199.41 163.56 195.54 170.96 194.75C174.23 194.41 177.77 194.93 179.28 198.23C180.79 201.53 180.33 205.54 180.23 208.99C180.077 214.045 179.663 219.088 178.99 224.1C178.85 225.1 179.99 225.98 180.86 225.98C181.355 225.967 181.825 225.765 182.175 225.415C182.525 225.065 182.727 224.595 182.74 224.1C183.413 219.088 183.827 214.045 183.98 208.99C184.1 204.86 184.38 200.34 182.59 196.5C178.65 188.03 167.27 190.99 160.59 193.78C156.022 195.689 151.817 198.372 148.16 201.71C146.37 203.33 149.02 205.98 150.81 204.36Z" fill="#0000FF"/>
<path d="M23.13 108.53C24.0854 108.53 24.86 107.755 24.86 106.8C24.86 105.845 24.0854 105.07 23.13 105.07C22.1745 105.07 21.4 105.845 21.4 106.8C21.4 107.755 22.1745 108.53 23.13 108.53Z" fill="#0000FF"/>
</svg>
