<svg width="448" height="275" viewBox="0 0 448 275" fill="none" xmlns="http://www.w3.org/2000/svg">
<path d="M152.75 54.2102L136.44 54.9002L130.31 68.0402L135.88 71.3502L145.11 65.4202L152.75 54.2102Z" fill="#FFCB05"/>
<path d="M249.99 166.78L238.13 169.2L207.1 194.02L183.08 216.36L184.91 226.67H247.32L249.16 217.55L250.74 206.43L260.31 189.84L260.54 173.45L249.99 166.78Z" fill="#FFCB05"/>
<path d="M98.2404 192.6L75.5204 193.98L47.6804 241.45L49.5304 248.72L64.8304 250.77L118.87 250.35V244.36L120.9 235.61L151.33 183.36L162.34 162.66L159.98 156.91L155.18 156.73L139.43 169.28L118.87 183.07L104.87 190.07L98.2404 192.6Z" fill="#FFCB05"/>
<path d="M94.4804 116.42L98.2404 122.82L89.6904 141.65L71.1304 180.22L75.3204 192.35L27.3204 192.96L9.56036 192.6L2.88037 181.31L8.09037 167.97L28.3404 129.72L68.6804 129.87L73.3204 129.23L79.2904 121.54L89.9704 116.42H94.4804Z" fill="#FFCB05"/>
<path d="M91.4704 3.0802L77.1304 3.7202L59.5304 18.8402L38.0304 44.7902L14.3004 85.4802L3.15037 114.34L2.88037 125.23L8.90037 129.72L34.8304 130.12L60.5804 129.72V121.53L64.5904 106.65L80.7304 74.3902L104.63 40.0102L134.56 9.3602L138.79 4.6102L91.4704 3.0802Z" fill="#FFCB05"/>
<path d="M238.131 166.72L173.511 168.06L146.731 191.55L118.01 242.35L121.331 250.11L137.711 247.53L173.781 224.14L219.261 183.27L238.131 166.72Z" fill="#0000FF"/>
<path d="M88.2704 156.32L81.3104 157.37L72.3204 174.9L72.6104 186.29L82.6904 192.6L101.52 191.09L122.21 180.87L144.67 164.76L152.5 156.78L88.2704 156.32Z" fill="#0000FF"/>
<path d="M71.1104 115.6L61.6304 116.85V127.52L67.3504 129.72L77.4004 123.38L83.0604 116.63L71.1104 115.6Z" fill="#0000FF"/>
<path d="M154.86 3.72021L139.57 5.07022L110.53 33.0002L87.1203 64.0402L83.5603 71.0202L101.88 71.4802L132.45 71.1302L130.05 65.7102L145.77 41.4202L163.23 14.6002L161.78 6.41022L154.86 3.72021Z" fill="#0000FF"/>
<path d="M333.1 238.16H183.46C182.996 238.16 182.551 237.976 182.223 237.648C181.895 237.319 181.71 236.874 181.71 236.41V122.82C181.71 122.356 181.895 121.911 182.223 121.583C182.551 121.255 182.996 121.07 183.46 121.07H333.1C333.565 121.07 334.01 121.255 334.338 121.583C334.666 121.911 334.85 122.356 334.85 122.82V236.39C334.852 236.621 334.808 236.85 334.72 237.064C334.633 237.279 334.505 237.473 334.342 237.638C334.18 237.802 333.986 237.933 333.773 238.022C333.56 238.112 333.332 238.159 333.1 238.16ZM185.22 234.64H331.35V124.57H185.22V234.64Z" fill="#0000FF"/>
<path d="M72.8905 3.32015C62.5142 12.5423 52.9429 22.6321 44.2805 33.4801C26.903 55.168 13.2935 79.6218 4.02051 105.82C2.85051 109.13 1.64051 112.47 0.750505 115.82C-0.139495 119.17 -0.529493 122.96 1.26051 126.14C4.34051 131.61 11.5205 131.9 17.0605 131.93C31.7505 132.03 46.4405 131.84 61.1305 131.88H66.2405C68.6605 131.88 68.6605 128.15 66.2405 128.13C51.9905 128.03 37.7405 128.2 23.4905 128.19C20.3305 128.19 17.1605 128.25 14.0005 128.1C11.4505 127.99 8.69051 127.67 6.48051 126.28C3.76051 124.57 3.41051 121.39 3.98051 118.46C4.72667 115.21 5.69904 112.015 6.8905 108.9C20.5392 69.2338 44.1874 33.758 75.5505 5.90015C77.3505 4.30015 74.6905 1.65014 72.8905 3.25014V3.32015Z" fill="#0000FF"/>
<path d="M141.55 1.67023C124.63 13.6702 110.33 29.2702 97.7804 45.6702C84.1004 63.5702 72.2705 83.1902 64.0504 104.21C62.0974 108.861 60.4832 113.647 59.2204 118.53C58.6335 120.727 58.5582 123.03 59.0004 125.26C59.326 126.537 59.9079 127.735 60.7107 128.78C61.5135 129.825 62.5205 130.696 63.6704 131.34C65.7404 132.59 67.6704 129.34 65.5604 128.1C62.0304 125.98 62.0904 122.22 63.0604 118.63C64.2321 114.444 65.6207 110.322 67.2204 106.28C71.0635 96.4296 75.6501 86.8854 80.9404 77.7302C91.6555 58.8862 104.661 41.4403 119.66 25.7902C126.904 18.1003 134.856 11.1094 143.41 4.91024C145.41 3.52024 143.5 0.270232 141.52 1.67023H141.55Z" fill="#0000FF"/>
<path d="M25.9605 130.16L10.2905 160.74L6.2905 168.5C5.02718 170.754 3.92121 173.093 2.98051 175.5C1.73051 179.1 1.47051 183.72 3.13051 187.23C3.95688 189.135 5.24255 190.805 6.8725 192.091C8.50244 193.377 10.4258 194.239 12.4705 194.6C16.6005 195.26 20.9205 194.91 25.0905 194.88L53.5105 194.62L84.7105 194.35C87.1205 194.35 87.1205 190.58 84.7105 190.6C66.7905 190.74 48.8705 190.9 30.9505 191.08L18.4805 191.18C16.5062 191.277 14.5272 191.153 12.5805 190.81C10.7315 190.445 9.08868 189.395 7.98051 187.87C7.02309 186.745 6.33862 185.414 5.98051 183.98C5.67363 182.177 5.70754 180.331 6.0805 178.54C6.60203 176.328 7.455 174.207 8.6105 172.25C9.8805 169.79 11.1405 167.31 12.4105 164.84L29.2105 132.04C30.3005 129.9 27.0705 128.04 25.9705 130.15L25.9605 130.16Z" fill="#0000FF"/>
<path d="M95.1405 127.16C90.8705 135.5 86.4205 143.76 82.0105 152.03C79.8205 156.14 77.6905 160.29 75.4605 164.39C73.5305 167.95 71.4005 171.47 70.1705 175.39C68.7905 179.76 68.9105 184.39 71.7005 188.21C71.9633 188.628 72.3754 188.929 72.8528 189.054C73.3303 189.178 73.8372 189.116 74.2705 188.88C74.697 188.628 75.0067 188.217 75.1322 187.738C75.2576 187.259 75.1887 186.749 74.9405 186.32C70.1205 179.75 75.6905 171.91 78.9405 165.94C83.1005 158.2 87.2005 150.41 91.3305 142.64C93.7238 138.133 96.0871 133.613 98.4205 129.08C99.5205 126.94 96.2805 125.08 95.1805 127.19L95.1405 127.16Z" fill="#0000FF"/>
<path d="M75.3704 190.6L59.3704 217.12L51.3704 230.38C49.0604 234.2 46.1304 238.16 45.5704 242.71C45.3028 244.652 45.7313 246.627 46.7801 248.283C47.8289 249.94 49.4303 251.171 51.3004 251.76C55.1904 253.16 59.7604 252.64 63.8004 252.61L91.5404 252.41L123.34 252.19C125.75 252.19 125.76 248.43 123.34 248.44C105.68 248.554 88.0137 248.68 70.3404 248.82C65.9004 248.82 61.4404 249 57.0004 248.88C54.0504 248.81 49.8204 248.32 49.2504 244.72C48.6404 240.8 51.9104 236.72 53.8004 233.56L61.4204 220.94L78.6104 192.5C79.8604 190.43 76.6104 188.5 75.3704 190.6Z" fill="#0000FF"/>
<path d="M140.94 197.87C137.1 204.23 133.36 210.65 129.64 217.07C127.9 220.09 126.147 223.09 124.38 226.07C122.38 229.5 120.15 232.87 118.27 236.39C116.39 239.91 114.88 244.52 117.27 248.33C118.54 250.33 121.79 248.49 120.51 246.44C118.71 243.55 120.51 240 122.03 237.38C123.91 234.09 125.93 230.87 127.85 227.6C131.15 221.99 134.38 216.34 137.66 210.73C139.807 207.05 141.984 203.384 144.19 199.73C145.44 197.66 142.19 195.73 140.96 197.83L140.94 197.87Z" fill="#0000FF"/>
<path d="M75.5504 5.97018C77.3504 4.33018 79.9704 3.97018 82.3104 3.86018C85.3104 3.70018 88.4204 3.92018 91.4704 3.99018C98.7804 4.18018 106.09 4.33018 113.4 4.50018L134.83 4.99018L145.83 5.24018C148.875 5.19515 151.919 5.31533 154.95 5.60018C157.07 5.88018 159.61 6.48019 161 8.26019C162.82 10.5802 161.83 13.6902 160.61 16.0402C158.959 18.9215 157.139 21.703 155.16 24.3702C153.16 27.3102 151.16 30.2568 149.16 33.2102C145.08 39.2102 141 45.2102 136.85 51.1402C135.05 53.7002 133.11 56.1402 131.31 58.7102C129.482 61.0765 128.362 63.9129 128.08 66.8902C128.039 67.6933 128.156 68.4968 128.424 69.2547C128.693 70.0126 129.109 70.7101 129.648 71.3073C130.186 71.9044 130.837 72.3896 131.564 72.735C132.29 73.0804 133.077 73.2792 133.88 73.3202C137.07 73.6402 140.16 72.0002 142.6 70.1302C147.965 66.0785 152.447 60.9743 155.77 55.1302C155.932 54.8445 156.016 54.5217 156.015 54.1935C156.014 53.8653 155.927 53.5431 155.764 53.2586C155.601 52.974 155.366 52.7369 155.083 52.5706C154.8 52.4043 154.479 52.3146 154.15 52.3102L137.03 52.1602C134.61 52.1602 134.61 55.8902 137.03 55.9102L154.1 56.0702L152.48 53.2402C149.49 58.4105 145.551 62.9703 140.87 66.6802C139.03 68.2002 136.49 69.8802 133.97 69.5602C130.85 69.1602 131.76 65.5602 132.68 63.5602C133.9 60.9202 135.9 58.7302 137.6 56.4002C139.69 53.5502 141.67 50.6102 143.67 47.7102C147.67 41.8502 151.67 35.9602 155.67 30.0902C157.67 27.0902 159.77 24.0902 161.8 21.0902C163.658 18.6145 164.94 15.7548 165.55 12.7202C165.776 11.3657 165.683 9.97725 165.278 8.665C164.874 7.35276 164.169 6.15277 163.22 5.16018C161.377 3.50763 159.082 2.44225 156.63 2.10018C153.715 1.69371 150.774 1.50652 147.83 1.54019L136.83 1.29019L115.4 0.80018C107.28 0.62018 99.1704 0.460182 91.0504 0.240182C85.1504 0.0801823 77.6604 -1.01982 72.9004 3.33018C71.1204 4.96018 73.7804 7.61019 75.5604 5.98019L75.5504 5.97018Z" fill="#0000FF"/>
<path d="M62.2905 130.64C63.669 131.378 65.2013 131.782 66.7644 131.82C68.3274 131.858 69.8776 131.53 71.2905 130.86C74.5205 129.32 76.9405 126.43 79.4405 123.97C81.7005 121.75 84.1405 119.42 87.1105 118.2C89.6405 117.15 93.4405 117.05 95.4205 119.3C97.4005 121.55 95.9005 125.3 94.9205 127.65C94.7942 128.129 94.8607 128.638 95.1057 129.068C95.3506 129.498 95.7545 129.815 96.2305 129.95C96.7102 130.071 97.2182 130.003 97.6485 129.759C98.0789 129.515 98.3984 129.114 98.5405 128.64C99.7205 125.81 100.671 122.44 99.6805 119.4C98.5105 115.82 94.8705 114.05 91.3205 113.76C84.0105 113.16 78.5405 119.67 73.8305 124.27C72.2605 125.8 70.5105 127.41 68.3405 128.01C66.9148 128.274 65.4418 128.06 64.1505 127.4C61.9905 126.32 60.0905 129.56 62.2605 130.64H62.2905Z" fill="#0000FF"/>
<path d="M71.9904 188.59C76.7104 194.05 85.3304 194.81 91.9904 194.44C100.99 193.95 109.24 190.9 116.99 186.44C125.93 181.22 133.99 174.58 142.23 168.33L148.94 163.23C150.813 161.618 152.821 160.17 154.94 158.9C156.57 158.05 158.94 157.72 159.94 159.59C160.94 161.46 160.31 163.69 159.43 165.48C158.11 168.19 156.43 170.77 154.95 173.39L150.26 181.57L140.88 197.91C139.67 200.01 142.88 201.91 144.11 199.81L161.28 169.91C163.55 165.96 165.85 160.84 162.51 156.75C161.764 155.882 160.804 155.223 159.726 154.838C158.648 154.452 157.488 154.353 156.36 154.55C153.91 154.89 151.89 156.28 149.96 157.74C141.14 164.43 132.46 171.35 123.43 177.74C115.64 183.26 107.19 188.28 97.6904 190.05C93.3523 190.903 88.9049 191.048 84.5204 190.48C80.9004 189.97 77.0504 188.83 74.5804 185.98C73.0004 184.15 70.3604 186.81 71.9304 188.63L71.9904 188.59Z" fill="#0000FF"/>
<path d="M117.22 248.37C119.05 252.7 125.22 252.74 129.14 252.13C133.097 251.378 136.932 250.089 140.54 248.3C149.54 244.14 157.82 238.48 165.77 232.62C172.17 227.91 178.42 222.95 184.38 217.69C191.94 211.01 199.17 203.95 206.54 197.07C211.07 192.85 215.63 188.65 220.3 184.58C223.889 181.337 227.665 178.309 231.61 175.51C233.61 174.16 231.72 170.91 229.72 172.27C221.87 177.64 214.84 184.27 207.86 190.73C200.25 197.73 192.8 204.95 185.16 211.94C179.75 216.94 174.1 221.6 168.27 226.07C160.677 232.067 152.637 237.476 144.22 242.25C140.148 244.612 135.811 246.485 131.3 247.83C129.595 248.355 127.824 248.641 126.04 248.68C124.13 248.68 121.35 248.47 120.51 246.48C120.256 246.053 119.844 245.743 119.364 245.616C118.884 245.489 118.373 245.555 117.94 245.8C117.521 246.061 117.218 246.474 117.093 246.952C116.968 247.43 117.032 247.937 117.27 248.37H117.22Z" fill="#0000FF"/>
<path d="M231.64 175.51C236.9 171.65 243.19 167.7 250.01 168.66C252.951 168.901 255.681 170.281 257.618 172.506C259.556 174.731 260.547 177.625 260.38 180.57C260.44 187.57 256.5 193.46 252.9 199.11C251.098 201.641 249.582 204.364 248.38 207.23C247.642 209.574 247.218 212.005 247.12 214.46C246.969 218.444 247.022 222.432 247.28 226.41C247.36 228.82 251.11 228.83 251.03 226.41C250.92 222.77 250.62 219.18 250.8 215.53C250.848 213.052 251.252 210.593 252 208.23C252.561 206.869 253.254 205.566 254.07 204.34C255.07 202.65 256.15 201 257.2 199.34C260.99 193.34 264.6 186.78 264.09 179.45C263.947 176.121 262.714 172.932 260.58 170.373C258.446 167.815 255.529 166.028 252.28 165.29C243.99 163.34 236.23 167.51 229.75 172.29C229.333 172.553 229.031 172.965 228.907 173.443C228.782 173.92 228.844 174.427 229.08 174.86C229.333 175.287 229.743 175.596 230.223 175.722C230.702 175.847 231.212 175.778 231.64 175.53V175.51Z" fill="#0000FF"/>
<path d="M158.07 158.07H81.8704C81.4062 158.07 80.9611 157.886 80.6329 157.558C80.3047 157.229 80.1204 156.784 80.1204 156.32C80.1204 155.856 80.3047 155.411 80.6329 155.083C80.9611 154.755 81.4062 154.57 81.8704 154.57H158.07C158.535 154.57 158.98 154.755 159.308 155.083C159.636 155.411 159.82 155.856 159.82 156.32C159.82 156.784 159.636 157.229 159.308 157.558C158.98 157.886 158.535 158.07 158.07 158.07Z" fill="#0000FF"/>
<path d="M91.6405 117.42H62.0105C61.5464 117.42 61.1013 117.236 60.7731 116.908C60.4449 116.579 60.2605 116.134 60.2605 115.67C60.2605 115.206 60.4449 114.761 60.7731 114.433C61.1013 114.105 61.5464 113.92 62.0105 113.92H91.6405C92.1046 113.92 92.5498 114.105 92.8779 114.433C93.2061 114.761 93.3905 115.206 93.3905 115.67C93.3905 116.134 93.2061 116.579 92.8779 116.908C92.5498 117.236 92.1046 117.42 91.6405 117.42Z" fill="#0000FF"/>
<path d="M134.56 73.2302H82.4604C81.9963 73.2302 81.5512 73.0458 81.223 72.7177C80.8948 72.3895 80.7104 71.9444 80.7104 71.4802C80.7104 71.0161 80.8948 70.571 81.223 70.2428C81.5512 69.9146 81.9963 69.7302 82.4604 69.7302H134.56C135.025 69.7302 135.47 69.9146 135.798 70.2428C136.126 70.571 136.31 71.0161 136.31 71.4802C136.31 71.9444 136.126 72.3895 135.798 72.7177C135.47 73.0458 135.025 73.2302 134.56 73.2302Z" fill="#0000FF"/>
<path d="M150.15 190.1C154.36 186.37 158.42 182.49 162.49 178.61C166.56 174.73 170.77 170.19 176.62 169.21C178.135 169.015 179.664 168.945 181.19 169H188.19L210.73 168.84L234.51 168.67C238.69 168.67 242.91 168.77 247.08 168.58H247.27C249.68 168.58 249.69 164.81 247.27 164.83L236.73 164.9L213.35 165.07L189.94 165.24C186.27 165.24 182.6 165.24 178.94 165.32C175.688 165.357 172.495 166.203 169.65 167.78C167.057 169.404 164.661 171.324 162.51 173.5C158.85 176.84 155.36 180.36 151.7 183.71C150.3 184.98 148.9 186.25 147.48 187.5C145.67 189.1 148.33 191.74 150.13 190.15L150.15 190.1Z" fill="#0000FF"/>
<path d="M333.1 139.35H183.46C182.996 139.35 182.551 139.166 182.223 138.838C181.895 138.509 181.71 138.064 181.71 137.6C181.71 137.136 181.895 136.691 182.223 136.363C182.551 136.035 182.996 135.85 183.46 135.85H333.1C333.565 135.85 334.01 136.035 334.338 136.363C334.666 136.691 334.85 137.136 334.85 137.6C334.85 138.064 334.666 138.509 334.338 138.838C334.01 139.166 333.565 139.35 333.1 139.35Z" fill="#0000FF"/>
<path d="M333.1 223.24H248.85C248.386 223.24 247.941 223.056 247.613 222.728C247.285 222.4 247.1 221.954 247.1 221.49C247.1 221.026 247.285 220.581 247.613 220.253C247.941 219.925 248.386 219.74 248.85 219.74H333.1C333.564 219.74 334.01 219.925 334.338 220.253C334.666 220.581 334.85 221.026 334.85 221.49C334.85 221.954 334.666 222.4 334.338 222.728C334.01 223.056 333.564 223.24 333.1 223.24Z" fill="#0000FF"/>
<path d="M249.16 228.42H183.46C182.996 228.42 182.551 228.236 182.223 227.908C181.895 227.579 181.71 227.134 181.71 226.67C181.71 226.206 181.895 225.761 182.223 225.433C182.551 225.105 182.996 224.92 183.46 224.92H249.16C249.625 224.92 250.07 225.105 250.398 225.433C250.726 225.761 250.91 226.206 250.91 226.67C250.91 227.134 250.726 227.579 250.398 227.908C250.07 228.236 249.625 228.42 249.16 228.42Z" fill="#0000FF"/>
<path d="M340.37 245.16H281.31C280.846 245.16 280.401 244.976 280.073 244.648C279.745 244.319 279.56 243.874 279.56 243.41C279.56 242.946 279.745 242.501 280.073 242.173C280.401 241.845 280.846 241.66 281.31 241.66H338.62V124.75C338.62 124.286 338.805 123.841 339.133 123.513C339.461 123.185 339.906 123 340.37 123C340.834 123 341.28 123.185 341.608 123.513C341.936 123.841 342.12 124.286 342.12 124.75V243.4C342.122 243.631 342.077 243.86 341.99 244.073C341.903 244.287 341.774 244.481 341.611 244.644C341.449 244.808 341.255 244.938 341.042 245.026C340.829 245.115 340.601 245.16 340.37 245.16Z" fill="#0000FF"/>
<path d="M272.6 238.44C272.6 247.21 273.36 256.13 279 263.28C281.225 266.26 284.133 268.661 287.48 270.28C290.294 271.303 293.235 271.936 296.22 272.16C297.66 272.35 299.1 272.49 300.53 272.72C301.04 272.8 301.53 272.89 302.06 273.02C302.22 273.02 302.72 273.13 302.5 273.15C302.28 273.17 302.44 273.05 302.5 273.15C302.56 273.25 302.61 273.22 302.5 273.15C302.307 273.021 302.152 272.842 302.05 272.633C301.949 272.424 301.904 272.192 301.92 271.96C301.935 272.454 302.138 272.924 302.488 273.273C302.837 273.622 303.306 273.825 303.8 273.84C304.297 273.838 304.773 273.638 305.123 273.286C305.474 272.934 305.67 272.457 305.67 271.96C305.42 269.59 302.82 269.31 300.91 269.04C298.05 268.63 295.16 268.39 292.34 267.79C289.321 267.165 286.544 265.687 284.34 263.53C281.407 260.801 279.236 257.354 278.04 253.53C276.52 248.65 276.4 243.53 276.39 238.44C276.356 237.967 276.143 237.524 275.795 237.2C275.448 236.877 274.99 236.697 274.515 236.697C274.04 236.697 273.583 236.877 273.235 237.2C272.888 237.524 272.675 237.967 272.64 238.44H272.6Z" fill="#0000FF"/>
<path d="M239.87 238.44C239.87 247.14 239.17 256.14 232.76 262.7C230.635 265.027 227.913 266.728 224.89 267.62C222.036 268.316 219.14 268.831 216.22 269.16C214.67 269.37 210.68 269.32 210.28 271.44C209.84 273.8 213.46 274.81 213.9 272.44C214.81 267.55 212.73 273.93 213.19 273.44C213.14 273.5 212.72 273.54 212.97 273.53C213.104 273.509 213.235 273.472 213.36 273.42C213.8 273.33 214.23 273.25 214.67 273.18C215.92 272.98 217.18 272.83 218.43 272.65C221.366 272.331 224.267 271.752 227.1 270.92C234.43 268.52 239.9 261.3 242.02 254.13C243.51 249.07 243.66 243.71 243.67 238.47C243.67 236.05 239.93 236.05 239.92 238.47L239.87 238.44Z" fill="#0000FF"/>
<path d="M400.22 274.87C400.091 274.885 399.96 274.885 399.83 274.87C393.48 274.38 211.93 274.68 116.4 274.87C115.87 274.87 115.361 274.659 114.986 274.284C114.611 273.909 114.4 273.401 114.4 272.87C114.4 272.34 114.611 271.831 114.986 271.456C115.361 271.081 115.87 270.87 116.4 270.87C117.11 270.87 188 270.7 258.06 270.62C299.21 270.62 332.06 270.56 355.6 270.62C369.6 270.62 380.45 270.67 387.85 270.72C400.94 270.79 400.94 270.79 401.64 271.5C401.918 271.78 402.108 272.135 402.184 272.522C402.26 272.909 402.221 273.31 402.07 273.674C401.92 274.039 401.665 274.351 401.337 274.57C401.01 274.79 400.625 274.909 400.23 274.91L400.22 274.87Z" fill="#0000FF"/>
<path d="M435.8 240.1H395.22C394.756 240.1 394.311 239.916 393.983 239.588C393.655 239.259 393.47 238.814 393.47 238.35C393.47 237.886 393.655 237.441 393.983 237.113C394.311 236.785 394.756 236.6 395.22 236.6H435.8C436.265 236.6 436.71 236.785 437.038 237.113C437.366 237.441 437.55 237.886 437.55 238.35C437.55 238.814 437.366 239.259 437.038 239.588C436.71 239.916 436.265 240.1 435.8 240.1Z" fill="#0000FF"/>
<path d="M445.98 230.59H420.35C419.886 230.59 419.441 230.406 419.113 230.078C418.785 229.749 418.6 229.304 418.6 228.84C418.6 228.376 418.785 227.931 419.113 227.603C419.441 227.275 419.886 227.09 420.35 227.09H445.98C446.444 227.09 446.89 227.275 447.218 227.603C447.546 227.931 447.73 228.376 447.73 228.84C447.73 229.304 447.546 229.749 447.218 230.078C446.89 230.406 446.444 230.59 445.98 230.59Z" fill="#0000FF"/>
<path d="M411.56 230.57C412.516 230.57 413.29 229.796 413.29 228.84C413.29 227.885 412.516 227.11 411.56 227.11C410.605 227.11 409.83 227.885 409.83 228.84C409.83 229.796 410.605 230.57 411.56 230.57Z" fill="#0000FF"/>
<path d="M247.301 60.2802H194.301C193.836 60.2802 193.391 60.0958 193.063 59.7676C192.735 59.4394 192.551 58.9943 192.551 58.5302C192.551 58.066 192.735 57.6209 193.063 57.2927C193.391 56.9645 193.836 56.7802 194.301 56.7802H247.301C247.765 56.7802 248.21 56.9645 248.538 57.2927C248.866 57.6209 249.051 58.066 249.051 58.5302C249.051 58.9943 248.866 59.4394 248.538 59.7676C248.21 60.0958 247.765 60.2802 247.301 60.2802Z" fill="#0000FF"/>
<path d="M291.22 69.7902H209.95C209.486 69.7902 209.041 69.6058 208.713 69.2776C208.385 68.9494 208.2 68.5043 208.2 68.0402C208.2 67.576 208.385 67.1309 208.713 66.8027C209.041 66.4745 209.486 66.2902 209.95 66.2902H291.22C291.685 66.2902 292.13 66.4745 292.458 66.8027C292.786 67.1309 292.97 67.576 292.97 68.0402C292.97 68.5043 292.786 68.9494 292.458 69.2776C292.13 69.6058 291.685 69.7902 291.22 69.7902Z" fill="#0000FF"/>
<path d="M300.011 69.7702C300.966 69.7702 301.741 68.9956 301.741 68.0402C301.741 67.0847 300.966 66.3102 300.011 66.3102C299.055 66.3102 298.281 67.0847 298.281 68.0402C298.281 68.9956 299.055 69.7702 300.011 69.7702Z" fill="#0000FF"/>
<path d="M388.62 96.8302C400.356 96.8302 409.87 87.3162 409.87 75.5802C409.87 63.8441 400.356 54.3302 388.62 54.3302C376.884 54.3302 367.37 63.8441 367.37 75.5802C367.37 87.3162 376.884 96.8302 388.62 96.8302Z" fill="#FF5657"/>
<path d="M388.62 98.5802C384.071 98.5802 379.625 97.2313 375.842 94.704C372.06 92.1767 369.112 88.5846 367.371 84.3819C365.63 80.1792 365.175 75.5547 366.062 71.0931C366.95 66.6316 369.14 62.5334 372.357 59.3167C375.574 56.1001 379.672 53.9096 384.133 53.0221C388.595 52.1347 393.219 52.5902 397.422 54.331C401.625 56.0718 405.217 59.0198 407.744 62.8021C410.271 66.5844 411.62 71.0312 411.62 75.5802C411.62 81.6802 409.197 87.5303 404.884 91.8437C400.57 96.157 394.72 98.5802 388.62 98.5802ZM388.62 56.0802C384.764 56.0822 380.995 57.2275 377.789 59.3714C374.584 61.5153 372.086 64.5615 370.612 68.1248C369.137 71.6881 368.753 75.6086 369.506 79.3906C370.26 83.1726 372.118 86.6462 374.845 89.3723C377.573 92.0984 381.047 93.9546 384.83 94.7062C388.612 95.4578 392.532 95.0711 396.095 93.5949C399.658 92.1187 402.702 89.6193 404.845 86.4128C406.987 83.2062 408.13 79.4365 408.13 75.5802C408.122 70.4092 406.064 65.4524 402.407 61.7969C398.749 58.1413 393.791 56.0855 388.62 56.0802Z" fill="#0000FF"/>
<path d="M272.58 253.13C274.696 253.13 276.41 251.415 276.41 249.3C276.41 247.185 274.696 245.47 272.58 245.47C270.465 245.47 268.75 247.185 268.75 249.3C268.75 251.415 270.465 253.13 272.58 253.13Z" fill="#0000FF"/>
<path d="M258.03 253.13C260.146 253.13 261.86 251.415 261.86 249.3C261.86 247.185 260.146 245.47 258.03 245.47C255.915 245.47 254.2 247.185 254.2 249.3C254.2 251.415 255.915 253.13 258.03 253.13Z" fill="#0000FF"/>
<path d="M243.48 253.13C245.596 253.13 247.31 251.415 247.31 249.3C247.31 247.185 245.596 245.47 243.48 245.47C241.365 245.47 239.65 247.185 239.65 249.3C239.65 251.415 241.365 253.13 243.48 253.13Z" fill="#0000FF"/>
<path d="M265.57 243.05C267.686 243.05 269.4 241.335 269.4 239.22C269.4 237.105 267.686 235.39 265.57 235.39C263.455 235.39 261.74 237.105 261.74 239.22C261.74 241.335 263.455 243.05 265.57 243.05Z" fill="#0000FF"/>
<path d="M251.02 243.05C253.136 243.05 254.85 241.335 254.85 239.22C254.85 237.105 253.136 235.39 251.02 235.39C248.905 235.39 247.19 237.105 247.19 239.22C247.19 241.335 248.905 243.05 251.02 243.05Z" fill="#0000FF"/>
</svg>
