<svg width="401" height="491" viewBox="0 0 401 491" fill="none" xmlns="http://www.w3.org/2000/svg">
<path d="M198.56 64.7L194.04 68.74L182.37 76.02L179.56 73.78L168.11 72.17L165.74 79.31L167.67 86.85L161.84 89.73L153.5 83.83V73.34L148.22 68.37L148.44 58.28L157.22 52.83L164.45 55.55L167.78 47.72L173.9 45.94L183.29 51.72L189.3 52.9L195.46 43.33L198.12 47.38L197.94 62.28L198.56 64.7Z" fill="#0000FF"/>
<path d="M16.16 136.28L18.43 146.41L17.82 156.53L132.49 149.19L137.08 126.37L16.16 136.28Z" fill="#0000FF"/>
<path d="M97.95 126.98C98.34 126.75 128.41 111.91 128.41 111.91L156.61 104.09L183.12 108.73L199.99 120.09L217.1 143.09L287.61 138.42L285.61 154.28L255.61 164.21L227.61 166.48L203 160.99L192.77 156.28L189.17 176.15L181.31 206.78L144.99 201.01L124.53 193.16L125.71 161.16L129.92 127L97.92 129.07L97.95 126.98Z" fill="#2DDFD5"/>
<path d="M210.38 133.77L217.06 143.09L355.63 133.77L354.45 112.92L206.74 122.81L205.79 126.37L210.38 133.77Z" fill="#0000FF"/>
<path d="M129.19 206.84C131.305 206.84 133.02 205.125 133.02 203.01C133.02 200.895 131.305 199.18 129.19 199.18C127.075 199.18 125.36 200.895 125.36 203.01C125.36 205.125 127.075 206.84 129.19 206.84Z" fill="#0000FF"/>
<path d="M143.47 206.84C145.585 206.84 147.3 205.125 147.3 203.01C147.3 200.895 145.585 199.18 143.47 199.18C141.355 199.18 139.64 200.895 139.64 203.01C139.64 205.125 141.355 206.84 143.47 206.84Z" fill="#0000FF"/>
<path d="M154.77 201.45C154.467 201.9 154.275 202.415 154.207 202.953C154.139 203.492 154.199 204.038 154.381 204.549C154.563 205.06 154.862 205.522 155.255 205.896C155.647 206.271 156.122 206.548 156.641 206.706C157.16 206.863 157.709 206.897 158.243 206.805C158.778 206.712 159.283 206.495 159.719 206.172C160.154 205.848 160.508 205.427 160.751 204.942C160.995 204.458 161.121 203.922 161.12 203.38C161.12 203.26 161.12 203.15 161.12 203.03C158.98 202.22 156.87 202.38 154.77 201.45Z" fill="#0000FF"/>
<path d="M123.61 209.64V209.81C121.76 211.66 122.47 214.37 121 216.35C121.458 216.641 121.974 216.828 122.512 216.895C123.051 216.963 123.597 216.91 124.113 216.742C124.628 216.573 125.1 216.292 125.494 215.919C125.888 215.546 126.194 215.09 126.391 214.584C126.587 214.079 126.67 213.536 126.631 212.995C126.593 212.454 126.435 211.928 126.169 211.455C125.903 210.982 125.536 210.574 125.093 210.26C124.651 209.946 124.144 209.735 123.61 209.64Z" fill="#0000FF"/>
<path d="M135.93 216.92C138.045 216.92 139.76 215.205 139.76 213.09C139.76 210.975 138.045 209.26 135.93 209.26C133.815 209.26 132.1 210.975 132.1 213.09C132.1 215.205 133.815 216.92 135.93 216.92Z" fill="#0000FF"/>
<path d="M150.48 216.92C152.595 216.92 154.31 215.205 154.31 213.09C154.31 210.975 152.595 209.26 150.48 209.26C148.365 209.26 146.65 210.975 146.65 213.09C146.65 215.205 148.365 216.92 150.48 216.92Z" fill="#0000FF"/>
<path d="M165.03 216.92C167.145 216.92 168.86 215.205 168.86 213.09C168.86 210.975 167.145 209.26 165.03 209.26C162.915 209.26 161.2 210.975 161.2 213.09C161.2 215.205 162.915 216.92 165.03 216.92Z" fill="#0000FF"/>
<path d="M179.59 216.92C181.705 216.92 183.42 215.205 183.42 213.09C183.42 210.975 181.705 209.26 179.59 209.26C177.475 209.26 175.76 210.975 175.76 213.09C175.76 215.205 177.475 216.92 179.59 216.92Z" fill="#0000FF"/>
<path d="M53.69 470.44C55.8052 470.44 57.52 468.725 57.52 466.61C57.52 464.495 55.8052 462.78 53.69 462.78C51.5747 462.78 49.86 464.495 49.86 466.61C49.86 468.725 51.5747 470.44 53.69 470.44Z" fill="#0000FF"/>
<path d="M68.24 470.44C70.3553 470.44 72.07 468.725 72.07 466.61C72.07 464.495 70.3553 462.78 68.24 462.78C66.1248 462.78 64.41 464.495 64.41 466.61C64.41 468.725 66.1248 470.44 68.24 470.44Z" fill="#0000FF"/>
<path d="M82.79 470.44C84.9053 470.44 86.62 468.725 86.62 466.61C86.62 464.495 84.9053 462.78 82.79 462.78C80.6748 462.78 78.96 464.495 78.96 466.61C78.96 468.725 80.6748 470.44 82.79 470.44Z" fill="#0000FF"/>
<path d="M53.69 490.61C55.8052 490.61 57.52 488.895 57.52 486.78C57.52 484.665 55.8052 482.95 53.69 482.95C51.5747 482.95 49.86 484.665 49.86 486.78C49.86 488.895 51.5747 490.61 53.69 490.61Z" fill="#0000FF"/>
<path d="M68.24 490.61C70.3553 490.61 72.07 488.895 72.07 486.78C72.07 484.665 70.3553 482.95 68.24 482.95C66.1248 482.95 64.41 484.665 64.41 486.78C64.41 488.895 66.1248 490.61 68.24 490.61Z" fill="#0000FF"/>
<path d="M46.15 480.53C48.2652 480.53 49.98 478.815 49.98 476.7C49.98 474.585 48.2652 472.87 46.15 472.87C44.0347 472.87 42.32 474.585 42.32 476.7C42.32 478.815 44.0347 480.53 46.15 480.53Z" fill="#0000FF"/>
<path d="M60.7 480.53C62.8152 480.53 64.53 478.815 64.53 476.7C64.53 474.585 62.8152 472.87 60.7 472.87C58.5847 472.87 56.87 474.585 56.87 476.7C56.87 478.815 58.5847 480.53 60.7 480.53Z" fill="#0000FF"/>
<path d="M75.25 480.53C77.3652 480.53 79.08 478.815 79.08 476.7C79.08 474.585 77.3652 472.87 75.25 472.87C73.1347 472.87 71.42 474.585 71.42 476.7C71.42 478.815 73.1347 480.53 75.25 480.53Z" fill="#0000FF"/>
<path d="M157.2 409.82C159.315 409.82 161.03 408.105 161.03 405.99C161.03 403.875 159.315 402.16 157.2 402.16C155.085 402.16 153.37 403.875 153.37 405.99C153.37 408.105 155.085 409.82 157.2 409.82Z" fill="#0000FF"/>
<path d="M171.76 409.82C173.875 409.82 175.59 408.105 175.59 405.99C175.59 403.875 173.875 402.16 171.76 402.16C169.645 402.16 167.93 403.875 167.93 405.99C167.93 408.105 169.645 409.82 171.76 409.82Z" fill="#0000FF"/>
<path d="M186.31 409.82C188.425 409.82 190.14 408.105 190.14 405.99C190.14 403.875 188.425 402.16 186.31 402.16C184.195 402.16 182.48 403.875 182.48 405.99C182.48 408.105 184.195 409.82 186.31 409.82Z" fill="#0000FF"/>
<path d="M200.86 409.82C202.975 409.82 204.69 408.105 204.69 405.99C204.69 403.875 202.975 402.16 200.86 402.16C198.745 402.16 197.03 403.875 197.03 405.99C197.03 408.105 198.745 409.82 200.86 409.82Z" fill="#0000FF"/>
<path d="M215.41 409.82C217.525 409.82 219.24 408.105 219.24 405.99C219.24 403.875 217.525 402.16 215.41 402.16C213.295 402.16 211.58 403.875 211.58 405.99C211.58 408.105 213.295 409.82 215.41 409.82Z" fill="#0000FF"/>
<path d="M164.22 419.91C166.335 419.91 168.05 418.195 168.05 416.08C168.05 413.965 166.335 412.25 164.22 412.25C162.105 412.25 160.39 413.965 160.39 416.08C160.39 418.195 162.105 419.91 164.22 419.91Z" fill="#0000FF"/>
<path d="M178.77 419.91C180.885 419.91 182.6 418.195 182.6 416.08C182.6 413.965 180.885 412.25 178.77 412.25C176.655 412.25 174.94 413.965 174.94 416.08C174.94 418.195 176.655 419.91 178.77 419.91Z" fill="#0000FF"/>
<path d="M193.32 419.91C195.435 419.91 197.15 418.195 197.15 416.08C197.15 413.965 195.435 412.25 193.32 412.25C191.205 412.25 189.49 413.965 189.49 416.08C189.49 418.195 191.205 419.91 193.32 419.91Z" fill="#0000FF"/>
<path d="M207.87 419.91C209.985 419.91 211.7 418.195 211.7 416.08C211.7 413.965 209.985 412.25 207.87 412.25C205.755 412.25 204.04 413.965 204.04 416.08C204.04 418.195 205.755 419.91 207.87 419.91Z" fill="#0000FF"/>
<path d="M137.99 233.49C144.92 243.49 154.99 250.64 165.31 256.79C176.786 263.586 188.605 269.784 200.72 275.36C207.687 278.593 214.75 281.62 221.91 284.44C222.389 284.569 222.899 284.504 223.33 284.258C223.76 284.013 224.077 283.607 224.21 283.13C224.334 282.652 224.266 282.144 224.021 281.714C223.777 281.285 223.375 280.968 222.9 280.83C210.667 275.977 198.697 270.53 186.99 264.49C175.99 258.8 164.77 252.89 154.86 245.4C149.611 241.555 145.01 236.896 141.23 231.6C139.87 229.6 136.61 231.5 137.99 233.49Z" fill="#0000FF"/>
<path d="M66.67 414.05C66.5337 414.064 66.3963 414.064 66.26 414.05L34.06 406.28C33.81 406.218 33.5767 406.101 33.3765 405.939C33.1764 405.777 33.0144 405.573 32.9018 405.341C32.7893 405.109 32.729 404.855 32.7252 404.598C32.7215 404.34 32.7743 404.085 32.88 403.85L127.72 196.63C127.807 196.409 127.938 196.208 128.105 196.039C128.272 195.87 128.472 195.737 128.693 195.647C128.913 195.558 129.149 195.515 129.387 195.52C129.625 195.525 129.859 195.579 130.075 195.678C130.291 195.776 130.485 195.918 130.645 196.094C130.805 196.27 130.927 196.477 131.004 196.701C131.081 196.926 131.112 197.164 131.094 197.401C131.076 197.638 131.01 197.869 130.9 198.08L36.9 403.38L65.77 410.28L152.71 249.07C152.816 248.862 152.962 248.676 153.14 248.525C153.318 248.375 153.525 248.261 153.748 248.191C153.971 248.121 154.205 248.096 154.438 248.119C154.67 248.141 154.896 248.209 155.101 248.32C155.307 248.431 155.488 248.582 155.635 248.764C155.781 248.946 155.89 249.155 155.954 249.38C156.018 249.604 156.037 249.84 156.008 250.072C155.98 250.303 155.906 250.527 155.79 250.73L68.21 413.13C68.0602 413.408 67.838 413.64 67.5668 413.802C67.2957 413.964 66.9858 414.05 66.67 414.05Z" fill="#0000FF"/>
<path d="M162.7 367.1C158.088 377.407 156.109 388.699 156.94 399.96C157.1 402.35 160.85 402.37 160.69 399.96C159.852 389.352 161.656 378.701 165.94 368.96C166.176 368.528 166.237 368.023 166.113 367.547C165.988 367.071 165.687 366.661 165.27 366.4C164.84 366.151 164.329 366.082 163.848 366.207C163.366 366.333 162.954 366.643 162.7 367.07V367.1Z" fill="#0000FF"/>
<path d="M179.04 368.57C179.405 374.089 181.553 379.34 185.16 383.533C188.767 387.726 193.638 390.634 199.04 391.82C201.35 392.32 203.71 392.46 206.04 392.82C209.55 393.45 214.38 395.34 214.04 399.71C213.84 402.11 217.59 402.1 217.79 399.71C218.14 395.5 214.89 391.99 211.24 390.41C206.96 388.56 202.14 388.96 197.73 387.53C193.657 386.167 190.072 383.642 187.417 380.265C184.762 376.889 183.154 372.81 182.79 368.53C182.6 366.14 178.85 366.12 179.04 368.53V368.57Z" fill="#0000FF"/>
<path d="M43.23 406.6C38.23 417 32.62 427.14 28.57 437.99C27.73 440.26 31.35 441.23 32.19 438.99C36.12 428.45 41.59 418.6 46.47 408.49C47.47 406.33 44.28 404.43 43.23 406.6Z" fill="#0000FF"/>
<path d="M29.05 439.82C37.05 447.63 44.84 455.57 52.79 463.39C54.51 465.08 57.17 462.39 55.44 460.73C47.44 452.92 39.66 444.98 31.7 437.16C29.98 435.47 27.33 438.16 29.05 439.82Z" fill="#0000FF"/>
<path d="M58.31 412.28C60.8182 424.367 61.0217 436.818 58.91 448.98C58.49 451.34 62.11 452.35 62.52 449.98C64.7752 437.162 64.575 424.033 61.93 411.29C61.44 408.92 57.82 409.92 58.31 412.29V412.28Z" fill="#0000FF"/>
<path d="M61.16 451.16C64.3648 451.415 67.4373 452.548 70.0396 454.436C72.6418 456.324 74.6731 458.893 75.91 461.86C76.0563 462.331 76.3766 462.729 76.8057 462.972C77.2348 463.216 77.7406 463.286 78.22 463.17C78.6982 463.035 79.1039 462.716 79.349 462.284C79.5942 461.852 79.6592 461.34 79.53 460.86C78.05 457.113 75.5394 453.861 72.2885 451.481C69.0377 449.1 65.1794 447.689 61.16 447.41C60.6656 447.415 60.193 447.614 59.8434 447.964C59.4939 448.313 59.2952 448.786 59.29 449.28C59.3001 449.774 59.5001 450.245 59.8483 450.595C60.1966 450.945 60.6663 451.147 61.16 451.16Z" fill="#0000FF"/>
<path d="M42.27 416.69L60.08 425.4C60.5068 425.611 60.9977 425.652 61.4536 425.515C61.9096 425.378 62.2965 425.073 62.5364 424.662C62.7762 424.25 62.8512 423.764 62.7461 423.299C62.6409 422.835 62.3636 422.428 61.97 422.16L44.16 413.45C43.7288 413.212 43.2226 413.149 42.7461 413.274C42.2697 413.398 41.8593 413.701 41.6 414.12C41.3539 414.551 41.2862 415.061 41.4114 415.542C41.5366 416.022 41.8448 416.434 42.27 416.69Z" fill="#0000FF"/>
<path d="M17.45 464.34C40.66 464.54 63.88 464.82 87.1 464.84C93.7667 464.84 100.407 464.84 107.02 464.84C109.43 464.84 109.44 461.08 107.02 461.09C83.79 461.22 60.56 461.02 37.33 460.81L17.45 460.64C15.03 460.64 15.03 464.36 17.45 464.39V464.34Z" fill="#0000FF"/>
<path d="M135.89 403.45C162.45 403.45 189.013 403.47 215.58 403.51H238.28C240.69 403.51 240.7 399.75 238.28 399.76C211.773 399.76 185.267 399.76 158.76 399.76H135.89C135.416 399.795 134.973 400.007 134.65 400.355C134.327 400.703 134.147 401.16 134.147 401.635C134.147 402.11 134.327 402.567 134.65 402.915C134.973 403.263 135.416 403.475 135.89 403.51V403.45Z" fill="#0000FF"/>
<path d="M123.61 196.5C132.46 200.5 141.81 202.28 151.26 204.18C161.48 206.24 171.68 208.46 182.02 209.77C182.517 209.77 182.994 209.573 183.346 209.223C183.698 208.873 183.897 208.397 183.9 207.9C183.887 207.405 183.685 206.935 183.335 206.585C182.986 206.235 182.515 206.033 182.02 206.02C172.02 204.76 162.14 202.56 152.26 200.57C143.17 198.74 134.02 197.07 125.5 193.26C125.067 193.025 124.561 192.965 124.085 193.092C123.609 193.218 123.199 193.521 122.94 193.94C122.692 194.369 122.623 194.878 122.748 195.358C122.874 195.837 123.183 196.248 123.61 196.5Z" fill="#0000FF"/>
<path d="M191.92 157.37C186.883 173.224 182.907 189.397 180.02 205.78C179.61 208.14 183.22 209.15 183.64 206.78C186.522 190.396 190.498 174.223 195.54 158.37C196.27 156.06 192.65 155.08 191.92 157.37Z" fill="#0000FF"/>
<path d="M172.99 140.61C181.37 152.83 194.51 161.07 208.73 164.79C217.189 166.98 225.874 168.171 234.61 168.34C243.457 168.447 252.271 167.233 260.76 164.74C270.14 162.08 279.44 158.9 288 154.15C290.11 152.98 288.22 149.74 286.11 150.91C278.853 154.786 271.199 157.867 263.28 160.1C259.224 161.37 255.105 162.431 250.94 163.28C246.791 164.043 242.588 164.468 238.37 164.55C229.86 164.653 221.366 163.767 213.06 161.91C206.119 160.476 199.456 157.926 193.33 154.36C186.55 150.444 180.713 145.088 176.23 138.67C174.87 136.67 171.62 138.57 172.99 140.57V140.61Z" fill="#0000FF"/>
<path d="M288.79 152.6L288.9 139.66C288.919 139.402 288.884 139.143 288.799 138.9C288.713 138.656 288.578 138.432 288.402 138.243C288.226 138.054 288.013 137.903 287.776 137.799C287.539 137.696 287.283 137.643 287.025 137.643C286.767 137.643 286.511 137.696 286.274 137.799C286.037 137.903 285.824 138.054 285.648 138.243C285.472 138.432 285.337 138.656 285.251 138.9C285.166 139.143 285.131 139.402 285.15 139.66L285.04 152.6C285.075 153.074 285.287 153.517 285.635 153.84C285.983 154.163 286.44 154.343 286.915 154.343C287.39 154.343 287.847 154.163 288.195 153.84C288.543 153.517 288.755 153.074 288.79 152.6Z" fill="#0000FF"/>
<path d="M287.09 153.55C291.72 154.89 296.95 154.28 301.53 153.09C306.73 151.74 312.03 149.28 315.71 145.27C317.737 143.104 319.122 140.417 319.71 137.51C320.16 135.15 316.55 134.14 316.1 136.51C314.34 145.78 302.78 149.95 294.48 150.51C292.322 150.715 290.145 150.535 288.05 149.98C285.73 149.31 284.74 152.93 287.05 153.6L287.09 153.55Z" fill="#0000FF"/>
<path d="M93.48 131.86C110.6 121.62 127.97 110.66 147.91 107.09C157.53 105.36 167.59 105.49 176.96 108.43C185.246 111.095 192.794 115.662 198.999 121.766C205.205 127.869 209.897 135.34 212.7 143.58C213.47 145.86 217.09 144.88 216.32 142.58C213.522 134.349 208.969 126.825 202.975 120.528C196.982 114.231 189.692 109.312 181.61 106.11C162.15 98.44 140.35 103.11 122.02 111.65C111.48 116.57 101.53 122.65 91.56 128.65C89.49 129.89 91.37 133.13 93.45 131.89L93.48 131.86Z" fill="#0000FF"/>
<path d="M197.18 65.48C191.723 68.0904 186.512 71.1862 181.61 74.73C181.276 74.9392 181.035 75.2675 180.935 75.6483C180.834 76.029 180.883 76.4336 181.07 76.78C181.274 77.1219 181.604 77.3701 181.99 77.4711C182.375 77.572 182.784 77.5178 183.13 77.32C188.032 73.7762 193.243 70.6804 198.7 68.07C199.028 67.8684 199.266 67.5483 199.365 67.176C199.464 66.8037 199.415 66.4076 199.23 66.07C199.024 65.7327 198.696 65.4881 198.314 65.3874C197.932 65.2868 197.525 65.3379 197.18 65.53V65.48Z" fill="#0000FF"/>
<path d="M183.03 74.96C180.767 72.9953 178.096 71.5574 175.21 70.75C173.861 70.4006 172.454 70.333 171.078 70.5515C169.701 70.77 168.385 71.2699 167.21 72.02C166.122 72.7425 165.24 73.7353 164.651 74.901C164.062 76.0667 163.786 77.3655 163.85 78.67C164.09 81.82 166.05 84.29 168.01 86.67C168.292 86.9485 168.673 87.1046 169.07 87.1046C169.467 87.1046 169.847 86.9485 170.13 86.67C170.401 86.3839 170.553 86.0045 170.553 85.61C170.553 85.2156 170.401 84.8362 170.13 84.55C168.73 82.89 167.13 81.05 166.86 78.81C166.773 77.933 166.941 77.0494 167.343 76.2654C167.746 75.4814 168.366 74.8302 169.13 74.39C173.05 71.96 177.8 74.67 180.95 77.13C181.236 77.4015 181.616 77.5529 182.01 77.5529C182.404 77.5529 182.784 77.4015 183.07 77.13C183.348 76.8475 183.505 76.4667 183.505 76.07C183.505 75.6733 183.348 75.2925 183.07 75.01L183.03 74.96Z" fill="#0000FF"/>
<path d="M155.16 104.85C159.729 98.5056 164.647 92.4196 169.89 86.62C171.18 85.19 169.07 83.06 167.77 84.5C162.367 90.4902 157.305 96.7802 152.61 103.34C152.413 103.684 152.359 104.092 152.46 104.476C152.561 104.859 152.809 105.188 153.15 105.39C153.495 105.582 153.902 105.633 154.284 105.533C154.666 105.432 154.994 105.187 155.2 104.85H155.16Z" fill="#0000FF"/>
<path d="M196.55 67.98C196.07 74.67 199.06 82.2 204.89 85.82C206.54 86.82 208.05 84.25 206.41 83.23C201.41 80.15 199.15 73.6 199.55 67.98C199.68 66.05 196.68 66.06 196.55 67.98Z" fill="#0000FF"/>
<path d="M204.49 83.84C203.963 84.1333 203.423 84.4033 202.87 84.65H202.78L202.33 84.83L201.54 85.12C200.438 85.5 199.308 85.7909 198.16 85.99C197.777 86.0952 197.451 86.348 197.255 86.6929C197.058 87.0379 197.006 87.4468 197.11 87.83C197.236 88.1987 197.497 88.5064 197.839 88.6917C198.182 88.877 198.582 88.9264 198.96 88.83C201.414 88.3906 203.779 87.5493 205.96 86.34C206.301 86.1377 206.549 85.8093 206.65 85.4257C206.751 85.0421 206.697 84.6341 206.5 84.29C206.294 83.9527 205.966 83.7081 205.584 83.6074C205.202 83.5068 204.795 83.5579 204.45 83.75L204.49 83.84Z" fill="#0000FF"/>
<path d="M174.04 90.33C177.19 95.64 182.57 100.03 189.04 99.75C195.04 99.49 200.64 94.59 200.04 88.25C199.84 86.34 196.84 86.32 197.04 88.25C197.55 93.25 193.04 96.86 188.31 96.75C183.19 96.64 179.15 93.01 176.66 88.82C176.452 88.4917 176.125 88.2568 175.748 88.1647C175.371 88.0726 174.972 88.1304 174.637 88.3261C174.301 88.5217 174.055 88.8399 173.949 89.2136C173.843 89.5874 173.887 89.9876 174.07 90.33H174.04Z" fill="#0000FF"/>
<path d="M199.55 67.98C200.008 64.1481 200.182 60.2876 200.07 56.43C200.07 54.5 199.92 52.57 199.75 50.64C199.68 48.8348 199.422 47.0417 198.98 45.29C198.885 44.8699 198.707 44.4732 198.456 44.1232C198.205 43.7732 197.887 43.4771 197.519 43.2524C197.152 43.0277 196.743 42.8789 196.317 42.815C195.892 42.751 195.457 42.7731 195.04 42.88C193.23 43.43 192.26 45.17 191.57 46.79C190.88 48.41 190.38 50.19 189.07 51.26C187.56 52.47 185.45 51.92 183.94 51.02C180.41 48.94 178 45.38 173.82 44.36C170.47 43.54 166.4 44.83 165.05 48.24C164.41 49.87 165.05 51.52 164.63 53.14C164.2 54.96 161.5 52.95 160.52 52.59C156.66 51.16 152.38 53.03 149.52 55.68C146.46 58.53 144.62 62.68 145.88 66.82C146.42 68.6212 147.439 70.2417 148.829 71.5082C150.219 72.7747 151.927 73.6394 153.77 74.01L152.87 71.81C151.548 73.8809 150.866 76.296 150.91 78.7527C150.955 81.2094 151.723 83.5983 153.12 85.62C154.512 87.4952 156.396 88.9471 158.565 89.814C160.733 90.681 163.099 90.9288 165.4 90.53C167.3 90.22 166.49 87.33 164.6 87.64C162.816 87.9375 160.983 87.7042 159.33 86.9688C157.677 86.2335 156.277 85.0287 155.303 83.5041C154.329 81.9795 153.825 80.2023 153.853 78.3935C153.881 76.5846 154.44 74.8239 155.46 73.33C155.573 73.1309 155.64 72.9087 155.656 72.6801C155.671 72.4515 155.635 72.2224 155.549 72.0099C155.464 71.7973 155.331 71.6069 155.162 71.4528C154.992 71.2987 154.79 71.1849 154.57 71.12C153.174 70.8767 151.878 70.2373 150.836 69.2782C149.793 68.319 149.048 67.0805 148.69 65.71C147.84 62.46 149.69 59.44 152.1 57.39C153.493 56.1418 155.241 55.3589 157.1 55.15C158.93 55.02 160.17 55.83 161.8 56.49C162.511 56.8366 163.305 56.9746 164.091 56.8878C164.877 56.8011 165.622 56.4932 166.24 56C167.47 54.94 167.65 53.35 167.61 51.82C167.57 50.29 167.5 49.08 168.72 48.09C169.28 47.6567 169.93 47.3531 170.621 47.2009C171.313 47.0488 172.03 47.0519 172.72 47.21C176.43 47.99 178.79 51.29 181.8 53.29C184.59 55.13 188.4 55.75 191.09 53.38C192.199 52.273 193.049 50.9344 193.58 49.46C193.86 48.8 194.12 48.14 194.42 47.46C194.56 47.16 195.26 45.61 195.78 45.73C196.45 45.87 196.59 49.96 196.65 50.61C196.82 52.54 196.92 54.47 196.97 56.4C197.082 60.2576 196.908 64.1181 196.45 67.95C196.2 69.86 199.2 69.84 199.45 67.95L199.55 67.98Z" fill="#0000FF"/>
<path d="M177.55 94.28L178.88 105.97C178.89 106.365 179.051 106.74 179.331 107.019C179.61 107.299 179.985 107.46 180.38 107.47C180.777 107.467 181.157 107.308 181.438 107.028C181.718 106.747 181.877 106.367 181.88 105.97L180.55 94.28C180.537 93.8861 180.375 93.5118 180.097 93.2332C179.818 92.9546 179.444 92.7925 179.05 92.78C178.653 92.7826 178.273 92.9415 177.992 93.2222C177.711 93.503 177.553 93.883 177.55 94.28Z" fill="#0000FF"/>
<path d="M12.61 137.79L24.31 137.04L52.38 135.22L86.2 133.03L115.44 131.14L125.12 130.51C126.654 130.495 128.187 130.395 129.71 130.21H129.92L128.11 127.84C125.092 145.043 123.317 162.442 122.8 179.9C122.653 184.887 122.61 189.887 122.67 194.9C122.67 197.31 126.45 197.32 126.42 194.9C126.214 177.686 127.236 160.479 129.48 143.41C130.12 138.54 130.88 133.68 131.72 128.85C131.793 128.572 131.801 128.281 131.745 128C131.689 127.718 131.57 127.453 131.397 127.224C131.224 126.994 131.001 126.808 130.745 126.677C130.489 126.547 130.207 126.476 129.92 126.47L118.22 127.23L90.15 129.05L56.33 131.23L27.09 133.13C22.34 133.44 17.56 133.65 12.81 134.05H12.61C10.22 134.21 10.2 137.96 12.61 137.8V137.79Z" fill="#0000FF"/>
<path d="M13.73 158.56C13.2658 158.576 12.8144 158.407 12.475 158.09C12.1355 157.773 11.9359 157.334 11.92 156.87C11.9041 156.406 12.0732 155.954 12.3901 155.615C12.707 155.276 13.1458 155.076 13.61 155.06L126.33 147.44C126.563 147.417 126.799 147.44 127.023 147.51C127.247 147.579 127.455 147.693 127.634 147.844C127.813 147.995 127.96 148.181 128.066 148.39C128.172 148.599 128.235 148.827 128.251 149.061C128.267 149.295 128.236 149.53 128.16 149.752C128.083 149.973 127.963 150.177 127.806 150.352C127.65 150.526 127.459 150.667 127.247 150.766C127.034 150.866 126.804 150.921 126.57 150.93L13.85 158.55L13.73 158.56Z" fill="#0000FF"/>
<path d="M202.9 124.92C202.436 124.935 201.985 124.764 201.646 124.446C201.308 124.128 201.11 123.689 201.095 123.225C201.08 122.761 201.251 122.31 201.569 121.971C201.887 121.633 202.326 121.435 202.79 121.42L354.33 111.17C354.794 111.138 355.252 111.292 355.603 111.598C355.953 111.903 356.168 112.336 356.2 112.8C356.232 113.264 356.078 113.722 355.772 114.073C355.467 114.423 355.034 114.638 354.57 114.67L203.02 124.92H202.9Z" fill="#0000FF"/>
<path d="M214.51 144.84C214.046 144.856 213.594 144.687 213.255 144.37C212.916 144.053 212.716 143.614 212.7 143.15C212.684 142.686 212.853 142.234 213.17 141.895C213.487 141.556 213.926 141.356 214.39 141.34L354.33 132.02C354.564 131.996 354.801 132.019 355.025 132.088C355.25 132.158 355.459 132.272 355.639 132.423C355.819 132.575 355.966 132.762 356.072 132.972C356.178 133.182 356.241 133.411 356.256 133.646C356.272 133.88 356.24 134.116 356.162 134.338C356.084 134.56 355.963 134.764 355.804 134.938C355.646 135.112 355.454 135.253 355.24 135.351C355.027 135.449 354.795 135.503 354.56 135.51L214.61 144.83L214.51 144.84Z" fill="#0000FF"/>
<path d="M355.36 135.39C354.909 135.39 354.476 135.217 354.15 134.906C353.824 134.595 353.631 134.17 353.61 133.72L352.7 113C352.688 112.739 352.735 112.479 352.837 112.238C352.939 111.998 353.094 111.783 353.29 111.61C353.486 111.439 353.718 111.312 353.969 111.24C354.219 111.167 354.482 111.15 354.74 111.19L398.85 118.7C399.239 118.765 399.595 118.96 399.859 119.253C400.123 119.546 400.281 119.919 400.307 120.313C400.332 120.707 400.224 121.097 399.999 121.422C399.775 121.746 399.447 121.985 399.07 122.1L355.87 135.28C355.706 135.341 355.534 135.378 355.36 135.39ZM356.29 115.01L357.01 131.28L391.01 120.89L356.29 115.01Z" fill="#0000FF"/>
<path d="M13.04 158.58C11.8592 158.532 10.7049 158.216 9.66504 157.654C8.62522 157.093 7.72736 156.301 7.03998 155.34C5.27276 152.994 4.20501 150.197 3.95999 147.27C3.26999 140.46 6.44998 134.76 11.2 134.27C13.62 134.02 15.96 135.16 17.81 137.48C19.5837 139.823 20.6553 142.622 20.9 145.55C21.58 152.35 18.4 158.06 13.65 158.55C13.47 158.57 13.26 158.58 13.04 158.58ZM11.86 137.74H11.58C8.87999 138.01 6.98999 142.2 7.46999 146.89C7.64893 149.148 8.45984 151.311 9.80998 153.13C10.44 153.91 11.74 155.22 13.33 155.04C16.03 154.77 17.92 150.58 17.45 145.89C17.2619 143.637 16.4518 141.48 15.11 139.66C14.7377 139.126 14.2548 138.678 13.694 138.346C13.1332 138.015 12.5077 137.808 11.86 137.74Z" fill="#0000FF"/>
<path d="M198.43 356.15H172.61C172.146 356.15 171.701 355.966 171.373 355.637C171.044 355.309 170.86 354.864 170.86 354.4C170.86 353.936 171.044 353.491 171.373 353.163C171.701 352.834 172.146 352.65 172.61 352.65H198.39C198.854 352.65 199.299 352.834 199.627 353.163C199.956 353.491 200.14 353.936 200.14 354.4C200.14 354.864 199.956 355.309 199.627 355.637C199.299 355.966 198.854 356.15 198.39 356.15H198.43Z" fill="#0000FF"/>
<path d="M61.02 400.18C60.8779 400.18 60.7365 400.16 60.6 400.12L39.29 394.78C38.8621 394.648 38.5011 394.357 38.2814 393.967C38.0617 393.576 37.9999 393.117 38.1088 392.682C38.2177 392.248 38.4891 391.872 38.8669 391.631C39.2448 391.391 39.7004 391.305 40.14 391.39L61.45 396.73C61.867 396.832 62.232 397.083 62.4757 397.437C62.7193 397.79 62.8246 398.221 62.7715 398.647C62.7184 399.072 62.5107 399.464 62.1877 399.747C61.8648 400.029 61.4492 400.184 61.02 400.18Z" fill="#0000FF"/>
<path d="M375.67 116.53L376.15 127.51L393.21 120.57L375.67 116.53Z" fill="#0000FF"/>
<path d="M64.47 44.24C76.206 44.24 85.72 34.726 85.72 22.99C85.72 11.2539 76.206 1.73999 64.47 1.73999C52.7339 1.73999 43.22 11.2539 43.22 22.99C43.22 34.726 52.7339 44.24 64.47 44.24Z" fill="#FF5657"/>
<path d="M64.47 46C59.921 46 55.4742 44.6511 51.6919 42.1238C47.9095 39.5965 44.9616 36.0044 43.2207 31.8017C41.4799 27.599 41.0245 22.9745 41.9119 18.5129C42.7994 14.0514 44.9899 9.95316 48.2065 6.73655C51.4231 3.51994 55.5213 1.32941 59.9829 0.441949C64.4445 -0.445511 69.069 0.00996411 73.2717 1.75078C77.4744 3.4916 81.0665 6.43956 83.5938 10.2219C86.121 14.0042 87.47 18.451 87.47 23C87.47 29.1 85.0468 34.9501 80.7334 39.2635C76.4201 43.5768 70.57 46 64.47 46ZM64.47 3.49001C60.6104 3.48803 56.837 4.63084 53.627 6.77387C50.4171 8.91689 47.9149 11.9638 46.437 15.5292C44.9591 19.0946 44.5719 23.0183 45.3244 26.8038C46.0769 30.5893 47.9352 34.0665 50.6643 36.7957C53.3935 39.5248 56.8707 41.3831 60.6562 42.1356C64.4417 42.8881 68.3654 42.5009 71.9308 41.023C75.4961 39.5451 78.5431 37.0429 80.6861 33.8329C82.8291 30.623 83.972 26.8496 83.97 22.99C83.962 17.8207 81.905 12.8654 78.2498 9.21019C74.5946 5.55495 69.6393 3.49794 64.47 3.49001Z" fill="#0000FF"/>
<path d="M42.34 223.04H1.75C1.28587 223.04 0.840747 222.856 0.512558 222.527C0.184369 222.199 0 221.754 0 221.29C0 220.826 0.184369 220.381 0.512558 220.053C0.840747 219.724 1.28587 219.54 1.75 219.54H42.34C42.8041 219.54 43.2492 219.724 43.5774 220.053C43.9056 220.381 44.09 220.826 44.09 221.29C44.09 221.754 43.9056 222.199 43.5774 222.527C43.2492 222.856 42.8041 223.04 42.34 223.04Z" fill="#0000FF"/>
<path d="M52.51 213.53H26.88C26.4159 213.53 25.9708 213.346 25.6426 213.017C25.3144 212.689 25.13 212.244 25.13 211.78C25.13 211.316 25.3144 210.871 25.6426 210.543C25.9708 210.214 26.4159 210.03 26.88 210.03H52.51C52.9741 210.03 53.4192 210.214 53.7474 210.543C54.0756 210.871 54.26 211.316 54.26 211.78C54.26 212.244 54.0756 212.689 53.7474 213.017C53.4192 213.346 52.9741 213.53 52.51 213.53Z" fill="#0000FF"/>
<path d="M338.98 41.9H265.86C265.396 41.9 264.951 41.7156 264.623 41.3875C264.294 41.0593 264.11 40.6142 264.11 40.15C264.11 39.6859 264.294 39.2408 264.623 38.9126C264.951 38.5844 265.396 38.4 265.86 38.4H338.98C339.444 38.4 339.889 38.5844 340.217 38.9126C340.546 39.2408 340.73 39.6859 340.73 40.15C340.73 40.6142 340.546 41.0593 340.217 41.3875C339.889 41.7156 339.444 41.9 338.98 41.9Z" fill="#0000FF"/>
<path d="M18.09 213.51C19.0454 213.51 19.82 212.735 19.82 211.78C19.82 210.825 19.0454 210.05 18.09 210.05C17.1345 210.05 16.36 210.825 16.36 211.78C16.36 212.735 17.1345 213.51 18.09 213.51Z" fill="#0000FF"/>
<path d="M350 41.98C351.011 41.98 351.83 41.1607 351.83 40.15C351.83 39.1393 351.011 38.32 350 38.32C348.989 38.32 348.17 39.1393 348.17 40.15C348.17 41.1607 348.989 41.98 350 41.98Z" fill="#0000FF"/>
<path d="M220.55 281.93C199.46 303.29 178.03 324.37 157.74 346.49C152.03 352.72 146.42 359.05 140.97 365.49C140.721 365.758 140.553 366.092 140.488 366.452C140.424 366.813 140.464 367.184 140.604 367.522C140.744 367.861 140.978 368.151 141.279 368.36C141.58 368.569 141.934 368.687 142.3 368.7H187.2C187.617 368.733 188.037 368.675 188.43 368.53C189.62 368.03 190.7 366.37 191.59 365.44L194.81 362.02C211.103 344.78 227.393 327.54 243.68 310.3C250.95 302.59 258.63 293.67 258.6 282.43C258.6 271.69 250.29 264.1 243.1 257.22C226.307 241.18 208.81 225.897 190.61 211.37C188.383 209.59 186.143 207.82 183.89 206.06C183.532 205.722 183.058 205.533 182.565 205.533C182.072 205.533 181.598 205.722 181.24 206.06C180.89 206.412 180.694 206.889 180.694 207.385C180.694 207.882 180.89 208.358 181.24 208.71C192.573 217.55 203.64 226.693 214.44 236.14C225.02 245.39 235.58 254.81 245.44 264.81C249.6 269.02 253.72 273.9 254.62 279.96C255.62 286.48 252.77 292.96 249.1 298.15C245.1 303.83 239.99 308.71 235.24 313.74L220.15 329.74L186.32 365.56L187.64 365.01H142.24L143.56 368.21C162.76 345.45 183.86 324.4 204.77 303.21L223.15 284.61C224.84 282.89 222.15 280.23 220.49 281.95L220.55 281.93Z" fill="#0000FF"/>
<path d="M174.53 372.71C176.645 372.71 178.36 370.995 178.36 368.88C178.36 366.765 176.645 365.05 174.53 365.05C172.415 365.05 170.7 366.765 170.7 368.88C170.7 370.995 172.415 372.71 174.53 372.71Z" fill="#0000FF"/>
<path d="M165.99 380.79C168.105 380.79 169.82 379.075 169.82 376.96C169.82 374.845 168.105 373.13 165.99 373.13C163.875 373.13 162.16 374.845 162.16 376.96C162.16 379.075 163.875 380.79 165.99 380.79Z" fill="#0000FF"/>
</svg>
