<svg width="350" height="482" viewBox="0 0 350 482" fill="none" xmlns="http://www.w3.org/2000/svg">
<g clip-path="url(#clip0)">
<path d="M43.6524 282.842C43.6524 282.842 46.856 372.579 47.3002 407.421C71.5426 391.012 200.575 316.582 200.575 316.582L214.224 302.545L170.76 224.711C170.8 224.739 170.841 224.767 170.868 224.795C171.096 225.618 171.298 226.288 171.446 226.804C171.581 227.265 171.675 227.516 171.689 227.502C171.702 227.502 171.662 227.251 171.554 226.776C171.446 226.302 171.298 225.702 171.137 224.99C171.258 225.074 171.379 225.158 171.514 225.241C178.702 230.376 186.091 233.962 192.741 236.474C206.726 241.986 224.265 245.335 243.77 241.051C278.377 233.446 261.766 98.1229 261.766 98.1229L223.74 97.1042L219.945 192.52L176.952 172.845L176.884 173.013C174.3 171.812 172.039 170.752 170.827 170.068C156.626 154.789 153.032 145.426 127.525 154.873" fill="#417CFF"/>
<path fill-rule="evenodd" clip-rule="evenodd" d="M221.805 94.9583L263.551 96.0765L263.769 97.8583L261.766 98.1225C263.769 97.8583 263.769 97.8591 263.77 97.8604L263.77 97.8656L263.782 97.9608L263.817 98.2557C263.848 98.515 263.893 98.8986 263.95 99.3984C264.064 100.398 264.226 101.862 264.42 103.728C264.808 107.457 265.324 112.791 265.833 119.214C266.853 132.054 267.852 149.273 267.765 166.746C267.678 184.189 266.509 202.016 263.141 216.016C261.457 223.014 259.196 229.182 256.157 233.89C253.106 238.618 249.18 242.001 244.188 243.098C224.224 247.483 206.289 244.05 192.037 238.435C187.181 236.601 181.928 234.2 176.634 231.052L216.752 302.893L201.8 318.271L201.557 318.411L200.575 316.582C201.557 318.411 201.556 318.411 201.555 318.412L201.551 318.414L201.533 318.425L200.103 319.25C199.152 319.799 197.754 320.607 195.967 321.64C192.392 323.707 187.258 326.678 181.021 330.295C168.547 337.528 151.662 347.343 134.021 357.67C98.6997 378.348 60.4561 401.015 48.4041 409.173L45.3298 411.254L45.2813 407.448C45.0595 390.052 44.1483 358.928 43.2918 332.135C42.8636 318.742 42.4494 306.438 42.1421 297.482C41.9885 293.004 41.8617 289.363 41.7732 286.842C41.729 285.581 41.6944 284.601 41.6708 283.935L41.6348 282.92C41.6347 282.92 41.6347 282.919 43.6524 282.842C45.6701 282.765 45.6701 282.765 45.6702 282.766L45.7062 283.781C45.7298 284.447 45.7644 285.429 45.8087 286.69C45.8972 289.212 46.0241 292.854 46.1777 297.333C46.485 306.292 46.8994 318.599 47.3277 331.996C48.1257 356.957 48.9726 385.721 49.2643 403.642C63.9607 394.115 99.3473 373.162 132.036 354.025C149.683 343.694 166.572 333.876 179.049 326.641C185.288 323.024 190.424 320.052 194 317.984C195.788 316.95 197.186 316.143 198.137 315.593L199.35 314.893L211.696 302.196L171.105 229.506C170.77 229.402 170.543 229.232 170.442 229.15C170.181 228.939 170.034 228.708 170.001 228.658L169.999 228.654C169.906 228.509 169.848 228.379 169.832 228.343L169.831 228.341C169.784 228.236 169.745 228.129 169.718 228.053C169.658 227.884 169.588 227.665 169.514 227.411L169.511 227.4C169.467 227.247 169.415 227.069 169.357 226.87C169.269 226.57 169.168 226.222 169.06 225.844L164.673 217.989L171.88 222.969C171.887 222.974 171.904 222.986 171.927 223.002C171.95 223.018 171.978 223.038 172.007 223.06C172.036 223.082 172.084 223.119 172.14 223.167L172.257 223.248C172.382 223.335 172.465 223.392 172.553 223.446L172.607 223.48L172.659 223.518C179.679 228.532 186.908 232.043 193.432 234.507L193.445 234.512L193.458 234.517C207.175 239.923 224.314 243.184 243.351 239.003C247.011 238.199 250.137 235.69 252.801 231.562C255.478 227.414 257.597 221.762 259.223 215.003C262.473 201.492 263.64 184.062 263.727 166.724C263.813 149.415 262.823 132.328 261.809 119.557C261.302 113.175 260.79 107.877 260.405 104.176C260.23 102.493 260.081 101.141 259.971 100.168L225.676 99.2495L221.84 195.675L178.023 175.623L177.951 175.801L176.059 174.922C173.509 173.738 171.159 172.638 169.862 171.906L169.589 171.752L169.373 171.52C167.624 169.638 166.036 167.847 164.563 166.185L164.449 166.057C162.938 164.352 161.556 162.797 160.218 161.387C157.537 158.562 155.142 156.447 152.506 155.066C147.391 152.388 140.784 152.184 128.204 156.843L126.846 152.901C139.773 148.114 147.717 147.869 154.327 151.33C157.552 153.019 160.313 155.519 163.097 158.451C164.491 159.92 165.919 161.529 167.422 163.224L167.527 163.342C168.942 164.938 170.431 166.618 172.06 168.377C172.92 168.843 174.234 169.476 175.819 170.22L175.881 170.067L218.049 189.364L221.805 94.9583Z" fill="#0000FF"/>
<path d="M110.753 82.5225C110.888 79.8015 110.915 77.0945 110.605 74.4014C110.12 70.2432 108.788 66.085 106.15 62.9175C103.511 59.75 99.4328 57.6988 95.4215 58.243C92.9448 58.5779 90.6027 59.8477 88.099 59.764C85.2185 59.6802 82.7014 57.8244 80.0766 56.5825C75.9711 54.6429 71.2599 54.1266 66.8584 55.1592C64.5431 55.6895 62.2683 56.6802 60.5992 58.4244C58.9301 60.1686 57.9879 62.764 58.5667 65.1501C55.6592 65.1501 52.6979 65.1501 49.8847 65.9454C47.0714 66.7269 44.3659 68.4013 42.9121 71.0107C41.4584 73.634 41.5661 77.2759 43.639 79.3968C40.9469 78.8247 38.1202 80.9876 37.4741 83.7504C36.8414 86.5132 38.1606 89.5412 40.3815 91.2156C42.6025 92.8901 46.7484 93.6436 49.4405 93.0994C49.8039 93.0296 50.1673 92.9459 50.5442 92.8622C52.7517 92.6389 56.8976 91.9412 61.6761 89.8063L102.434 87.3923C103.511 91.7459 106.325 100.802 110.942 99.2669C114.455 98.0948 112.772 89.4993 110.753 82.5225Z" fill="#0000FF"/>
<path fill-rule="evenodd" clip-rule="evenodd" d="M66.4177 53.1164C71.2524 51.9835 76.412 52.5509 80.9139 54.6777C81.6241 55.0137 82.3192 55.3876 82.9628 55.734L82.9777 55.742C83.631 56.0937 84.234 56.4182 84.8373 56.7066C86.0544 57.2883 87.1135 57.6412 88.1556 57.6715L88.1641 57.6718C89.0862 57.7026 90.0433 57.4862 91.2286 57.144C91.4158 57.0899 91.6119 57.0315 91.8155 56.9709C92.8079 56.6756 93.9785 56.3272 95.1595 56.1674M66.4177 53.1164C63.8903 53.6959 61.205 54.8191 59.1658 56.9501C57.6634 58.5201 56.5653 60.7228 56.3973 63.068C54.1255 63.1047 51.708 63.2609 49.3577 63.9247C46.219 64.7975 42.969 66.7233 41.1637 69.9637L41.1614 69.9679C39.9301 72.1897 39.5348 75.1083 40.3291 77.6714C37.9708 78.5933 36.0902 80.7838 35.5118 83.2571L35.5096 83.2668C34.6591 86.9809 36.4251 90.8207 39.194 92.9082C40.6269 93.9885 42.5316 94.681 44.3524 95.0446C46.18 95.4096 48.1553 95.4896 49.8173 95.1555C50.1453 95.0924 50.476 95.0184 50.7803 94.9503C50.8062 94.9445 50.8319 94.9388 50.8574 94.9331C53.1887 94.6877 57.3487 93.9661 62.1429 91.8749L100.918 89.5784C101.511 91.6892 102.397 94.3383 103.599 96.5612C104.368 97.9831 105.358 99.4061 106.628 100.364C107.977 101.38 109.679 101.884 111.558 101.26L111.56 101.259C113.299 100.679 114.2 99.1968 114.616 97.7249C115.021 96.2906 115.059 94.5958 114.935 92.9116C114.692 89.6239 113.77 85.7101 112.787 82.2678C112.909 79.6127 112.925 76.8933 112.61 74.1535L112.609 74.1502C112.095 69.7354 110.663 65.1331 107.678 61.5494C104.698 57.9714 99.9852 55.5131 95.1595 56.1674M79.2393 58.4869C75.5318 56.7354 71.271 56.2698 67.304 57.2005L67.2939 57.2028C65.1924 57.6841 63.3302 58.5423 62.0326 59.8983C60.7433 61.2456 60.1559 63.1185 60.5248 64.6395L61.1563 67.243H58.5667C55.61 67.243 52.9241 67.2555 50.4159 67.9646L50.4072 67.967C47.9217 68.6574 45.7634 70.0794 44.6617 72.0551C43.5543 74.0554 43.7846 76.6048 45.0573 77.907L49.9023 82.8643L43.2335 81.4471C41.7678 81.1356 39.8699 82.401 39.4374 84.2385C39.0253 86.0492 39.8975 88.2625 41.5691 89.5227C42.3572 90.1169 43.6358 90.6384 45.1163 90.9341C46.5863 91.2276 48.0258 91.2527 49.054 91.0448L49.0634 91.0429L49.0728 91.0411C49.3401 90.9898 49.6044 90.9308 49.9091 90.8627C49.9776 90.8474 50.0481 90.8316 50.1212 90.8154L50.2337 90.7904L50.3482 90.7788C52.4037 90.5709 56.3357 89.9129 60.8769 87.884L61.2046 87.7376L103.978 85.2043L104.39 86.8723C104.919 89.0096 105.84 92.1443 107.122 94.514C107.768 95.7085 108.414 96.5337 109.004 96.9785C109.515 97.3641 109.895 97.4165 110.325 97.2737C110.325 97.2736 110.325 97.2738 110.325 97.2737C110.355 97.2652 110.554 97.2104 110.74 96.5493C110.945 95.8242 111.018 94.7143 110.909 93.231C110.692 90.2946 109.818 86.5763 108.819 83.1237L108.719 82.7768L108.737 82.4151C108.869 79.7439 108.89 77.173 108.6 74.6522M79.2393 58.4869C79.8411 58.7717 80.4456 59.0959 81.1019 59.4491L81.1538 59.477C81.7804 59.8144 82.4561 60.1781 83.1465 60.5081C84.5632 61.1852 86.2015 61.8016 88.0382 61.8559C89.6182 61.9079 91.0824 61.5317 92.3122 61.1766C92.5622 61.1044 92.8008 61.0338 93.0306 60.9658C94.0107 60.6759 94.8296 60.4336 95.6827 60.3183C98.8792 59.8846 102.325 61.5284 104.621 64.2852C106.913 67.0364 108.146 70.7507 108.6 74.6522" fill="#0000FF"/>
<path fill-rule="evenodd" clip-rule="evenodd" d="M53.8551 88.1218C53.9868 88.315 54.1267 88.5242 54.2735 88.7488C55.2051 90.1737 56.4233 92.2304 57.5872 94.7822C59.9071 99.8687 62.0628 107.038 61.1786 115.13L61.1782 115.135C60.8954 117.675 60.0486 120.441 59.2942 122.905C59.1128 123.498 58.9369 124.073 58.7753 124.623C58.3388 126.11 57.9914 127.449 57.8187 128.643C57.6447 129.846 57.6732 130.743 57.8625 131.401C57.9539 131.715 58.2037 132.078 58.9026 132.492C59.6253 132.92 60.5813 133.257 61.7419 133.618C61.9122 133.671 62.0893 133.725 62.2711 133.781C63.2224 134.072 64.3006 134.402 65.1986 134.811C66.2173 135.275 67.6155 136.1 68.1588 137.717C70.6164 144.994 74.5799 148.592 77.8795 150.398C79.551 151.313 81.0851 151.784 82.2189 152.021C82.7855 152.14 83.2453 152.198 83.5632 152.225C83.7774 152.242 83.8883 152.243 83.9171 152.244L85.4881 151.99L86.2124 154.175L86.2327 154.257C86.5813 155.675 87.724 160.274 89.0822 165.613L85.1775 166.68C84.0555 162.269 83.0798 158.361 82.5749 156.324C82.2315 156.278 81.8443 156.214 81.4205 156.125C79.9682 155.821 78.0581 155.229 75.9943 154.1C71.8288 151.82 67.1644 147.418 64.3577 139.13C64.3332 139.102 64.1747 138.917 63.573 138.643C62.9329 138.351 62.1581 138.113 61.2047 137.82C61.0047 137.759 60.7967 137.695 60.5805 137.628C59.4326 137.27 58.0683 136.819 56.8998 136.127C55.7084 135.422 54.4958 134.334 53.9947 132.604L53.9938 132.601C53.5643 131.111 53.6083 129.521 53.8253 128.022C54.0437 126.512 54.4637 124.931 54.9122 123.404C55.1084 122.735 55.3085 122.079 55.5049 121.436C56.245 119.009 56.9326 116.754 57.1664 114.657C57.9373 107.596 56.0617 101.231 53.9365 96.5715C52.8777 94.25 51.7697 92.3805 50.9308 91.0974C50.512 90.4568 50.1618 89.9648 49.9207 89.6384C49.8003 89.4753 49.7072 89.3537 49.6466 89.2759C49.6163 89.2369 49.5942 89.2089 49.5808 89.1922L49.5677 89.1757L49.5663 89.1741L48.3004 87.6218L49.7631 86.2648C65.5202 71.6458 84.652 66.9527 104.735 74.1387L104.739 74.1401L108.61 75.534L112.65 90.7965C113.994 90.2894 115.65 89.9031 117.373 90.0774C118.913 90.233 120.496 90.8369 121.888 92.153C123.261 93.451 124.329 95.3295 125.057 97.8412C125.808 100.433 125.89 102.697 125.414 104.652C124.935 106.617 123.928 108.121 122.739 109.237C121.325 110.565 119.65 111.351 118.219 111.801L129.472 154.304L125.578 155.412L113.133 108.408L115.486 108.14C116.553 108.018 118.6 107.475 120.028 106.134C120.707 105.498 121.239 104.69 121.498 103.627C121.76 102.553 121.777 101.073 121.19 99.0457C120.612 97.0504 119.863 95.9039 119.167 95.2457C118.49 94.6057 117.753 94.3218 116.981 94.2437C115.308 94.0746 113.47 94.8785 112.325 95.549L110.07 96.8703L105.278 78.7656L103.418 78.0958C103.417 78.0955 103.416 78.0952 103.416 78.0949C85.3991 71.6493 68.3083 75.448 53.8551 88.1218Z" fill="#0000FF"/>
<path fill-rule="evenodd" clip-rule="evenodd" d="M90.2681 84.8124C90.9847 85.0987 91.6489 85.5071 92.1427 86.0529C92.548 86.5009 93.2782 87.5779 92.8057 88.9007L92.8002 88.916L92.8001 88.916C92.3979 90.0152 91.4584 90.4317 91.0548 90.5845C90.6044 90.7551 90.0829 90.8596 89.7078 90.9348L89.6807 90.9403C88.8874 91.0994 87.9618 91.3111 86.9956 91.6718C86.0583 92.0406 85.2371 92.5112 84.5244 92.941L84.5124 92.9482L84.5004 92.9553C84.4779 92.9684 84.4547 92.982 84.4307 92.996C84.1149 93.181 83.6762 93.438 83.2595 93.6046C82.8775 93.7573 81.8925 94.0998 80.8841 93.5337C79.6754 92.8655 79.549 91.5354 79.566 90.947C79.5877 90.1981 79.8242 89.4307 80.1832 88.7151L80.1884 88.7047L80.1937 88.6944C80.9619 87.2038 82.5282 85.6963 84.5721 84.9128C86.5988 84.136 88.7368 84.1954 90.2681 84.8124ZM81.7961 89.7027C81.7962 89.7026 81.7986 89.7017 81.8032 89.7001C81.7984 89.702 81.7961 89.7028 81.7961 89.7027ZM89.6785 86.6488C89.6786 86.6488 89.6765 86.6497 89.6722 86.6514C89.6762 86.6496 89.6784 86.6487 89.6785 86.6488Z" fill="#0000FF"/>
<path d="M125.048 44.5121C136.341 44.5121 145.508 35.0236 145.508 23.3024C145.508 11.5813 136.355 2.09277 125.048 2.09277C113.741 2.09277 104.588 11.5813 104.588 23.3024C104.588 35.0236 113.741 44.5121 125.048 44.5121Z" fill="#2DDFD5"/>
<path fill-rule="evenodd" clip-rule="evenodd" d="M102.569 23.3027C102.569 10.4256 112.626 0 125.048 0C137.47 0 147.527 10.4256 147.527 23.3027C147.527 36.1807 137.456 46.6054 125.048 46.6054C112.626 46.6054 102.569 36.1798 102.569 23.3027ZM125.048 4.18612C114.856 4.18612 106.607 12.7376 106.607 23.3027C106.607 33.8679 114.856 42.4193 125.048 42.4193C135.227 42.4193 143.489 33.867 143.489 23.3027C143.489 12.7376 135.24 4.18612 125.048 4.18612Z" fill="#0000FF"/>
<path d="M221.91 401.728C221.345 401.728 220.793 401.728 220.227 401.728C211.586 401.239 203.456 397.36 197.479 390.872L206.794 381.565C210.482 385.597 215.516 388.025 220.873 388.346C223.31 388.527 225.746 388.179 228.034 387.313C230.323 386.448 232.423 385.095 234.172 383.337C235.922 381.578 237.309 379.458 238.211 377.113C239.126 374.769 239.543 372.257 239.449 369.732C239.314 364.178 237.134 358.876 233.378 354.913L242.693 345.606C248.75 352.01 252.223 360.564 252.411 369.536C252.532 373.764 251.833 377.964 250.352 381.899C248.871 385.834 246.637 389.42 243.783 392.448C240.93 395.476 237.524 397.862 233.755 399.481C229.986 401.1 225.948 401.923 221.869 401.881V401.728H221.91Z" fill="#FF5657"/>
<path fill-rule="evenodd" clip-rule="evenodd" d="M242.733 342.658L244.135 344.14C250.55 350.924 254.228 359.982 254.43 369.482C254.558 373.988 253.811 378.465 252.233 382.66C250.653 386.858 248.27 390.683 245.227 393.911C242.183 397.142 238.549 399.688 234.528 401.415C230.511 403.14 226.204 404.019 221.85 403.974L219.85 403.954V403.801C210.796 403.22 202.288 399.124 196.019 392.317L194.631 390.81L206.858 378.593L208.259 380.124C211.594 383.771 216.146 385.966 220.99 386.256L221.004 386.257L221.018 386.258C223.173 386.419 225.324 386.11 227.343 385.347C229.369 384.581 231.225 383.384 232.767 381.834C234.318 380.275 235.542 378.401 236.335 376.338L236.339 376.328C237.146 374.262 237.515 372.045 237.431 369.813L237.431 369.798L237.431 369.784C237.309 364.764 235.337 359.967 231.938 356.38L230.509 354.872L242.733 342.658ZM220.284 399.634H221.91V399.788C225.706 399.824 229.467 399.057 232.982 397.547C236.5 396.037 239.677 393.811 242.339 390.986C245.004 388.158 247.089 384.81 248.471 381.139C249.853 377.466 250.506 373.546 250.393 369.598L250.393 369.582C250.23 361.836 247.465 354.422 242.608 348.598L236.183 355.018C239.453 359.136 241.334 364.291 241.467 369.665C241.57 372.477 241.105 375.278 240.084 377.894C239.074 380.517 237.525 382.883 235.578 384.84C233.621 386.806 231.277 388.316 228.726 389.28C226.172 390.245 223.456 390.635 220.743 390.435C215.559 390.121 210.652 388.007 206.794 384.471L200.373 390.887C205.814 396.098 212.846 399.201 220.284 399.634Z" fill="#0000FF"/>
<path d="M127.538 154.858C110.538 184.942 101.681 179.71 87.1433 166.147C78.9055 171.379 80.5207 171.714 72.5791 179.082C35.1185 213.841 35.3877 266.083 23.2059 325.484" fill="#417CFF"/>
<path fill-rule="evenodd" clip-rule="evenodd" d="M114.68 169.732C117.947 166.389 121.584 161.254 125.796 153.801L129.28 155.916C124.992 163.505 121.147 168.997 117.517 172.711C113.878 176.434 110.33 178.497 106.655 178.949C102.976 179.401 99.5227 178.196 96.1685 176.137C93.1858 174.306 90.139 171.71 86.9254 168.753C83.8204 170.791 82.4774 171.962 81.1696 173.303C80.7656 173.717 80.3479 174.166 79.8767 174.674C78.5774 176.072 76.8716 177.909 73.9257 180.642C55.6097 197.637 46.4551 218.941 40.3688 243.562C37.3226 255.885 35.0554 268.994 32.782 282.79C32.4864 284.584 32.1907 286.389 31.8931 288.206C29.9064 300.336 27.8389 312.959 25.1809 325.92L21.231 325.049C23.8704 312.179 25.923 299.648 27.9107 287.513C28.2085 285.695 28.5049 283.885 28.8016 282.085C31.0745 268.292 33.3653 255.03 36.4571 242.523C42.6468 217.483 52.0879 195.286 71.2325 177.523L71.2326 177.522C74.0565 174.903 75.6004 173.24 76.8842 171.858C77.3858 171.318 77.8477 170.821 78.3307 170.326C80.094 168.518 81.8866 167.031 86.0885 164.362L87.3737 163.546L88.494 164.591C92.1288 167.982 95.2765 170.724 98.2261 172.535C101.153 174.331 103.702 175.097 106.179 174.792C108.661 174.487 111.423 173.065 114.68 169.732Z" fill="#0000FF"/>
<path d="M323.806 321.48H137.472L161.472 36.6985H347.792L323.806 321.48Z" fill="white"/>
<path fill-rule="evenodd" clip-rule="evenodd" d="M159.622 34.6052H349.996L325.656 323.573H135.269L159.622 34.6052ZM163.323 38.7913L139.675 319.387H321.955L345.589 38.7913H163.323Z" fill="#0000FF"/>
<path fill-rule="evenodd" clip-rule="evenodd" d="M316.143 107.448C316.669 107.993 316.669 108.876 316.143 109.421L307.251 118.639L302.517 113.749C301.99 113.205 301.989 112.321 302.514 111.775C303.038 111.23 303.891 111.228 304.417 111.772L307.248 114.696L314.239 107.448C314.765 106.903 315.617 106.903 316.143 107.448Z" fill="white"/>
<path fill-rule="evenodd" clip-rule="evenodd" d="M269.093 107.783C269.619 107.238 270.471 107.238 270.996 107.783L278.75 115.82C279.275 116.365 279.275 117.249 278.75 117.793C278.224 118.338 277.372 118.338 276.846 117.793L269.093 109.756C268.567 109.211 268.567 108.328 269.093 107.783Z" fill="white"/>
<path fill-rule="evenodd" clip-rule="evenodd" d="M184.651 70.983C184.651 69.827 185.555 68.8899 186.67 68.8899H286.13C287.245 68.8899 288.149 69.827 288.149 70.983C288.149 72.1389 287.245 73.076 286.13 73.076H186.67C185.555 73.076 184.651 72.1389 184.651 70.983Z" fill="#0000FF"/>
<path fill-rule="evenodd" clip-rule="evenodd" d="M183.305 89.6805C183.305 88.5245 184.209 87.5874 185.324 87.5874H267.191C268.306 87.5874 269.21 88.5245 269.21 89.6805C269.21 90.8364 268.306 91.7735 267.191 91.7735H185.324C184.209 91.7735 183.305 90.8364 183.305 89.6805Z" fill="#0000FF"/>
<path fill-rule="evenodd" clip-rule="evenodd" d="M175.215 141.421C175.215 140.265 176.119 139.328 177.234 139.328H276.694C277.809 139.328 278.713 140.265 278.713 141.421C278.713 142.577 277.809 143.514 276.694 143.514H177.234C176.119 143.514 175.215 142.577 175.215 141.421Z" fill="#0000FF"/>
<path fill-rule="evenodd" clip-rule="evenodd" d="M173.129 160.761C173.129 159.605 174.033 158.668 175.148 158.668H238.682C239.797 158.668 240.701 159.605 240.701 160.761C240.701 161.917 239.797 162.854 238.682 162.854H175.148C174.033 162.854 173.129 161.917 173.129 160.761Z" fill="#0000FF"/>
<path d="M248.79 163.538C250.27 163.538 251.469 162.295 251.469 160.761C251.469 159.227 250.27 157.984 248.79 157.984C247.311 157.984 246.112 159.227 246.112 160.761C246.112 162.295 247.311 163.538 248.79 163.538Z" fill="#0000FF"/>
<path d="M277.798 92.7367C279.277 92.7367 280.477 91.4935 280.477 89.9599C280.477 88.4263 279.277 87.1831 277.798 87.1831C276.319 87.1831 275.119 88.4263 275.119 89.9599C275.119 91.4935 276.319 92.7367 277.798 92.7367Z" fill="#0000FF"/>
<path d="M114.226 355.75C114.226 355.75 144.983 360.006 159.87 345.857C171.568 334.75 182.996 312.703 168.001 326.043C153.019 339.383 126.381 329.015 126.381 329.015L114.226 355.75Z" fill="white"/>
<path fill-rule="evenodd" clip-rule="evenodd" d="M175.762 327.694C173.2 333.177 167.261 341.677 161.234 347.4C153.264 354.975 141.261 357.485 131.609 358.197C126.728 358.557 122.33 358.465 119.153 358.284C117.563 358.193 116.274 358.08 115.379 357.988C114.931 357.943 114.581 357.902 114.341 357.873C114.22 357.859 114.128 357.847 114.063 357.839L113.989 357.829L113.968 357.826L113.962 357.825L113.96 357.825C113.959 357.825 113.959 357.825 114.226 355.75L113.96 357.825L111.223 357.446L125.348 326.377L127.089 327.055L127.091 327.055L127.101 327.059L127.149 327.077C127.193 327.094 127.262 327.12 127.355 327.154C127.54 327.222 127.82 327.322 128.183 327.445C128.911 327.692 129.976 328.034 131.303 328.405C133.961 329.148 137.65 330.002 141.782 330.449C150.144 331.355 159.838 330.552 166.685 324.455C168.597 322.753 170.172 321.54 171.434 320.792C172.062 320.419 172.687 320.117 173.289 319.946C173.859 319.785 174.663 319.669 175.47 320.013C176.4 320.41 176.888 321.219 177.073 321.978C177.238 322.655 177.184 323.337 177.09 323.887C176.898 325.008 176.399 326.33 175.762 327.694ZM127.44 331.595L117.272 353.959C117.887 354.009 118.592 354.059 119.375 354.104C122.431 354.278 126.652 354.366 131.322 354.022C140.77 353.324 151.589 350.888 158.506 344.314C164.176 338.93 169.8 330.852 172.128 325.87C172.265 325.576 172.387 325.301 172.495 325.045C171.658 325.638 170.607 326.482 169.315 327.631C161.181 334.873 150.066 335.556 141.363 334.613C136.962 334.136 133.056 333.231 130.251 332.447C129.128 332.133 128.178 331.837 127.44 331.595ZM174.417 323.97C174.416 323.971 174.41 323.972 174.398 323.973C174.411 323.971 174.417 323.97 174.417 323.97Z" fill="#0000FF"/>
<path fill-rule="evenodd" clip-rule="evenodd" d="M84.9771 156.738C84.9766 156.738 84.9761 156.738 84.2762 154.775C83.5763 152.812 83.576 152.812 83.5757 152.812L83.5839 152.809L83.6191 152.795C83.6515 152.782 83.7017 152.763 83.7687 152.736C83.9026 152.682 84.1035 152.601 84.3629 152.492C84.8817 152.274 85.6333 151.949 86.5502 151.522C88.3871 150.666 90.8712 149.411 93.4685 147.812C96.0721 146.21 98.7456 144.288 100.988 142.11C103.241 139.921 104.962 137.567 105.811 135.118L109.611 136.533C108.468 139.833 106.263 142.722 103.749 145.165C101.224 147.617 98.2875 149.714 95.5304 151.412C92.7671 153.113 90.1395 154.439 88.205 155.34C87.2362 155.791 86.4371 156.138 85.8767 156.373C85.5964 156.49 85.3755 156.58 85.2226 156.641C85.1461 156.672 85.0866 156.695 85.0452 156.711L84.9967 156.73L84.9829 156.736L84.9771 156.738Z" fill="#0000FF"/>
<path d="M87.1299 166.147C78.892 171.38 58.5263 171.142 51.1096 179.082C18.6294 213.925 14.2682 275.809 2.07294 335.21C7.86095 359.908 115.007 356.029 115.007 356.029L125.035 329.489C81.3015 304.205 47.2733 311.796 47.2733 311.796" fill="#417CFF"/>
<path fill-rule="evenodd" clip-rule="evenodd" d="M78.5726 167.23C81.7205 166.402 84.2888 165.497 86.075 164.362L88.1847 167.932C85.852 169.413 82.7854 170.441 79.566 171.288C77.3018 171.884 74.8337 172.42 72.3688 172.956C71.3201 173.184 70.272 173.412 69.2404 173.645C65.7298 174.435 62.3471 175.289 59.4059 176.411C56.447 177.541 54.1091 178.88 52.56 180.538C36.6923 197.561 27.5896 221.308 20.9413 248.452C16.9573 264.718 13.9004 281.966 10.7754 299.598C8.69502 311.336 6.5845 323.244 4.15024 335.146C4.80955 337.326 6.58999 339.433 9.65762 341.421C12.9075 343.527 17.3586 345.336 22.6982 346.865C33.366 349.92 47.1466 351.739 60.8597 352.794C74.5497 353.848 88.0718 354.134 98.1789 354.156C103.23 354.167 107.424 354.113 110.353 354.055C111.736 354.028 112.837 354 113.613 353.978L122.508 330.437C101.55 318.63 82.975 314.457 69.5787 313.246C62.7141 312.626 57.2062 312.783 53.4322 313.092C51.5453 313.246 50.0924 313.438 49.1208 313.589C48.635 313.665 48.2695 313.73 48.0304 313.776C47.9109 313.798 47.8229 313.816 47.7672 313.828L47.7081 313.84L47.6969 313.842C47.6976 313.842 47.698 313.842 47.2733 311.796C46.8485 309.75 46.8496 309.749 46.8507 309.749L46.8621 309.747L46.8881 309.741L46.9772 309.722C47.053 309.707 47.1615 309.685 47.3018 309.658C47.5825 309.605 47.9909 309.532 48.5209 309.449C49.581 309.284 51.1282 309.081 53.1148 308.918C57.0877 308.594 62.8202 308.433 69.9294 309.076C84.1526 310.361 103.874 314.859 126.018 327.661L127.557 328.551L116.403 358.073L115.077 358.121L115.007 356.029C115.077 358.121 115.076 358.121 115.075 358.121L114.996 358.124L114.762 358.132C114.557 358.138 114.253 358.148 113.857 358.159C113.066 358.182 111.906 358.211 110.43 358.24C107.477 358.298 103.254 358.354 98.1703 358.342C88.0067 358.32 74.3807 358.033 60.5607 356.969C46.764 355.907 32.6729 354.064 21.623 350.9C16.1038 349.32 11.2346 347.38 7.51705 344.971C3.81848 342.574 1.01131 339.546 0.110915 335.704L0.00231934 335.241L0.0980769 334.775C2.52039 322.976 4.64725 310.987 6.75574 299.102C9.9112 281.315 13.0255 263.761 17.0274 247.422C23.7284 220.063 33.046 195.447 49.6576 177.628L49.6591 177.626C51.8184 175.314 54.8075 173.706 58.0105 172.483C61.2312 171.254 64.8455 170.351 68.3832 169.554C69.4819 169.307 70.568 169.07 71.6364 168.838C74.0607 168.311 76.3933 167.804 78.5726 167.23Z" fill="#0000FF"/>
<path d="M73.6154 478.891C72.8751 479.784 71.8925 480.454 70.7349 480.845C69.5908 481.235 68.312 481.347 66.9929 481.152C63.722 480.761 60.4376 479.463 57.5167 477.426C50.6518 472.779 47.1252 465.914 49.4673 461.784C50.6653 459.677 53.1286 458.7 56.4264 459.021C59.6973 459.412 62.9816 460.695 65.9026 462.747C72.754 467.393 76.2941 474.272 73.9385 478.389C73.8577 478.542 73.75 478.724 73.6154 478.891ZM53.1555 463.919L52.994 464.142C51.6479 466.486 54.515 471.175 59.2396 474.37C61.4875 475.947 64.0181 476.965 66.5352 477.286C67.6524 477.384 69.6581 477.356 70.4253 475.961C71.7714 473.617 68.9043 468.928 64.1796 465.719C61.9317 464.142 59.4012 463.137 56.884 462.816C56.1572 462.705 55.4438 462.747 54.7977 462.928C54.165 463.123 53.5997 463.458 53.1555 463.919Z" fill="#0000FF"/>
<path d="M116.42 356.364L114.051 354.62L49.4673 461.784L54.3131 459.398L65.2565 465.342C69.3484 467.966 72.6597 471.705 73.9385 478.389L147.056 354.689L116.42 356.364Z" fill="#0000FF"/>
<path d="M60.9761 308.963C60.9761 308.963 82.136 271.972 80.44 240.548L60.9761 308.963Z" fill="#417CFF"/>
<path fill-rule="evenodd" clip-rule="evenodd" d="M62.7135 310.03C62.7131 310.03 62.7128 310.031 60.9761 308.963C59.2394 307.896 59.2393 307.896 59.2393 307.896L59.2416 307.892L59.2514 307.875L59.2934 307.8C59.3311 307.733 59.3881 307.632 59.4631 307.497C59.613 307.226 59.8346 306.823 60.1173 306.295C60.6826 305.241 61.4917 303.694 62.459 301.738C64.3944 297.823 66.9584 292.277 69.4691 285.763C74.5119 272.679 79.2473 255.917 78.4241 240.665L82.4559 240.431C83.3288 256.603 78.3322 274.049 73.219 287.316C70.6517 293.978 68.0318 299.644 66.0527 303.647C65.0627 305.649 64.232 307.238 63.6468 308.329C63.3542 308.875 63.1228 309.297 62.9636 309.584C62.884 309.727 62.8224 309.837 62.7801 309.912L62.7315 309.998L62.7183 310.021L62.7146 310.028L62.7135 310.03Z" fill="#0000FF"/>
<path d="M272.885 194.654H260.003C255.103 194.654 251.133 190.538 251.133 185.459C251.133 180.38 255.103 176.263 260.003 176.263H272.885C277.784 176.263 281.755 180.38 281.755 185.459C281.742 190.538 277.771 194.654 272.885 194.654Z" fill="#FF5657"/>
<path d="M308.111 194.654H295.229C290.33 194.654 286.359 190.538 286.359 185.459C286.359 180.38 290.33 176.263 295.229 176.263H308.111C313.011 176.263 316.981 180.38 316.981 185.459C316.981 190.538 313.011 194.654 308.111 194.654Z" fill="#2DDFD5"/>
<path d="M295.808 185.403L299.59 189.324L307.532 181.077" fill="#2DDFD5"/>
<path fill-rule="evenodd" clip-rule="evenodd" d="M308.483 180.09C309.009 180.634 309.01 181.518 308.485 182.063L299.591 191.298L294.856 186.39C294.33 185.845 294.33 184.961 294.856 184.416C295.382 183.871 296.234 183.871 296.76 184.416L299.59 187.35L306.579 180.091C307.105 179.546 307.957 179.545 308.483 180.09Z" fill="white"/>
<path fill-rule="evenodd" clip-rule="evenodd" d="M261.435 180.424C261.961 179.88 262.813 179.881 263.338 180.426L271.091 188.477C271.617 189.023 271.616 189.906 271.09 190.451C270.564 190.995 269.711 190.994 269.186 190.449L261.433 182.398C260.908 181.852 260.909 180.969 261.435 180.424Z" fill="white"/>
<path fill-rule="evenodd" clip-rule="evenodd" d="M271.09 180.48C271.616 181.025 271.617 181.908 271.091 182.454L263.338 190.505C262.813 191.05 261.961 191.051 261.435 190.507C260.909 189.962 260.908 189.079 261.433 188.533L269.186 180.482C269.711 179.937 270.564 179.936 271.09 180.48Z" fill="white"/>
<path d="M280.194 125.835H267.312C262.412 125.835 258.442 121.718 258.442 116.639C258.442 111.56 262.412 107.444 267.312 107.444H280.194C285.093 107.444 289.064 111.56 289.064 116.639C289.051 121.718 285.08 125.835 280.194 125.835Z" fill="#FF5657"/>
<path d="M315.42 125.835H302.538C297.639 125.835 293.668 121.718 293.668 116.639C293.668 111.56 297.639 107.444 302.538 107.444H315.42C320.32 107.444 324.29 111.56 324.29 116.639C324.29 121.718 320.32 125.835 315.42 125.835Z" fill="#2DDFD5"/>
<path d="M303.117 116.583L306.899 120.504L314.841 112.257" fill="#2DDFD5"/>
<path fill-rule="evenodd" clip-rule="evenodd" d="M315.792 111.27C316.318 111.815 316.319 112.698 315.794 113.244L306.9 122.478L302.165 117.57C301.64 117.025 301.64 116.142 302.165 115.597C302.691 115.052 303.543 115.052 304.069 115.597L306.899 118.53L313.889 111.272C314.414 110.726 315.266 110.726 315.792 111.27Z" fill="white"/>
<path fill-rule="evenodd" clip-rule="evenodd" d="M268.744 111.605C269.27 111.061 270.122 111.061 270.647 111.607L278.401 119.658C278.926 120.204 278.925 121.087 278.399 121.631C277.873 122.176 277.021 122.175 276.495 121.63L268.742 113.578C268.217 113.033 268.218 112.15 268.744 111.605Z" fill="white"/>
<path fill-rule="evenodd" clip-rule="evenodd" d="M278.399 111.661C278.925 112.205 278.926 113.089 278.401 113.634L270.647 121.686C270.122 122.231 269.27 122.232 268.744 121.687C268.218 121.143 268.217 120.259 268.742 119.714L276.495 111.663C277.021 111.117 277.873 111.117 278.399 111.661Z" fill="white"/>
<path d="M156.599 331.834L230.04 218.404L209.015 203.013L128.938 330.55" fill="#0000FF"/>
<path d="M230.269 217.93C230.026 218.251 229.65 218.446 229.205 218.46C228.761 218.474 228.304 218.32 227.9 218.027L209.688 204.408C209.459 204.241 209.257 204.032 209.109 203.781C208.961 203.543 208.853 203.278 208.813 203.027C208.772 202.776 208.786 202.511 208.853 202.287C208.92 202.064 209.055 201.855 209.217 201.701L239.18 175.454C239.449 175.217 239.799 175.106 240.189 175.12C240.58 175.134 240.983 175.273 241.333 175.524C241.683 175.775 241.966 176.124 242.114 176.501C242.276 176.878 242.302 177.282 242.195 177.631L230.43 217.483C230.417 217.651 230.363 217.804 230.269 217.93ZM213.335 203.236L227.644 213.925L236.891 182.543L213.335 203.236Z" fill="#0000FF"/>
<path d="M224.965 190.469L234.617 197.683L237.78 180.757L224.965 190.469Z" fill="#0000FF"/>
</g>
<defs>
<clipPath id="clip0">
<rect width="350" height="481.25" fill="white"/>
</clipPath>
</defs>
</svg>
