<svg xmlns="http://www.w3.org/2000/svg" width="344" height="342" fill="none" viewBox="0 0 344 342">
    <path fill="#FFCB05" d="M190.14 242.165l12.118 28.455 8.888 12.49 32.351 7.237 38.917-2.317 27.706-8.586-16.658-33.48-8.439-40.736 4.071-29.348 9.194-20.744 3.842-16.098-10.178-5.471-13.562 7.788-6.021 12.205 2.332-51.744-1.127-21.94-9.796-7.332-10.552 1.947-8.888-11.008-13.867 5.242-13.868-2.402-8.133 10.333-1.357 8.168-6.632.741-7.914 9.213-6.327 40.214-4.157 45.807 8.057 61.366z"/>
    <path fill="#00F" d="M208.508 85.833c-5.839-2.906-12.233.361-15.215 5.699-1.505 2.929-2.543 6.072-3.077 9.317-.784 3.799-1.482 7.598-2.141 11.445-2.661 15.407-4.518 30.941-5.562 46.539-1.111 14.948-1.222 29.953-.335 44.915.86 14.845 3.458 29.539 7.741 43.785 1.924 6.356 4.363 12.547 7.292 18.511 2.749 5.361 5.977 10.466 9.644 15.254 1.022 1.358 2.073 2.707 3.125 4.046.336.332.792.519 1.266.519.475 0 .93-.187 1.266-.519.328-.338.511-.789.511-1.259 0-.469-.183-.92-.511-1.258-3.796-4.711-7.221-9.706-10.245-14.94-2.857-5.163-5.253-10.566-7.158-16.146-4.581-13.34-7.53-27.18-8.783-41.221-1.274-14.28-1.517-28.634-.726-42.949.69-14.825 2.128-29.606 4.31-44.288 1.194-8.016 2.389-16.146 4.31-24.03.793-3.248 1.911-6.78 4.587-9.032 1.045-.955 2.345-1.59 3.745-1.826 1.399-.236 2.837-.063 4.14.496 2.055 1.026 3.88-2.041 1.816-3.067v.01z"/>
    <path fill="#2DDFD5" d="M183.851 242.631l-12.128 28.446-8.888 12.499-44.23-7.114-54.887 1.492 16.801-31.524 8.44-40.736-4.063-29.357-9.194-20.734-3.841-16.099 10.168-5.47 13.562 7.788 6.03 12.204-2.341-51.743 1.137-21.94L110.213 73l10.542 1.947 8.898-11.008 13.867 5.243 13.858-2.394 8.143 10.334 1.357 8.158 6.623.75 7.913 9.214 6.327 40.213 4.157 45.808-8.047 61.365z"/>
    <path fill="#00F" d="M65.065 279.957c13.724-22.092 24.6-47.688 25.193-73.997.286-13.059-2.067-26.042-6.92-38.181-1.204-3.002-2.548-5.94-4.033-8.814-1.433-2.755-3.048-5.414-4.31-8.263-2.026-4.578-3.269-11.179 2.246-13.877 4.664-2.279 10.37-.218 13.705 3.334 4.08 4.322 6.547 10.153 8.687 15.595.138.447.442.825.851 1.056.409.231.891.299 1.348.189.457-.129.844-.431 1.079-.842.234-.411.296-.897.173-1.352-3.747-9.546-9.242-22.187-21.294-22.434-5.333-.105-10.408 2.849-11.803 8.168-1.605 6.164 1.96 12.442 4.846 17.666 6.532 11.748 10.487 24.738 11.602 38.114 1.08 13.592-1.023 27.145-4.989 40.138-4.642 14.677-11.176 28.695-19.44 41.705-1.222 1.956 1.912 3.742 3.088 1.795h-.029z"/>
    <path fill="#00F" d="M103.293 151.016c-.56-13.771-1.102-27.54-1.624-41.306-.258-6.572-.765-13.173-.717-19.745 0-4.835.812-10.505 5.275-13.297 3.976-2.527 9.682-2.498 13.304.674 1.73 1.51 4.272-.997 2.542-2.517-1.947-1.65-4.29-2.771-6.802-3.255-2.512-.484-5.107-.315-7.534.491-5.409 1.776-8.763 6.326-9.805 11.787-.51 3.043-.676 6.133-.497 9.213.124 3.523.287 7.057.42 10.58.306 7.491.6 14.988.88 22.491.325 8.314.643 16.621.955 24.922.096 2.28 3.68 2.289 3.584 0l.019-.038z"/>
    <path fill="#00F" d="M122.599 76.01c.225-2.238 1.12-4.358 2.57-6.085 1.45-1.727 3.388-2.982 5.564-3.602 2.165-.452 4.419-.206 6.434.7 2.016.907 3.689 2.428 4.776 4.343 1.128 1.995 4.224.2 3.097-1.805-1.504-2.583-3.798-4.62-6.549-5.817-2.75-1.196-5.814-1.487-8.743-.831-5.887 1.425-10.36 7.218-10.761 13.126-.163 2.289 3.431 2.28 3.584 0l.028-.029z"/>
    <path fill="#00F" d="M144.361 71.395c4.062-3.353 9.92-4.93 14.231-1.111 4.31 3.818 5.256 9.678 6.212 14.93.411 2.251 3.823 1.292 3.45-.95-1.176-6.392-2.714-13.297-8.267-17.428-5.734-4.274-13.026-2.185-18.159 2.042-1.777 1.462.765 3.97 2.533 2.517z"/>
    <path fill="#00F" d="M167.412 88.32c1.233-.524 2.587-.699 3.913-.504 1.326.194 2.572.75 3.599 1.606 2.351 1.795 3.613 4.692 4.435 7.436.887 3.263 1.598 6.569 2.131 9.907.678 3.647 1.319 7.313 1.911 10.97 2.351 14.658 3.96 29.405 4.827 44.24 1.653 28.342.955 57.386-7.713 84.683-2.009 6.631-4.64 13.06-7.856 19.204-3.207 5.799-6.92 11.306-11.096 16.46-.321.341-.5.791-.5 1.258 0 .468.179.917.5 1.259.341.328.797.512 1.271.512.475 0 .931-.184 1.271-.512 3.967-4.894 7.555-10.078 10.733-15.51 2.999-5.421 5.519-11.09 7.531-16.944 4.817-14.061 7.869-28.659 9.089-43.462 1.235-14.849 1.395-29.768.478-44.64-.83-15.526-2.467-31-4.903-46.359-.637-3.894-1.303-7.778-1.997-11.653-.556-3.494-1.297-6.956-2.218-10.372-1.768-5.898-6.011-11.9-12.883-11.768-1.509.038-2.99.418-4.329 1.112-2.064 1.025-.249 4.093 1.806 3.067v.01z"/>
    <path fill="#00F" d="M167.958 84.416c-4.148 1.026-6.805 4.93-7.503 8.947-.353 2.5-.391 5.033-.114 7.541.21 2.66.439 5.329.659 7.988l2.657 32.606 1.51 18.426c.182 2.27 3.775 2.289 3.584 0l-2.514-30.716-1.252-15.358c-.411-5.025-.955-10.058-1.204-15.092-.2-4.027.363-9.735 5.132-10.913 2.237-.551 1.291-3.98-.955-3.429zM142.344 68.831c-2.981 4.18-3.67 9.394-3.564 14.409.124 5.641.898 11.292 1.424 16.915l3.488 37.231 1.988 21.181c.22 2.26 3.823 2.289 3.584 0l-3.441-36.709c-1.118-11.825-2.475-23.66-3.307-35.513-.382-5.375-.344-11.103 2.925-15.671 1.338-1.9-1.768-3.657-3.097-1.795v-.048zM118.977 76c.555 21.046.784 42.103 1.195 63.159.115 5.952.248 11.911.401 17.875.058 2.289 3.642 2.299 3.584 0-.554-21.056-.783-42.113-1.194-63.16-.115-5.965-.249-11.923-.402-17.875-.057-2.289-3.641-2.298-3.584 0zM99.71 151.015c-.02 13.242-1.777 26.426-5.228 39.216-.602 2.223 2.867 3.163 3.45.95 3.538-13.1 5.34-26.602 5.362-40.166-.033-.45-.237-.871-.569-1.178-.332-.307-.769-.477-1.223-.477-.454 0-.891.17-1.224.477-.332.307-.535.728-.568 1.178zM63.498 280.801l46.83-4.417c7.388-.693 14.775-1.519 22.173-2.023 6.69-.446 13.619-.513 20.117 1.434 2.695.808 6.069 1.9 7.99 4.094 2.16 2.431-.64 4.54-2.771 5.613-5.888 2.973-12.721 3.923-19.258 3.799-12.424-.199-24.313-4.407-36.375-7.009-6.69-1.444-13.38-2.698-20.117-3.638-6.15-.945-12.366-1.406-18.589-1.377-2.303 0-2.303 3.609 0 3.562 12.013-.238 24.15 2.07 35.84 4.53 5.571 1.159 11.095 2.488 16.59 3.951 6.99 1.994 14.185 3.192 21.447 3.571 7.092.372 14.178-.839 20.739-3.542 2.771-1.197 5.916-2.964 6.785-6.088.956-3.344-1.433-6.146-4.119-7.808-5.858-3.637-13.17-4.749-19.955-4.862-7.388-.143-14.776.788-22.125 1.481l-49 4.616-6.154.579c-2.275.219-2.294 3.8 0 3.562l-.048-.028zM156.938 326.238H67.76c-.443 0-.869-.175-1.182-.487-.314-.312-.49-.734-.49-1.175 0-.441.176-.864.49-1.176.313-.311.739-.486 1.182-.486h89.178c.444 0 .869.175 1.183.486.313.312.49.735.49 1.176 0 .441-.177.863-.49 1.175-.314.312-.739.487-1.183.487zM291.006 326.238h-60.077c-.443 0-.869-.175-1.182-.487-.314-.312-.49-.734-.49-1.175 0-.441.176-.864.49-1.176.313-.311.739-.486 1.182-.486h60.077c.443 0 .869.175 1.182.486.314.312.49.735.49 1.176 0 .441-.176.863-.49 1.175-.313.312-.739.487-1.182.487z"/>
    <path fill="#0D26F5" d="M274.873 341.434c2.022 0 3.661-1.629 3.661-3.638s-1.639-3.637-3.661-3.637c-2.021 0-3.66 1.628-3.66 3.637 0 2.009 1.639 3.638 3.66 3.638zM260.967 341.434c2.022 0 3.66-1.629 3.66-3.638s-1.638-3.637-3.66-3.637c-2.022 0-3.66 1.628-3.66 3.637 0 2.009 1.638 3.638 3.66 3.638zM247.052 341.434c2.022 0 3.66-1.629 3.66-3.638s-1.638-3.637-3.66-3.637c-2.022 0-3.66 1.628-3.66 3.637 0 2.009 1.638 3.638 3.66 3.638zM282.079 331.851c2.022 0 3.661-1.629 3.661-3.638s-1.639-3.638-3.661-3.638c-2.021 0-3.66 1.629-3.66 3.638s1.639 3.638 3.66 3.638zM268.173 331.851c2.022 0 3.66-1.629 3.66-3.638s-1.638-3.638-3.66-3.638c-2.021 0-3.66 1.629-3.66 3.638s1.639 3.638 3.66 3.638zM254.258 331.851c2.022 0 3.66-1.629 3.66-3.638s-1.638-3.638-3.66-3.638c-2.022 0-3.66 1.629-3.66 3.638s1.638 3.638 3.66 3.638zM240.353 331.851c2.021 0 3.66-1.629 3.66-3.638s-1.639-3.638-3.66-3.638c-2.022 0-3.661 1.629-3.661 3.638s1.639 3.638 3.661 3.638zM127.062 341.434c2.021 0 3.66-1.629 3.66-3.638s-1.639-3.637-3.66-3.637c-2.022 0-3.661 1.628-3.661 3.637 0 2.009 1.639 3.638 3.661 3.638zM113.147 341.434c2.021 0 3.66-1.629 3.66-3.638s-1.639-3.637-3.66-3.637c-2.022 0-3.661 1.628-3.661 3.637 0 2.009 1.639 3.638 3.661 3.638zM99.242 341.434c2.021 0 3.66-1.629 3.66-3.638s-1.639-3.637-3.66-3.637c-2.022 0-3.66 1.628-3.66 3.637 0 2.009 1.638 3.638 3.66 3.638zM134.268 331.851c2.021 0 3.66-1.629 3.66-3.638s-1.639-3.638-3.66-3.638c-2.022 0-3.661 1.629-3.661 3.638s1.639 3.638 3.661 3.638zM139.908 341.434c2.021 0 3.66-1.629 3.66-3.638s-1.639-3.637-3.66-3.637c-2.022 0-3.661 1.628-3.661 3.637 0 2.009 1.639 3.638 3.661 3.638zM147.114 331.851c2.021 0 3.66-1.629 3.66-3.638s-1.639-3.638-3.66-3.638c-2.022 0-3.661 1.629-3.661 3.638s1.639 3.638 3.661 3.638zM120.353 331.851c2.021 0 3.66-1.629 3.66-3.638s-1.639-3.638-3.66-3.638c-2.022 0-3.661 1.629-3.661 3.638s1.639 3.638 3.661 3.638zM106.448 331.851c2.021 0 3.66-1.629 3.66-3.638s-1.639-3.638-3.66-3.638c-2.022 0-3.661 1.629-3.661 3.638s1.639 3.638 3.661 3.638zM92.542 331.851c2.022 0 3.66-1.629 3.66-3.638s-1.638-3.638-3.66-3.638c-2.021 0-3.66 1.629-3.66 3.638s1.639 3.638 3.66 3.638zM86.683 341.434c2.021 0 3.66-1.629 3.66-3.638s-1.639-3.637-3.66-3.637c-2.022 0-3.66 1.628-3.66 3.637 0 2.009 1.638 3.638 3.66 3.638zM79.974 331.851c2.022 0 3.66-1.629 3.66-3.638s-1.638-3.638-3.66-3.638c-2.022 0-3.66 1.629-3.66 3.638s1.638 3.638 3.66 3.638z"/>
    <path fill="#00F" d="M189.031 39.188c-.444 0-.869-.175-1.183-.487-.313-.312-.49-.734-.49-1.175V1.662c0-.44.177-.863.49-1.175.314-.312.739-.487 1.183-.487.444 0 .869.175 1.183.487.313.312.489.734.489 1.175v35.864c0 .218-.043.434-.127.636-.084.201-.207.385-.362.539-.156.154-.34.277-.543.36-.203.084-.42.127-.64.127zM236.893 40.743c-.309-.003-.612-.091-.874-.254s-.474-.395-.612-.67-.198-.582-.172-.888c.027-.306.137-.6.32-.847L259.61 6.048c.266-.354.663-.589 1.103-.652.44-.063.887.05 1.243.314.356.265.592.66.656 1.096.063.438-.05.882-.316 1.236L238.24 40.07c-.157.208-.36.377-.594.494-.234.117-.492.179-.753.18zM144.542 40.743c-.262-.001-.52-.063-.753-.18-.234-.117-.438-.286-.594-.494L119.139 8.042c-.132-.175-.227-.374-.282-.586-.054-.213-.066-.433-.034-.65.031-.216.106-.424.218-.612.113-.188.261-.353.437-.484.177-.13.377-.226.591-.28.213-.054.435-.065.653-.034.218.031.427.105.617.217.189.112.354.26.486.435l24.055 32.036c.183.247.293.54.319.847.026.306-.033.613-.171.888-.139.275-.35.507-.612.67-.263.163-.565.25-.874.254zM14.26 227.614c-.444 0-.87-.175-1.183-.487-.314-.312-.49-.734-.49-1.175 0-.441.176-.864.49-1.176.313-.311.739-.486 1.182-.486l28.92-.057c.444 0 .87.175 1.183.486.314.312.49.735.49 1.176 0 .441-.176.863-.49 1.175-.314.312-.739.487-1.183.487l-28.93.057h.01zM26.168 218.582H1.672c-.444 0-.87-.175-1.183-.487-.314-.311-.49-.734-.49-1.175 0-.441.176-.864.49-1.175.314-.312.739-.487 1.183-.487h24.495c.443 0 .869.175 1.182.487.314.311.49.734.49 1.175 0 .441-.176.864-.49 1.175-.314.312-.739.487-1.183.487zM5.37 227.624c.93 0 1.683-.748 1.683-1.672 0-.923-.753-1.671-1.682-1.671-.93 0-1.683.748-1.683 1.671 0 .924.754 1.672 1.683 1.672zM333.421 95.423h-18.436c-.444 0-.869-.175-1.183-.487-.313-.312-.49-.734-.49-1.175 0-.44.177-.864.49-1.175.314-.312.739-.487 1.183-.487h18.436c.443 0 .869.175 1.182.487.314.311.49.734.49 1.175 0 .44-.176.864-.49 1.175-.313.312-.739.487-1.182.487zM342.318 95.435c.929 0 1.682-.749 1.682-1.672 0-.923-.753-1.671-1.682-1.671-.929 0-1.682.748-1.682 1.671s.753 1.672 1.682 1.672zM80.414 278.523l36.126-4.455 32.504-.921 13.065 6.43.726 3.998-13.036 6.563-28.576-.702-40.809-10.913zM311.477 278.133c-7.33-11.587-13.256-23.995-17.652-36.965-4.225-12.775-6.834-26.243-6.423-39.73.411-13.435 3.716-26.626 9.691-38.684 2.81-5.699 6.824-11.198 7.321-17.685.262-2.688-.476-5.379-2.075-7.563-1.599-2.184-3.948-3.711-6.603-4.29-2.851-.559-5.8-.352-8.543.6-2.744.951-5.182 2.613-7.064 4.814-4.243 4.805-6.871 10.874-9.184 16.763-.127.455-.067.941.167 1.351.234.411.623.712 1.08.838.458.126.947.066 1.36-.166.413-.232.716-.618.843-1.073 3.249-8.263 8.601-21.342 19.688-19.822 2.07.222 3.969 1.246 5.285 2.849.732 1.08 1.218 2.306 1.423 3.593.205 1.286.123 2.602-.238 3.854-1.357 6.012-5.276 11.254-7.827 16.801-5.464 11.899-8.491 24.758-8.908 37.83-.392 12.926 1.912 25.919 5.735 38.238 4.513 14.152 10.817 27.678 18.76 40.252 1.214 1.947 4.32.161 3.097-1.795l.067-.01z"/>
    <path fill="#00F" d="M274.385 151.52c.612-14.855 1.166-29.719 1.749-44.583l.488-11.34c.202-2.983.18-5.977-.067-8.956-.64-5.7-3.106-11.094-8.602-13.516-2.584-1.181-5.453-1.606-8.272-1.224-2.818.382-5.469 1.554-7.64 3.38-1.73 1.51.812 4.027 2.532 2.517 1.64-1.321 3.619-2.16 5.714-2.42 2.095-.26 4.221.068 6.137.948 4.846 2.165 6.432 7.294 6.69 12.205.163 2.982 0 5.974-.153 8.956-.14 3.457-.277 6.914-.411 10.372-.273 6.781-.538 13.569-.793 20.363-.306 7.756-.624 15.516-.955 23.279-.096 2.298 3.488 2.289 3.583 0v.019z"/>
    <path fill="#00F" d="M255.081 76.54c-.402-5.907-4.875-11.72-10.771-13.144-2.929-.658-5.993-.367-8.744.829-2.752 1.196-5.046 3.235-6.548 5.82-1.137 2.003 1.912 3.798 3.097 1.794 1.09-1.912 2.763-3.432 4.777-4.338 2.015-.907 4.268-1.153 6.433-.705 2.178.627 4.116 1.887 5.566 3.619 1.449 1.732 2.344 3.855 2.567 6.097.153 2.28 3.747 2.29 3.584 0l.039.029z"/>
    <path fill="#00F" d="M232.267 69.392c-5.257-4.35-12.606-6.307-18.426-1.833-5.419 4.179-6.948 11.245-8.124 17.59-.421 2.241 3.039 3.2 3.45.95.956-5.234 2.007-11.255 6.078-15.074 4.33-4.046 10.294-2.583 14.489.884 1.759 1.453 4.31-1.055 2.533-2.517z"/>
    <path fill="#00F" d="M205.182 88.359c3.966.95 5.142 5.404 5.18 8.966.048 4.957-.678 9.982-1.08 14.911l-2.513 30.716-1.424 17.476c-.192 2.289 3.392 2.279 3.584 0l2.704-32.597 1.338-16.298.679-8.272c.292-2.465.385-4.948.277-7.428-.373-4.748-2.762-9.678-7.741-10.912-2.246-.551-3.202 2.849-.956 3.438h-.048zM228.655 71.128c2.867 4.037 3.24 8.966 3.039 13.762-.249 5.7-.956 11.474-1.52 17.182l-3.402 36.262-1.912 20.715c-.21 2.28 3.374 2.261 3.584 0l3.498-37.184 1.768-18.834c.536-5.775 1.243-11.559 1.568-17.352.306-5.614-.115-11.597-3.498-16.327-1.319-1.852-4.425-.076-3.087 1.795l-.038-.019zM251.515 76.542c-.545 21.037-.774 42.085-1.175 63.132-.115 5.952-.249 11.907-.402 17.865-.057 2.299 3.527 2.299 3.584 0 .545-21.037.774-42.085 1.176-63.122.114-5.965.248-11.923.401-17.875.057-2.289-3.527-2.289-3.584 0zM270.802 151.518c.022 13.566 1.821 27.071 5.352 40.176.602 2.213 4.062 1.273 3.459-.95-3.45-12.794-5.208-25.98-5.227-39.226 0-2.289-3.594-2.289-3.584 0zM210.935 285.884c25.217 7.516 51.99 8.25 77.585 2.127 7.147-1.708 14.15-3.959 20.95-6.734.449-.137.829-.439 1.062-.845.232-.406.3-.885.19-1.339-.128-.456-.432-.843-.845-1.076-.414-.233-.904-.294-1.363-.168-30.718 12.538-64.848 14.165-96.632 4.606-2.208-.665-3.154 2.773-.956 3.429h.009zM39.432 130.405c-3.18 0-6.288-.937-8.931-2.693-2.644-1.755-4.704-4.251-5.92-7.171-1.217-2.919-1.535-6.132-.914-9.231.621-3.099 2.153-5.946 4.402-8.179 2.25-2.234 5.114-3.755 8.233-4.37 3.12-.616 6.352-.298 9.289.913 2.937 1.21 5.447 3.259 7.212 5.888 1.765 2.628 2.707 5.718 2.705 8.878-.005 4.234-1.701 8.294-4.715 11.287-3.014 2.993-7.1 4.676-11.36 4.678zm0-28.616c-2.517 0-4.979.742-7.072 2.132-2.093 1.39-3.725 3.366-4.688 5.677-.964 2.312-1.216 4.856-.725 7.31.491 2.454 1.704 4.708 3.484 6.477 1.78 1.77 4.049 2.974 6.518 3.463 2.47.488 5.029.237 7.355-.72 2.326-.958 4.314-2.579 5.713-4.66 1.399-2.08 2.146-4.526 2.146-7.028-.003-3.355-1.345-6.571-3.732-8.943-2.386-2.372-5.623-3.706-8.998-3.708z"/>
</svg>
