<svg xmlns="http://www.w3.org/2000/svg" width="342" height="210" fill="none" viewBox="0 0 342 210">
    <path fill="#FFCB05" d="M116.545 41.362l-12.444.526-4.677 10.026 4.25 2.525 7.042-4.525 5.829-8.552zM190.736 127.25l-9.049 1.847-23.675 18.937-18.326 17.045 1.396 7.866h47.617l1.404-6.958 1.206-8.485 7.301-12.658.176-12.505-8.05-5.089zM74.955 146.95l-17.335 1.053-21.241 36.218 1.411 5.547 11.674 1.564 41.231-.32v-4.571l1.549-6.676 23.217-39.865 8.401-15.794-1.801-4.387-3.662-.137-12.017 9.575-15.687 10.522-10.681 5.34-5.059 1.931zM72.086 88.827l2.869 4.883-6.524 14.367-14.16 29.428 3.196 9.255-36.623.465-13.55-.274-5.097-8.614 3.975-10.178 15.45-29.184 30.78.114 3.54-.488 4.554-5.867 8.149-3.907h3.44z"/>
    <path fill="#FFCB05" d="M69.79 2.352l-10.942.488L45.42 14.376l-16.404 19.8L10.91 65.22 2.403 87.24l-.206 8.308 4.593 3.426 19.784.305 19.647-.305v-6.249l3.06-11.353 12.314-24.614L79.83 30.53l22.836-23.386 3.227-3.624-36.104-1.167z"/>
    <path fill="#00F" d="M181.688 127.202l-49.304 1.023-20.432 17.922-21.913 38.759 2.533 5.921 12.498-1.968 27.52-17.846 34.7-31.183 14.398-12.628zM67.348 119.269l-5.31.801-6.86 13.375.222 8.69 7.69 4.815 14.368-1.153L93.244 138l17.136-12.292 5.974-6.088-49.006-.351zM54.255 88.201l-7.233.954v8.14l4.365 1.68 7.668-4.838 4.318-5.15-9.117-.786zM118.155 2.837l-11.666 1.03-22.157 21.31-17.86 23.683-2.717 5.326 13.978.35 23.324-.266-1.831-4.136 11.994-18.532 13.321-20.463-1.106-6.25-5.28-2.052z"/>
    <path fill="#00F" d="M254.148 181.711H139.976c-.354 0-.694-.141-.944-.391-.251-.251-.391-.59-.391-.945V93.709c0-.354.14-.694.391-.944.25-.25.59-.391.944-.391h114.172c.354 0 .693.14.944.39.25.251.391.59.391.945v86.651c.001.177-.033.351-.099.515-.067.163-.165.312-.289.437-.124.125-.272.225-.434.294-.163.068-.337.104-.513.105zm-112.829-2.686h111.493v-83.98H141.319v83.98zM55.614 2.532c-7.917 7.037-15.22 14.735-21.829 23.012C20.526 42.09 10.143 60.749 3.068 80.737c-.893 2.526-1.816 5.074-2.495 7.63-.68 2.556-.977 5.448.389 7.874 2.35 4.174 7.828 4.395 12.055 4.418 11.208.076 22.416-.069 33.624-.038h3.899c1.846 0 1.846-2.846 0-2.861-10.873-.077-21.745.053-32.617.045-2.411 0-4.83.046-7.24-.068-1.947-.084-4.052-.328-5.739-1.389-2.075-1.305-2.342-3.73-1.907-5.966.57-2.48 1.311-4.918 2.22-7.294C15.671 52.823 33.714 25.756 57.643 4.5c1.374-1.22-.656-3.243-2.03-2.022v.053z"/>
    <path fill="#00F" d="M108 1.275c-12.91 9.156-23.82 21.058-33.395 33.571C64.167 48.503 55.14 63.473 48.869 79.511c-1.49 3.548-2.721 7.2-3.685 10.925-.448 1.677-.505 3.433-.168 5.135.249.975.693 1.888 1.305 2.686.613.797 1.381 1.462 2.259 1.953 1.579.954 3.051-1.526 1.442-2.472-2.694-1.617-2.648-4.486-1.908-7.225.894-3.194 1.954-6.34 3.174-9.423 2.932-7.516 6.432-14.798 10.468-21.783C69.931 44.929 79.854 31.619 91.3 19.678c5.526-5.867 11.593-11.201 18.12-15.931 1.526-1.06.069-3.54-1.442-2.472H108zM19.807 99.31L7.85 122.64 4.8 128.562c-.964 1.72-1.808 3.504-2.525 5.341-.954 2.746-1.152 6.271.114 8.949.63 1.454 1.612 2.728 2.855 3.709 1.244.981 2.711 1.639 4.271 1.914 3.152.504 6.447.237 9.63.214l21.683-.198 23.805-.206c1.839 0 1.839-2.877 0-2.862-13.673.107-27.345.229-41.018.367l-9.514.076c-1.506.074-3.016-.021-4.502-.282-1.41-.279-2.664-1.08-3.51-2.243-.73-.859-1.252-1.875-1.525-2.968-.234-1.377-.209-2.784.076-4.151.398-1.688 1.049-3.306 1.93-4.799.97-1.877 1.93-3.769 2.9-5.654l12.818-25.025c.831-1.633-1.633-3.052-2.473-1.442l-.007.007z"/>
    <path fill="#00F" d="M72.59 97.02c-3.258 6.363-6.653 12.665-10.018 18.975-1.67 3.136-3.296 6.302-4.997 9.43-1.473 2.716-3.098 5.402-4.036 8.393-1.053 3.334-.962 6.867 1.167 9.781.2.319.515.549.88.644.364.095.75.048 1.081-.132.325-.193.562-.506.657-.872.096-.366.044-.754-.146-1.082-3.677-5.012.573-10.994 3.052-15.549 3.174-5.906 6.302-11.849 9.453-17.777 1.826-3.439 3.63-6.888 5.41-10.347.84-1.632-1.633-3.051-2.472-1.441l-.03-.023zM57.506 145.422l-12.208 20.234-6.104 10.117c-1.762 2.915-3.998 5.936-4.425 9.408-.204 1.482.123 2.988.923 4.252.8 1.264 2.022 2.204 3.45 2.653 2.967 1.068 6.454.671 9.536.648l21.165-.152 24.263-.168c1.839 0 1.846-2.869 0-2.861-13.474.086-26.953.183-40.438.29-3.387 0-6.79.137-10.178.045-2.25-.053-5.478-.427-5.913-3.174-.465-2.99 2.03-6.103 3.472-8.514l5.813-9.629 13.116-21.699c.954-1.58-1.526-3.052-2.472-1.45z"/>
    <path fill="#00F" d="M107.534 150.97c-2.93 4.852-5.783 9.75-8.621 14.649-1.328 2.304-2.666 4.593-4.014 6.866-1.526 2.617-3.227 5.189-4.661 7.874-1.435 2.686-2.587 6.203-.763 9.11.969 1.526 3.448.122 2.472-1.442-1.374-2.205 0-4.913 1.16-6.912 1.434-2.51 2.975-4.967 4.44-7.462 2.518-4.28 4.982-8.591 7.485-12.872 1.638-2.807 3.298-5.605 4.982-8.392.954-1.58-1.526-3.052-2.464-1.45l-.016.031zM57.644 4.555c1.373-1.251 3.372-1.526 5.157-1.61 2.29-.122 4.662.046 6.99.1 5.577.144 11.154.259 16.731.389l16.351.373 8.393.191c2.322-.034 4.645.057 6.958.275 1.618.213 3.555.671 4.616 2.03 1.389 1.77.633 4.142-.298 5.935-1.26 2.199-2.648 4.32-4.158 6.356-1.526 2.243-3.052 4.491-4.578 6.745-3.113 4.578-6.226 9.155-9.392 13.68-1.373 1.953-2.853 3.815-4.227 5.776-1.395 1.805-2.25 3.969-2.464 6.24-.032.613.057 1.227.262 1.805.206.578.523 1.11.934 1.566.41.455.907.825 1.462 1.09.554.263 1.154.414 1.767.446 2.434.244 4.792-1.008 6.653-2.434 4.094-3.092 7.513-6.986 10.049-11.445.123-.218.187-.464.186-.715 0-.25-.067-.496-.191-.713-.125-.217-.304-.398-.52-.525-.216-.127-.461-.195-.711-.199l-13.063-.114c-1.846 0-1.846 2.846 0 2.861l13.024.122-1.236-2.159c-2.281 3.945-5.286 7.424-8.858 10.254-1.404 1.16-3.342 2.442-5.264 2.198-2.38-.305-1.686-3.052-.984-4.578.93-2.014 2.456-3.685 3.753-5.463 1.595-2.174 3.106-4.418 4.632-6.63 3.052-4.471 6.103-8.965 9.155-13.444 1.526-2.289 3.129-4.578 4.677-6.867 1.418-1.889 2.396-4.07 2.862-6.386.172-1.033.1-2.093-.208-3.094-.309-1.001-.846-1.917-1.57-2.674-1.407-1.26-3.157-2.074-5.028-2.335-2.224-.31-4.469-.453-6.714-.427l-8.393-.19L88.049.61C81.852.473 75.664.35 69.468.183c-4.5-.122-10.215-.961-13.847 2.358-1.358 1.244.671 3.265 2.03 2.022l-.008-.008zM47.526 99.676c1.052.563 2.221.872 3.414.901 1.193.029 2.375-.222 3.453-.733 2.465-1.175 4.311-3.38 6.218-5.257 1.725-1.694 3.587-3.471 5.853-4.402 1.93-.801 4.83-.877 6.34.84 1.51 1.716.366 4.577-.382 6.37-.096.365-.045.754.142 1.082.187.328.495.57.858.673.366.093.754.04 1.082-.146.328-.186.572-.492.68-.854.9-2.159 1.626-4.73.87-7.05-.892-2.73-3.67-4.081-6.378-4.303-5.578-.457-9.751 4.51-13.345 8.02-1.198 1.167-2.533 2.395-4.189 2.853-1.087.201-2.211.037-3.196-.466-1.648-.824-3.098 1.648-1.442 2.472h.023z"/>
    <path fill="#00F" d="M54.927 143.891c3.6 4.166 10.178 4.746 15.26 4.464 6.866-.374 13.16-2.701 19.073-6.104 6.822-3.983 12.971-9.049 19.258-13.817l5.12-3.892c1.429-1.229 2.96-2.335 4.577-3.303 1.244-.649 3.052-.901 3.815.526.763 1.427.283 3.128-.389 4.494-1.007 2.068-2.289 4.036-3.418 6.035l-3.578 6.241-7.157 12.467c-.923 1.603 1.526 3.052 2.464 1.45l13.101-22.813c1.732-3.014 3.487-6.92.938-10.041-.57-.662-1.302-1.165-2.124-1.459-.823-.294-1.708-.37-2.568-.219-1.869.259-3.411 1.32-4.883 2.434-6.73 5.104-13.352 10.384-20.242 15.259-5.944 4.212-12.39 8.042-19.639 9.392-3.31.651-6.703.762-10.048.328-2.762-.389-5.7-1.258-7.584-3.433-1.206-1.396-3.22.633-2.022 2.022l.046-.031zM89.437 189.501c1.396 3.304 6.104 3.335 9.094 2.869 3.019-.574 5.946-1.557 8.698-2.922 6.867-3.174 13.185-7.492 19.25-11.963 4.883-3.594 9.652-7.378 14.199-11.392 5.768-5.096 11.285-10.483 16.908-15.732 3.456-3.22 6.935-6.425 10.498-9.53 2.738-2.474 5.62-4.785 8.63-6.92 1.526-1.03.084-3.51-1.442-2.472-5.99 4.097-11.353 9.156-16.679 14.084-5.806 5.341-11.49 10.85-17.32 16.183-4.127 3.815-8.438 7.371-12.886 10.781-5.794 4.576-11.928 8.703-18.35 12.345-3.107 1.802-6.416 3.231-9.858 4.257-1.3.401-2.651.619-4.013.649-1.457 0-3.578-.16-4.219-1.679-.194-.325-.508-.562-.875-.659-.366-.097-.756-.047-1.086.141-.32.199-.551.513-.646.878-.096.365-.047.752.135 1.082h-.038z"/>
    <path fill="#00F" d="M176.736 133.912c4.013-2.946 8.813-5.959 14.016-5.227 2.244.184 4.327 1.237 5.805 2.934 1.478 1.698 2.234 3.906 2.107 6.153.046 5.341-2.96 9.835-5.707 14.146-1.376 1.931-2.532 4.009-3.449 6.195-.563 1.788-.887 3.643-.961 5.516-.116 3.04-.075 6.083.122 9.118.061 1.839 2.922 1.846 2.861 0-.084-2.777-.313-5.516-.175-8.301.036-1.891.344-3.767.915-5.57.428-1.039.957-2.033 1.58-2.968.763-1.289 1.587-2.548 2.388-3.815 2.892-4.578 5.646-9.583 5.257-15.175-.109-2.54-1.051-4.974-2.679-6.926s-3.853-3.315-6.332-3.878c-6.325-1.488-12.246 1.694-17.19 5.341-.318.2-.549.515-.644.879-.095.364-.047.751.133 1.082.192.325.506.561.871.657.366.096.755.043 1.082-.146v-.015zM120.604 120.604H62.465c-.354 0-.694-.141-.944-.391s-.391-.59-.391-.944.14-.694.391-.944c.25-.251.59-.391.944-.391h58.139c.354 0 .694.14.944.391.25.25.391.59.391.944s-.141.694-.391.944-.59.391-.944.391zM69.92 89.59H47.313c-.354 0-.694-.14-.944-.391-.25-.25-.392-.59-.392-.944s.141-.694.392-.944c.25-.25.59-.391.944-.391H69.92c.354 0 .694.14.944.39.25.251.391.59.391.945 0 .354-.14.694-.391.944-.25.25-.59.391-.944.391zM102.666 55.873h-39.75c-.355 0-.694-.14-.945-.391-.25-.25-.39-.59-.39-.944s.14-.694.39-.944.59-.391.944-.391h39.751c.354 0 .694.14.945.39.25.251.391.59.391.945 0 .354-.141.694-.391.944-.251.25-.591.391-.945.391z"/>
    <path fill="#00F" d="M114.561 145.043c3.212-2.845 6.31-5.806 9.415-8.766 3.105-2.961 6.318-6.424 10.781-7.172 1.156-.149 2.322-.203 3.487-.16h5.341l17.197-.122 18.144-.13c3.189 0 6.409.076 9.59-.069h.145c1.839 0 1.847-2.876 0-2.861l-8.042.053-17.838.13-17.861.13c-2.8 0-5.6 0-8.393.061-2.482.028-4.917.673-7.088 1.877-1.978 1.239-3.807 2.704-5.448 4.364-2.792 2.548-5.455 5.234-8.247 7.79-1.069.969-2.137 1.938-3.22 2.892-1.381 1.22.648 3.235 2.022 2.022l.015-.039zM254.148 106.322H139.976c-.354 0-.694-.141-.944-.391-.251-.25-.391-.59-.391-.944s.14-.694.391-.944c.25-.251.59-.391.944-.391h114.172c.354 0 .693.14.944.391.25.25.391.59.391.944s-.141.694-.391.944c-.251.25-.59.391-.944.391zM254.148 170.326h-64.281c-.354 0-.693-.141-.944-.391-.25-.251-.391-.59-.391-.945 0-.354.141-.693.391-.944.251-.25.59-.391.944-.391h64.281c.354 0 .694.141.944.391.251.251.391.59.391.944 0 .355-.14.694-.391.945-.25.25-.59.391-.944.391zM190.103 174.281h-50.127c-.354 0-.694-.141-.944-.392-.251-.25-.391-.59-.391-.944s.14-.693.391-.944c.25-.25.59-.391.944-.391h50.127c.355 0 .694.141.945.391.25.251.391.59.391.944s-.141.694-.391.944c-.251.251-.59.392-.945.392z"/>
    <path fill="#00F" d="M259.694 187.051h-45.061c-.354 0-.694-.14-.944-.391-.25-.25-.391-.59-.391-.944s.141-.694.391-.944.59-.391.944-.391h43.726v-89.2c0-.354.141-.693.391-.944.251-.25.59-.39.944-.39.355 0 .694.14.945.39.25.25.391.59.391.944v90.528c.001.176-.033.35-.1.513-.066.163-.165.311-.289.436-.124.124-.271.223-.434.291-.162.068-.337.102-.513.102z"/>
    <path fill="#00F" d="M207.987 181.923c0 6.691.58 13.497 4.883 18.952 1.697 2.274 3.917 4.105 6.47 5.341 2.147.78 4.391 1.263 6.669 1.434 1.098.145 2.197.252 3.288.428.389.061.763.129 1.168.229.122 0 .503.084.335.099-.168.015-.045-.077 0 0 .046.076.084.053 0 0-.147-.099-.265-.235-.343-.395-.078-.159-.112-.336-.099-.513.011.377.166.735.433 1.001.266.267.624.422 1.001.433.379-.002.742-.154 1.01-.423.267-.268.417-.632.417-1.011-.191-1.808-2.175-2.022-3.632-2.228-2.182-.313-4.387-.496-6.539-.954-2.303-.477-4.422-1.605-6.103-3.25-2.238-2.083-3.895-4.712-4.807-7.63-1.16-3.723-1.251-7.63-1.259-11.513-.026-.361-.189-.699-.454-.946s-.614-.384-.977-.384c-.362 0-.711.137-.976.384-.266.247-.428.585-.454.946h-.031zM183.016 181.925c0 6.638-.534 13.505-5.425 18.51-1.622 1.775-3.698 3.073-6.005 3.754-2.177.531-4.387.923-6.615 1.175-1.182.16-4.226.122-4.532 1.739-.335 1.801 2.427 2.572 2.762.763.695-3.731-.892 1.137-.541.763-.039.046-.359.077-.168.069.102-.016.202-.044.297-.084.336-.069.664-.13 1-.183.954-.153 1.915-.267 2.869-.404 2.239-.244 4.453-.686 6.615-1.32 5.592-1.832 9.766-7.34 11.383-12.811 1.137-3.86 1.252-7.95 1.259-11.948 0-1.846-2.853-1.846-2.861 0l-.038-.023z"/>
    <path fill="#00F" d="M305.359 209.72c-.099.011-.199.011-.297 0-4.845-.374-143.364-.145-216.25 0-.406 0-.794-.161-1.08-.447-.286-.286-.447-.674-.447-1.079 0-.405.16-.793.447-1.079.286-.286.674-.447 1.08-.447.54 0 54.628-.13 108.082-.191 31.397 0 56.461-.046 74.421 0 10.682 0 18.96.038 24.606.076 9.987.054 9.987.054 10.522.596.212.213.356.484.414.779.059.296.028.601-.086.879-.115.279-.31.516-.56.684-.25.168-.543.258-.844.259l-.008-.03zM332.506 183.192h-30.962c-.354 0-.694-.141-.944-.391-.25-.251-.391-.59-.391-.944s.141-.694.391-.944c.25-.251.59-.392.944-.392h30.962c.354 0 .694.141.944.392.25.25.391.59.391.944s-.141.693-.391.944c-.25.25-.59.391-.944.391zM340.272 175.935h-19.555c-.354 0-.694-.141-.944-.391-.25-.251-.391-.591-.391-.945s.141-.693.391-.944c.25-.25.59-.391.944-.391h19.555c.354 0 .694.141.944.391.251.251.391.59.391.944s-.14.694-.391.945c-.25.25-.59.391-.944.391zM314.011 175.919c.729 0 1.32-.591 1.32-1.32 0-.729-.591-1.32-1.32-1.32-.729 0-1.32.591-1.32 1.32 0 .729.591 1.32 1.32 1.32zM188.684 45.993h-40.438c-.354 0-.693-.14-.944-.39-.25-.251-.391-.59-.391-.945 0-.354.141-.694.391-.944.251-.25.59-.391.944-.391h40.438c.354 0 .694.14.944.39.251.251.391.59.391.945 0 .354-.14.694-.391.944-.25.25-.59.391-.944.391zM222.194 53.247h-62.007c-.354 0-.694-.14-.944-.39-.251-.251-.391-.59-.391-.945 0-.354.14-.694.391-.944.25-.25.59-.391.944-.391h62.007c.354 0 .694.14.944.391.25.25.391.59.391.944s-.141.694-.391.944-.59.391-.944.391zM228.901 53.232c.729 0 1.32-.591 1.32-1.32 0-.73-.591-1.32-1.32-1.32-.729 0-1.32.59-1.32 1.32 0 .729.591 1.32 1.32 1.32z"/>
    <path fill="#FF5657" d="M296.508 73.88c8.955 0 16.213-7.258 16.213-16.213 0-8.954-7.258-16.213-16.213-16.213-8.954 0-16.213 7.259-16.213 16.213 0 8.955 7.259 16.214 16.213 16.214z"/>
    <path fill="#00F" d="M296.508 75.216c-3.47 0-6.863-1.03-9.749-2.958-2.886-1.928-5.135-4.669-6.463-7.875-1.328-3.207-1.676-6.735-.999-10.14.677-3.403 2.349-6.53 4.803-8.984 2.454-2.455 5.581-4.126 8.985-4.803 3.404-.677 6.932-.33 10.139.999 3.206 1.328 5.947 3.577 7.875 6.463 1.929 2.886 2.958 6.279 2.958 9.75 0 4.654-1.849 9.117-5.14 12.408-3.291 3.291-7.754 5.14-12.409 5.14zm0-32.427c-2.942.002-5.818.876-8.263 2.511-2.446 1.636-4.352 3.96-5.477 6.68-1.125 2.718-1.418 5.71-.843 8.595.575 2.885 1.992 5.535 4.073 7.615 2.081 2.08 4.732 3.497 7.618 4.07 2.886.573 5.877.278 8.595-.848 2.719-1.126 5.042-3.033 6.676-5.48 1.635-2.446 2.507-5.322 2.507-8.265-.006-3.945-1.576-7.727-4.367-10.516-2.79-2.79-6.573-4.358-10.519-4.362zM207.973 193.131c1.614 0 2.922-1.308 2.922-2.922s-1.308-2.922-2.922-2.922-2.922 1.308-2.922 2.922 1.308 2.922 2.922 2.922zM196.871 193.131c1.614 0 2.923-1.308 2.923-2.922s-1.309-2.922-2.923-2.922c-1.613 0-2.922 1.308-2.922 2.922s1.309 2.922 2.922 2.922zM185.77 193.131c1.614 0 2.922-1.308 2.922-2.922s-1.308-2.922-2.922-2.922-2.922 1.308-2.922 2.922 1.308 2.922 2.922 2.922zM202.624 185.442c1.614 0 2.923-1.308 2.923-2.922s-1.309-2.922-2.923-2.922-2.922 1.308-2.922 2.922 1.308 2.922 2.922 2.922zM191.523 185.442c1.614 0 2.922-1.308 2.922-2.922s-1.308-2.922-2.922-2.922-2.922 1.308-2.922 2.922 1.308 2.922 2.922 2.922z"/>
</svg>
