<svg xmlns="http://www.w3.org/2000/svg" width="520" height="289" fill="none" viewBox="0 0 520 289">
    <path fill="#FFCB05" d="M86.613 135.152c-.337.505 3.24 18.516 3.24 18.516l13.066 26.9 20.599 32.371H55.441v30.33l86.614-.957 12.782-4.208 10.247-15.854v-19.989l-12.698-29.225s-13.371-18-14.045-18.169c-.673-.168-34.285-4.071-34.285-4.071l-17.443-15.644z"/>
    <path fill="#FFCB05" d="M98.879 105.137h-7.585l-6.438 17.884 4.713 16.17 14.486 11.688 40.671 4.376 47.037 3.335 17.453-2.283-4.114 16.496-12.13 37.999-1.977 9.89 25.311 10.52 13.067-28.479s13.066-38.998 12.94-38.819c-.127.178 1.536-23.145 1.536-23.145s-10.942-12.393-11.12-12.624c-.179-.232-9.658-3.525-9.658-3.525l1.357 11.162-9.037 12.488-2.398-21.041-40.167 2.104-44.732-1.104-13.014-4.156 1.715-12.319-17.916-6.617z"/>
    <path fill="#00F" d="M244.439 17.296v6.301l-16.075 3.977-5.997-4.85-8.753-.547-4.345 4.629 1.115 7.301-17.505 12.972-13.266-1.81-19.768 7.68-12.34-17.611-13.161-22.135 31.266 8.974 10.825-16.16 8.038-3.408 10.909 8.427 10.847 5.155 15.675-5.88 11.046-.969 11.489 7.954zM145.716 109.285c11.426-6.273 21.986-14.007 31.414-23.008 4.731-4.465 9.22-9.181 13.445-14.129 3.314-3.882 9.72-10.751 4.65-15.78-1.936-1.936-4.903-2.21-7.491-1.957-3.155.364-6.28.951-9.352 1.757-6.129 1.525-12.083 3.68-17.769 6.428-11.271 5.376-21.253 13.116-29.268 22.692-8.857 10.87-15.221 23.55-18.642 37.148-.631 2.461 3.157 3.503 3.809 1.052 2.822-11.195 7.699-21.768 14.381-31.183 6.788-9.378 15.482-17.215 25.512-22.997 5.033-2.96 10.352-5.405 15.875-7.301 2.77-.94 5.576-1.74 8.416-2.399 2.665-.715 5.391-1.176 8.143-1.378 2.104-.073 4.608.484 4.208 3.093-.4 2.61-2.725 4.987-4.408 6.975-3.882 4.618-8.006 9.058-12.33 13.266-9.697 9.562-20.672 17.733-32.613 24.281-2.23 1.199-.242 4.608 1.989 3.409l.031.031z"/>
    <path fill="#00F" d="M112.629 122.941c.147 3.587 4.797 5.186 7.627 5.996 6.565 1.884 13.592 1.726 20.357 1.915 15.486.432 30.993.453 46.489-.168 8.816-.351 17.625-.908 26.427-1.673 2.514-.221 2.535-4.208 0-3.945-14.728 1.294-29.457 1.957-44.185 2.104-7.308.07-14.627.032-21.956-.116-3.724-.07-7.448-.168-11.173-.294-3.432-.023-6.86-.24-10.267-.652-2.504-.294-4.952-.946-7.27-1.936-.4-.18-.786-.387-1.157-.621l-.326-.21c-.326-.232.115.136-.221-.179l-.284-.274c-.305-.294.294.253-.063-.084-.358-.336.105-.221 0 .105.126-.41 0 .242 0 0-.095-2.535-4.04-2.546-3.945 0l-.053.032z"/>
    <path fill="#00F" d="M144.2 109.484l47.047 6.606 11.888 1.673c3.656.348 7.289.914 10.878 1.694 2.642.61 4.957 2.196 6.48 4.439 1.225 2.135 1.737 4.604 1.463 7.049-.495 7.206-4.934 13.255-9.079 18.852-.262.453-.335.991-.203 1.497.132.506.458.94.908 1.207.454.249.988.314 1.489.181.502-.133.933-.454 1.204-.896 4.113-5.534 8.142-11.31 9.31-18.264.989-5.87-.284-11.803-5.26-15.443-2.935-2.104-6.375-2.757-9.878-3.251l-12.414-1.747-24.818-3.482-27.91-3.924c-.504-.107-1.029-.026-1.477.228-.448.254-.787.663-.953 1.15-.133.505-.064 1.042.194 1.496.257.454.682.79 1.184.935h-.053z"/>
    <path fill="#00F" d="M216.593 150.053c.073-7.311-.211-14.591-.705-21.882-.168-2.525-4.114-2.546-3.945 0 .494 7.291.778 14.571.705 21.882 0 2.536 3.913 2.536 3.945 0zM169.26 112.135c11.299-4.208 22.892-10.152 30.593-19.715 7.28-9.026 11.099-21.177 7.006-32.444-2-5.804-6.007-10.702-11.298-13.814-2.22-1.252-4.208 2.157-1.999 3.409 8.647 4.881 12.424 15.612 10.604 25.101-2.104 10.826-9.731 19.4-18.778 25.25-5.411 3.402-11.166 6.223-17.17 8.415-2.356.884-1.336 4.692 1.052 3.798h-.01z"/>
    <path fill="#00F" d="M95.262 104.506c10.491-11.77 22.306-22.29 35.211-31.35 12.799-9.048 26.723-16.39 41.418-21.84 4.514-1.642 9.206-3.262 14.066-3.293 3.956 0 8.059.8 10.846 3.798 1.736 1.862 4.524-.937 2.788-2.788-5.786-6.218-15.591-5.597-23.039-3.43-7.971 2.446-15.715 5.578-23.145 9.363-14.798 7.362-28.613 16.551-41.124 27.353-7.034 6.025-13.66 12.513-19.83 19.42-1.684 1.883 1.052 4.682 2.798 2.788l.01-.021z"/>
    <path fill="#00F" d="M117.689 109.029c-7.806-2.368-15.506-5.04-23.302-7.365-2.44-.736-3.472 3.072-1.052 3.809 7.806 2.356 15.507 5.039 23.302 7.364 2.441.736 3.483-3.072 1.052-3.808z"/>
    <path fill="#00F" d="M91.706 102.646c-3.43 3.343-5.993 7.471-7.467 12.028-1.474 4.557-1.815 9.404-.993 14.122.821 4.718 2.78 9.165 5.709 12.954 2.928 3.79 6.736 6.809 11.093 8.795 4.957 2.073 10.206 3.362 15.56 3.819 5.775.684 11.572 1.136 17.348 1.673 11.688 1.104 23.376 2.272 35.074 3.261 13.477 1.147 27.048 1.831 40.556.6 2.504-.232 2.525-4.208 0-3.945-22.482 2.041-45.132-.989-67.498-3.093l-17.064-1.599c-5.194-.33-10.36-1.005-15.465-2.02-4.655-.927-9.012-2.983-12.687-5.986-3.264-2.797-5.793-6.352-7.365-10.352-1.753-4.669-2.121-9.745-1.06-14.618 1.062-4.873 3.51-9.335 7.046-12.851 1.81-1.788-.978-4.587-2.787-2.788z"/>
    <path fill="#00F" d="M206.681 157.406c-3.482 16.654-8.154 33.038-13.981 49.024-1.652 4.471-3.409 8.9-5.26 13.277-.245.454-.309.985-.178 1.485.131.5.446.932.883 1.208.452.264.99.339 1.497.207.507-.133.941-.46 1.206-.912 6.778-15.878 12.256-32.281 16.381-49.045 1.188-4.703 2.293-9.469 3.303-14.192.526-2.483-3.282-3.535-3.808-1.052h-.043zM225.745 128.852c2.946.463 5.748 1.594 8.189 3.306 2.442 1.713 4.459 3.961 5.898 6.573 3.682 6.585 2.188 14.16.558 21.125-3.693 15.668-8.51 31.05-14.413 46.026-3.324 8.472-6.979 16.801-10.962 24.985-1.105 2.273 2.293 4.272 3.408 1.989 7.519-15.438 13.908-31.4 19.116-47.762 2.567-8.122 4.839-16.338 6.764-24.628 1.789-7.722 3.051-15.865-.799-23.198-1.765-3.319-4.297-6.169-7.386-8.312-3.089-2.143-6.645-3.516-10.373-4.007-.52.003-1.019.211-1.388.579-.368.369-.576.868-.579 1.389.011.519.221 1.014.588 1.383.366.368.86.581 1.379.594v-.042z"/>
    <path fill="#00F" d="M188.104 222.401c9.089 3.934 18.126 7.985 27.205 11.919.456.249.989.314 1.492.183.502-.131.936-.448 1.212-.888.26-.452.331-.989.197-1.494-.134-.504-.462-.935-.912-1.199-9.079-3.934-18.106-7.995-27.195-11.919-.456-.249-.989-.314-1.492-.183-.502.131-.935.448-1.212.888-.258.451-.329.987-.197 1.49.131.504.455.935.902 1.203zM83.29 118.872c-.884 5.502-.442 11.257.231 16.77.819 6.606 2.4 13.094 4.713 19.336 5.071 13.782 12.488 26.543 20.736 38.641 4.713 6.922 9.71 13.676 14.728 20.325l1.694-2.967h-69.95c-.52.006-1.019.215-1.388.582-.37.368-.581.865-.59 1.386v30.33c.012.52.224 1.016.593 1.383.369.366.865.576 1.386.584 8.269.337 16.57.337 24.849.431 11.298.137 22.597.242 33.906.39 4.303.052 8.596.136 12.898.189 7.659.084 15.644-.21 22.798-3.156 6.89-2.873 12.381-8.33 15.296-15.202 3.23-7.448 3.672-15.549 2.315-23.492-1.452-8.416-4.829-16.569-8.753-24.196-3.793-7.309-8.353-14.193-13.603-20.536-1.304-1.578-2.661-3.156-4.05-4.639-1.715-1.873-4.503.925-2.788 2.798 10.741 11.699 19.62 26.059 23.976 41.418 2.104 7.554 2.903 15.623.673 23.25-.903 3.405-2.494 6.589-4.676 9.354-2.183 2.765-4.909 5.052-8.011 6.721-6.555 3.356-14.234 3.745-21.451 3.745-4.345 0-8.701-.126-13.045-.189-10.815-.133-21.634-.256-32.456-.368-8.773-.095-17.537-.147-26.3-.41l-1.568-.053 1.967 1.978v-30.33l-1.967 1.978h69.971c1.367 0 2.64-1.736 1.704-2.967-8.658-11.499-17.211-23.145-24.397-35.611-6.827-11.857-12.824-24.723-14.917-38.347-.895-5.796-1.631-12.33-.705-18.084.122-.503.047-1.034-.21-1.483-.255-.45-.674-.785-1.168-.937-.505-.136-1.043-.067-1.498.191-.455.257-.79.684-.933 1.187h-.01z"/>
    <path fill="#00F" d="M194.004 223.251c-7.038 14.045-9.879 30.004-10.331 45.616-.074 2.535 3.871 2.535 3.945 0 .431-14.886 3.072-30.214 9.794-43.617 1.137-2.272-2.272-4.271-3.408-1.999zM210.575 230.416c-1.304 6.028-1.43 12.845.968 18.621 1.418 3.618 4.067 6.621 7.48 8.479 4.86 2.556 10.615 3.346 15.928 4.387 4.345.852 10.078 2.451 11.719 7.133.831 2.377 4.64 1.357 3.798-1.052-3.482-9.963-16.306-9.742-24.712-12.141-3.913-1.125-7.427-2.693-9.584-6.312-1.569-2.827-2.425-5.994-2.493-9.226-.167-2.971.066-5.95.694-8.858.537-2.472-3.261-3.535-3.798-1.052v.021z"/>
    <path fill="#00F" d="M192.437 235.183h18.526c2.535 0 2.546-3.934 0-3.945h-18.526c-2.536 0-2.536 3.935 0 3.945zM55.38 216.781c-6.524-1.425-13.166-2.235-19.841-2.42-6.366-.065-12.726.413-19.01 1.431-.503.143-.93.478-1.188.932-.258.455-.326.993-.19 1.498.151.497.488.917.94 1.174.452.256.985.329 1.49.205 12.207-1.904 24.66-1.569 36.747.988 2.472.526 3.535-3.282 1.052-3.808z"/>
    <path fill="#00F" d="M18.989 216.266c-3.156-1.694-6.89-.19-8.721 2.703-2.104 3.367-1.442 7.796-1.052 11.573.785 8.719 2.213 17.37 4.27 25.879 1.172 4.77 2.533 9.486 4.083 14.15.124.412.375.774.717 1.035.341.26.757.406 1.187.417l33.076.179h4.67c.524-.006 1.023-.216 1.393-.585.37-.37.58-.87.585-1.393-.111-2.434-.77-4.812-1.93-6.956-1.158-2.144-2.785-3.999-4.76-5.426-2.051-1.42-4.406-2.338-6.877-2.682-2.47-.343-4.987-.102-7.347.704l2.23 2.893c4.341-7.29 9.749-13.89 16.044-19.578 1.883-1.705-.905-4.482-2.788-2.788-6.54 5.924-12.156 12.792-16.664 20.378-.19.339-.274.727-.245 1.114.029.388.17.759.408 1.066.237.308.56.54.927.666.367.127.764.143 1.14.047 1.744-.618 3.606-.822 5.442-.597 1.836.225 3.594.872 5.137 1.892 1.543 1.02 2.828 2.384 3.755 3.984.926 1.601 1.468 3.395 1.583 5.241l1.968-1.967-33.076-.19h-4.671l1.904 1.442c-3.064-9.161-5.362-18.559-6.87-28.1-.747-4.734-1.315-9.468-1.62-14.297-.126-1.915-.284-4.072.652-5.818.621-1.147 2.2-2.304 3.514-1.588 2.23 1.209 4.208-2.199 1.989-3.409l-.053.011z"/>
    <path fill="#00F" d="M15.495 219.211c3.693 16.832 7.101 33.665 10.794 50.497.536 2.473 4.345 1.431 3.798-1.052-3.683-16.832-7.102-33.665-10.784-50.497-.547-2.472-4.355-1.431-3.808 1.052z"/>
    <path fill="#00F" d="M84.814 272.053H5.91c-.488 0-.956-.194-1.301-.539-.346-.345-.54-.814-.54-1.302 0-.488.194-.956.54-1.302.345-.345.813-.539 1.301-.539h78.903c.488 0 .956.194 1.301.539.346.346.54.814.54 1.302 0 .488-.194.957-.54 1.302-.345.345-.813.539-1.301.539zM259.094 272.053h-90.19c-.489 0-.957-.194-1.302-.539-.346-.345-.54-.814-.54-1.302 0-.488.194-.956.54-1.302.345-.345.813-.539 1.302-.539h90.19c.488 0 .957.194 1.302.539.345.346.539.814.539 1.302 0 .488-.194.957-.539 1.302-.345.345-.814.539-1.302.539zM205.229 65.34c12.866 12.097 25.007 24.944 36.358 38.473 1.641 1.946 4.419-.852 2.788-2.788-11.352-13.529-23.492-26.375-36.358-38.473-1.841-1.736-4.64 1.052-2.788 2.788z"/>
    <path fill="#00F" d="M198.452 92.446c6.989 6.733 14.518 12.88 22.514 18.379 3.945 2.714 7.995 5.26 12.161 7.627 3.893 2.199 8.322 4.892 12.972 4.566 4.471-.316 7.627-3.304 10.183-6.712 2.725-3.716 5.243-7.579 7.543-11.572 4.717-7.954 8.764-16.287 12.099-24.912 3.756-9.757 6.574-19.85 8.416-30.141.442-2.483-3.356-3.545-3.808-1.052-3.126 17.315-9.026 34.012-17.475 49.445-2.104 3.844-4.362 7.596-6.775 11.257-2.104 3.156-4.208 7.017-7.595 8.879-3.861 2.104-8.29-.337-11.72-2.209-3.963-2.167-7.82-4.506-11.572-7.017-8.622-5.699-16.711-12.167-24.165-19.326-1.831-1.767-4.619 1.052-2.788 2.788h.01z"/>
    <path fill="#00F" d="M244.501 103.035c7.524-16.988 16.046-33.516 25.522-49.497 2.686-4.524 5.446-8.999 8.28-13.424 1.367-2.104-2.041-4.135-3.409-2-10.012 15.654-19.086 31.887-27.174 48.615-2.286 4.734-4.492 9.507-6.617 14.318-.25.454-.317.986-.186 1.488.132.501.45.932.891 1.205.451.261.987.334 1.492.202.504-.132.936-.458 1.201-.907z"/>
    <path fill="#00F" d="M278.031 40.494c1.21-1.7 2.909-2.992 4.871-3.703 2.137-.595 4.347-.888 6.565-.873 6.502-.22 12.624 1.242 18.821 2.956.495.112 1.015.028 1.45-.233.436-.261.755-.68.89-1.17.135-.49.077-1.012-.163-1.46-.24-.448-.643-.786-1.125-.945-6.838-1.873-13.519-3.367-20.641-3.061-5.26.231-10.078 1.346-13.455 5.691-.343.385-.533.883-.533 1.4 0 .515.19 1.013.533 1.398.373.364.873.567 1.394.567.52 0 1.02-.203 1.393-.567z"/>
    <path fill="#00F" d="M308.464 35.369l-7.48 2.335c-2.463.65-4.884 1.452-7.248 2.399-2.104.968-3.293 2.63-4.535 4.513-.967 1.462-2.566 2.504-4.344 1.662-2.273-1.052-4.282 2.315-1.989 3.409 1.032.523 2.173.796 3.33.796s2.298-.273 3.33-.796c1.056-.587 1.957-1.416 2.63-2.42.572-.972 1.231-1.89 1.967-2.746.825-.692 1.796-1.189 2.84-1.452 1.368-.441 2.746-.862 4.124-1.294l8.417-2.63c2.419-.747 1.388-4.565-1.052-3.797l.01.02zM245.629 20.98c-6.167 1.113-12.223 2.775-18.094 4.966-.596.183-1.098.587-1.405 1.129-.307.541-.396 1.18-.247 1.785.172.602.574 1.113 1.119 1.422.545.31 1.19.392 1.795.23 5.882-2.19 11.949-3.847 18.126-4.956.605-.17 1.118-.57 1.429-1.116.311-.545.395-1.19.234-1.798-.179-.607-.588-1.121-1.141-1.432-.552-.31-1.203-.393-1.816-.23z"/>
    <path fill="#00F" d="M229.762 26.922c-1.762-2.63-4.051-4.866-6.722-6.564-1.379-.846-2.92-1.394-4.524-1.608-1.604-.214-3.234-.09-4.787.366-1.471.454-2.795 1.29-3.838 2.423-1.042 1.133-1.765 2.522-2.095 4.026-.632 3.45.589 6.554 2.009 9.637.32.539.839.93 1.446 1.09.606.159 1.25.074 1.794-.238.533-.326.919-.845 1.078-1.449.159-.604.078-1.245-.226-1.791-.478-.978-.883-1.991-1.209-3.03-.292-.91-.414-1.866-.358-2.82.088-.847.459-1.64 1.052-2.25.595-.562 1.317-.97 2.104-1.19.105 0 .673-.158.547-.136-.126.02.484 0 .631 0 .473-.019.946.02 1.41.115 1.054.227 2.058.64 2.967 1.22 1.819 1.243 3.392 2.813 4.639 4.63.33.528.849.911 1.451 1.07.602.158 1.243.08 1.789-.218.539-.32.931-.84 1.09-1.446.159-.606.074-1.25-.237-1.794l-.011-.043z"/>
    <path fill="#00F" d="M196.067 48.153c5.381-4.314 11.001-8.321 16.833-12.003.542-.317.937-.836 1.097-1.444.16-.608.071-1.254-.245-1.797-.317-.542-.836-.937-1.444-1.097-.608-.16-1.254-.071-1.797.245-6.171 3.91-12.117 8.163-17.81 12.74-.442.447-.689 1.05-.689 1.678 0 .628.247 1.231.689 1.678.451.429 1.05.668 1.672.668.623 0 1.222-.24 1.673-.668h.021zM244.567 23.461c-2.231 6.86-1.294 15.255 3.724 20.683 1.725 1.862 4.513-.926 2.788-2.798-4.072-4.398-4.492-11.352-2.714-16.833.789-2.42-3.02-3.461-3.798-1.052z"/>
    <path fill="#00F" d="M248.691 41.043c-.286.171-.581.325-.884.463 0 0-.326.147 0 0l-.526.19c-.687.229-1.391.408-2.104.536l-.515.084h.136-.252c-.358 0-.716.063-1.052.074-.676.047-1.355.047-2.031 0-.522.002-1.023.212-1.391.583-.369.37-.576.872-.576 1.395.011.518.222 1.012.588 1.379.367.366.861.577 1.379.588 1.601.13 3.212.038 4.787-.274 1.604-.261 3.147-.81 4.555-1.62.414-.282.706-.71.817-1.198.11-.489.032-1.001-.221-1.434-.252-.432-.659-.753-1.139-.897-.479-.144-.996-.101-1.445.12l-.126.011z"/>
    <path fill="#00F" d="M215.298 40.525c1.757 6.47 6.249 12.624 13.172 14.086 6.312 1.263 13.371-2.24 14.496-8.942.125-.504.052-1.037-.204-1.49-.257-.452-.677-.788-1.174-.94-.503-.136-1.04-.067-1.493.191-.453.258-.786.685-.926 1.187-.821 4.871-5.86 7.217-10.384 6.007-5.26-1.389-8.332-6.196-9.679-11.151-.158-.483-.497-.886-.945-1.126-.447-.24-.97-.298-1.46-.162-.489.135-.908.453-1.169.889-.262.436-.345.955-.234 1.45z"/>
    <path fill="#00F" d="M218.852 45.872l-12.793 14.245c-.359.377-.559.878-.559 1.399 0 .52.2 1.022.559 1.399.375.36.874.562 1.394.562.52 0 1.02-.201 1.394-.562L221.64 48.67c.339-.376.521-.867.509-1.374-.013-.506-.219-.988-.576-1.347-.358-.359-.839-.567-1.345-.581-.507-.014-.999.166-1.376.504zM248.627 22.566c-.589-6.386-5.639-12.256-11.352-14.907-3.611-1.675-7.638-2.242-11.572-1.63-3.756.557-7.101 2.45-10.394 4.207-3.293 1.757-6.817 3.672-10.52 2.904-3.335-.694-5.944-3.156-8.343-5.376-2.672-2.525-5.355-5.123-8.784-6.596-1.704-.814-3.576-1.213-5.463-1.164-1.887.05-3.736.546-5.394 1.448-3.44 1.999-5.955 5.576-8.153 8.774-2.493 3.66-4.585 7.58-6.239 11.688-.162.604-.079 1.247.23 1.79.309.544.82.944 1.422 1.113.605.154 1.246.068 1.789-.24.543-.307.946-.813 1.125-1.411 1.362-3.277 3.028-6.419 4.976-9.384 1.639-2.764 3.681-5.267 6.06-7.428 5.617-4.607 11.572 1.505 15.601 5.26 2.362 2.414 5.184 4.328 8.301 5.629 3.29 1.105 6.865 1.02 10.099-.242 6.428-2.304 11.804-7.49 19.084-6.312 3.081.505 5.936 1.936 8.185 4.103 2.156 2.03 4.281 4.744 4.566 7.795.016.623.27 1.216.711 1.656.44.44 1.033.695 1.656.711.626-.005 1.225-.256 1.667-.7.443-.442.694-1.04.7-1.667l.042-.02z"/>
    <path fill="#00F" d="M166.24 19.041l-16.622-5.428-8.185-2.651c-2.22-.726-4.608-1.736-6.986-1.157-.579.152-1.122.42-1.596.786-.474.366-.869.824-1.164 1.345-.294.522-.481 1.098-.549 1.693-.068.595-.016 1.198.153 1.772.663 2.515 2.714 4.787 4.135 6.923l9.573 14.391 10.994 16.612c1.673 2.525 5.775.158 4.082-2.388l-17.264-25.954-4.355-6.543c-.674-1.052-1.358-2-1.999-3.01-.172-.363-.369-.714-.589-1.051-.369-.379.115 0-.179 0 1.697.272 3.361.72 4.965 1.336l7.438 2.42 16.833 5.47c2.903.947 4.145-3.619 1.262-4.566h.053zM320.11 42.019c7.774 3.902 15.118 8.605 21.914 14.034 6.165 4.976 11.993 10.825 15.233 18.168 2.999 6.807 3.662 15.36-.357 21.903-3.251 5.261-9.942 9.258-16.275 7.859-6.333-1.399-10.384-7.364-11.572-13.476-1.379-7.365 2.104-14.94 6.533-20.63 4.809-6.055 10.86-11.008 17.745-14.527 6.885-3.519 14.445-5.521 22.169-5.873 7.252-.236 14.465 1.169 21.099 4.109s12.519 7.34 17.216 12.871c1.142 1.377 2.196 2.825 3.156 4.335 1.62 2.567 5.723.189 4.082-2.389-8.806-13.855-24.397-22.587-40.714-23.597-17.148-1.052-34.622 6.586-46.058 19.305-5.775 6.428-10.404 14.729-10.226 23.576.158 7.512 3.998 15.349 10.71 19.094 7.08 3.946 15.528 2.105 21.556-2.893 6.796-5.628 8.942-14.665 7.68-23.144-1.315-8.9-6.491-16.643-12.782-22.85-6.743-6.438-14.272-11.998-22.408-16.549-2.104-1.21-4.208-2.346-6.313-3.44-2.714-1.378-5.112 2.704-2.388 4.093v.02zM434.91 69.885c4.42-7.87 10.528-14.664 17.885-19.894 7.353-5.056 15.918-8.07 24.817-8.732 5.04-.453 10.116-.262 15.107.569.605.15 1.245.063 1.787-.244.543-.308.946-.812 1.128-1.408.162-.605.079-1.25-.23-1.795-.309-.545-.82-.947-1.422-1.12-9.729-1.71-19.722-1.14-29.194 1.663-9.296 2.974-17.654 8.323-24.249 15.517-3.758 3.937-7.016 8.322-9.7 13.056-1.494 2.662 2.588 5.05 4.082 2.388h-.011z"/>
    <path fill="#00F" d="M427.472 90.127c-2.383 0-4.712-.707-6.693-2.03-1.981-1.324-3.525-3.205-4.436-5.406-.912-2.201-1.151-4.624-.686-6.96.465-2.337 1.612-4.483 3.297-6.168 1.685-1.684 3.831-2.832 6.168-3.296 2.336-.465 4.758-.227 6.959.685 2.201.912 4.083 2.456 5.406 4.437 1.324 1.98 2.03 4.31 2.03 6.692-.005 3.193-1.276 6.254-3.534 8.511-2.258 2.258-5.318 3.53-8.511 3.535zm0-20.41c-1.67-.01-3.304.476-4.696 1.397-1.392.92-2.479 2.234-3.122 3.774-.644 1.54-.815 3.237-.492 4.874.323 1.638 1.126 3.142 2.306 4.323 1.18 1.18 2.685 1.982 4.322 2.305 1.637.323 3.334.152 4.874-.491 1.54-.644 2.854-1.73 3.775-3.123.92-1.392 1.407-3.026 1.396-4.695-.014-2.214-.899-4.333-2.465-5.899-1.565-1.565-3.685-2.45-5.898-2.465z"/>
    <path fill="#2DDFD5" d="M518.083 39.297l-27.132-15.664s3.966 7.869 3.966 16.043c-.15 5.33-1.506 10.556-3.966 15.286l27.132-15.665z"/>
    <path fill="#00F" d="M490.951 56.8c-.321 0-.636-.084-.914-.244-.279-.159-.511-.388-.673-.664-.163-.276-.251-.59-.254-.911-.004-.32.075-.637.231-.917 2.305-4.458 3.581-9.376 3.735-14.392 0-7.616-3.724-15.138-3.766-15.212-.178-.354-.237-.756-.168-1.146.069-.39.262-.748.55-1.02.288-.271.657-.443 1.05-.489.394-.046.792.037 1.135.235l27.131 15.665c.273.163.498.395.654.671.157.277.239.59.239.907 0 .318-.082.63-.239.907-.156.276-.381.507-.654.671l-27.131 15.665c-.279.172-.599.266-.926.273zm3.703-28.91c1.312 3.793 2.022 7.769 2.104 11.782-.05 3.729-.707 7.424-1.946 10.941l19.588-11.32-19.746-11.403z"/>
    <path fill="#2DDFD5" d="M407.049 164.453h-43.944v69.245h43.944v-69.245z"/>
    <path fill="#00F" d="M407.05 235.593h-43.943c-.489 0-.957-.194-1.302-.54-.345-.345-.539-.813-.539-1.302v-69.297c0-.488.194-.956.539-1.301.345-.346.813-.54 1.302-.54h43.943c.488 0 .956.194 1.302.54.345.345.539.813.539 1.301v69.245c.006.246-.038.49-.128.719-.09.229-.224.437-.396.614-.171.176-.376.316-.602.413-.226.096-.469.146-.715.148zm-42.081-3.683h40.261v-65.615h-40.282l.021 65.615z"/>
    <path fill="#00F" d="M399.299 157.246h-43.944v69.245h43.944v-69.245z"/>
    <path fill="#00F" d="M399.296 228.333h-43.943c-.489 0-.957-.194-1.302-.539-.345-.346-.539-.814-.539-1.302v-69.245c0-.488.194-.956.539-1.302.345-.345.813-.539 1.302-.539h43.943c.488 0 .957.194 1.302.539.345.346.539.814.539 1.302v69.245c0 .488-.194.956-.539 1.302-.345.345-.814.539-1.302.539zm-42.081-3.682h40.261v-65.563h-40.282l.021 65.563z"/>
    <path fill="#fff" d="M391.545 150.051h-43.943v69.244h43.943v-69.244z"/>
    <path fill="#00F" d="M391.546 221.138h-43.943c-.489 0-.957-.194-1.302-.54-.345-.345-.539-.813-.539-1.301v-69.245c0-.488.194-.957.539-1.302.345-.345.813-.539 1.302-.539h43.943c.488 0 .957.194 1.302.539.345.345.539.814.539 1.302v69.245c0 .488-.194.956-.539 1.301-.345.346-.814.54-1.302.54zm-42.081-3.683h40.261v-65.562h-40.282l.021 65.562zM48.278 49.706H1.84c-.488 0-.957-.194-1.302-.54C.194 48.821 0 48.353 0 47.865c0-.489.194-.957.54-1.302.344-.346.813-.54 1.301-.54h46.437c.488 0 .956.194 1.301.54.346.345.54.813.54 1.301 0 .489-.194.957-.54 1.302-.345.346-.813.54-1.301.54zM77.303 39.706H33.255c-.488 0-.956-.194-1.302-.54-.345-.345-.539-.813-.539-1.301 0-.489.194-.957.54-1.302.345-.346.813-.54 1.301-.54h44.048c.489 0 .957.194 1.302.54.346.345.54.813.54 1.301 0 .489-.194.957-.54 1.302-.345.346-.813.54-1.302.54zM24.332 39.683c1.005 0 1.82-.815 1.82-1.82 0-1.005-.815-1.82-1.82-1.82-1.005 0-1.82.815-1.82 1.82 0 1.005.815 1.82 1.82 1.82zM183.295 278.305c2.225 0 4.029-1.804 4.029-4.03 0-2.225-1.804-4.029-4.029-4.029-2.225 0-4.029 1.804-4.029 4.029 0 2.226 1.804 4.03 4.029 4.03zM198.603 278.305c2.226 0 4.03-1.804 4.03-4.03 0-2.225-1.804-4.029-4.03-4.029-2.225 0-4.029 1.804-4.029 4.029 0 2.226 1.804 4.03 4.029 4.03zM213.92 278.305c2.225 0 4.029-1.804 4.029-4.03 0-2.225-1.804-4.029-4.029-4.029-2.225 0-4.029 1.804-4.029 4.029 0 2.226 1.804 4.03 4.029 4.03zM229.225 278.305c2.225 0 4.029-1.804 4.029-4.03 0-2.225-1.804-4.029-4.029-4.029-2.226 0-4.03 1.804-4.03 4.029 0 2.226 1.804 4.03 4.03 4.03zM244.533 278.305c2.225 0 4.029-1.804 4.029-4.03 0-2.225-1.804-4.029-4.029-4.029-2.225 0-4.029 1.804-4.029 4.029 0 2.226 1.804 4.03 4.029 4.03zM190.67 288.918c2.225 0 4.029-1.804 4.029-4.029 0-2.226-1.804-4.03-4.029-4.03-2.225 0-4.029 1.804-4.029 4.03 0 2.225 1.804 4.029 4.029 4.029zM205.986 288.918c2.226 0 4.03-1.804 4.03-4.029 0-2.226-1.804-4.03-4.03-4.03-2.225 0-4.029 1.804-4.029 4.03 0 2.225 1.804 4.029 4.029 4.029zM221.295 288.918c2.225 0 4.029-1.804 4.029-4.029 0-2.226-1.804-4.03-4.029-4.03-2.225 0-4.029 1.804-4.029 4.03 0 2.225 1.804 4.029 4.029 4.029zM236.6 288.918c2.225 0 4.029-1.804 4.029-4.029 0-2.226-1.804-4.03-4.029-4.03-2.226 0-4.03 1.804-4.03 4.03 0 2.225 1.804 4.029 4.03 4.029zM99.006 158.867c2.225 0 4.029-1.804 4.029-4.029 0-2.225-1.804-4.029-4.03-4.029-2.224 0-4.028 1.804-4.028 4.029 0 2.225 1.803 4.029 4.029 4.029zM114.322 158.867c2.226 0 4.03-1.804 4.03-4.029 0-2.225-1.804-4.029-4.03-4.029-2.225 0-4.029 1.804-4.029 4.029 0 2.225 1.804 4.029 4.029 4.029zM129.63 158.877c2.022 0 3.661-1.639 3.661-3.661 0-2.022-1.639-3.661-3.661-3.661-2.022 0-3.661 1.639-3.661 3.661 0 2.022 1.639 3.661 3.661 3.661zM106.393 169.473c2.225 0 4.029-1.804 4.029-4.03 0-2.225-1.804-4.029-4.029-4.029-2.226 0-4.03 1.804-4.03 4.029 0 2.226 1.804 4.03 4.03 4.03zM121.697 169.473c2.226 0 4.029-1.804 4.029-4.03 0-2.225-1.803-4.029-4.029-4.029-2.225 0-4.029 1.804-4.029 4.029 0 2.226 1.804 4.03 4.029 4.03zM137.006 169.473c2.225 0 4.029-1.804 4.029-4.03 0-2.225-1.804-4.029-4.029-4.029-2.225 0-4.029 1.804-4.029 4.029 0 2.226 1.804 4.03 4.029 4.03zM23.955 278.305c2.225 0 4.03-1.804 4.03-4.03 0-2.225-1.805-4.029-4.03-4.029-2.225 0-4.03 1.804-4.03 4.029 0 2.226 1.805 4.03 4.03 4.03zM39.272 278.305c2.225 0 4.029-1.804 4.029-4.03 0-2.225-1.804-4.029-4.03-4.029-2.225 0-4.029 1.804-4.029 4.029 0 2.226 1.804 4.03 4.03 4.03zM54.58 278.305c2.225 0 4.03-1.804 4.03-4.03 0-2.225-1.805-4.029-4.03-4.029-2.225 0-4.03 1.804-4.03 4.029 0 2.226 1.805 4.03 4.03 4.03zM16.033 288.918c2.226 0 4.03-1.804 4.03-4.029 0-2.226-1.804-4.03-4.03-4.03-2.225 0-4.03 1.804-4.03 4.03 0 2.225 1.805 4.029 4.03 4.029zM31.342 288.918c2.225 0 4.029-1.804 4.029-4.029 0-2.226-1.804-4.03-4.03-4.03-2.225 0-4.029 1.804-4.029 4.03 0 2.225 1.804 4.029 4.03 4.029zM46.647 288.918c2.225 0 4.029-1.804 4.029-4.029 0-2.226-1.804-4.03-4.03-4.03-2.225 0-4.029 1.804-4.029 4.03 0 2.225 1.804 4.029 4.03 4.029z"/>
</svg>
