<svg width="24" height="24" viewBox="0 0 24 24" fill="none" xmlns="http://www.w3.org/2000/svg">
<path fill-rule="evenodd" clip-rule="evenodd" d="M18.4762 18.5H5.52381V5.75C5.52381 5.33579 5.18269 5 4.7619 5C4.34112 5 4 5.33579 4 5.75V18.5C4 19.3284 4.68223 20 5.52381 20H18.4762C18.897 20 19.2381 19.6642 19.2381 19.25C19.2381 18.8358 18.897 18.5 18.4762 18.5Z" fill="#00008C"/>
<path fill-rule="evenodd" clip-rule="evenodd" d="M19.7714 7.745C19.6287 7.59916 19.4282 7.52237 19.2229 7.535H16.1752C15.7544 7.535 15.4133 7.87079 15.4133 8.285C15.4214 8.69586 15.7579 9.02702 16.1752 9.035H17.3486L13.6457 12.68L11.7562 10.82C11.4548 10.5323 10.9757 10.5323 10.6743 10.82L7.27619 14.225C7.06277 14.4393 6.99964 14.7582 7.11571 15.0356C7.23178 15.3131 7.5047 15.4958 7.80952 15.5C8.01159 15.5024 8.20529 15.4207 8.34286 15.275L11.2686 12.41L13.1429 14.27C13.2859 14.412 13.4807 14.4918 13.6838 14.4918C13.887 14.4918 14.0817 14.412 14.2248 14.27L18.4762 10.085V11.24C18.4762 11.6542 18.8173 11.99 19.2381 11.99C19.6589 11.99 20 11.6542 20 11.24V8.24C19.988 8.05301 19.9066 7.87688 19.7714 7.745Z" fill="#00008C"/>
</svg>
