<svg width="24" height="24" viewBox="0 0 24 24" fill="none" xmlns="http://www.w3.org/2000/svg">
<path fill-rule="evenodd" clip-rule="evenodd" d="M4.28571 3C3.57563 3 3 3.57563 3 4.28571V19.7143C3 20.4244 3.57563 21 4.28571 21H19.7143C20.4244 21 21 20.4244 21 19.7143V4.28571C21 3.57563 20.4244 3 19.7143 3H4.28571ZM4.28571 4.28571H19.7143V10.7143H4.28571V4.28571ZM4.28571 19.7143V12H19.7143V19.7143H4.28571ZM13.9286 5.57143H10.0714C9.71639 5.57143 9.42857 5.85925 9.42857 6.21429C9.42857 6.56933 9.71639 6.85714 10.0714 6.85714H13.9286C14.2836 6.85714 14.5714 6.56933 14.5714 6.21429C14.5714 5.85925 14.2836 5.57143 13.9286 5.57143ZM10.0714 13.2857H13.9286C14.2836 13.2857 14.5714 13.5735 14.5714 13.9286C14.5714 14.2836 14.2836 14.5714 13.9286 14.5714H10.0714C9.71639 14.5714 9.42857 14.2836 9.42857 13.9286C9.42857 13.5735 9.71639 13.2857 10.0714 13.2857Z" fill="#00008C"/>
</svg>
