<svg width="24" height="24" viewBox="0 0 24 24" fill="none" xmlns="http://www.w3.org/2000/svg">
<path d="M16.5858 11L14.7929 9.20711C14.4024 8.81658 14.4024 8.18342 14.7929 7.79289C15.1834 7.40237 15.8166 7.40237 16.2071 7.79289L19.7071 11.2929C19.7559 11.3417 19.7986 11.3943 19.8352 11.4498C20.0915 11.8379 20.0488 12.3654 19.7071 12.7071L16.2071 16.2071C15.8166 16.5976 15.1834 16.5976 14.7929 16.2071C14.4024 15.8166 14.4024 15.1834 14.7929 14.7929L16.5858 13H5C4.44772 13 4 12.5523 4 12C4 11.4477 4.44772 11 5 11H16.5858Z" fill="#00008C"/>
</svg>
