<svg width="24" height="24" viewBox="0 0 24 24" fill="none" xmlns="http://www.w3.org/2000/svg">
<path d="M17.7319 13.5131C17.7319 13.8678 18.0158 14.1553 18.3659 14.1553C18.7161 14.1553 19 13.8678 19 13.5131V7.2073C19 6.88488 18.8727 6.57586 18.6464 6.34908C18.4201 6.12231 18.1136 5.99664 17.7953 6.00007H8.77899C8.4288 6.00007 8.14493 6.28757 8.14493 6.64221C8.14493 6.99686 8.4288 7.28435 8.77899 7.28435L17.7319 7.2073V13.5131Z" fill="#00008C"/>
<path fill-rule="evenodd" clip-rule="evenodd" d="M7.33333 19.9346C7.41353 19.9831 7.50647 20.0055 7.59964 19.9988C7.74718 20.002 7.89102 19.9519 8.00543 19.8575L11.0109 17.2889H15.2971C15.9438 17.2503 16.4579 16.7242 16.4891 16.0689V9.77587C16.4925 9.45347 16.3684 9.1431 16.1445 8.91391C15.9206 8.68473 15.6155 8.55578 15.2971 8.55579H6.26812C5.59179 8.55494 5.03382 9.09177 5 9.77587V16.0689C5.03382 16.753 5.59179 17.2898 6.26812 17.2889H6.9529V19.3566C6.95028 19.6102 7.10123 19.8395 7.33333 19.9346ZM8.2337 16.6468C8.2337 16.2921 7.94982 16.0046 7.59964 16.0046L6.3442 16.0175V9.78871L15.221 9.72449L15.2971 15.9533H10.7826C10.6356 15.9532 10.4927 16.003 10.3768 16.0945L8.2337 17.9311V16.6468Z" fill="#00008C"/>
</svg>
