<svg width="24" height="24" viewBox="0 0 24 24" fill="none" xmlns="http://www.w3.org/2000/svg">
<path d="M7.38078 10.9738L10.7844 14.4101C10.9355 14.5643 11.1413 14.6525 11.3571 14.6556C11.6115 14.6701 11.8586 14.5677 12.0281 14.3774L18.4286 8.0026C18.7449 7.68629 18.7449 7.17345 18.4286 6.85714C18.1123 6.54083 17.5994 6.54083 17.2831 6.85714L11.3571 12.6429L8.52623 9.81195C8.37776 9.65375 8.17047 9.56401 7.95351 9.56401C7.73655 9.56401 7.52925 9.65375 7.38078 9.81195C7.22589 9.96558 7.13876 10.1747 7.13876 10.3929C7.13876 10.611 7.22589 10.8201 7.38078 10.9738Z" fill="#00008C"/>
<path fill-rule="evenodd" clip-rule="evenodd" d="M3 4.28571C3 3.57563 3.57563 3 4.28571 3H19.7143C20.4244 3 21 3.57563 21 4.28571V19.7143C21 20.4244 20.4244 21 19.7143 21H4.28571C3.57563 21 3 20.4244 3 19.7143V4.28571ZM19.7143 4.54286C19.7143 4.40084 19.5992 4.28571 19.4571 4.28571H4.54286C4.40084 4.28571 4.28571 4.40084 4.28571 4.54286V19.4571C4.28571 19.5992 4.40084 19.7143 4.54286 19.7143H19.4571C19.5992 19.7143 19.7143 19.5992 19.7143 19.4571V4.54286Z" fill="#00008C"/>
</svg>
