<svg width="24" height="24" viewBox="0 0 24 24" fill="none" xmlns="http://www.w3.org/2000/svg">
<g id="icon/ps/CL&#195;&#137;">
<g id="Combined Shape">
<path d="M3.54192 5.79959C3.6526 5.5466 3.94742 5.43124 4.20041 5.54192L12 8.95424L19.7996 5.54192C20.0526 5.43124 20.3474 5.5466 20.4581 5.79959C20.5688 6.05258 20.4534 6.3474 20.2004 6.45808L12.2004 9.95808C12.0726 10.014 11.9274 10.014 11.7996 9.95808L3.79959 6.45808C3.5466 6.3474 3.43124 6.05258 3.54192 5.79959Z" fill="#00008C"/>
<path d="M11 17V12.5C11 12.2239 10.7761 12 10.5 12C10.2239 12 10 12.2239 10 12.5V17.5C10 17.7761 10.2239 18 10.5 18H13.5C13.7761 18 14 17.7761 14 17.5C14 17.2239 13.7761 17 13.5 17H11Z" fill="#00008C"/>
<path d="M6 13V17H8.5C8.77614 17 9 17.2239 9 17.5C9 17.7761 8.77614 18 8.5 18H5.5C5.22386 18 5 17.7761 5 17.5V12.5C5 12.2239 5.22386 12 5.5 12H8.5C8.77614 12 9 12.2239 9 12.5C9 12.7761 8.77614 13 8.5 13H6Z" fill="#00008C"/>
<path d="M16 17V15.5H18C18.6667 15.5 18.6667 14.5 18 14.5H16V13H18.5C18.7761 13 19 12.7761 19 12.5C19 12.2239 18.7761 12 18.5 12H15.5C15.2239 12 15 12.2239 15 12.5V17.5C15 17.7761 15.2239 18 15.5 18H18.5C18.7761 18 19 17.7761 19 17.5C19 17.2239 18.7761 17 18.5 17H16Z" fill="#00008C"/>
<path d="M16.5 10H17.5C17.7761 10 18 10.2239 18 10.5C18 10.7761 17.7761 11 17.5 11H16.5C16.2239 11 16 10.7761 16 10.5C16 10.2239 16.2239 10 16.5 10Z" fill="#00008C"/>
<path fill-rule="evenodd" clip-rule="evenodd" d="M3 4H21C21.5523 4 22 4.44772 22 5V19C22 19.5523 21.5523 20 21 20H3C2.44772 20 2 19.5523 2 19V5C2 4.44772 2.44772 4 3 4ZM3 5V19H21V5H3Z" fill="#00008C"/>
</g>
</g>
</svg>
