<svg width="24" height="24" viewBox="0 0 24 24" fill="none" xmlns="http://www.w3.org/2000/svg">
<path fill-rule="evenodd" clip-rule="evenodd" d="M13.1041 11.9949L18.7644 6.31493C18.9588 6.12035 19.0348 5.83673 18.9636 5.57092C18.8924 5.30511 18.685 5.09749 18.4193 5.02626C18.1537 4.95504 17.8703 5.03103 17.6759 5.22562L12 10.89L6.32414 5.22562C6.02355 4.92482 5.5362 4.92482 5.23562 5.22562C4.93503 5.52643 4.93503 6.01413 5.23562 6.31493L10.8959 11.9949L5.23562 17.6749C5.08528 17.8161 5 18.0132 5 18.2196C5 18.4259 5.08528 18.623 5.23562 18.7642C5.37671 18.9147 5.5737 19 5.77988 19C5.98605 19 6.18304 18.9147 6.32414 18.7642L12 13.0998L17.6759 18.7642C17.817 18.9147 18.0139 19 18.2201 19C18.4263 19 18.6233 18.9147 18.7644 18.7642C18.9147 18.623 19 18.4259 19 18.2196C19 18.0132 18.9147 17.8161 18.7644 17.6749L13.1041 11.9949Z" fill="#00008C"/>
</svg>
