<svg width="24" height="24" viewBox="0 0 24 24" fill="none" xmlns="http://www.w3.org/2000/svg">
<path fill-rule="evenodd" clip-rule="evenodd" d="M12 15.9999C11.8142 16.0023 11.636 15.923 11.5095 15.7816L5.20318 9.23018C5.02795 9.04814 4.95951 8.7828 5.02365 8.53412C5.08779 8.28544 5.27477 8.0912 5.51414 8.02457C5.75352 7.95794 6.00893 8.02903 6.18417 8.21108L12 14.2384L17.8158 8.21108C17.9911 8.02903 18.2465 7.95794 18.4859 8.02457C18.7252 8.0912 18.9122 8.28544 18.9763 8.53412C19.0405 8.7828 18.9721 9.04814 18.7968 9.23018L12.4905 15.7816C12.364 15.923 12.1858 16.0023 12 15.9999Z" fill="#00008C"/>
</svg>
