<svg width="24" height="24" viewBox="0 0 24 24" fill="none" xmlns="http://www.w3.org/2000/svg">
<path d="M11.51 15.4167H11.3875L7.7825 12.1C7.47619 11.7756 7.48442 11.2811 7.80136 10.9662C8.11831 10.6512 8.63668 10.6223 8.99 10.9L11.125 12.8667V4.83333C11.125 4.3731 11.5168 4 12 4C12.4832 4 12.875 4.3731 12.875 4.83333V12.8667L15.01 10.8833C15.3633 10.6057 15.8817 10.6345 16.1986 10.9495C16.5156 11.2645 16.5238 11.759 16.2175 12.0833L12.6125 15.4167H12.49L12.3325 15.5167C12.1207 15.6058 11.8793 15.6058 11.6675 15.5167L11.51 15.4167Z" fill="#00008C"/>
<path d="M5 18.1667C5 17.7064 5.39175 17.3333 5.875 17.3333H18.125C18.6082 17.3333 19 17.7064 19 18.1667C19 18.6269 18.6082 19 18.125 19H5.875C5.39175 19 5 18.6269 5 18.1667Z" fill="#00008C"/>
</svg>
