<svg width="24" height="24" viewBox="0 0 24 24" fill="none" xmlns="http://www.w3.org/2000/svg">
<g id="icon/ps/e-Courrier">
<g id="Vector">
<path d="M21 11.584V18H3V6H14.1C14.1706 5.6522 14.2773 5.3175 14.416 5H3C2.44772 5 2 5.44772 2 6V18C2 18.5523 2.44772 19 3 19H21C21.5523 19 22 18.5523 22 18V11.0004C21.6923 11.2315 21.357 11.428 21 11.584Z" fill="#00008C"/>
<path d="M14.3792 8.91336C14.5083 9.22498 14.6681 9.52071 14.8548 9.7968L12.2004 10.9581C12.0726 11.014 11.9274 11.014 11.7996 10.9581L3.79959 7.45808C3.5466 7.34739 3.43124 7.05258 3.54192 6.79959C3.6526 6.5466 3.94742 6.43124 4.20041 6.54192L12 9.95424L14.3792 8.91336Z" fill="#00008C"/>
<path fill-rule="evenodd" clip-rule="evenodd" d="M15.25 7C15.25 9.04691 16.9531 10.75 19 10.75C19.2679 10.75 19.5357 10.75 19.5357 10.4821C19.5357 10.2143 19.2679 10.2143 19 10.2143C17.2983 10.2143 15.7857 8.70173 15.7857 7C15.7857 5.29827 17.2983 3.78571 19 3.78571C20.7017 3.78571 22.2143 4.85714 22.2143 7C22.2143 7.27799 22.2143 8.60714 21.4107 8.60714C20.7857 8.60714 20.875 7.99597 20.875 7.71429V5.75804C20.875 5.65398 20.7688 5.53086 20.6035 5.53086C20.4383 5.53086 20.35 5.65398 20.35 5.75804C19.9782 5.38755 19.6954 5.21429 19 5.21429C18.3046 5.21429 17.125 5.83929 17.125 7.08929C17.125 8.33929 18.2639 8.96429 19 8.96429C19.7361 8.96429 20.0714 8.69643 20.35 8.41429C20.6035 9.02772 20.875 9.14748 21.4107 9.14748C22.2143 9.14748 22.75 8.25 22.75 7C22.75 4.58929 21.0455 3.25344 19 3.25C16.9531 3.25 15.25 4.95309 15.25 7ZM19 8.33929C19.6904 8.33929 20.25 7.77964 20.25 7.08929C20.25 6.39893 19.6904 5.83929 19 5.83929C18.3096 5.83929 17.75 6.39893 17.75 7.08929C17.75 7.77964 18.3096 8.33929 19 8.33929Z" fill="#00008C"/>
<path d="M21 11.584V18H3V6H14.1C14.1706 5.6522 14.2773 5.3175 14.416 5H3C2.44772 5 2 5.44772 2 6V18C2 18.5523 2.44772 19 3 19H21C21.5523 19 22 18.5523 22 18V11.0004C21.6923 11.2315 21.357 11.428 21 11.584Z" stroke="#000092" stroke-width="0.3"/>
<path d="M14.3792 8.91336C14.5083 9.22498 14.6681 9.52071 14.8548 9.7968L12.2004 10.9581C12.0726 11.014 11.9274 11.014 11.7996 10.9581L3.79959 7.45808C3.5466 7.34739 3.43124 7.05258 3.54192 6.79959C3.6526 6.5466 3.94742 6.43124 4.20041 6.54192L12 9.95424L14.3792 8.91336Z" stroke="#000092" stroke-width="0.3"/>
<path fill-rule="evenodd" clip-rule="evenodd" d="M15.25 7C15.25 9.04691 16.9531 10.75 19 10.75C19.2679 10.75 19.5357 10.75 19.5357 10.4821C19.5357 10.2143 19.2679 10.2143 19 10.2143C17.2983 10.2143 15.7857 8.70173 15.7857 7C15.7857 5.29827 17.2983 3.78571 19 3.78571C20.7017 3.78571 22.2143 4.85714 22.2143 7C22.2143 7.27799 22.2143 8.60714 21.4107 8.60714C20.7857 8.60714 20.875 7.99597 20.875 7.71429V5.75804C20.875 5.65398 20.7688 5.53086 20.6035 5.53086C20.4383 5.53086 20.35 5.65398 20.35 5.75804C19.9782 5.38755 19.6954 5.21429 19 5.21429C18.3046 5.21429 17.125 5.83929 17.125 7.08929C17.125 8.33929 18.2639 8.96429 19 8.96429C19.7361 8.96429 20.0714 8.69643 20.35 8.41429C20.6035 9.02772 20.875 9.14748 21.4107 9.14748C22.2143 9.14748 22.75 8.25 22.75 7C22.75 4.58929 21.0455 3.25344 19 3.25C16.9531 3.25 15.25 4.95309 15.25 7ZM19 8.33929C19.6904 8.33929 20.25 7.77964 20.25 7.08929C20.25 6.39893 19.6904 5.83929 19 5.83929C18.3096 5.83929 17.75 6.39893 17.75 7.08929C17.75 7.77964 18.3096 8.33929 19 8.33929Z" stroke="#000092" stroke-width="0.3"/>
</g>
</g>
</svg>
