<svg width="24" height="24" viewBox="0 0 24 24" fill="none" xmlns="http://www.w3.org/2000/svg">
<g id="icon/ps/e-Courrier Copy">
<g id="Combined Shape">
<path d="M13.5 13H19.5C19.7761 13 20 12.7761 20 12.5C20 12.2239 19.7761 12 19.5 12H13.5C13.2239 12 13 12.2239 13 12.5C13 12.7761 13.2239 13 13.5 13Z" fill="#00008C"/>
<path fill-rule="evenodd" clip-rule="evenodd" d="M11.1 8H18.9C19.5075 8 20 8.49249 20 9.1V9.9C20 10.5075 19.5075 11 18.9 11H11.1C10.4925 11 10 10.5075 10 9.9V9.1C10 8.49249 10.4925 8 11.1 8ZM11.1 9C11.0448 9 11 9.04477 11 9.1V9.9C11 9.95523 11.0448 10 11.1 10H18.9C18.9552 10 19 9.95523 19 9.9V9.1C19 9.04477 18.9552 9 18.9 9H11.1Z" fill="#00008C"/>
<path d="M19.5 14H11.5C11.2239 14 11 14.2239 11 14.5C11 14.7761 11.2239 15 11.5 15H19.5C19.7761 15 20 14.7761 20 14.5C20 14.2239 19.7761 14 19.5 14Z" fill="#00008C"/>
<path d="M6.5 8H7.5C7.77614 8 8 8.22386 8 8.5C8 8.77614 7.77614 9 7.5 9H6.5C6.00925 9 5.57355 9.23567 5.29989 9.6H6C6.22091 9.6 6.4 9.77909 6.4 10C6.4 10.2209 6.22091 10.4 6 10.4H5.00328C5.0011 10.4331 5 10.4664 5 10.5C5 10.5336 5.0011 10.5669 5.00328 10.6H6.5C6.72091 10.6 6.9 10.7791 6.9 11C6.9 11.2209 6.72091 11.4 6.5 11.4H5.29989C5.57355 11.7643 6.00925 12 6.5 12H7.5C7.77614 12 8 12.2239 8 12.5C8 12.7761 7.77614 13 7.5 13H6.5C5.11929 13 4 11.8807 4 10.5C4 9.11929 5.11929 8 6.5 8Z" fill="#00008C"/>
<path fill-rule="evenodd" clip-rule="evenodd" d="M20.9 6H3.1C2.49249 6 2 6.49249 2 7.1V16.9C2 17.5075 2.49249 18 3.1 18H20.9C21.5075 18 22 17.5075 22 16.9V7.1C22 6.49249 21.5075 6 20.9 6ZM3 7.1C3 7.04477 3.04477 7 3.1 7H20.9C20.9552 7 21 7.04477 21 7.1V16.9C21 16.9552 20.9552 17 20.9 17H3.1C3.04477 17 3 16.9552 3 16.9V7.1Z" fill="#00008C"/>
</g>
</g>
</svg>
