<svg width="24" height="24" viewBox="0 0 24 24" fill="none" xmlns="http://www.w3.org/2000/svg">
<path fill-rule="evenodd" clip-rule="evenodd" d="M18.8245 3.36299L20.6458 5.17875C21.1064 5.66577 21.1193 6.41851 20.6757 6.92069L12.6887 14.8332C12.5545 14.9666 12.391 15.0676 12.2109 15.1285L10.2254 15.8518C10.0161 15.9521 9.78608 16.0026 9.55358 15.9994C9.07927 15.9943 8.62504 15.8094 8.28462 15.4828C7.79631 14.9792 7.65569 14.2375 7.92632 13.5932L8.64291 11.7184C8.71448 11.5541 8.81565 11.4041 8.94149 11.2755L16.9434 3.36299C17.4749 2.879 18.293 2.879 18.8245 3.36299ZM11.0614 11.3346L12.5543 12.9141L17.7197 7.89499L16.1223 6.31544L11.0614 11.3346ZM9.41922 13.7113L10.1059 14.3904L11.4197 13.8589L9.9268 12.3827L9.41922 13.7113ZM17.1226 5.26732L18.6752 6.83211L19.4664 6.10876L17.8839 4.52921L17.1226 5.26732Z" fill="#00008C"/>
<path d="M17.5107 12.5598C17.5107 12.1522 17.8449 11.8217 18.2572 11.8217C18.4659 11.8211 18.6654 11.9069 18.8073 12.0584C18.9491 12.2098 19.0203 12.4131 19.0036 12.6189V18.5238C19.0046 19.3111 18.3806 19.9606 17.5854 20H5.4929C4.66839 20 4 19.3391 4 18.5238V6.56639C4 5.7511 4.66839 5.09017 5.4929 5.09017H11.5988C12.0111 5.09017 12.3453 5.42064 12.3453 5.82828C12.3453 6.23593 12.0111 6.56639 11.5988 6.56639H5.55261V18.4647H17.5854L17.5107 12.5598Z" fill="#00008C"/>
</svg>
