<svg width="24" height="24" viewBox="0 0 24 24" fill="none" xmlns="http://www.w3.org/2000/svg">
<path fill-rule="evenodd" clip-rule="evenodd" d="M3 12C3 16.9126 7.08743 21 12 21C12.6429 21 13.2857 21 13.2857 20.3571C13.2857 19.7143 12.6429 19.7143 12 19.7143C7.91585 19.7143 4.28571 16.0841 4.28571 12C4.28571 7.91585 7.91585 4.28571 12 4.28571C16.0841 4.28571 19.7143 6.85714 19.7143 12C19.7143 12.6672 19.7143 15.8571 17.7857 15.8571C16.2857 15.8571 16.5 14.3903 16.5 13.7143V9.01929C16.5 8.76955 16.2451 8.47407 15.8485 8.47407C15.4519 8.47407 15.24 8.76955 15.24 9.01929C14.3477 8.13011 13.669 7.71429 12 7.71429C10.331 7.71429 7.5 9.21429 7.5 12.2143C7.5 15.2143 10.2334 16.7143 12 16.7143C13.7666 16.7143 14.5714 16.0714 15.24 15.3943C15.8485 16.8665 16.5 17.154 17.7857 17.154C19.7143 17.154 21 15 21 12C21 6.21429 16.9091 3.00826 12 3C7.08743 3 3 7.08743 3 12ZM12 15.2143C13.6569 15.2143 15 13.8711 15 12.2143C15 10.5574 13.6569 9.21429 12 9.21429C10.3431 9.21429 9 10.5574 9 12.2143C9 13.8711 10.3431 15.2143 12 15.2143Z" fill="#00008C"/>
</svg>
