<svg width="24" height="24" viewBox="0 0 24 24" fill="none" xmlns="http://www.w3.org/2000/svg">
<path d="M11.5927 4.14824H11.4909L8.49455 7.09484C8.23995 7.38302 8.24679 7.82232 8.51022 8.10215C8.77366 8.38198 9.20451 8.40762 9.49818 8.16094L11.2727 6.41371V13.5507C11.2727 13.9596 11.5983 14.291 12 14.291C12.4017 14.291 12.7273 13.9596 12.7273 13.5507V6.41371L14.5018 8.17575C14.7955 8.42243 15.2263 8.39679 15.4898 8.11696C15.7532 7.83713 15.76 7.39783 15.5055 7.10964L12.5091 4.14824H12.4073C12.3671 4.1136 12.3232 4.08379 12.2764 4.0594C12.1003 3.9802 11.8997 3.9802 11.7236 4.0594C11.6768 4.08379 11.6329 4.1136 11.5927 4.14824Z" fill="#00008C"/>
<path d="M5.45455 17.519L18.5455 17.5191L18.5455 11.5962H14.9091V10.1155L18.53 10.1156C19.3143 10.0987 19.9676 10.7238 20 11.5517L19.9994 17.5934C19.9676 18.3913 19.3143 19.0165 18.5455 18.9997L5.46999 18.9995C4.68574 19.0165 4.03244 18.3913 4 17.5634L4.0006 11.5217C4.03244 10.7238 4.68574 10.0987 5.45455 10.1155H9.09091V11.5962L5.45454 11.596L5.45455 17.519Z" fill="#00008C"/>
</svg>
