<svg width="24" height="24" viewBox="0 0 24 24" fill="none" xmlns="http://www.w3.org/2000/svg">
<path fill-rule="evenodd" clip-rule="evenodd" d="M12 3C7.02944 3 3 7.02944 3 12C3 16.9706 7.02944 21 12 21C16.9706 21 21 16.9706 21 12C21 9.61305 20.0518 7.32387 18.364 5.63604C16.6761 3.94821 14.3869 3 12 3ZM12 19.5C7.85786 19.5 4.5 16.1421 4.5 12C4.5 7.85786 7.85786 4.5 12 4.5C16.1421 4.5 19.5 7.85786 19.5 12C19.5 16.1421 16.1421 19.5 12 19.5Z" fill="#00008C"/>
<path fill-rule="evenodd" clip-rule="evenodd" d="M12.555 7.5C11.7762 7.33866 10.9661 7.53704 10.35 8.04C9.73614 8.53333 9.37785 9.27747 9.375 10.065C9.375 10.4792 9.71079 10.815 10.125 10.815C10.5392 10.815 10.875 10.4792 10.875 10.065C10.877 9.72659 11.0313 9.40707 11.295 9.195C11.5688 8.98769 11.9176 8.90595 12.255 8.97C12.7434 9.08493 13.0966 9.50935 13.1209 10.0105C13.1453 10.5116 12.8349 10.9682 12.36 11.13C11.7208 11.3597 11.2828 11.9516 11.25 12.63V13.905C11.25 14.3192 11.5858 14.655 12 14.655C12.4142 14.655 12.75 14.3192 12.75 13.905V12.63C12.7469 12.562 12.79 12.5004 12.855 12.48C13.9102 12.0624 14.5776 11.0141 14.5094 9.8813C14.4412 8.74852 13.6527 7.78786 12.555 7.5Z" fill="#00008C"/>
<path fill-rule="evenodd" clip-rule="evenodd" d="M12 16.995C12.4391 16.995 12.795 16.6391 12.795 16.2C12.795 15.7609 12.4391 15.405 12 15.405C11.5609 15.405 11.205 15.7609 11.205 16.2C11.205 16.6391 11.5609 16.995 12 16.995Z" fill="#00008C"/>
</svg>
