<svg width="24" height="24" viewBox="0 0 24 24" fill="none" xmlns="http://www.w3.org/2000/svg">
<path d="M5 8H19C19.5523 8 20 7.55228 20 7C20 6.44772 19.5523 6 19 6H5C4.44772 6 4 6.44772 4 7C4 7.55228 4.44772 8 5 8Z" fill="#00008C"/>
<path d="M8 13H16C16.5523 13 17 12.5523 17 12C17 11.4477 16.5523 11 16 11H8C7.44772 11 7 11.4477 7 12C7 12.5523 7.44772 13 8 13Z" fill="#00008C"/>
<path d="M10 18H14C14.5523 18 15 17.5523 15 17C15 16.4477 14.5523 16 14 16H10C9.44772 16 9 16.4477 9 17C9 17.5523 9.44772 18 10 18Z" fill="#00008C"/>
</svg>
