<svg width="24" height="24" viewBox="0 0 24 24" fill="none" xmlns="http://www.w3.org/2000/svg">
<path fill-rule="evenodd" clip-rule="evenodd" d="M12 4C7.58172 4 4 7.58172 4 12C4 16.4183 7.58172 20 12 20C16.4183 20 20 16.4183 20 12C19.9928 7.58471 16.4153 4.00721 12 4ZM12 5.45336C13.4783 5.46564 14.9088 5.97788 16.0589 6.90671L6.89362 16.072C5.9667 14.9167 5.45897 13.4812 5.45336 12C5.45336 8.38439 8.38439 5.45336 12 5.45336ZM12 18.5466C10.5217 18.5344 9.09115 18.0221 7.94108 17.0933L17.1064 7.92799C18.0333 9.08331 18.541 10.5188 18.5466 12C18.5466 15.6156 15.6156 18.5466 12 18.5466Z" fill="#00008C"/>
</svg>
