<svg width="24" height="24" viewBox="0 0 24 24" fill="none" xmlns="http://www.w3.org/2000/svg">
<path fill-rule="evenodd" clip-rule="evenodd" d="M20.7727 11.4691L12.5202 3.22706C12.3841 3.08218 12.194 3 11.9951 3C11.7962 3 11.6061 3.08218 11.4699 3.22706L3.21753 11.4691C2.92749 11.7588 2.92749 12.2285 3.21753 12.5181C3.50756 12.8078 3.9778 12.8078 4.26783 12.5181L4.71796 12.0836V20.2357C4.71796 20.6495 5.05385 20.985 5.46818 20.985H9.44435C9.85868 20.985 10.1946 20.6495 10.1946 20.2357V16.0547H13.6456V20.2507C13.6456 20.6645 13.9815 21 14.3958 21H18.522C18.9363 21 19.2722 20.6645 19.2722 20.2507V12.0836L19.7223 12.5181C19.8585 12.663 20.0486 12.7452 20.2475 12.7452C20.4464 12.7452 20.6365 12.663 20.7727 12.5181C20.9177 12.3822 21 12.1923 21 11.9936C21 11.795 20.9177 11.6051 20.7727 11.4691ZM17.7718 19.4865H15.146V15.2905C15.146 14.8767 14.8101 14.5412 14.3958 14.5412H9.44434C9.03001 14.5412 8.69413 14.8767 8.69413 15.2905V19.4865H6.2184V10.585L11.9951 4.81554L17.7718 10.585V19.4865Z" fill="#00008C"/>
</svg>
