<svg width="24" height="24" viewBox="0 0 24 24" fill="none" xmlns="http://www.w3.org/2000/svg">
<path d="M11.4504 12.5452C10.8602 13.1351 9.91246 13.1351 9.32225 12.5452C8.74784 11.9538 8.74784 10.9925 9.32939 10.3939L12.8497 6.82326C13.4364 6.237 14.3841 6.237 14.9743 6.82686C15.5488 7.41827 15.5488 8.37958 14.9672 8.97822L15.9401 9.95056C17.0456 8.8126 17.0456 6.98524 15.9401 5.84729C14.8111 4.71878 13.0094 4.71878 11.8875 5.84005L8.36003 9.41791C7.251 10.5595 7.251 12.3869 8.35647 13.5248C9.48554 14.6533 11.2872 14.6533 12.4091 13.5321L11.4504 12.5452Z" fill="#00008C"/>
<path d="M11.2891 11.454C11.8793 10.8641 12.8271 10.8641 13.4173 11.454C13.6986 11.7365 13.8576 12.1229 13.8576 12.5261C13.8576 12.9292 13.6986 13.3156 13.4162 13.5992L9.92795 17.1789C9.34413 17.7622 8.39636 17.7622 7.80615 17.1724C7.52479 16.8899 7.36585 16.5035 7.36585 16.1003C7.36585 15.6972 7.52479 15.3108 7.80727 15.0271L6.84639 14.0426C6.30475 14.5864 6 15.3273 6 16.1003C6 16.8733 6.30475 17.6142 6.84639 18.1581C7.96944 19.2805 9.77106 19.2805 10.893 18.1592L14.3823 14.5785C14.9187 14.04 15.2234 13.2991 15.2234 12.5261C15.2234 11.753 14.9187 11.0121 14.377 10.4683C13.254 9.34592 11.4524 9.34592 10.3304 10.4672L11.2891 11.454Z" fill="#00008C"/>
</svg>
