<svg width="24" height="24" viewBox="0 0 24 24" fill="none" xmlns="http://www.w3.org/2000/svg">
<path fill-rule="evenodd" clip-rule="evenodd" d="M8.00005 12C7.9977 11.8142 8.07701 11.636 8.21843 11.5095L14.7698 5.20318C14.9519 5.02795 15.2172 4.95951 15.4659 5.02365C15.7146 5.08779 15.9088 5.27477 15.9754 5.51414C16.0421 5.75352 15.971 6.00893 15.7889 6.18417L9.76165 12L15.7889 17.8158C15.971 17.9911 16.0421 18.2465 15.9754 18.4859C15.9088 18.7252 15.7146 18.9122 15.4659 18.9763C15.2172 19.0405 14.9519 18.9721 14.7698 18.7968L8.21843 12.4905C8.07701 12.364 7.9977 12.1858 8.00005 12Z" fill="#00008C"/>
</svg>
