<svg width="24" height="24" viewBox="0 0 24 24" fill="none" xmlns="http://www.w3.org/2000/svg">
<path fill-rule="evenodd" clip-rule="evenodd" d="M10.3385 14.6207H7.01538C5.56245 14.6207 4.38462 13.4474 4.38462 12C4.38462 10.5526 5.56245 9.37931 7.01538 9.37931H10.3385C10.7208 9.37931 11.0308 9.07054 11.0308 8.68966C11.0308 8.30877 10.7208 8 10.3385 8H7.01538C4.79775 8 3 9.79086 3 12C3 14.2091 4.79775 16 7.01538 16H10.3385C10.7208 16 11.0308 15.6912 11.0308 15.3103C11.0308 14.9295 10.7208 14.6207 10.3385 14.6207Z" fill="#00008C"/>
<path fill-rule="evenodd" clip-rule="evenodd" d="M16.9846 8H13.6615C13.2792 8 12.9692 8.30877 12.9692 8.68966C12.9692 9.07054 13.2792 9.37931 13.6615 9.37931H16.9846C18.4375 9.37931 19.6154 10.5526 19.6154 12C19.6154 13.4474 18.4375 14.6207 16.9846 14.6207H13.6615C13.2792 14.6207 12.9692 14.9295 12.9692 15.3103C12.9692 15.6912 13.2792 16 13.6615 16H16.9846C19.2023 16 21 14.2091 21 12C21 9.79086 19.2023 8 16.9846 8Z" fill="#00008C"/>
<path fill-rule="evenodd" clip-rule="evenodd" d="M8.81538 12C8.81538 12.3809 9.12534 12.6897 9.50769 12.6897H14.4923C14.8747 12.6897 15.1846 12.3809 15.1846 12C15.1846 11.6191 14.8747 11.3103 14.4923 11.3103H9.50769C9.12534 11.3103 8.81538 11.6191 8.81538 12Z" fill="#00008C"/>
</svg>
