<svg width="24" height="24" viewBox="0 0 24 24" fill="none" xmlns="http://www.w3.org/2000/svg">
<g opacity="0.9">
<path fill-rule="evenodd" clip-rule="evenodd" d="M11 5V8C11 8.55228 11.4477 9 12 9C12.5523 9 13 8.55228 13 8V5C13 4.44772 12.5523 4 12 4C11.4477 4 11 4.44772 11 5Z" fill="#666D92"/>
<path fill-rule="evenodd" clip-rule="evenodd" d="M16.2426 6.34309L14.1213 8.46441C13.7308 8.85494 13.7308 9.4881 14.1213 9.87863C14.5118 10.2692 15.145 10.2692 15.5355 9.87863L17.6569 7.75731C18.0474 7.36678 18.0474 6.73362 17.6569 6.34309C17.2663 5.95257 16.6332 5.95257 16.2426 6.34309Z" fill="#666D92"/>
<path fill-rule="evenodd" clip-rule="evenodd" d="M19 11H16C15.4477 11 15 11.4477 15 12C15 12.5523 15.4477 13 16 13H19C19.5523 13 20 12.5523 20 12C20 11.4477 19.5523 11 19 11Z" fill="#666D92"/>
<path fill-rule="evenodd" clip-rule="evenodd" d="M17.6569 16.2426L15.5355 14.1213C15.145 13.7308 14.5118 13.7308 14.1213 14.1213C13.7308 14.5118 13.7308 15.145 14.1213 15.5355L16.2426 17.6568C16.6332 18.0473 17.2663 18.0473 17.6569 17.6568C18.0474 17.2663 18.0474 16.6331 17.6569 16.2426Z" fill="#666D92"/>
<path fill-rule="evenodd" clip-rule="evenodd" d="M13 19V16C13 15.4477 12.5523 15 12 15C11.4477 15 11 15.4477 11 16V19C11 19.5523 11.4477 20 12 20C12.5523 20 13 19.5523 13 19Z" fill="#666D92"/>
<path fill-rule="evenodd" clip-rule="evenodd" d="M7.75736 17.6569L9.87868 15.5356C10.2692 15.1451 10.2692 14.5119 9.87868 14.1214C9.48815 13.7308 8.85499 13.7308 8.46446 14.1214L6.34314 16.2427C5.95262 16.6332 5.95262 17.2664 6.34314 17.6569C6.73367 18.0474 7.36683 18.0474 7.75736 17.6569Z" fill="#666D92"/>
<path fill-rule="evenodd" clip-rule="evenodd" d="M5 13H8C8.55228 13 9 12.5523 9 12C9 11.4477 8.55228 11 8 11H5C4.44772 11 4 11.4477 4 12C4 12.5523 4.44772 13 5 13Z" fill="#666D92"/>
<path fill-rule="evenodd" clip-rule="evenodd" d="M6.34315 7.7574L8.46447 9.87872C8.85499 10.2692 9.48816 10.2692 9.87868 9.87872C10.2692 9.4882 10.2692 8.85503 9.87868 8.46451L7.75736 6.34319C7.36684 5.95266 6.73367 5.95266 6.34315 6.34319C5.95262 6.73371 5.95262 7.36688 6.34315 7.7574Z" fill="#666D92"/>
</g>
</svg>
