<svg xmlns="http://www.w3.org/2000/svg" width="32" height="32" fill="none" viewBox="0 0 32 32">
    <path fill="#00008C" fill-rule="evenodd" d="M22.667 11.333H24c1.467 0 2.667 1.2 2.667 2.667v13.333C26.667 28.8 25.467 30 24 30H8c-1.467 0-2.667-1.2-2.667-2.667V14c0-1.467 1.2-2.667 2.667-2.667h1.333V8.667C9.333 4.987 12.32 2 16 2c3.68 0 6.667 2.987 6.667 6.667v2.666zM16 4.667c-2.213 0-4 1.786-4 4v2.666h8V8.667c0-2.214-1.787-4-4-4zM8 27.333V14h16v13.333H8zm10.667-6.666c0 1.466-1.2 2.666-2.667 2.666-1.467 0-2.667-1.2-2.667-2.666C13.333 19.2 14.533 18 16 18c1.467 0 2.667 1.2 2.667 2.667z" clip-rule="evenodd"/>
</svg>
