<svg width="24" height="24" viewBox="0 0 24 24" fill="none" xmlns="http://www.w3.org/2000/svg">
<g id="icon/ps/LRE">
<g id="Combined Shape">
<path d="M4.20041 5.54192C3.94742 5.43124 3.6526 5.5466 3.54192 5.79959C3.43124 6.05258 3.5466 6.3474 3.79959 6.45808L11.7996 9.95808C11.9274 10.014 12.0726 10.014 12.2004 9.95808L20.2004 6.45808C20.4534 6.3474 20.5688 6.05258 20.4581 5.79959C20.3474 5.5466 20.0526 5.43124 19.7996 5.54192L12 8.95424L4.20041 5.54192Z" fill="#00008C"/>
<path d="M6 12.5V17H8.5C8.77614 17 9 17.2239 9 17.5C9 17.7761 8.77614 18 8.5 18H5.5C5.22386 18 5 17.7761 5 17.5V12.5C5 12.2239 5.22386 12 5.5 12C5.77614 12 6 12.2239 6 12.5Z" fill="#00008C"/>
<path fill-rule="evenodd" clip-rule="evenodd" d="M10 17.5V12.5C10 12.2239 10.2239 12 10.5 12H12.25C13.2165 12 14 12.7835 14 13.75C14 14.7165 13.2165 15.5 12.25 15.5H11.881L13.8201 17.1159C14.0322 17.2927 14.0609 17.608 13.8841 17.8201C13.7073 18.0322 13.392 18.0609 13.1799 17.8841L11 16.0675V17.5C11 17.7761 10.7761 18 10.5 18C10.2239 18 10 17.7761 10 17.5ZM11 13V14.5H12.25C12.6642 14.5 13 14.1642 13 13.75C13 13.3358 12.6642 13 12.25 13H11Z" fill="#00008C"/>
<path d="M16 15.5V17H18.5C18.7761 17 19 17.2239 19 17.5C19 17.7761 18.7761 18 18.5 18H15.5C15.2239 18 15 17.7761 15 17.5V12.5C15 12.2239 15.2239 12 15.5 12H18.5C18.7761 12 19 12.2239 19 12.5C19 12.7761 18.7761 13 18.5 13H16V14.5H18C18.6667 14.5 18.6667 15.5 18 15.5H16Z" fill="#00008C"/>
<path fill-rule="evenodd" clip-rule="evenodd" d="M21 4H3C2.44772 4 2 4.44772 2 5V19C2 19.5523 2.44772 20 3 20H21C21.5523 20 22 19.5523 22 19V5C22 4.44772 21.5523 4 21 4ZM3 19V5H21V19H3Z" fill="#00008C"/>
</g>
</g>
</svg>
