<svg width="24" height="24" viewBox="0 0 24 24" fill="none" xmlns="http://www.w3.org/2000/svg">
<path fill-rule="evenodd" clip-rule="evenodd" d="M19.2889 16.3081H18.278L17.4722 10.0237C17.232 8.20111 16.0417 6.62695 14.3222 5.85782C14.3438 5.68785 14.3438 5.51594 14.3222 5.34597C14.3222 4.05033 13.2399 3 11.9048 3C10.5697 3 9.48733 4.05033 9.48733 5.34597C9.46572 5.51594 9.46572 5.68785 9.48733 5.85782C7.80017 6.64299 6.64077 8.20745 6.4106 10.0095L5.60479 16.2938H4.71107C4.30389 16.347 4 16.6842 4 17.0829C4 17.4816 4.30389 17.8189 4.71107 17.872H8.74013C8.74013 19.5996 10.1832 21 11.9634 21C13.7435 21 15.1866 19.5996 15.1866 17.872H19.2889C19.6961 17.8189 20 17.4816 20 17.0829C20 16.6842 19.6961 16.347 19.2889 16.2938V16.3081ZM11.0843 5.36019C11.0843 4.84978 11.5107 4.43602 12.0366 4.43602C12.5626 4.43602 12.989 4.84978 12.989 5.36019C12.3578 5.2654 11.7154 5.2654 11.0843 5.36019ZM8.05152 10.1943C8.22994 8.82865 9.1378 7.65575 10.4397 7.109C10.9193 6.90029 11.4378 6.789 11.9634 6.78199C12.5182 6.78052 13.0672 6.89192 13.575 7.109C14.8693 7.66195 15.7701 8.83292 15.9485 10.1943L16.7396 16.3081H7.18711L8.05152 10.1943ZM11.9634 19.5924C10.9924 19.5924 10.2052 18.8285 10.2052 17.8863H13.7215C13.7215 18.8285 12.9344 19.5924 11.9634 19.5924Z" fill="#00008C"/>
</svg>
