<svg width="24" height="24" viewBox="0 0 24 24" fill="none" xmlns="http://www.w3.org/2000/svg">
<path fill-rule="evenodd" clip-rule="evenodd" d="M16.215 10.5C16.215 12.8279 14.3279 14.715 12 14.715C9.67212 14.715 7.785 12.8279 7.785 10.5C7.785 8.17212 9.67212 6.285 12 6.285C14.3279 6.285 16.215 8.17212 16.215 10.5ZM14.5083 9.46101C14.0881 8.44649 13.0981 7.785 12 7.785C10.5005 7.785 9.285 9.00055 9.285 10.5C9.285 11.5981 9.94649 12.5881 10.961 13.0083C11.9755 13.4286 13.1433 13.1963 13.9198 12.4198C14.6963 11.6433 14.9286 10.4755 14.5083 9.46101Z" fill="#00008C"/>
<path fill-rule="evenodd" clip-rule="evenodd" d="M3 12C3 7.02944 7.02944 3 12 3C14.3869 3 16.6761 3.94821 18.364 5.63604C20.0518 7.32387 21 9.61305 21 12C21 16.9706 16.9706 21 12 21C7.02944 21 3 16.9706 3 12ZM18.6519 8.58187C17.3729 6.08388 14.8064 4.50894 12 4.5C7.85786 4.5 4.5 7.85786 4.5 12C4.5026 13.5665 4.99567 15.093 5.91 16.365C9.93444 15.6609 14.0506 15.6609 18.075 16.365C19.7083 14.0829 19.9309 11.0799 18.6519 8.58187ZM7.14 17.67C10.3541 17.2165 13.6159 17.2165 16.83 17.67C14.0573 20.1006 9.91275 20.1006 7.14 17.67Z" fill="#00008C"/>
</svg>
