<svg xmlns="http://www.w3.org/2000/svg" width="32" height="32" fill="none" viewBox="0 0 32 32">
    <path fill="#00008C" fill-rule="evenodd" d="M21.62 14c0 3.104-2.516 5.62-5.62 5.62s-5.62-2.516-5.62-5.62S12.896 8.38 16 8.38s5.62 2.516 5.62 5.62zm-2.276-1.385c-.56-1.353-1.88-2.235-3.344-2.235-2 0-3.62 1.62-3.62 3.62 0 1.464.882 2.784 2.235 3.344 1.352.56 2.91.251 3.945-.784 1.035-1.036 1.345-2.593.784-3.945z" clip-rule="evenodd"/>
    <path fill="#00008C" fill-rule="evenodd" d="M4 16C4 9.373 9.373 4 16 4c3.183 0 6.235 1.264 8.485 3.515C26.735 9.765 28 12.817 28 16c0 6.627-5.373 12-12 12S4 22.627 4 16zm20.87-4.557C23.163 8.112 19.741 6.012 16 6 10.477 6 6 10.477 6 16c.003 2.089.66 4.124 1.88 5.82 5.366-.939 10.854-.939 16.22 0 2.178-3.043 2.475-7.047.77-10.377zM9.52 23.56c4.285-.605 8.635-.605 12.92 0-3.697 3.24-9.223 3.24-12.92 0z" clip-rule="evenodd"/>
</svg>
