<svg width="24" height="24" viewBox="0 0 24 24" fill="none" xmlns="http://www.w3.org/2000/svg">
<path fill-rule="evenodd" clip-rule="evenodd" d="M15.9999 12C16.0023 12.1858 15.923 12.364 15.7816 12.4905L9.23018 18.7968C9.04814 18.9721 8.7828 19.0405 8.53412 18.9763C8.28544 18.9122 8.0912 18.7252 8.02457 18.4859C7.95794 18.2465 8.02903 17.9911 8.21108 17.8158L14.2384 12L8.21108 6.18417C8.02903 6.00893 7.95794 5.75352 8.02457 5.51414C8.0912 5.27477 8.28544 5.08779 8.53412 5.02365C8.7828 4.95951 9.04814 5.02795 9.23018 5.20318L15.7816 11.5095C15.923 11.636 16.0023 11.8142 15.9999 12Z" fill="#00008C"/>
</svg>
