<svg width="24" height="24" viewBox="0 0 24 24" fill="none" xmlns="http://www.w3.org/2000/svg">
<path fill-rule="evenodd" clip-rule="evenodd" d="M19.7818 7.98549L16 4.21825C15.8632 4.07621 15.6736 3.99722 15.4764 4.00008H5.45455C4.65122 4.00008 4 4.65129 4 5.45461V18.5454C4 19.3487 4.65122 19.9999 5.45455 19.9999H18.5455C19.3488 19.9999 20 19.3487 20 18.5454V8.50912C19.9995 8.31257 19.921 8.12424 19.7818 7.98549ZM14.1236 5.45461V7.63641H9.86182V5.45461H14.1236ZM15.5055 18.5454H8.48V12.7273H15.5055V18.5454ZM18.5455 18.5454H16.96V12C16.96 11.5983 16.6344 11.2727 16.2327 11.2727H7.75273C7.35107 11.2727 7.02545 11.5983 7.02545 12V18.5454H5.45455V5.45461H8.36364V8.36367C8.36364 8.76533 8.68925 9.09094 9.09091 9.09094H14.9091C15.3108 9.09094 15.6364 8.76533 15.6364 8.36367V5.84733L18.5455 8.7564V18.5454Z" fill="#00008C"/>
</svg>
