<svg width="24" height="24" viewBox="0 0 24 24" fill="none" xmlns="http://www.w3.org/2000/svg">
<path fill-rule="evenodd" clip-rule="evenodd" d="M20.7449 19.5052L16.6985 15.4575C18.9996 12.4978 18.6031 8.25839 15.7932 5.77704C12.9833 3.29569 8.72891 3.42806 6.07858 6.07931C3.42826 8.73055 3.29593 12.9864 5.77642 15.7973C8.25692 18.6082 12.4949 19.0048 15.4535 16.703L19.4999 20.7507C19.6668 20.912 19.8903 21.0014 20.1224 20.9998C20.3551 21.0049 20.5799 20.915 20.7449 20.7507C21.085 20.4053 21.085 19.8507 20.7449 19.5052ZM7.32969 15.0371C5.48141 13.2211 5.17261 10.352 6.59209 8.18396C8.01158 6.01595 10.7641 5.15262 13.1669 6.12182C15.5697 7.09101 16.9537 9.62288 16.4728 12.1695C15.9918 14.7161 13.7799 16.5684 11.1893 16.594C9.74651 16.6117 8.35666 16.051 7.32969 15.0371Z" fill="#00008C"/>
</svg>
