<svg width="24" height="24" viewBox="0 0 24 24" fill="none" xmlns="http://www.w3.org/2000/svg">
<path fill-rule="evenodd" clip-rule="evenodd" d="M18.4 3H5.6C4.71634 3 4 3.73262 4 4.63636V19.3636C4 20.2674 4.71634 21 5.6 21H18.4C19.2837 21 20 20.2674 20 19.3636V4.63636C20 4.20237 19.8314 3.78616 19.5314 3.47928C19.2313 3.1724 18.8243 3 18.4 3ZM5.6 10.1018H18.4V13.9145H5.6V10.1018ZM5.6 4.63636H18.4V8.46545H5.6V4.63636ZM5.6 19.3636V15.5509H18.4V19.38L5.6 19.3636Z" fill="#00008C"/>
<path fill-rule="evenodd" clip-rule="evenodd" d="M12.896 5.73273H8.096C7.65417 5.73273 7.296 6.09904 7.296 6.55091C7.296 7.00278 7.65417 7.36909 8.096 7.36909H12.896C13.3378 7.36909 13.696 7.00278 13.696 6.55091C13.696 6.09904 13.3378 5.73273 12.896 5.73273Z" fill="#00008C"/>
<path fill-rule="evenodd" clip-rule="evenodd" d="M15.856 7.36909C16.2978 7.36909 16.656 7.00278 16.656 6.55091C16.656 6.09904 16.2978 5.73273 15.856 5.73273C15.4142 5.73273 15.056 6.09904 15.056 6.55091C15.056 7.00278 15.4142 7.36909 15.856 7.36909Z" fill="#00008C"/>
<path fill-rule="evenodd" clip-rule="evenodd" d="M12.896 11.1982H8.096C7.65417 11.1982 7.296 11.5645 7.296 12.0164C7.296 12.4682 7.65417 12.8345 8.096 12.8345H12.896C13.3378 12.8345 13.696 12.4682 13.696 12.0164C13.696 11.5645 13.3378 11.1982 12.896 11.1982Z" fill="#00008C"/>
<path fill-rule="evenodd" clip-rule="evenodd" d="M15.856 12.8345C16.2978 12.8345 16.656 12.4682 16.656 12.0164C16.656 11.5645 16.2978 11.1982 15.856 11.1982C15.4142 11.1982 15.056 11.5645 15.056 12.0164C15.056 12.4682 15.4142 12.8345 15.856 12.8345Z" fill="#00008C"/>
<path fill-rule="evenodd" clip-rule="evenodd" d="M12.896 16.6473H8.096C7.65417 16.6473 7.296 17.0136 7.296 17.4655C7.296 17.9173 7.65417 18.2836 8.096 18.2836H12.896C13.3378 18.2836 13.696 17.9173 13.696 17.4655C13.696 17.0136 13.3378 16.6473 12.896 16.6473Z" fill="#00008C"/>
<path fill-rule="evenodd" clip-rule="evenodd" d="M15.856 18.2836C16.2978 18.2836 16.656 17.9173 16.656 17.4655C16.656 17.0136 16.2978 16.6473 15.856 16.6473C15.4142 16.6473 15.056 17.0136 15.056 17.4655C15.056 17.9173 15.4142 18.2836 15.856 18.2836Z" fill="#00008C"/>
</svg>
