<svg width="24" height="24" viewBox="0 0 24 24" fill="none" xmlns="http://www.w3.org/2000/svg">
<path fill-rule="evenodd" clip-rule="evenodd" d="M8.41306 12.036C8.41306 10.0473 10.0158 8.43514 11.993 8.43514C13.9701 8.43514 15.5729 10.0473 15.5729 12.036C15.5729 14.0247 13.9701 15.6369 11.993 15.6369C10.0158 15.6369 8.41306 14.0247 8.41306 12.036ZM9.84502 12.036C9.84502 13.2292 10.8067 14.1965 11.993 14.1965C13.1792 14.1965 14.1409 13.2292 14.1409 12.036C14.1409 10.8428 13.1792 9.87548 11.993 9.87548C10.8067 9.87548 9.84502 10.8428 9.84502 12.036Z" fill="#00008C"/>
<path fill-rule="evenodd" clip-rule="evenodd" d="M19.7399 9.68823C20.4122 9.73185 20.9435 10.2787 20.9714 10.9557L21 13.073C20.9864 13.7322 20.5026 14.2857 19.8544 14.3838H18.8664C18.7706 14.6811 18.6508 14.9701 18.5084 15.248L19.1528 15.8961C19.5615 16.388 19.5615 17.1038 19.1528 17.5957L17.6778 19.1801C17.1863 19.5993 16.4654 19.5993 15.9738 19.1801L15.3008 18.5031C15.0186 18.644 14.7267 18.7644 14.4273 18.8632V19.785C14.3591 20.5143 13.7212 21.0533 12.9953 20.9949H11.0765C10.7151 21.0268 10.3566 20.9074 10.0856 20.6647C9.81454 20.4221 9.65499 20.0778 9.64455 19.713V18.8632C9.34519 18.7644 9.05328 18.644 8.77105 18.5031L8.15531 19.1369C7.65234 19.5984 6.88265 19.5984 6.37968 19.1369L4.94771 17.6965C4.48044 17.2267 4.43145 16.4814 4.83316 15.9537L5.49186 15.2624C5.35179 14.9785 5.23215 14.6849 5.13387 14.3838H4.26037C3.55298 14.3454 2.99922 13.7568 3.00025 13.0442V11.0422C2.98729 10.3595 3.48694 9.77622 4.16014 9.68823H5.10523C5.20352 9.38713 5.32315 9.09351 5.46322 8.80963L4.83316 8.19028C4.45411 7.74296 4.4133 7.09794 4.73292 6.6059L4.83316 6.47627L6.62311 4.83428C7.05876 4.55057 7.61942 4.55057 8.05507 4.83428L8.72809 5.49684C9.01032 5.35595 9.30224 5.23561 9.60159 5.13675V4.30135C9.60814 3.93403 9.766 3.58593 10.0375 3.34017C10.309 3.09441 10.6697 2.97304 11.0335 3.00504H12.981C13.6315 2.97207 14.2062 3.42719 14.3271 4.0709V5.10794C14.6264 5.2068 14.9183 5.32714 15.2006 5.46803L15.8163 4.83428C16.2541 4.46679 16.876 4.42046 17.3628 4.71905L17.506 4.83428L19.296 6.63471C19.5683 7.08408 19.5399 7.65524 19.2244 8.07505L18.4941 8.80963C18.6341 9.09351 18.7538 9.38713 18.8521 9.68823H19.7399ZM17.7208 12.9434H19.5394L19.5537 11.143H17.7638L17.6349 10.5957C17.4885 10.0716 17.2768 9.56828 17.0048 9.09769L16.7184 8.62238L17.9786 7.35488L16.6898 6.05857L15.4297 7.32607L14.9571 7.038C14.4803 6.76217 13.9701 6.54917 13.4392 6.40425L12.8951 6.27462V4.44539H11.0908V6.27462L10.561 6.36104C10.0252 6.50479 9.51016 6.71782 9.0288 6.99479L8.55626 7.28286L7.29613 6.01536L6.00736 7.31167L7.26749 8.57917L6.9811 9.05448C6.70574 9.53865 6.49395 10.0567 6.35104 10.5957L6.26512 11.1286H4.43221V12.9434H6.26512L6.35104 13.4763C6.49848 14.016 6.71509 14.5341 6.99542 15.0175L7.28181 15.4928L6.02168 16.7603L7.31045 18.0566L8.57058 16.7891L9.04312 17.0772C9.51998 17.353 10.0301 17.566 10.561 17.7109L11.0908 17.7974V19.6266H12.8521V17.8406L13.3963 17.7109C13.9272 17.566 14.4373 17.353 14.9142 17.0772L15.3867 16.7891L16.6468 18.0566L17.9356 16.7603L16.6755 15.4928L16.9619 15.0175C17.2361 14.5379 17.4479 14.0247 17.5919 13.4907L17.7208 12.9434Z" fill="#00008C"/>
</svg>
