<svg width="18" height="18" viewBox="0 0 18 18" fill="none" xmlns="http://www.w3.org/2000/svg">
<path fill-rule="evenodd" clip-rule="evenodd" d="M9 0C4.02944 0 0 4.02944 0 9C0 13.9706 4.02944 18 9 18C13.9706 18 18 13.9706 18 9C18 6.61305 17.0518 4.32387 15.364 2.63604C13.6761 0.948212 11.3869 0 9 0ZM9.75 12.855C9.75 13.2692 9.41421 13.605 9 13.605C8.58579 13.605 8.25 13.2692 8.25 12.855V8.355C8.25 7.94079 8.58579 7.605 9 7.605C9.41421 7.605 9.75 7.94079 9.75 8.355V12.855ZM9 6.33C8.46152 6.33 8.025 5.89348 8.025 5.355C8.025 4.81652 8.46152 4.38 9 4.38C9.53848 4.38 9.975 4.81652 9.975 5.355C9.975 5.89348 9.53848 6.33 9 6.33Z" fill="#00008C"/>
</svg>
