<svg width="24" height="24" viewBox="0 0 24 24" fill="none" xmlns="http://www.w3.org/2000/svg">
<path fill-rule="evenodd" clip-rule="evenodd" d="M17.3333 9.33333C18.8061 9.33333 20 8.13943 20 6.66667C20 5.19391 18.8061 4 17.3333 4C15.8606 4 14.6667 5.19391 14.6667 6.66667C14.6667 6.76139 14.6716 6.85496 14.6812 6.94713L8.83874 10.4526C8.35519 9.77508 7.56251 9.33333 6.66667 9.33333C5.19391 9.33333 4 10.5272 4 12C4 13.4728 5.19391 14.6667 6.66667 14.6667C7.56251 14.6667 8.35519 14.2249 8.83873 13.5474L14.6812 17.0529C14.6716 17.145 14.6667 17.2386 14.6667 17.3333C14.6667 18.8061 15.8606 20 17.3333 20C18.8061 20 20 18.8061 20 17.3333C20 15.8606 18.8061 14.6667 17.3333 14.6667C16.4375 14.6667 15.6448 15.1084 15.1613 15.786L9.31876 12.2805C9.32839 12.1883 9.33333 12.0947 9.33333 12C9.33333 11.9053 9.32839 11.8117 9.31876 11.7195L15.1613 8.21403C15.6448 8.89158 16.4375 9.33333 17.3333 9.33333ZM17.3333 8C18.0697 8 18.6667 7.40305 18.6667 6.66667C18.6667 5.93029 18.0697 5.33333 17.3333 5.33333C16.597 5.33333 16 5.93029 16 6.66667C16 7.40305 16.597 8 17.3333 8ZM18.6667 17.3333C18.6667 18.0697 18.0697 18.6667 17.3333 18.6667C16.597 18.6667 16 18.0697 16 17.3333C16 16.597 16.597 16 17.3333 16C18.0697 16 18.6667 16.597 18.6667 17.3333ZM6.66667 13.3333C7.40305 13.3333 8 12.7364 8 12C8 11.2636 7.40305 10.6667 6.66667 10.6667C5.93029 10.6667 5.33333 11.2636 5.33333 12C5.33333 12.7364 5.93029 13.3333 6.66667 13.3333Z" fill="#00008C"/>
</svg>
