<svg xmlns="http://www.w3.org/2000/svg" width="40" height="40" fill="none" viewBox="0 0 40 40">
    <path fill="#00008C" d="M28.717 8.186L25.44 5.75c-.459-.31-1.017-.437-1.566-.357-.548.08-1.046.363-1.397.792l-.566.74-1.553 2.087-8.628 11.444c-.17.23-.294.49-.368.765l-.69 3.102c-.135.525-.113 1.078.062 1.591.176.514.498.964.927 1.296.46.326 1.002.515 1.565.543.183.009.365.001.546-.022.366-.05.716-.182 1.022-.388l2.964-1.593c.268-.137.5-.334.681-.575l10.728-14.261c.28-.429.39-.947.306-1.452-.083-.505-.352-.961-.756-1.277zM24.23 7.8l2.85 2.116-1.076 1.319-.327-.247-2.469-1.855.608-.793.414-.54zm-9.95 17.286l-1.234-.909.166-.718.333-1.482.494.368 2.089 1.538-.165.22-1.682.983zm3.508-2.887l-.26-.205-2.037-1.607-.412-.326 6.796-9.049.385.284 2.089 1.537.398.293-6.96 9.073zM28.433 35.137c-.32 0-.636-.073-.924-.214-.535-.284-.957-.742-1.195-1.3-.2.253-.452.459-.738.607-.286.147-.6.233-.922.25-1.545.134-2.528-1.2-3.178-2.086l-.192-.262c-.035.047-.067.091-.094.133-.494.714-1.26 1.796-2.549 1.73-1.442-.082-1.728-1.483-1.79-2.53l-.247.321c-1.121 1.403-2.516 3.151-4.356 3.21-1.005.035-2.964-.987-4.24-2.249-.246-.24-.386-.57-.39-.913-.004-.344.13-.676.37-.922s.57-.386.913-.39c.344-.003.676.13.922.37.685.666 1.503 1.18 2.4 1.507.655-.104 1.714-1.43 2.356-2.223.86-1.076 1.538-1.928 2.437-2.205.251-.085.519-.109.78-.071.263.038.512.136.73.288.686.494.826 1.304.876 2.156.462-.597 1.074-1.188 2.008-1.126.987.07 1.592.88 2.168 1.662.238.357.513.688.82.988.08-.224.147-.452.2-.684.16-.632.343-1.349.884-1.892.183-.192.415-.33.67-.4.257-.07.527-.068.782.005.916.272 1.106 1.178 1.306 2.136.09.483.216.959.378 1.423.615-.313 1.106-.826 1.39-1.455.15-.299.41-.528.726-.64.315-.11.661-.096.966.042.305.137.545.387.67.698.124.31.124.657 0 .967-.57 1.242-1.562 2.242-2.801 2.818-.354.17-.743.256-1.136.251z"/>
</svg>
