<svg width="24" height="24" viewBox="0 0 24 24" fill="none" xmlns="http://www.w3.org/2000/svg">
<path fill-rule="evenodd" clip-rule="evenodd" d="M19.2727 6H15.3164V4.605C15.3164 4.17933 15.1524 3.77109 14.8605 3.47009C14.5686 3.1691 14.1728 3 13.76 3H10.24C9.38044 3 8.68364 3.71858 8.68364 4.605V6H4.72727C4.32561 6 4 6.33579 4 6.75C4 7.16421 4.32561 7.5 4.72727 7.5H5.45455V19.32C5.45455 20.2478 6.18391 21 7.08364 21H16.9164C17.8161 21 18.5455 20.2478 18.5455 19.32V7.5H19.2727C19.6744 7.5 20 7.16421 20 6.75C20 6.33579 19.6744 6 19.2727 6ZM10.1382 4.605C10.1382 4.54701 10.1838 4.5 10.24 4.5H13.76C13.787 4.5 13.8129 4.51106 13.832 4.53075C13.8511 4.55045 13.8618 4.57715 13.8618 4.605V6H10.1382V4.605ZM17.0909 19.32C17.0909 19.4194 17.0128 19.5 16.9164 19.5H7.08364C7.03734 19.5 6.99295 19.481 6.96021 19.4473C6.92748 19.4135 6.90909 19.3677 6.90909 19.32V7.5H17.0909V19.32Z" fill="#00008C"/>
<path fill-rule="evenodd" clip-rule="evenodd" d="M9.09091 9C8.68925 9 8.36364 9.33579 8.36364 9.75V17.25C8.36364 17.6642 8.68925 18 9.09091 18C9.49257 18 9.81818 17.6642 9.81818 17.25V9.75C9.81818 9.33579 9.49257 9 9.09091 9Z" fill="#00008C"/>
<path fill-rule="evenodd" clip-rule="evenodd" d="M12 9C11.5983 9 11.2727 9.33579 11.2727 9.75V17.25C11.2727 17.6642 11.5983 18 12 18C12.4017 18 12.7273 17.6642 12.7273 17.25V9.75C12.7273 9.33579 12.4017 9 12 9Z" fill="#00008C"/>
<path fill-rule="evenodd" clip-rule="evenodd" d="M14.1818 9.75V17.25C14.1818 17.6642 14.5074 18 14.9091 18C15.3108 18 15.6364 17.6642 15.6364 17.25V9.75C15.6364 9.33579 15.3108 9 14.9091 9C14.5074 9 14.1818 9.33579 14.1818 9.75Z" fill="#00008C"/>
</svg>
