<svg width="24" height="24" viewBox="0 0 24 24" fill="none" xmlns="http://www.w3.org/2000/svg">
<path fill-rule="evenodd" clip-rule="evenodd" d="M12 8.00005C11.8142 7.9977 11.636 8.07701 11.5095 8.21843L5.20318 14.7698C5.02795 14.9519 4.95951 15.2172 5.02365 15.4659C5.08779 15.7146 5.27477 15.9088 5.51414 15.9754C5.75352 16.0421 6.00893 15.971 6.18417 15.7889L12 9.76165L17.8158 15.7889C17.9911 15.971 18.2465 16.0421 18.4859 15.9754C18.7252 15.9088 18.9122 15.7146 18.9763 15.4659C19.0405 15.2172 18.9721 14.9519 18.7968 14.7698L12.4905 8.21843C12.364 8.07701 12.1858 7.9977 12 8.00005Z" fill="#00008C"/>
</svg>
