<svg width="20" height="21" viewBox="0 0 20 21" fill="none" xmlns="http://www.w3.org/2000/svg">
    <path d="M10.589 2.41a.833.833 0 0 0-1.179 0L5.243 6.578a.833.833 0 1 0 1.179 1.179l2.744-2.744V13a.833.833 0 0 0 1.667 0V5.012l2.744 2.744a.833.833 0 1 0 1.178-1.179L10.59 2.411z" fill="#fff"/>
    <path d="M3.333 13a.833.833 0 1 0-1.667 0v3.333a2.5 2.5 0 0 0 2.5 2.5h11.667a2.5 2.5 0 0 0 2.5-2.5V13a.833.833 0 1 0-1.667 0v3.333a.833.833 0 0 1-.833.834H4.166a.833.833 0 0 1-.833-.834V13z" fill="#fff"/>
</svg>
