<svg width="24" height="24" viewBox="0 0 24 24" fill="none" xmlns="http://www.w3.org/2000/svg">
<path fill-rule="evenodd" clip-rule="evenodd" d="M17.25 16.5475H6.75C6.33579 16.5475 6 16.8727 6 17.2738C6 17.6748 6.33579 18 6.75 18H17.25C17.6642 18 18 17.6748 18 17.2738C18 16.8727 17.6642 16.5475 17.25 16.5475Z" fill="#00008C"/>
<path fill-rule="evenodd" clip-rule="evenodd" d="M11.475 5.14542H11.58C11.6214 5.11143 11.6667 5.08219 11.715 5.05827C11.8965 4.98058 12.1035 4.98058 12.285 5.05827C12.3333 5.08219 12.3786 5.11143 12.42 5.14542H12.525L15.615 8.05041C15.8776 8.3331 15.8705 8.76404 15.5988 9.03854C15.3272 9.31304 14.8828 9.33819 14.58 9.09621L12.75 7.36774V14.3688C12.75 14.7699 12.4142 15.095 12 15.095C11.5858 15.095 11.25 14.7699 11.25 14.3688V7.36774L9.42 9.08168C9.11716 9.32366 8.67283 9.29851 8.40117 9.02401C8.1295 8.74951 8.12245 8.31858 8.385 8.03588L11.475 5.14542Z" fill="#00008C"/>
</svg>
