<svg width="24" height="24" viewBox="0 0 24 24" fill="none" xmlns="http://www.w3.org/2000/svg">
<g id="icon/ps/user management">
<path id="Shape" fill-rule="evenodd" clip-rule="evenodd" d="M11.8531 11.9844C12.0656 11.3906 12.3656 10.8438 12.7406 10.3531C12.5094 10.4469 12.2594 10.5 11.9969 10.5C10.8938 10.5 9.99687 9.60313 9.99687 8.5C9.99687 7.39687 10.8938 6.5 11.9969 6.5C13.1 6.5 13.9969 7.39687 13.9969 8.5C13.9969 8.7625 13.9438 9.0125 13.85 9.24375C14.3406 8.86875 14.8875 8.56562 15.4812 8.35625C15.4062 6.49063 13.8844 5 12 5C10.0656 5 8.5 6.56562 8.5 8.5C8.5 10.3844 9.99062 11.9062 11.8531 11.9844ZM5 11C6.38125 11 7.5 9.88125 7.5 8.5C7.5 7.11875 6.38125 6 5 6C3.61875 6 2.5 7.11875 2.5 8.5C2.5 9.88125 3.61875 11 5 11ZM5 7.5C5.55 7.5 6 7.95 6 8.5C6 9.05 5.55 9.5 5 9.5C4.45 9.5 4 9.05 4 8.5C4 7.95 4.45 7.5 5 7.5ZM12.6344 17.5H7.5V16.1C7.5 14.9625 8.4125 14.0312 9.54375 14C10.1875 14.2688 10.8531 14.425 11.525 14.475C11.5031 14.1844 11.4625 13.725 11.5969 12.9563C11.0719 12.9094 10.5625 12.8031 10.0969 12.6062C9.9375 12.5406 9.77187 12.5 9.6 12.5C7.6125 12.5 6 14.1125 6 16.1V17.5C6 18.3281 6.67188 19 7.5 19H14.1875C13.5813 18.5969 13.0562 18.0875 12.6344 17.5ZM6.8375 12.4469C6.41875 12.1656 5.91563 12 5.375 12H4.625C3.17813 12 2 13.1781 2 14.625C2 15.0375 2.3375 15.375 2.75 15.375C3.1625 15.375 3.5 15.0375 3.5 14.625C3.5 14.0063 4.00625 13.5 4.625 13.5H5.375C5.5125 13.5 5.64062 13.5344 5.75938 13.5781C6.05 13.1406 6.41875 12.7625 6.8375 12.4469ZM21.0781 14.6656C21.1594 14.225 21.1594 13.775 21.0781 13.3344L21.8844 12.8687C21.9781 12.8156 22.0187 12.7062 21.9875 12.6031C21.7781 11.9281 21.4188 11.3156 20.95 10.8094C20.8781 10.7312 20.7625 10.7125 20.6688 10.7656L19.8625 11.2312C19.5219 10.9406 19.1313 10.7156 18.7094 10.5656V9.63437C18.7094 9.52812 18.6344 9.43437 18.5312 9.4125C17.8344 9.25625 17.125 9.2625 16.4625 9.4125C16.3594 9.43437 16.2844 9.52812 16.2844 9.63437V10.5656C15.8625 10.7156 15.4719 10.9406 15.1312 11.2312L14.325 10.7656C14.2344 10.7125 14.1156 10.7312 14.0437 10.8094C13.575 11.3156 13.2156 11.9281 13.0062 12.6031C12.975 12.7062 13.0188 12.8156 13.1094 12.8687L13.9156 13.3344C13.8344 13.775 13.8344 14.225 13.9156 14.6656L13.1094 15.1313C13.0156 15.1844 12.975 15.2938 13.0062 15.3969C13.2156 16.0719 13.575 16.6812 14.0437 17.1906C14.1156 17.2687 14.2312 17.2875 14.325 17.2344L15.1312 16.7687C15.4719 17.0594 15.8625 17.2844 16.2844 17.4344V18.3656C16.2844 18.4719 16.3594 18.5656 16.4625 18.5875C17.1594 18.7437 17.8687 18.7375 18.5312 18.5875C18.6344 18.5656 18.7094 18.4719 18.7094 18.3656V17.4344C19.1313 17.2844 19.5219 17.0594 19.8625 16.7687L20.6688 17.2344C20.7594 17.2875 20.8781 17.2687 20.95 17.1906C21.4188 16.6844 21.7781 16.0719 21.9875 15.3969C22.0187 15.2938 21.975 15.1844 21.8844 15.1313L21.0781 14.6656ZM17.5 15.5156C16.6625 15.5156 15.9844 14.8344 15.9844 14C15.9844 13.1656 16.6656 12.4844 17.5 12.4844C18.3344 12.4844 19.0156 13.1656 19.0156 14C19.0156 14.8344 18.3375 15.5156 17.5 15.5156Z" fill="#00008C"/>
</g>
</svg>
