<svg width="40" height="40" viewBox="0 0 40 40" fill="none" xmlns="http://www.w3.org/2000/svg">
<path d="M17.0833 11.667C14.7821 11.667 12.9167 13.5325 12.9167 15.8337C12.9167 18.1348 14.7821 20.0003 17.0833 20.0003C19.3845 20.0003 21.25 18.1348 21.25 15.8337C21.25 13.5325 19.3845 11.667 17.0833 11.667ZM14.5833 15.8337C14.5833 14.4529 15.7026 13.3337 17.0833 13.3337C18.464 13.3337 19.5833 14.4529 19.5833 15.8337C19.5833 17.2144 18.464 18.3337 17.0833 18.3337C15.7026 18.3337 14.5833 17.2144 14.5833 15.8337Z" fill="#C6C8D0"/>
<path d="M14.1667 21.667C13.0616 21.667 12.0018 22.106 11.2204 22.8874C10.439 23.6688 10 24.7286 10 25.8337V27.5003C10 27.9606 10.3731 28.3337 10.8333 28.3337C11.2936 28.3337 11.6667 27.9606 11.6667 27.5003V25.8337C11.6667 25.1706 11.9301 24.5347 12.3989 24.0659C12.8677 23.5971 13.5036 23.3337 14.1667 23.3337H20C20.663 23.3337 21.2989 23.5971 21.7678 24.0659C22.2366 24.5347 22.5 25.1706 22.5 25.8337V27.5003C22.5 27.9606 22.8731 28.3337 23.3333 28.3337C23.7936 28.3337 24.1667 27.9606 24.1667 27.5003V25.8337C24.1667 24.7286 23.7277 23.6688 22.9463 22.8874C22.1649 22.106 21.1051 21.667 20 21.667H14.1667Z" fill="#C6C8D0"/>
<path d="M26.6667 15.8337C27.1269 15.8337 27.5 16.2068 27.5 16.667V18.3337H29.1667C29.6269 18.3337 30 18.7068 30 19.167C30 19.6272 29.6269 20.0003 29.1667 20.0003H27.5V21.667C27.5 22.1272 27.1269 22.5003 26.6667 22.5003C26.2064 22.5003 25.8333 22.1272 25.8333 21.667V20.0003H24.1667C23.7064 20.0003 23.3333 19.6272 23.3333 19.167C23.3333 18.7068 23.7064 18.3337 24.1667 18.3337H25.8333V16.667C25.8333 16.2068 26.2064 15.8337 26.6667 15.8337Z" fill="#C6C8D0"/>
<rect x="0.5" y="0.5" width="39" height="39" rx="19.5" stroke="#ECECEF"/>
</svg>
