<svg width="24" height="24" viewBox="0 0 24 24" fill="none" xmlns="http://www.w3.org/2000/svg">
<g id="icon/ps/user group">
<path id="Shape" fill-rule="evenodd" clip-rule="evenodd" d="M18.7455 10.9221C20.1018 10.9221 21.2004 9.81786 21.2004 8.45455C21.2004 7.09123 20.1018 5.98701 18.7455 5.98701C17.3891 5.98701 16.2905 7.09123 16.2905 8.45455C16.2905 9.81786 17.3891 10.9221 18.7455 10.9221ZM18.7455 7.46753C19.2855 7.46753 19.7274 7.91169 19.7274 8.45455C19.7274 8.9974 19.2855 9.44156 18.7455 9.44156C18.2054 9.44156 17.7635 8.9974 17.7635 8.45455C17.7635 7.91169 18.2054 7.46753 18.7455 7.46753ZM4.99786 10.9221C6.35421 10.9221 7.45279 9.81786 7.45279 8.45455C7.45279 7.09123 6.35421 5.98701 4.99786 5.98701C3.64151 5.98701 2.54293 7.09123 2.54293 8.45455C2.54293 9.81786 3.64151 10.9221 4.99786 10.9221ZM4.99786 7.46753C5.53795 7.46753 5.97983 7.91169 5.97983 8.45455C5.97983 8.9974 5.53795 9.44156 4.99786 9.44156C4.45778 9.44156 4.01589 8.9974 4.01589 8.45455C4.01589 7.91169 4.45778 7.46753 4.99786 7.46753ZM17.162 13.9726C16.3181 12.7141 14.6856 12.2453 13.2403 12.6864C12.8045 12.819 12.3473 12.893 11.8686 12.893C11.3899 12.893 10.9326 12.819 10.4969 12.6864C9.05156 12.2453 7.41903 12.711 6.57515 13.9726C6.19464 14.5401 5.9737 15.2218 5.9737 15.9558V17.3377C5.9737 18.155 6.63346 18.8182 7.44665 18.8182H16.2844C17.0976 18.8182 17.7573 18.155 17.7573 17.3377V15.9558C17.7635 15.2218 17.5425 14.5401 17.162 13.9726ZM16.2905 17.3377H7.45279V15.9558C7.45279 14.8331 8.34884 13.914 9.45969 13.8831C10.2422 14.2101 11.0523 14.3766 11.8717 14.3766C12.691 14.3766 13.5011 14.2101 14.2836 13.8831C15.3945 13.914 16.2905 14.83 16.2905 15.9558V17.3377ZM19.1137 11.9091H18.3772C17.8463 11.9091 17.3523 12.0726 16.9411 12.3502C17.3523 12.6617 17.7144 13.0349 17.9967 13.4667C18.1164 13.4235 18.2422 13.3896 18.3741 13.3896H19.1106C19.7182 13.3896 20.2153 13.8893 20.2153 14.5C20.2153 14.9071 20.5468 15.2403 20.9518 15.2403C21.3569 15.2403 21.6883 14.9071 21.6883 14.5C21.6914 13.0719 20.5345 11.9091 19.1137 11.9091ZM11.8717 11.9091C13.7712 11.9091 15.3086 10.3638 15.3086 8.45455C15.3086 6.54529 13.7712 5 11.8717 5C9.97216 5 8.43476 6.54529 8.43476 8.45455C8.43476 10.3638 9.97216 11.9091 11.8717 11.9091ZM11.8717 6.48052C12.9549 6.48052 13.8356 7.36575 13.8356 8.45455C13.8356 9.54334 12.9549 10.4286 11.8717 10.4286C10.7884 10.4286 9.90772 9.54334 9.90772 8.45455C9.90772 7.36575 10.7884 6.48052 11.8717 6.48052ZM6.80223 12.3502C6.39103 12.0726 5.89698 11.9091 5.3661 11.9091H4.62962C3.20883 11.9091 2.05195 13.0719 2.05195 14.5C2.05195 14.9071 2.38336 15.2403 2.78843 15.2403C3.19349 15.2403 3.52491 14.9071 3.52491 14.5C3.52491 13.8893 4.02203 13.3896 4.62962 13.3896H5.3661C5.50112 13.3896 5.62694 13.4235 5.74355 13.4667C6.02893 13.0349 6.39103 12.6617 6.80223 12.3502Z" fill="#00008C"/>
</g>
</svg>
