<svg width="24" height="24" viewBox="0 0 24 24" fill="none" xmlns="http://www.w3.org/2000/svg">
<path fill-rule="evenodd" clip-rule="evenodd" d="M12 15C13.6569 15 15 13.6569 15 12C15 10.3431 13.6569 9 12 9C10.3431 9 9 10.3431 9 12C9 13.6569 10.3431 15 12 15ZM12 14C10.8954 14 10 13.1046 10 12C10 10.8954 10.8954 10 12 10C13.1046 10 14 10.8954 14 12C14 13.1046 13.1046 14 12 14Z" fill="#00008C"/>
<path fill-rule="evenodd" clip-rule="evenodd" d="M19.6807 10.92C17.8184 8.30417 15.287 6 12 6C8.71296 6 6.18162 8.30417 4.31933 10.92C4.09158 11.3055 4 11.6503 4 12C4 12.3497 4.09158 12.6945 4.26795 13C6.18162 15.6958 8.71296 18 12 18C15.287 18 17.8184 15.6958 19.6807 13.08C19.9084 12.6945 20 12.3497 20 12C20 11.6503 19.9084 11.3055 19.7321 11L19.6807 10.92ZM18.866 11.5C18.9553 11.6547 19 11.8274 19 12C19 12.1726 18.9553 12.3453 18.866 12.5C17.2125 14.8227 15 17 12 17C9 17 6.78753 14.8227 5.13397 12.5C5.04466 12.3453 5 12.1726 5 12C5 11.8274 5.04466 11.6547 5.13397 11.5C6.78753 9.17734 9 7 12 7C15 7 17.2125 9.17734 18.866 11.5Z" fill="#00008C"/>
</svg>
