<svg width="24" height="24" viewBox="0 0 24 24" fill="none" xmlns="http://www.w3.org/2000/svg">
<path fill-rule="evenodd" clip-rule="evenodd" d="M12 4.635C16.0676 4.635 19.365 7.93242 19.365 12C19.365 16.0676 16.0676 19.365 12 19.365C7.93242 19.365 4.635 16.0676 4.635 12C4.635 7.93242 7.93242 4.635 12 4.635ZM12 3C7.02944 3 3 7.02944 3 12C3 16.9706 7.02944 21 12 21C16.9706 21 21 16.9706 21 12C21 7.02944 16.9706 3 12 3Z" fill="#00008C"/>
<path d="M12.75 15.855C12.75 16.2692 12.4142 16.605 12 16.605C11.5858 16.605 11.25 16.2692 11.25 15.855V11.355C11.25 10.9408 11.5858 10.605 12 10.605C12.4142 10.605 12.75 10.9408 12.75 11.355V15.855Z" fill="#00008C"/>
<path fill-rule="evenodd" clip-rule="evenodd" d="M12 9.345C12.5385 9.345 12.975 8.90848 12.975 8.37C12.975 7.83152 12.5385 7.395 12 7.395C11.4615 7.395 11.025 7.83152 11.025 8.37C11.025 8.90848 11.4615 9.345 12 9.345Z" fill="#00008C"/>
</svg>
